# 3ds Max Wavefront OBJ Exporter v0.97b - (c)2007 guruware
# File Created: 11.03.2014 12:18:10

mtllib bench.mtl

#
# object bench
#

v  -199.0000 34.2683 -25.0000
v  199.0000 34.2683 -25.0000
v  200.0000 34.2683 -24.0000
v  199.0000 34.2683 25.0000
v  200.0000 34.2683 24.0000
v  -199.0000 34.2683 25.0000
v  -200.0000 34.2683 24.0000
v  -200.0000 34.2683 -24.0000
v  199.0000 39.2683 24.0000
v  199.0000 39.2683 -24.0000
v  -199.0000 39.2683 -24.0000
v  -199.0000 39.2683 24.0000
v  -200.0000 38.2683 24.0000
v  -200.0000 38.2683 -24.0000
v  199.0000 38.2683 25.0000
v  -199.0000 38.2683 25.0000
v  200.0000 38.2683 -24.0000
v  200.0000 38.2683 24.0000
v  -199.0000 38.2683 -25.0000
v  199.0000 38.2683 -25.0000
v  190.1979 36.1399 -14.9418
v  190.1979 36.1399 -20.9418
v  190.1979 0.0000 -20.9418
v  190.1979 0.0000 -14.9418
v  196.1979 36.1399 -14.9418
v  196.1979 0.0000 -14.9418
v  196.1979 36.1399 -20.9418
v  196.1979 0.0000 -20.9418
v  190.1979 36.1399 21.4450
v  190.1979 36.1399 15.4450
v  190.1979 0.0000 15.4450
v  190.1979 0.0000 21.4450
v  196.1979 36.1399 21.4450
v  196.1979 0.0000 21.4450
v  196.1979 36.1399 15.4450
v  196.1979 0.0000 15.4450
v  63.9050 36.1399 -14.9418
v  63.9050 36.1399 -20.9418
v  63.9050 0.0000 -20.9418
v  63.9050 0.0000 -14.9418
v  69.9050 36.1399 -14.9418
v  69.9050 0.0000 -14.9418
v  69.9050 36.1399 -20.9418
v  69.9050 0.0000 -20.9418
v  63.9050 36.1399 21.4449
v  63.9050 36.1399 15.4449
v  63.9050 0.0000 15.4449
v  63.9050 0.0000 21.4449
v  69.9050 36.1399 21.4449
v  69.9050 0.0000 21.4449
v  69.9050 36.1399 15.4449
v  69.9050 0.0000 15.4449
v  -69.7737 36.1399 -14.9418
v  -69.7737 36.1399 -20.9418
v  -69.7737 0.0000 -20.9418
v  -69.7737 0.0000 -14.9418
v  -63.7737 36.1399 -14.9418
v  -63.7737 0.0000 -14.9418
v  -63.7737 36.1399 -20.9418
v  -63.7737 0.0000 -20.9418
v  -69.7737 36.1399 21.4449
v  -69.7737 36.1399 15.4449
v  -69.7737 0.0000 15.4449
v  -69.7737 0.0000 21.4449
v  -63.7737 36.1399 21.4449
v  -63.7737 0.0000 21.4449
v  -63.7737 36.1399 15.4449
v  -63.7737 0.0000 15.4449
v  -196.2176 36.1399 -14.9418
v  -196.2176 36.1399 -20.9418
v  -196.2176 0.0000 -20.9418
v  -196.2176 0.0000 -14.9418
v  -190.2176 36.1399 -14.9418
v  -190.2176 0.0000 -14.9418
v  -190.2176 36.1399 -20.9418
v  -190.2176 0.0000 -20.9418
v  -196.2176 36.1399 21.4449
v  -196.2176 36.1399 15.4449
v  -196.2176 0.0000 15.4449
v  -196.2176 0.0000 21.4449
v  -190.2176 36.1399 21.4449
v  -190.2176 0.0000 21.4449
v  -190.2176 36.1399 15.4449
v  -190.2176 0.0000 15.4449
# 84 vertices

vn 0.0000 -1.0000 -0.0000
vn 0.0000 1.0000 -0.0000
vn -1.0000 0.0000 -0.0000
vn -0.0000 0.0000 1.0000
vn 1.0000 0.0000 0.0000
vn 0.0000 0.0000 -1.0000
vn -0.5774 0.5774 -0.5774
vn -0.5774 0.5774 0.5774
vn 0.5774 0.5774 -0.5774
vn 0.5774 0.5774 0.5774
vn -0.7071 0.7071 -0.0000
vn -0.0000 0.7071 0.7071
vn 0.7071 0.7071 0.0000
vn 0.0000 0.7071 -0.7071
vn -0.7071 0.0000 0.7071
vn -0.7071 0.0000 -0.7071
vn 0.7071 0.0000 0.7071
vn 0.7071 0.0000 -0.7071
# 18 vertex normals

vt 0.1057 0.9439 0.0000
vt 0.1125 0.9439 0.0000
vt 0.1057 0.9480 0.0000
vt 0.1125 0.9480 0.0000
vt 0.1058 0.9439 0.0000
vt 0.1124 0.9439 0.0000
vt 0.1058 0.9480 0.0000
vt 0.1124 0.9480 0.0000
vt 0.1058 0.9439 0.0000
vt 0.1124 0.9439 0.0000
vt 0.1057 0.9491 0.0000
vt 0.1125 0.9491 0.0000
vt 0.1125 0.9439 0.0000
vt 0.1057 0.9439 0.0000
vt 0.1057 0.9439 0.0000
vt 0.1124 0.9491 0.0000
vt 0.1124 0.9439 0.0000
vt 0.1125 0.9439 0.0000
vt 0.1058 0.9491 0.0000
vt 0.1058 0.9439 0.0000
vt 0.1058 0.9439 0.0000
vt 0.1603 0.9620 0.0000
vt 0.1603 0.9620 0.0000
vt 0.1124 0.9439 0.0000
vt 0.1602 0.9620 0.0000
vt 0.1660 0.9620 0.0000
vt 0.1057 0.9480 0.0000
vt 0.1058 0.9491 0.0000
vt 0.1124 0.9480 0.0000
vt 0.1659 0.9620 0.0000
vt 0.1659 0.9620 0.0000
vt 0.1058 0.9480 0.0000
vt 0.1124 0.9491 0.0000
vt 0.1125 0.9480 0.0000
vt 0.1602 0.9658 0.0000
vt 0.1603 0.9658 0.0000
vt 0.1603 0.9659 0.0000
vt 0.1659 0.9659 0.0000
vt 0.1659 0.9658 0.0000
vt 0.1660 0.9658 0.0000
vt 0.1659 0.9620 0.0000
vt 0.1660 0.9620 0.0000
vt 0.1602 0.9620 0.0000
vt 0.1603 0.9620 0.0000
vt 0.1660 0.9658 0.0000
vt 0.1659 0.9659 0.0000
vt 0.1603 0.9659 0.0000
vt 0.1602 0.9658 0.0000
vt 0.2112 0.9595 0.0000
vt 0.2167 0.9595 0.0000
vt 0.2112 0.9728 0.0000
vt 0.2167 0.9728 0.0000
vt 0.2112 0.9595 0.0000
vt 0.2167 0.9595 0.0000
vt 0.2112 0.9728 0.0000
vt 0.2167 0.9728 0.0000
vt 0.2112 0.9595 0.0000
vt 0.2167 0.9595 0.0000
vt 0.2112 0.9728 0.0000
vt 0.2167 0.9728 0.0000
vt 0.2112 0.9595 0.0000
vt 0.2167 0.9595 0.0000
vt 0.2112 0.9728 0.0000
vt 0.2167 0.9728 0.0000
vt 0.2112 0.9595 0.0000
vt 0.2167 0.9595 0.0000
vt 0.2112 0.9728 0.0000
vt 0.2167 0.9728 0.0000
vt 0.2112 0.9595 0.0000
vt 0.2167 0.9595 0.0000
vt 0.2112 0.9728 0.0000
vt 0.2167 0.9728 0.0000
vt 0.2112 0.9595 0.0000
vt 0.2167 0.9595 0.0000
vt 0.2112 0.9728 0.0000
vt 0.2167 0.9728 0.0000
vt 0.2112 0.9595 0.0000
vt 0.2167 0.9595 0.0000
vt 0.2112 0.9728 0.0000
vt 0.2167 0.9728 0.0000
vt 0.2112 0.9595 0.0000
vt 0.2167 0.9595 0.0000
vt 0.2112 0.9728 0.0000
vt 0.2167 0.9728 0.0000
vt 0.2112 0.9595 0.0000
vt 0.2167 0.9595 0.0000
vt 0.2112 0.9728 0.0000
vt 0.2167 0.9728 0.0000
vt 0.2112 0.9595 0.0000
vt 0.2167 0.9595 0.0000
vt 0.2112 0.9728 0.0000
vt 0.2167 0.9728 0.0000
vt 0.2112 0.9595 0.0000
vt 0.2167 0.9595 0.0000
vt 0.2112 0.9728 0.0000
vt 0.2167 0.9728 0.0000
vt 0.2112 0.9595 0.0000
vt 0.2167 0.9595 0.0000
vt 0.2112 0.9728 0.0000
vt 0.2167 0.9728 0.0000
vt 0.2112 0.9595 0.0000
vt 0.2167 0.9595 0.0000
vt 0.2112 0.9728 0.0000
vt 0.2167 0.9728 0.0000
vt 0.2112 0.9595 0.0000
vt 0.2167 0.9595 0.0000
vt 0.2112 0.9728 0.0000
vt 0.2167 0.9728 0.0000
vt 0.2112 0.9595 0.0000
vt 0.2167 0.9595 0.0000
vt 0.2112 0.9728 0.0000
vt 0.2167 0.9728 0.0000
# 112 texture coords

g bench
usemtl PAOBJS
s 2
f 1/13/1 2/12/1 3/16/1 4/11/1 
f 3/16/1 5/19/1 4/11/1 
f 4/11/1 6/14/1 7/9/1 1/13/1 
f 8/10/1 1/13/1 7/9/1 
s 4
f 9/33/2 10/28/2 11/21/2 12/24/2 
s 8
f 13/8/3 14/7/3 8/5/3 7/6/3 
s 16
f 15/34/4 16/3/4 6/1/4 4/18/4 
s 32
f 17/29/5 18/32/5 5/20/5 3/17/5 
s 64
f 19/4/6 20/27/6 2/15/6 1/2/6 
s off
f 14/22/7 11/23/7 19/25/7 
f 16/26/8 12/30/8 13/31/8 
f 20/35/9 10/36/9 17/37/9 
f 18/38/10 9/39/10 15/40/10 
f 11/23/11 14/22/11 13/31/11 12/30/11 
f 12/30/12 16/26/12 15/40/12 9/39/12 
f 9/39/13 18/38/13 17/37/13 10/36/13 
f 10/36/14 20/35/14 19/25/14 11/23/14 
f 7/41/15 6/42/15 16/26/15 13/31/15 
f 14/22/16 19/25/16 1/43/16 8/44/16 
f 4/45/17 5/46/17 18/38/17 15/40/17 
f 3/47/18 2/48/18 20/35/18 17/37/18 
s 8
f 21/56/3 22/55/3 23/53/3 24/54/3 
s 16
f 25/52/4 21/51/4 24/49/4 26/50/4 
s 32
f 27/56/5 25/55/5 26/53/5 28/54/5 
s 64
f 22/52/6 27/51/6 28/49/6 23/50/6 
s 8
f 29/64/3 30/63/3 31/61/3 32/62/3 
s 16
f 33/60/4 29/59/4 32/57/4 34/58/4 
s 32
f 35/64/5 33/63/5 34/61/5 36/62/5 
s 64
f 30/60/6 35/59/6 36/57/6 31/58/6 
s 8
f 37/72/3 38/71/3 39/69/3 40/70/3 
s 16
f 41/68/4 37/67/4 40/65/4 42/66/4 
s 32
f 43/72/5 41/71/5 42/69/5 44/70/5 
s 64
f 38/68/6 43/67/6 44/65/6 39/66/6 
s 8
f 45/80/3 46/79/3 47/77/3 48/78/3 
s 16
f 49/76/4 45/75/4 48/73/4 50/74/4 
s 32
f 51/80/5 49/79/5 50/77/5 52/78/5 
s 64
f 46/76/6 51/75/6 52/73/6 47/74/6 
s 8
f 53/88/3 54/87/3 55/85/3 56/86/3 
s 16
f 57/84/4 53/83/4 56/81/4 58/82/4 
s 32
f 59/88/5 57/87/5 58/85/5 60/86/5 
s 64
f 54/84/6 59/83/6 60/81/6 55/82/6 
s 8
f 61/96/3 62/95/3 63/93/3 64/94/3 
s 16
f 65/92/4 61/91/4 64/89/4 66/90/4 
s 32
f 67/96/5 65/95/5 66/93/5 68/94/5 
s 64
f 62/92/6 67/91/6 68/89/6 63/90/6 
s 8
f 69/104/3 70/103/3 71/101/3 72/102/3 
s 16
f 73/100/4 69/99/4 72/97/4 74/98/4 
s 32
f 75/104/5 73/103/5 74/101/5 76/102/5 
s 64
f 70/100/6 75/99/6 76/97/6 71/98/6 
s 8
f 77/112/3 78/111/3 79/109/3 80/110/3 
s 16
f 81/108/4 77/107/4 80/105/4 82/106/4 
s 32
f 83/112/5 81/111/5 82/109/5 84/110/5 
s 64
f 78/108/6 83/107/6 84/105/6 79/106/6 
# 47 polygons - 6 triangles

