# 3ds Max Wavefront OBJ Exporter v0.97b - (c)2007 guruware
# File Created: 16.03.2016 13:23:53

#
# object box
#

v  41.6612 96.3341 1.0000
v  -41.6612 96.3341 1.0000
v  -41.6612 96.3341 19.8306
v  41.6612 96.3341 19.8306
v  -49.1020 100.0000 49.1020
v  49.1020 100.0000 49.1020
v  42.3683 100.0000 42.3683
v  -42.3683 100.0000 42.3683
v  49.1020 100.0000 -49.1020
v  42.3683 100.0000 -42.3683
v  -49.1020 100.0000 -49.1020
v  -42.3683 100.0000 -42.3683
v  -41.6612 99.0000 41.6612
v  41.6612 99.0000 41.6612
v  41.6612 95.3341 41.6612
v  -41.6612 95.3341 41.6612
v  41.6612 99.0000 -41.6612
v  41.6612 95.3341 -41.6612
v  -41.6612 99.0000 -41.6612
v  -41.6612 95.3341 -41.6612
v  41.6612 96.3341 -40.6612
v  -41.6612 96.3341 -40.6612
v  -41.6612 96.3341 -21.8306
v  41.6612 96.3341 -21.8306
v  41.6612 96.3341 -19.8306
v  -41.6612 96.3341 -19.8306
v  -41.6612 96.3341 -1.0000
v  41.6612 96.3341 -1.0000
v  -41.6612 96.3341 40.6612
v  41.6612 96.3341 40.6612
v  41.6612 96.3341 21.8306
v  -41.6612 96.3341 21.8306
v  41.6612 95.3341 0.0000
v  -41.6612 95.3341 0.0000
v  -41.6612 95.3341 20.8306
v  41.6612 95.3341 20.8306
v  -41.6612 95.3341 -20.8306
v  41.6612 95.3341 -20.8306
v  41.6612 49.0000 46.3341
v  -41.6612 49.0000 46.3341
v  -41.6612 30.1694 46.3341
v  41.6612 30.1694 46.3341
v  -48.7300 -0.0000 50.0000
v  48.7300 -0.0000 50.0000
v  49.1020 0.8980 50.0000
v  42.3683 7.6317 50.0000
v  -42.3683 7.6317 50.0000
v  -49.1020 0.8980 50.0000
v  49.1020 99.1020 50.0000
v  42.3683 92.3683 50.0000
v  -49.1020 99.1020 50.0000
v  -42.3683 92.3683 50.0000
v  -41.6612 8.3388 49.0000
v  41.6612 8.3388 49.0000
v  41.6612 8.3388 45.3341
v  -41.6612 8.3388 45.3341
v  41.6612 91.6612 49.0000
v  41.6612 91.6612 45.3341
v  -41.6612 91.6612 49.0000
v  -41.6612 91.6612 45.3341
v  41.6612 90.6612 46.3341
v  -41.6612 90.6612 46.3341
v  -41.6612 71.8306 46.3341
v  41.6612 71.8306 46.3341
v  41.6612 69.8306 46.3341
v  -41.6612 69.8306 46.3341
v  -41.6612 51.0000 46.3341
v  41.6612 51.0000 46.3341
v  -41.6612 9.3388 46.3341
v  41.6612 9.3388 46.3341
v  41.6612 28.1694 46.3341
v  -41.6612 28.1694 46.3341
v  41.6612 50.0000 45.3341
v  -41.6612 50.0000 45.3341
v  -41.6612 29.1694 45.3341
v  41.6612 29.1694 45.3341
v  -41.6612 70.8306 45.3341
v  41.6612 70.8306 45.3341
v  36.9525 97.9834 46.3349
v  -48.3102 12.7207 46.3333
v  -48.3102 12.7207 47.2558
v  36.9525 97.9831 47.2575
v  47.9834 86.9523 47.2539
v  -37.2793 1.6898 47.2556
v  -37.2793 1.6898 46.3330
v  47.9834 86.9525 46.3314
v  37.3131 97.6224 47.7673
v  -47.9496 12.3600 47.7658
v  -37.6399 2.0504 47.7656
v  47.6227 87.3127 47.7641
v  46.3341 49.0000 41.6612
v  46.3341 30.1694 41.6612
v  46.3341 30.1694 -41.6612
v  46.3341 49.0000 -41.6612
v  50.0000 0.8980 -49.1020
v  50.0000 7.6317 -42.3683
v  50.0000 7.6317 42.3683
v  50.0000 -0.0000 48.7300
v  50.0000 0.8980 49.1020
v  50.0000 -0.0000 -48.7300
v  50.0000 92.3683 42.3683
v  50.0000 99.1020 49.1020
v  50.0000 92.3683 -42.3683
v  50.0000 99.1020 -49.1020
v  49.0000 8.3388 -41.6612
v  45.3341 8.3388 -41.6612
v  45.3341 8.3388 41.6612
v  49.0000 8.3388 41.6612
v  45.3341 91.6612 41.6612
v  49.0000 91.6612 41.6612
v  45.3341 91.6612 -41.6612
v  49.0000 91.6612 -41.6612
v  46.3341 90.6612 41.6612
v  46.3341 71.8306 41.6612
v  46.3341 71.8306 -41.6612
v  46.3341 90.6612 -41.6612
v  46.3341 69.8306 41.6612
v  46.3341 51.0000 41.6612
v  46.3341 51.0000 -41.6612
v  46.3341 69.8306 -41.6612
v  46.3341 9.3388 -41.6612
v  46.3341 28.1694 -41.6612
v  46.3341 28.1694 41.6612
v  46.3341 9.3388 41.6612
v  45.3341 50.0000 41.6612
v  45.3341 50.0000 -41.6612
v  45.3341 29.1694 -41.6612
v  45.3341 29.1694 41.6612
v  45.3341 70.8306 -41.6612
v  45.3341 70.8306 41.6612
v  46.3349 97.9834 36.9525
v  47.2575 97.9831 36.9525
v  47.2558 12.7207 -48.3102
v  46.3333 12.7207 -48.3102
v  47.2539 86.9523 47.9834
v  46.3314 86.9525 47.9834
v  46.3330 1.6898 -37.2793
v  47.2556 1.6898 -37.2793
v  47.7673 97.6224 37.3131
v  47.7641 87.3127 47.6227
v  47.7656 2.0504 -37.6399
v  47.7658 12.3600 -47.9496
v  -46.3341 49.0000 -41.6612
v  -46.3341 30.1694 -41.6612
v  -46.3341 30.1694 41.6612
v  -46.3341 49.0000 41.6612
v  -50.0000 0.8980 49.1020
v  -50.0000 7.6317 42.3683
v  -50.0000 7.6317 -42.3683
v  -50.0000 -0.0000 -48.7300
v  -50.0000 0.8980 -49.1020
v  -50.0000 -0.0000 48.7300
v  -50.0000 92.3683 -42.3683
v  -50.0000 99.1020 -49.1020
v  -50.0000 92.3683 42.3683
v  -50.0000 99.1020 49.1020
v  -49.0000 8.3388 41.6612
v  -45.3341 8.3388 41.6612
v  -45.3341 8.3388 -41.6612
v  -49.0000 8.3388 -41.6612
v  -45.3341 91.6612 -41.6612
v  -49.0000 91.6612 -41.6612
v  -45.3341 91.6612 41.6612
v  -49.0000 91.6612 41.6612
v  -46.3341 90.6612 -41.6612
v  -46.3341 71.8306 -41.6612
v  -46.3341 71.8306 41.6612
v  -46.3341 90.6612 41.6612
v  -46.3341 69.8306 -41.6612
v  -46.3341 51.0000 -41.6612
v  -46.3341 51.0000 41.6612
v  -46.3341 69.8306 41.6612
v  -46.3341 9.3388 41.6612
v  -46.3341 28.1694 41.6612
v  -46.3341 28.1694 -41.6612
v  -46.3341 9.3388 -41.6612
v  -45.3341 50.0000 -41.6612
v  -45.3341 50.0000 41.6612
v  -45.3341 29.1694 41.6612
v  -45.3341 29.1694 -41.6612
v  -45.3341 70.8306 41.6612
v  -45.3341 70.8306 -41.6612
v  -46.3349 97.9834 -36.9525
v  -47.2575 97.9831 -36.9525
v  -47.2558 12.7207 48.3102
v  -46.3333 12.7207 48.3102
v  -47.2539 86.9523 -47.9834
v  -46.3314 86.9525 -47.9834
v  -46.3330 1.6898 37.2793
v  -47.2556 1.6898 37.2793
v  -47.7673 97.6224 -37.3131
v  -47.7641 87.3127 -47.6227
v  -47.7656 2.0504 37.6399
v  -47.7658 12.3600 47.9496
v  -41.6612 49.0000 -46.3341
v  41.6612 49.0000 -46.3341
v  41.6612 30.1694 -46.3341
v  -41.6612 30.1694 -46.3341
v  48.7300 -0.0000 -50.0000
v  -48.7300 -0.0000 -50.0000
v  -49.1020 0.8980 -50.0000
v  -42.3683 7.6317 -50.0000
v  42.3683 7.6317 -50.0000
v  49.1020 0.8980 -50.0000
v  -49.1020 99.1020 -50.0000
v  -42.3683 92.3683 -50.0000
v  49.1020 99.1020 -50.0000
v  42.3683 92.3683 -50.0000
v  41.6612 8.3388 -49.0000
v  -41.6612 8.3388 -49.0000
v  -41.6612 8.3388 -45.3341
v  41.6612 8.3388 -45.3341
v  -41.6612 91.6612 -49.0000
v  -41.6612 91.6612 -45.3341
v  41.6612 91.6612 -49.0000
v  41.6612 91.6612 -45.3341
v  -41.6612 90.6612 -46.3341
v  41.6612 90.6612 -46.3341
v  41.6612 71.8306 -46.3341
v  -41.6612 71.8306 -46.3341
v  -41.6612 69.8306 -46.3341
v  41.6612 69.8306 -46.3341
v  41.6612 51.0000 -46.3341
v  -41.6612 51.0000 -46.3341
v  41.6612 9.3388 -46.3341
v  -41.6612 9.3388 -46.3341
v  -41.6612 28.1694 -46.3341
v  41.6612 28.1694 -46.3341
v  -41.6612 50.0000 -45.3341
v  41.6612 50.0000 -45.3341
v  41.6612 29.1694 -45.3341
v  -41.6612 29.1694 -45.3341
v  41.6612 70.8306 -45.3341
v  -41.6612 70.8306 -45.3341
v  -36.9525 97.9834 -46.3349
v  48.3102 12.7207 -46.3333
v  48.3102 12.7207 -47.2558
v  -36.9525 97.9831 -47.2575
v  -47.9834 86.9523 -47.2539
v  37.2793 1.6898 -47.2556
v  37.2793 1.6898 -46.3330
v  -47.9834 86.9525 -46.3314
v  -37.3131 97.6224 -47.7673
v  47.9496 12.3600 -47.7658
v  37.6399 2.0504 -47.7656
v  -47.6227 87.3127 -47.7641
# 246 vertices

vn 0.0000 1.0000 -0.0000
vn 0.0000 0.0000 -1.0000
vn -1.0000 0.0000 -0.0000
vn 0.0000 0.0000 1.0000
vn 1.0000 0.0000 -0.0000
vn 0.0000 0.7071 -0.7071
vn 0.0000 0.7071 0.7071
vn -0.0000 0.7071 -0.7071
vn 0.0000 0.5774 -0.8165
vn -0.8165 0.5774 -0.0000
vn 0.0000 0.5774 0.8165
vn 0.8165 0.5774 -0.0000
vn -0.0000 -0.0000 1.0000
vn 0.0000 -0.0000 1.0000
vn 0.0000 -1.0000 -0.0000
vn 0.0000 -0.7071 0.7071
vn -0.0000 0.7071 0.7071
vn 0.0000 0.8165 0.5774
vn -0.8165 0.0000 0.5774
vn 0.0000 -0.8165 0.5774
vn 0.8165 0.0000 0.5774
vn -0.7071 0.7071 0.0002
vn -0.7071 0.7071 0.0000
vn 0.7071 -0.7071 -0.0002
vn 0.7071 -0.7071 -0.0000
vn 0.0002 -0.0001 1.0000
vn 0.0002 -0.0002 1.0000
vn -0.4999 0.4999 0.7072
vn 0.5001 -0.5001 0.7070
vn 0.7071 0.7071 -0.0000
vn 0.7071 -0.7071 0.0000
vn 0.5774 0.8165 -0.0000
vn 0.5774 0.0000 -0.8165
vn 0.5774 -0.8165 -0.0000
vn 0.5774 0.0000 0.8165
vn 0.0002 0.7071 -0.7071
vn -0.0002 -0.7071 0.7071
vn -0.0000 -0.7071 0.7071
vn 1.0000 -0.0001 0.0002
vn 1.0000 -0.0002 0.0002
vn 1.0000 -0.0000 0.0000
vn 0.7072 0.4999 -0.4999
vn 0.7070 -0.5001 0.5001
vn -0.7071 0.7071 -0.0000
vn -0.7071 -0.7071 -0.0000
vn -0.5774 0.8165 -0.0000
vn -0.5774 0.0000 0.8165
vn -0.5774 -0.8165 -0.0000
vn -0.5774 0.0000 -0.8165
vn -0.0002 0.7071 0.7071
vn 0.0002 -0.7071 -0.7071
vn 0.0000 -0.7071 -0.7071
vn -1.0000 -0.0001 -0.0002
vn -1.0000 -0.0002 -0.0002
vn -1.0000 -0.0000 -0.0000
vn -0.7072 0.4999 0.4999
vn -0.7070 -0.5001 -0.5001
vn -0.0000 -0.0000 -1.0000
vn -0.0000 0.0000 -1.0000
vn 0.0000 -0.0000 -1.0000
vn -0.0000 -0.7071 -0.7071
vn -0.0000 0.8165 -0.5774
vn 0.8165 -0.0000 -0.5774
vn -0.0000 -0.8165 -0.5774
vn -0.8165 -0.0000 -0.5774
vn 0.7071 0.7071 -0.0002
vn -0.7071 -0.7071 0.0002
vn -0.7071 -0.7071 0.0000
vn -0.0002 -0.0001 -1.0000
vn -0.0002 -0.0002 -1.0000
vn 0.4999 0.4999 -0.7072
vn -0.5001 -0.5001 -0.7070
vn -0.5774 0.5774 0.5774
vn -0.5774 0.5774 -0.5774
vn 0.5774 0.5774 0.5774
vn 0.6786 -0.2811 0.6786
vn 0.5774 0.5774 -0.5774
vn -0.6786 -0.2811 0.6786
vn 0.6786 -0.2811 -0.6786
vn -0.6786 -0.2811 -0.6786
vn 0.7071 -0.0000 0.7071
vn -0.7071 -0.0000 0.7071
vn 0.7071 -0.0000 -0.7071
vn -0.7071 0.0000 -0.7071
# 84 vertex normals

vt 0.1800 0.7350 0.0000
vt 0.1663 0.7350 0.0000
vt 0.1663 0.7319 0.0000
vt 0.1800 0.7319 0.0000
vt 0.1650 0.7270 0.0000
vt 0.1813 0.7270 0.0000
vt 0.1802 0.7281 0.0000
vt 0.1661 0.7281 0.0000
vt 0.1813 0.7433 0.0000
vt 0.1802 0.7422 0.0000
vt 0.1650 0.7433 0.0000
vt 0.1661 0.7422 0.0000
vt 0.1631 0.6802 0.0000
vt 0.1808 0.6802 0.0000
vt 0.1808 0.6643 0.0000
vt 0.1631 0.6643 0.0000
vt 0.1778 0.6783 0.0000
vt 0.1643 0.6783 0.0000
vt 0.1643 0.6656 0.0000
vt 0.1778 0.6656 0.0000
vt 0.1800 0.7419 0.0000
vt 0.1663 0.7419 0.0000
vt 0.1663 0.7388 0.0000
vt 0.1800 0.7388 0.0000
vt 0.1800 0.7384 0.0000
vt 0.1663 0.7384 0.0000
vt 0.1663 0.7353 0.0000
vt 0.1800 0.7353 0.0000
vt 0.1663 0.7284 0.0000
vt 0.1800 0.7284 0.0000
vt 0.1800 0.7315 0.0000
vt 0.1663 0.7315 0.0000
vt 0.1631 0.6715 0.0000
vt 0.1808 0.6715 0.0000
vt 0.1663 0.7283 0.0000
vt 0.1800 0.7283 0.0000
vt 0.1800 0.7420 0.0000
vt 0.1663 0.7420 0.0000
vt 0.1651 0.7269 0.0000
vt 0.1812 0.7269 0.0000
vt 0.1790 0.6804 0.9983
vt 0.1649 0.6804 0.1129
vt 0.1649 0.6639 0.1129
vt 0.1790 0.6639 0.9983
vt 0.1789 0.6638 0.8837
vt 0.1648 0.6638 -0.0017
vt 0.1648 0.6803 -0.0017
vt 0.1789 0.6803 0.8837
vt 0.1789 0.7417 0.0000
vt 0.1662 0.7417 0.0000
vt 0.1662 0.7291 0.0000
vt 0.1789 0.7291 0.0000
vt 0.1662 0.7421 0.0000
vt 0.1789 0.7421 0.0000
vt 0.1789 0.7286 0.0000
vt 0.1662 0.7286 0.0000
vt 0.1648 0.7434 0.0000
vt 0.1648 0.7432 0.0000
vt 0.1811 0.7434 0.0000
vt 0.1811 0.7432 0.0000
vt 0.1814 0.7272 0.0000
vt 0.1814 0.7271 0.0000
vt 0.1649 0.7269 0.0000
vt 0.1649 0.7267 0.0000
vt 0.1650 0.7435 0.0000
vt 0.1813 0.7435 0.0000
vt 0.1813 0.7431 0.0000
vt 0.1650 0.7431 0.0000
vt 0.1811 0.7270 0.0000
vt 0.1811 0.7433 0.0000
vt 0.1813 0.7268 0.0000
vt 0.1650 0.7268 0.0000
vt 0.1652 0.7433 0.0000
vt 0.1652 0.7270 0.0000
vt 0.1815 0.7433 0.0000
vt 0.1815 0.7270 0.0000
vt 0.1648 0.7270 0.0000
vt 0.1648 0.7433 0.0000
# 78 texture coords

g box
f 1/1/1 2/2/1 3/3/1 4/4/1 
f 5/5/1 6/6/1 7/7/1 8/8/1 
f 6/6/1 9/9/1 10/10/1 7/7/1 
f 9/9/1 11/11/1 12/12/1 10/10/1 
f 11/11/1 5/5/1 8/8/1 12/12/1 
f 13/13/2 14/14/2 15/15/2 16/16/2 
f 14/14/3 17/14/3 18/15/3 15/15/3 
f 17/14/4 19/13/4 20/16/4 18/15/4 
f 19/17/5 13/18/5 16/19/5 20/20/5 
f 21/21/1 22/22/1 23/23/1 24/24/1 
f 25/25/1 26/26/1 27/27/1 28/28/1 
f 29/29/1 30/30/1 31/31/1 32/32/1 
f 33/15/6 34/16/6 2/33/6 1/34/6 
f 35/16/7 36/15/7 4/34/7 3/33/7 
f 18/15/6 20/16/6 22/33/6 21/34/6 
f 37/16/7 38/15/7 24/34/7 23/33/7 
f 38/15/8 37/16/8 26/33/8 25/34/8 
f 34/16/7 33/15/7 28/34/7 27/33/7 
f 16/16/7 15/15/7 30/34/7 29/33/7 
f 36/15/8 35/16/8 32/33/8 31/34/8 
f 13/35/9 8/8/9 7/7/9 14/36/9 
f 14/36/10 7/7/10 10/10/10 17/37/10 
f 17/37/11 10/10/11 12/12/11 19/38/11 
f 19/38/12 12/12/12 8/8/12 13/35/12 
f 39/1/4 40/2/4 41/3/4 42/4/4 
f 43/39/4 44/40/4 45/6/4 46/7/4 
f 43/39/4 46/7/4 47/8/4 48/5/4 
f 45/6/13 49/9/13 50/10/13 46/7/13 
f 49/9/14 51/11/14 52/12/14 50/10/14 
f 51/11/14 48/5/14 47/8/14 52/12/14 
f 53/13/1 54/14/1 55/15/1 56/16/1 
f 54/14/3 57/14/3 58/15/3 55/15/3 
f 57/14/15 59/13/15 60/16/15 58/15/15 
f 59/17/5 53/18/5 56/19/5 60/20/5 
f 61/21/4 62/22/4 63/23/4 64/24/4 
f 65/25/4 66/26/4 67/27/4 68/28/4 
f 69/29/4 70/30/4 71/31/4 72/32/4 
f 73/15/7 74/16/7 40/33/7 39/34/7 
f 75/16/16 76/15/16 42/34/16 41/33/16 
f 58/15/7 60/16/7 62/33/7 61/34/7 
f 77/16/16 78/15/16 64/34/16 63/33/16 
f 78/15/7 77/16/7 66/33/7 65/34/7 
f 74/16/16 73/15/16 68/34/16 67/33/16 
f 56/16/16 55/15/16 70/34/16 69/33/16 
f 76/15/17 75/16/17 72/33/17 71/34/17 
f 53/35/18 47/8/18 46/7/18 54/36/18 
f 54/36/19 46/7/19 50/10/19 57/37/19 
f 57/37/20 50/10/20 52/12/20 59/38/20 
f 59/38/21 52/12/21 47/8/21 53/35/21 
f 79/41/22 80/42/23 81/43/23 82/44/22 
f 83/45/24 84/46/25 85/47/25 86/48/24 
f 87/49/26 88/50/14 89/51/14 90/52/27 
f 81/53/28 88/50/28 87/49/28 82/54/28 
f 83/55/29 90/52/29 89/51/29 84/56/29 
f 91/1/5 92/4/5 93/3/5 94/2/5 
f 95/5/5 96/8/5 97/7/5 98/40/5 
f 97/7/5 99/6/5 98/40/5 
f 100/39/5 95/5/5 98/40/5 
f 99/6/5 97/7/5 101/10/5 102/9/5 
f 102/9/5 101/10/5 103/12/5 104/11/5 
f 104/11/5 103/12/5 96/8/5 95/5/5 
f 105/13/1 106/16/1 107/15/1 108/14/1 
f 108/14/2 107/15/2 109/15/2 110/14/2 
f 110/14/15 109/15/15 111/16/15 112/13/15 
f 112/17/4 111/20/4 106/19/4 105/18/4 
f 113/21/5 114/24/5 115/23/5 116/22/5 
f 117/25/5 118/28/5 119/27/5 120/26/5 
f 121/29/5 122/32/5 123/31/5 124/30/5 
f 125/15/30 91/34/30 94/33/30 126/16/30 
f 127/16/31 93/33/31 92/34/31 128/15/31 
f 109/15/30 113/34/30 116/33/30 111/16/30 
f 129/16/25 115/33/25 114/34/25 130/15/25 
f 130/15/30 117/34/30 120/33/30 129/16/30 
f 126/16/25 119/33/25 118/34/25 125/15/25 
f 106/16/25 121/33/25 124/34/25 107/15/25 
f 128/15/30 123/34/30 122/33/30 127/16/30 
f 105/35/32 108/36/32 97/7/32 96/8/32 
f 108/36/33 110/37/33 101/10/33 97/7/33 
f 110/37/34 112/38/34 103/12/34 101/10/34 
f 112/38/35 105/35/35 96/8/35 103/12/35 
f 131/41/36 132/44/36 133/43/6 134/42/6 
f 135/45/37 136/48/37 137/47/38 138/46/38 
f 139/49/39 140/52/40 141/51/41 142/50/41 
f 133/53/42 132/54/42 139/49/42 142/50/42 
f 135/55/43 138/56/43 141/51/43 140/52/43 
f 143/1/3 144/4/3 145/3/3 146/2/3 
f 147/5/3 148/8/3 149/7/3 150/40/3 
f 149/7/3 151/6/3 150/40/3 
f 152/39/3 147/5/3 150/40/3 
f 151/6/3 149/7/3 153/10/3 154/9/3 
f 154/9/3 153/10/3 155/12/3 156/11/3 
f 156/11/3 155/12/3 148/8/3 147/5/3 
f 157/13/1 158/16/1 159/15/1 160/14/1 
f 160/14/4 159/15/4 161/15/4 162/14/4 
f 162/14/15 161/15/15 163/16/15 164/13/15 
f 164/17/2 163/20/2 158/19/2 157/18/2 
f 165/21/3 166/24/3 167/23/3 168/22/3 
f 169/25/3 170/28/3 171/27/3 172/26/3 
f 173/29/3 174/32/3 175/31/3 176/30/3 
f 177/15/44 143/34/44 146/33/44 178/16/44 
f 179/16/45 145/33/45 144/34/45 180/15/45 
f 161/15/44 165/34/44 168/33/44 163/16/44 
f 181/16/45 167/33/45 166/34/45 182/15/45 
f 182/15/44 169/34/44 172/33/44 181/16/44 
f 178/16/45 171/33/45 170/34/45 177/15/45 
f 158/16/45 173/33/45 176/34/45 159/15/45 
f 180/15/23 175/34/23 174/33/23 179/16/23 
f 157/35/46 160/36/46 149/7/46 148/8/46 
f 160/36/47 162/37/47 153/10/47 149/7/47 
f 162/37/48 164/38/48 155/12/48 153/10/48 
f 164/38/49 157/35/49 148/8/49 155/12/49 
f 183/41/50 184/44/50 185/43/17 186/42/17 
f 187/45/51 188/48/51 189/47/52 190/46/52 
f 191/49/53 192/52/54 193/51/55 194/50/55 
f 185/53/56 184/54/56 191/49/56 194/50/56 
f 187/55/57 190/56/57 193/51/57 192/52/57 
f 195/1/58 196/2/2 197/3/58 198/4/58 
f 199/39/59 200/40/59 201/6/59 202/7/59 
f 199/39/58 202/7/58 203/8/58 204/5/58 
f 201/6/58 205/9/58 206/10/58 202/7/58 
f 205/9/59 207/11/59 208/12/59 206/10/59 
f 207/11/60 204/5/60 203/8/60 208/12/60 
f 209/13/1 210/14/1 211/15/1 212/16/1 
f 210/14/5 213/14/5 214/15/5 211/15/5 
f 213/14/15 215/13/15 216/16/15 214/15/15 
f 215/17/3 209/18/3 212/19/3 216/20/3 
f 217/21/59 218/22/59 219/23/59 220/24/59 
f 221/25/58 222/26/58 223/27/58 224/28/2 
f 225/29/59 226/30/59 227/31/59 228/32/59 
f 229/15/6 230/16/6 196/33/6 195/34/6 
f 231/16/61 232/15/61 198/34/61 197/33/61 
f 214/15/8 216/16/8 218/33/8 217/34/8 
f 233/16/61 234/15/61 220/34/61 219/33/61 
f 234/15/8 233/16/8 222/33/8 221/34/8 
f 230/16/52 229/15/52 224/34/52 223/33/52 
f 212/16/61 211/15/61 226/34/61 225/33/61 
f 232/15/8 231/16/8 228/33/8 227/34/8 
f 209/35/62 203/8/62 202/7/62 210/36/62 
f 210/36/63 202/7/63 206/10/63 213/37/63 
f 213/37/64 206/10/64 208/12/64 215/38/64 
f 215/38/65 208/12/65 203/8/65 209/35/65 
f 235/41/66 236/42/30 237/43/30 238/44/66 
f 239/45/67 240/46/68 241/47/68 242/48/67 
f 243/49/69 244/50/58 245/51/58 246/52/70 
f 237/53/71 244/50/71 243/49/71 238/54/71 
f 239/55/72 246/52/72 245/51/72 240/56/72 
f 156/11/73 51/57/73 5/58/73 
f 11/11/74 205/57/74 154/58/74 
f 49/9/75 102/59/75 6/60/75 
f 98/40/76 99/6/76 45/61/76 44/62/76 
f 9/9/77 104/59/77 207/60/77 
f 43/39/78 48/5/78 147/63/78 152/64/78 
f 199/39/79 204/5/79 95/63/79 100/64/79 
f 150/40/80 151/6/80 201/61/80 200/62/80 
f 9/65/8 207/11/8 205/9/8 11/66/8 
f 11/67/44 154/9/44 156/11/44 5/68/44 
f 45/69/81 99/6/81 102/9/81 49/70/81 
f 49/71/7 6/6/7 5/5/7 51/72/7 
f 51/73/82 156/11/82 147/5/82 48/74/82 
f 104/75/30 9/9/30 6/6/30 102/76/30 
f 95/77/83 204/5/83 207/11/83 104/78/83 
f 201/69/84 151/6/84 154/9/84 205/70/84 
# 154 polygons - 8 triangles

