# 3ds Max Wavefront OBJ Exporter v0.97b - (c)2007 guruware
# File Created: 06.06.2017 18:40:24

#
# object cctvCamera
#

v  -9.3533 179.5031 116.9848
v  9.3533 179.5031 116.9848
v  9.3533 205.3211 61.6178
v  -9.3533 205.3211 61.6178
v  -12.9252 176.3226 115.5017
v  -12.9776 202.0364 60.0861
v  -13.1151 189.7576 54.3604
v  -13.1151 166.5959 104.0309
v  12.9776 202.0364 60.0861
v  12.9252 176.3226 115.5017
v  13.1151 166.5959 104.0309
v  13.1151 189.7576 54.3604
v  8.6622 203.8089 60.9126
v  8.6622 177.9909 116.2797
v  -8.6622 177.9909 116.2797
v  -8.6622 203.8089 60.9126
v  -11.3091 189.7576 54.3604
v  -11.3091 201.4100 59.7940
v  -11.3091 175.5920 115.1610
v  -11.3091 166.5959 104.0309
v  11.3091 166.5959 104.0309
v  11.3091 175.5920 115.1610
v  11.3091 201.4100 59.7940
v  11.3091 189.7576 54.3604
v  -8.6915 203.2186 62.1786
v  8.6915 203.2186 62.1786
v  11.3091 200.8462 61.0724
v  11.3091 189.1673 55.6264
v  -11.3091 189.1673 55.6264
v  -11.3091 200.8462 61.0724
v  8.6915 181.2375 109.3172
v  -8.6915 181.2375 109.3172
v  -11.3091 178.8651 108.2109
v  -11.3091 167.1862 102.7649
v  11.3091 167.1862 102.7649
v  11.3091 178.8651 108.2109
v  4.5988 174.1110 105.9940
v  3.2519 177.0582 107.3683
v  3.2519 175.2250 111.2996
v  4.5988 172.2778 109.9253
v  -0.0000 178.2789 107.9376
v  -0.0000 176.4457 111.8689
v  -3.2519 177.0582 107.3683
v  -3.2519 175.2250 111.2996
v  -4.5988 174.1110 105.9940
v  -4.5988 172.2778 109.9253
v  -3.2519 171.1638 104.6197
v  -3.2519 169.3306 108.5511
v  0.0000 169.9430 104.0505
v  0.0000 168.1098 107.9818
v  3.2519 171.1638 104.6197
v  3.2519 169.3306 108.5510
# 52 vertices

vn 0.0000 0.9063 0.4226
vn -0.9999 0.0119 0.0057
vn -0.9999 0.0088 0.0050
vn -0.9999 0.0094 0.0052
vn -0.9999 0.0126 0.0059
vn 0.9999 0.0096 0.0046
vn 0.9999 0.0119 0.0065
vn 0.9999 0.0116 0.0062
vn 0.9999 0.0092 0.0043
vn -0.7040 0.6438 0.2998
vn 0.7040 0.6438 0.2998
vn 0.0000 -0.9063 -0.4226
vn -0.0000 -0.9063 -0.4226
vn 1.0000 -0.0000 0.0000
vn 1.0000 0.0000 0.0000
vn -1.0000 0.0000 -0.0000
vn 0.7071 -0.6409 -0.2988
vn -0.7071 -0.6409 -0.2988
vn 0.0000 0.4226 -0.9063
vn -0.0000 0.4226 -0.9063
vn 0.0000 -0.4226 0.9063
vn 0.0000 -0.3420 -0.9397
vn -0.0089 -0.9912 0.1323
vn -0.0000 -0.9914 0.1305
vn 0.0000 -0.3451 -0.9386
vn -0.1130 -0.6142 0.7811
vn -0.0962 -0.6050 0.7904
vn -0.0000 -0.9926 0.1214
vn 0.0088 -0.9928 0.1198
vn 0.1001 -0.6057 0.7894
vn 0.1012 -0.5955 0.7970
vn -0.0000 -0.4226 0.9063
vn 1.0000 -0.0000 -0.0000
vn 0.7071 0.6409 0.2988
vn -0.0000 0.9063 0.4226
vn -0.7071 0.6409 0.2988
vn -1.0000 -0.0000 -0.0000
# 37 vertex normals

vt 0.2983 0.9506 0.0000
vt 0.3024 0.9506 0.0000
vt 0.3024 0.9634 0.0000
vt 0.2983 0.9634 0.0000
vt 0.2972 0.9506 0.0000
vt 0.2972 0.9634 0.0000
vt 0.2942 0.9634 0.0000
vt 0.2942 0.9519 0.0000
vt 0.3035 0.9634 0.0000
vt 0.3035 0.9506 0.0000
vt 0.3065 0.9519 0.0000
vt 0.3065 0.9634 0.0000
vt 0.2457 0.9501 0.0000
vt 0.2468 0.9501 0.0000
vt 0.2468 0.9630 0.0000
vt 0.2457 0.9630 0.0000
vt 0.2520 0.9630 0.0000
vt 0.2509 0.9630 0.0000
vt 0.2509 0.9501 0.0000
vt 0.2520 0.9501 0.0000
vt 0.1133 0.8636 0.0000
vt 0.1133 0.8542 0.0000
vt 0.1062 0.8542 0.0000
vt 0.1062 0.8636 0.0000
vt 0.1051 0.8647 0.0000
vt 0.1051 0.8638 0.0000
vt 0.1051 0.8544 0.0000
vt 0.1051 0.8563 0.0000
vt 0.1144 0.8563 0.0000
vt 0.1144 0.8544 0.0000
vt 0.1144 0.8638 0.0000
vt 0.1144 0.8647 0.0000
vt 0.2441 0.9618 0.0000
vt 0.2533 0.9618 0.0000
vt 0.2536 0.9630 0.0000
vt 0.2437 0.9630 0.0000
vt 0.2440 0.9619 0.0000
vt 0.2530 0.9619 0.0000
vt 0.2534 0.9630 0.0000
vt 0.2436 0.9630 0.0000
vt 0.1044 0.8563 0.0000
vt 0.1044 0.8647 0.0000
vt 0.2427 0.9506 0.0000
vt 0.2426 0.9601 0.0000
vt 0.2417 0.9606 0.0000
vt 0.2417 0.9506 0.0000
vt 0.2547 0.9599 0.0000
vt 0.2547 0.9509 0.0000
vt 0.2556 0.9509 0.0000
vt 0.2556 0.9604 0.0000
vt 0.1151 0.8647 0.0000
vt 0.1151 0.8563 0.0000
vt 0.2427 0.9509 0.0000
vt 0.2427 0.9599 0.0000
vt 0.2418 0.9604 0.0000
vt 0.2417 0.9509 0.0000
vt 0.2544 0.9601 0.0000
vt 0.2545 0.9506 0.0000
vt 0.2554 0.9506 0.0000
vt 0.2552 0.9606 0.0000
vt 0.0813 0.9887 0.0000
vt 0.0742 0.9887 0.0000
vt 0.0731 0.9870 0.0000
vt 0.0731 0.9791 0.0000
vt 0.0824 0.9791 0.0000
vt 0.0824 0.9870 0.0000
vt 0.1128 0.8650 0.0000
vt 0.1063 0.8650 0.0000
vt 0.1054 0.8632 0.0000
vt 0.1054 0.8544 0.0000
vt 0.1138 0.8544 0.0000
vt 0.1138 0.8632 0.0000
vt 0.1176 0.9572 1.0000
vt 0.1203 0.9572 1.0000
vt 0.1203 0.9517 1.0000
vt 0.1176 0.9517 1.0000
vt 0.0985 0.9572 1.0000
vt 0.1012 0.9572 1.0000
vt 0.1012 0.9517 1.0000
vt 0.0985 0.9517 1.0000
vt 0.1039 0.9572 1.0000
vt 0.1039 0.9517 1.0000
vt 0.1067 0.9572 1.0000
vt 0.1067 0.9517 1.0000
vt 0.1094 0.9572 1.0000
vt 0.1094 0.9517 1.0000
vt 0.1121 0.9572 1.0000
vt 0.1121 0.9517 1.0000
vt 0.1148 0.9572 1.0000
vt 0.1148 0.9517 1.0000
vt 0.0517 0.9228 0.0000
vt 0.0502 0.9264 0.0000
vt 0.0466 0.9279 0.0000
vt 0.0466 0.9178 0.0000
vt 0.0431 0.9264 0.0000
vt 0.0416 0.9228 0.0000
vt 0.0431 0.9193 0.0000
vt 0.0502 0.9193 0.0000
vt 0.1160 0.9792 0.0000
vt 0.1160 0.9903 0.0000
vt 0.1042 0.9903 0.0000
vt 0.1042 0.9792 0.0000
# 102 texture coords

g cctvCamera
s 4
f 1/1/1 2/2/1 3/3/1 4/4/1 
s 16
f 5/5/2 6/6/3 7/7/4 8/8/5 
s 64
f 9/9/6 10/10/7 11/11/8 12/12/9 
s off
f 5/13/10 1/14/10 4/15/10 6/16/10 
f 9/17/11 3/18/11 2/19/11 10/20/11 
s 4
f 13/21/12 14/22/12 15/23/12 16/24/13 
s 16
f 17/25/14 18/26/15 19/27/14 20/28/14 
s 64
f 21/29/16 22/30/16 23/31/16 24/32/16 
s off
f 16/24/17 15/23/17 19/27/17 18/26/17 
f 14/22/18 13/21/18 23/31/18 22/30/18 
s 1073741824
f 13/33/19 16/34/20 4/35/20 3/36/19 
f 15/37/21 14/38/21 2/39/21 1/40/21 
f 17/25/22 20/28/23 8/41/24 7/42/25 
f 20/43/23 19/44/26 5/45/27 8/46/24 
f 18/47/20 17/48/22 7/49/25 6/50/20 
f 21/29/28 24/32/22 12/51/25 11/52/29 
f 24/53/22 23/54/19 9/55/19 12/56/25 
f 22/57/30 21/58/28 11/59/29 10/60/31 
f 16/34/20 18/47/20 6/50/20 4/35/20 
f 19/44/26 15/37/21 1/40/21 5/45/27 
f 14/38/21 22/57/30 10/60/31 2/39/21 
f 23/54/19 13/33/19 3/36/19 9/55/19 
s 8
f 25/61/19 26/62/19 27/63/19 28/64/19 
f 25/61/19 28/64/19 29/65/19 30/66/19 
s 32
f 31/67/32 32/68/32 33/69/32 34/70/32 
f 31/67/32 34/70/32 35/71/32 36/72/32 
s 8
f 37/73/33 38/74/34 39/75/34 40/76/15 
f 38/77/34 41/78/35 42/79/35 39/80/34 
f 41/78/35 43/81/36 44/82/36 42/79/35 
f 43/81/36 45/83/37 46/84/37 44/82/36 
f 45/83/37 47/85/18 48/86/18 46/84/37 
f 47/85/18 49/87/12 50/88/13 48/86/18 
f 49/87/12 51/89/17 52/90/17 50/88/13 
f 51/89/17 37/73/33 40/76/15 52/90/17 
s 1
f 40/91/32 39/92/32 42/93/32 50/94/21 
f 42/93/32 44/95/21 46/96/21 50/94/21 
f 46/96/21 48/97/21 50/94/21 
f 52/98/21 40/91/32 50/94/21 
f 34/99/12 29/100/12 28/101/12 35/102/12 
# 37 polygons - 2 triangles

