# 3ds Max Wavefront OBJ Exporter v0.97b - (c)2007 guruware
# File Created: 22.03.2016 12:25:15

#
# object concrete
#

v  -21.8542 4.9574 13.4259
v  -21.8542 4.9574 -13.4259
v  -15.6606 1.2763 -12.7812
v  -15.6606 1.2763 12.7812
v  -10.2486 0.0000 12.6228
v  -10.2486 0.0000 -12.6228
v  10.2757 0.0000 -12.6228
v  10.2757 0.0000 12.6228
v  21.8812 4.9574 -13.4259
v  21.8812 4.9574 13.4259
v  15.6877 1.2763 12.7812
v  15.6877 1.2763 -12.7812
v  -21.8542 6.2304 -13.4259
v  -21.8542 6.2304 13.4259
v  -15.6606 9.9115 12.7812
v  -15.6606 9.9115 -12.7812
v  -10.2486 11.1878 -12.6228
v  -10.2486 11.1878 12.6228
v  10.2757 11.1878 12.6228
v  10.2757 11.1878 -12.6228
v  15.6877 9.9115 -12.7812
v  15.6877 9.9115 12.7812
v  21.8812 6.2304 13.4259
v  21.8812 6.2304 -13.4259
v  -15.6021 5.5939 15.8298
v  -15.6606 9.3596 13.5543
v  -15.6606 1.8282 13.5543
v  -10.2486 5.5939 15.8298
v  -10.2486 0.7350 13.5858
v  10.2757 0.7350 13.5858
v  10.2757 5.5939 15.8298
v  15.6877 9.3596 13.5543
v  15.1604 5.5939 15.8298
v  15.6877 1.8282 13.5543
v  15.1604 5.5939 -15.8298
v  15.6877 9.3596 -13.5543
v  15.6877 1.8282 -13.5543
v  10.2757 5.5939 -15.8298
v  10.2757 0.7350 -13.5858
v  -10.2486 0.7350 -13.5858
v  -10.2486 5.5939 -15.8298
v  -15.6606 9.3596 -13.5543
v  -15.6021 5.5939 -15.8298
v  -15.6606 1.8282 -13.5543
v  23.8995 5.5939 -13.4259
v  23.8995 5.5939 13.4259
v  -23.8725 5.5939 13.4259
v  -23.8725 5.5939 -13.4259
v  10.2757 10.4528 13.5858
v  -10.2486 10.4528 13.5858
v  -10.2486 10.4528 -13.5858
v  10.2757 10.4528 -13.5858
# 52 vertices

vn -0.5109 -0.8596 -0.0000
vn -0.3798 -0.9251 -0.0000
vn -0.1166 -0.9932 -0.0000
vn 0.1166 -0.9932 -0.0000
vn 0.5109 -0.8596 -0.0000
vn 0.3798 -0.9251 -0.0000
vn -0.5109 0.8596 -0.0000
vn -0.3798 0.9251 -0.0000
vn -0.1166 0.9932 -0.0000
vn 0.1166 0.9932 -0.0000
vn 0.3798 0.9251 -0.0000
vn 0.5109 0.8596 -0.0000
vn -0.1646 0.0150 0.9862
vn -0.1366 0.4830 0.8649
vn -0.3405 0.1567 0.9271
vn -0.3405 -0.1567 0.9271
vn -0.1742 -0.5073 0.8440
vn -0.0141 0.0119 0.9998
vn -0.0224 -0.4394 0.8980
vn 0.0422 -0.4189 0.9070
vn 0.0141 -0.0119 0.9998
vn 0.3209 0.1462 0.9358
vn 0.1739 0.4914 0.8534
vn 0.1481 -0.0174 0.9888
vn 0.3209 -0.1462 0.9358
vn 0.1413 -0.4719 0.8703
vn 0.1481 0.0174 -0.9888
vn 0.1413 0.4719 -0.8703
vn 0.3209 0.1462 -0.9358
vn 0.3209 -0.1462 -0.9358
vn 0.1739 -0.4914 -0.8534
vn 0.0141 0.0119 -0.9998
vn 0.0237 -0.4387 -0.8983
vn -0.0422 -0.4189 -0.9070
vn -0.0141 -0.0119 -0.9998
vn -0.3405 0.1567 -0.9271
vn -0.1742 0.5073 -0.8440
vn -0.1646 -0.0150 -0.9862
vn -0.3405 -0.1567 -0.9271
vn -0.1366 -0.4830 -0.8649
vn 0.3008 -0.9537 -0.0000
vn 0.0000 0.0000 -1.0000
vn 0.3008 0.9537 -0.0000
vn 0.0000 0.0000 1.0000
vn -0.3008 -0.9537 -0.0000
vn -0.3008 0.9537 -0.0000
vn 0.0237 0.4387 0.8983
vn -0.0422 0.4189 0.9070
vn -0.0224 0.4394 -0.8980
vn 0.0422 0.4189 -0.9070
vn -0.3898 -0.7495 0.5351
vn -0.2628 -0.7853 0.5606
vn -0.2942 -0.7767 0.5569
vn 0.2590 -0.7847 0.5631
vn 0.3898 -0.7495 0.5351
vn 0.2919 -0.7784 0.5557
vn -0.2590 -0.7847 -0.5631
vn -0.3898 -0.7495 -0.5351
vn -0.2919 -0.7784 -0.5557
vn 0.2628 -0.7853 -0.5606
vn 0.2942 -0.7767 -0.5569
vn 0.3898 -0.7495 -0.5351
vn -0.3898 0.7495 0.5351
vn -0.2919 0.7784 0.5557
vn -0.2590 0.7847 0.5631
vn 0.2942 0.7767 0.5569
vn 0.3898 0.7495 0.5351
vn 0.2628 0.7853 0.5606
vn -0.2628 0.7853 -0.5606
vn -0.2942 0.7767 -0.5569
vn -0.3898 0.7495 -0.5351
vn 0.2590 0.7847 -0.5631
vn 0.3898 0.7495 -0.5351
vn 0.2919 0.7784 -0.5557
vn -0.0794 -0.7924 -0.6048
vn -0.0868 -0.7929 -0.6031
vn 0.0841 -0.7921 -0.6046
vn 0.0774 -0.7936 -0.6035
vn 0.0794 -0.7924 0.6048
vn 0.0868 -0.7929 0.6031
vn -0.0841 -0.7921 0.6046
vn -0.0774 -0.7936 0.6035
vn -0.0794 0.7924 0.6048
vn -0.0868 0.7929 0.6031
vn 0.0841 0.7921 0.6046
vn 0.0774 0.7936 0.6035
vn 0.0794 0.7924 -0.6048
vn 0.0868 0.7929 -0.6031
vn -0.0841 0.7921 -0.6046
vn -0.0774 0.7936 -0.6035
# 90 vertex normals

vt 0.0366 0.7095 0.0000
vt 0.0561 0.7095 0.0000
vt 0.0556 0.7038 0.0000
vt 0.0370 0.7038 0.0000
vt 0.0669 0.7127 0.0000
vt 0.0669 0.6944 0.0000
vt 0.0507 0.6944 0.0000
vt 0.0507 0.7127 0.0000
vt 0.0581 0.6739 0.0000
vt 0.0348 0.6739 0.0000
vt 0.0354 0.6826 0.0000
vt 0.0576 0.6826 0.0000
vt 0.0348 0.7038 0.0000
vt 0.0365 0.7038 0.0000
vt 0.0669 0.7151 0.0000
vt 0.0669 0.7134 0.0000
vt 0.0507 0.7134 0.0000
vt 0.0507 0.7151 0.0000
vt 0.0347 0.6826 0.0000
vt 0.0327 0.6833 0.0000
vt 0.0602 0.6833 0.0000
vt 0.0583 0.6826 0.0000
vt 0.0507 0.6921 0.0000
vt 0.0507 0.6937 0.0000
vt 0.0669 0.6937 0.0000
vt 0.0669 0.6921 0.0000
vt 0.0562 0.7038 0.0000
vt 0.0578 0.7038 0.0000
vt 0.0561 0.6996 0.0000
vt 0.0357 0.6996 0.0000
vt 0.0357 0.7018 0.0000
vt 0.0561 0.7018 0.0000
vt 0.0340 0.6765 0.0000
vt 0.0366 0.7114 0.0000
vt 0.0561 0.7114 0.0000
vt 0.0355 0.6902 0.0000
vt 0.0575 0.6902 0.0000
vt 0.0585 0.7129 0.0000
vt 0.0585 0.6943 0.0000
vt 0.0327 0.6902 0.0000
vt 0.0347 0.6902 0.0000
vt 0.0586 0.7151 0.0000
vt 0.0585 0.7134 0.0000
vt 0.0585 0.6937 0.0000
vt 0.0586 0.6921 0.0000
vt 0.0583 0.6902 0.0000
vt 0.0602 0.6902 0.0000
# 47 texture coords

g concrete
f 1/1/1 2/2/1 3/3/2 4/4/2 
f 5/5/3 6/6/3 7/7/4 8/8/4 
f 9/9/5 10/10/5 11/11/6 12/12/6 
f 13/2/7 14/1/7 15/4/8 16/3/8 
f 17/6/9 18/5/9 19/8/10 20/7/10 
f 21/12/11 22/11/11 23/10/12 24/9/12 
f 25/13/13 26/14/14 14/1/15 1/1/16 
f 25/13/13 1/1/16 27/14/17 
f 28/15/18 29/16/19 30/17/20 31/18/21 
f 23/10/22 32/19/23 33/20/24 10/10/25 
f 33/20/24 34/19/26 10/10/25 
f 35/21/27 36/22/28 24/9/29 9/9/30 
f 35/21/27 9/9/30 37/22/31 
f 38/23/32 39/24/33 40/25/34 41/26/35 
f 13/2/36 42/27/37 43/28/38 2/2/39 
f 43/28/38 44/27/40 2/2/39 
f 45/29/41 46/30/41 10/31/41 9/32/41 
f 9/32/42 24/32/42 45/29/42 
f 46/30/43 45/29/43 24/32/43 23/31/43 
f 23/10/44 10/10/44 46/33/44 
f 47/34/45 48/35/45 2/2/45 1/1/45 
f 1/1/44 14/1/44 47/34/44 
f 48/35/46 47/34/46 14/1/46 13/2/46 
f 13/2/42 2/2/42 48/35/42 
f 31/18/21 49/17/47 50/16/48 28/15/18 
f 41/26/35 51/25/49 52/24/50 38/23/32 
f 1/1/51 4/4/52 27/14/53 
f 11/11/54 10/10/55 34/19/56 
f 3/3/57 2/2/58 44/27/59 
f 12/12/60 37/22/61 9/9/62 
f 14/1/63 26/14/64 15/4/65 
f 32/19/66 23/10/67 22/11/68 
f 16/3/69 42/27/70 13/2/71 
f 21/12/72 24/9/73 36/22/74 
f 6/6/75 40/25/76 39/24/77 7/7/78 
f 8/8/79 30/17/80 29/16/81 5/5/82 
f 18/5/83 50/16/84 49/17/85 19/8/86 
f 20/7/87 52/24/88 51/25/89 17/6/90 
f 8/36/4 7/37/4 12/12/6 11/11/6 
f 6/6/3 5/5/3 4/38/2 3/39/2 
f 20/37/10 19/36/10 22/11/11 21/12/11 
f 18/5/9 17/6/9 16/39/8 15/38/8 
f 31/40/21 30/41/20 34/19/26 33/20/24 
f 29/16/19 28/15/18 25/42/13 27/43/17 
f 41/26/35 40/25/34 44/44/40 43/45/38 
f 39/46/33 38/47/32 35/21/27 37/22/31 
f 28/15/18 50/16/48 26/43/14 25/42/13 
f 49/41/47 31/40/21 33/20/24 32/19/23 
f 38/47/32 52/46/50 36/22/28 35/21/27 
f 51/25/49 41/26/35 43/45/38 42/44/37 
f 7/37/78 39/46/77 37/22/61 12/12/60 
f 40/25/76 6/6/75 3/39/57 44/44/59 
f 5/5/82 29/16/81 27/43/53 4/38/52 
f 30/41/80 8/36/79 11/11/54 34/19/56 
f 19/36/86 49/41/85 32/19/66 22/11/68 
f 50/16/84 18/5/83 15/38/65 26/43/64 
f 17/6/90 51/25/89 42/44/70 16/39/69 
f 52/46/88 20/37/87 21/12/72 36/22/74 
# 42 polygons - 16 triangles

