# 3ds Max Wavefront OBJ Exporter v0.97b - (c)2007 guruware
# File Created: 12.06.2014 23:40:55

#
# object Door
#

v  -1.2181 138.0485 3.6802
v  -1.2181 138.0485 -3.6802
v  -1.2181 122.6055 -3.6802
v  -1.2181 122.6055 3.6802
v  0.0000 122.6055 -3.6802
v  -0.0000 122.6055 3.6802
v  -0.0000 138.0485 3.6802
v  0.0000 138.0485 -3.6802
v  -1.2181 35.2186 3.6802
v  -1.2181 35.2186 -3.6802
v  -1.2181 19.7756 -3.6802
v  -1.2181 19.7756 3.6802
v  0.0000 19.7756 -3.6802
v  0.0000 19.7756 3.6802
v  -0.0000 35.2186 3.6802
v  0.0000 35.2186 -3.6802
v  99.2454 0.0000 -4.0000
v  99.2454 0.0000 4.0000
v  1.2454 0.0000 4.0000
v  1.2454 0.0000 -4.0000
v  99.2454 150.0000 -4.0000
v  1.2454 150.0000 -4.0000
v  1.2454 150.0000 4.0000
v  99.2454 150.0000 4.0000
v  99.2454 149.0000 5.0000
v  1.2454 149.0000 5.0000
v  1.2454 1.0000 5.0000
v  99.2454 1.0000 5.0000
v  100.2454 149.0000 -4.0000
v  100.2454 149.0000 4.0000
v  100.2454 1.0000 4.0000
v  100.2454 1.0000 -4.0000
v  1.2454 149.0000 -5.0000
v  99.2454 149.0000 -5.0000
v  99.2454 1.0000 -5.0000
v  1.2454 1.0000 -5.0000
v  0.2454 149.0000 4.0000
v  0.2454 149.0000 -4.0000
v  0.2454 1.0000 -4.0000
v  0.2454 1.0000 4.0000
v  90.9838 68.1199 5.0000
v  90.3257 70.5763 5.0000
v  90.3257 70.5763 5.5423
v  90.9838 68.1199 5.5423
v  88.5274 72.3745 5.0000
v  88.5274 72.3745 5.5423
v  86.0710 73.0327 5.0000
v  86.0710 73.0327 5.5423
v  83.6146 72.3745 5.0000
v  83.6146 72.3745 5.5423
v  81.8164 70.5763 5.0000
v  81.8164 70.5763 5.5423
v  81.1582 68.1199 5.0000
v  81.1582 68.1199 5.5423
v  81.8164 65.6635 5.0000
v  81.8164 65.6635 5.5423
v  83.6146 63.8653 5.0000
v  83.6146 63.8653 5.5423
v  86.0710 63.2071 5.0000
v  86.0710 63.2071 5.5423
v  88.5274 63.8653 5.0000
v  88.5274 63.8653 5.5423
v  90.3257 65.6635 5.0000
v  90.3257 65.6635 5.5423
v  88.6077 69.5845 7.3475
v  89.0001 68.1199 7.3475
v  87.5356 70.6566 7.3475
v  86.0710 71.0490 7.3475
v  84.6065 70.6566 7.3475
v  83.5344 69.5845 7.3475
v  83.1419 68.1199 7.3475
v  83.5344 66.6554 7.3475
v  84.6065 65.5833 7.3475
v  86.0710 65.1908 7.3475
v  87.5356 65.5833 7.3475
v  88.6077 66.6554 7.3475
v  89.6946 70.2120 10.7047
v  90.2552 68.1199 10.7047
v  88.1631 71.7435 10.7047
v  86.0710 72.3041 10.7047
v  83.9790 71.7435 10.7047
v  82.4475 70.2120 10.7047
v  81.8869 68.1199 10.7047
v  82.4475 66.0278 10.7047
v  83.9790 64.4963 10.7047
v  86.0710 63.9358 10.7047
v  88.1631 64.4963 10.7047
v  89.6946 66.0279 10.7047
v  90.3257 70.5763 13.9757
v  90.9838 68.1199 13.9757
v  88.5274 72.3745 13.9757
v  86.0710 73.0327 13.9757
v  83.6146 72.3745 13.9757
v  81.8164 70.5763 13.9757
v  81.1582 68.1199 13.9757
v  81.8164 65.6635 13.9757
v  83.6146 63.8653 13.9757
v  86.0710 63.2071 13.9757
v  88.5274 63.8653 13.9757
v  90.3257 65.6635 13.9757
v  89.7553 70.2471 14.5203
v  90.3253 68.1199 14.5203
v  88.1982 71.8042 14.5203
v  86.0710 72.3742 14.5203
v  83.9439 71.8042 14.5203
v  82.3867 70.2471 14.5203
v  81.8168 68.1199 14.5203
v  82.3867 65.9928 14.5203
v  83.9439 64.4356 14.5203
v  86.0710 63.8657 14.5203
v  88.1982 64.4356 14.5203
v  89.7553 65.9928 14.5203
v  90.9838 68.1199 -5.0000
v  90.9838 68.1199 -5.5423
v  90.3257 70.5763 -5.5423
v  90.3257 70.5763 -5.0000
v  88.5274 72.3745 -5.5423
v  88.5274 72.3745 -5.0000
v  86.0710 73.0327 -5.5423
v  86.0710 73.0327 -5.0000
v  83.6146 72.3745 -5.5423
v  83.6146 72.3745 -5.0000
v  81.8164 70.5763 -5.5423
v  81.8164 70.5763 -5.0000
v  81.1582 68.1199 -5.5423
v  81.1582 68.1199 -5.0000
v  81.8164 65.6635 -5.5423
v  81.8164 65.6635 -5.0000
v  83.6146 63.8653 -5.5423
v  83.6146 63.8653 -5.0000
v  86.0710 63.2071 -5.5423
v  86.0710 63.2071 -5.0000
v  88.5274 63.8653 -5.5423
v  88.5274 63.8653 -5.0000
v  90.3257 65.6635 -5.5423
v  90.3257 65.6635 -5.0000
v  89.0001 68.1199 -7.3475
v  88.6077 69.5845 -7.3475
v  87.5356 70.6566 -7.3475
v  86.0710 71.0490 -7.3475
v  84.6065 70.6566 -7.3475
v  83.5344 69.5845 -7.3475
v  83.1419 68.1199 -7.3475
v  83.5344 66.6554 -7.3475
v  84.6065 65.5833 -7.3475
v  86.0710 65.1908 -7.3475
v  87.5356 65.5833 -7.3475
v  88.6077 66.6554 -7.3475
v  90.2552 68.1199 -10.7047
v  89.6946 70.2120 -10.7047
v  88.1631 71.7435 -10.7047
v  86.0710 72.3041 -10.7047
v  83.9790 71.7435 -10.7047
v  82.4475 70.2120 -10.7047
v  81.8869 68.1199 -10.7047
v  82.4474 66.0278 -10.7047
v  83.9790 64.4963 -10.7047
v  86.0710 63.9358 -10.7047
v  88.1631 64.4964 -10.7047
v  89.6946 66.0279 -10.7047
v  90.9838 68.1199 -13.9757
v  90.3257 70.5763 -13.9757
v  88.5274 72.3745 -13.9757
v  86.0710 73.0327 -13.9757
v  83.6146 72.3745 -13.9757
v  81.8164 70.5763 -13.9757
v  81.1582 68.1199 -13.9757
v  81.8164 65.6635 -13.9757
v  83.6146 63.8653 -13.9757
v  86.0710 63.2071 -13.9757
v  88.5274 63.8653 -13.9757
v  90.3256 65.6635 -13.9757
v  90.3253 68.1199 -14.5203
v  89.7553 70.2471 -14.5203
v  88.1982 71.8042 -14.5203
v  86.0710 72.3742 -14.5203
v  83.9439 71.8042 -14.5203
v  82.3867 70.2471 -14.5203
v  81.8168 68.1199 -14.5203
v  82.3867 65.9928 -14.5203
v  83.9439 64.4356 -14.5203
v  86.0710 63.8657 -14.5203
v  88.1982 64.4356 -14.5203
v  89.7553 65.9928 -14.5203
# 184 vertices

vn -1.0000 -0.0000 -0.0000
vn 0.0000 -1.0000 0.0000
vn -0.0000 0.0000 1.0000
vn -0.0000 1.0000 -0.0000
vn 0.0000 0.0000 -1.0000
vn 0.0000 0.0000 1.0000
vn 0.0000 -0.0000 1.0000
vn 1.0000 0.0000 0.0000
vn -0.0000 -0.0000 -1.0000
vn -0.0000 0.0000 -1.0000
vn -1.0000 0.0000 -0.0000
vn -0.5774 -0.5774 0.5774
vn 0.5774 -0.5774 0.5774
vn -0.5774 -0.5774 -0.5774
vn 0.5774 -0.5774 -0.5774
vn -0.5774 0.5774 0.5774
vn 0.5774 0.5774 0.5774
vn -0.5774 0.5774 -0.5774
vn 0.5774 0.5774 -0.5774
vn -0.7071 -0.7071 -0.0000
vn 0.0000 -0.7071 -0.7071
vn 0.7071 -0.7071 0.0000
vn 0.0000 -0.7071 0.7071
vn -0.0000 0.7071 0.7071
vn 0.7071 0.7071 0.0000
vn -0.0000 0.7071 -0.7071
vn -0.7071 0.7071 -0.0000
vn 0.7071 0.0000 0.7071
vn -0.7071 0.0000 0.7071
vn 0.7071 0.0000 -0.7071
vn -0.7071 0.0000 -0.7071
vn 0.8660 0.5000 0.0000
vn 0.5000 0.8660 0.0000
vn -0.5000 0.8660 -0.0000
vn -0.8660 0.5000 -0.0000
vn -0.8660 -0.5000 -0.0000
vn -0.5000 -0.8660 -0.0000
vn -0.0000 -1.0000 -0.0000
vn 0.5000 -0.8660 0.0000
vn 0.8660 -0.5000 0.0000
vn 0.6730 0.0000 0.7396
vn 0.5829 0.3365 0.7396
vn 0.3365 0.5829 0.7396
vn 0.0000 0.6730 0.7396
vn -0.3365 0.5829 0.7396
vn -0.5829 0.3365 0.7396
vn -0.6730 0.0000 0.7396
vn -0.5829 -0.3365 0.7396
vn -0.3365 -0.5829 0.7396
vn 0.0000 -0.6730 0.7396
vn 0.3365 -0.5829 0.7396
vn 0.5829 -0.3365 0.7396
vn 0.9367 0.0000 -0.3502
vn 0.8112 0.4683 -0.3502
vn 0.8310 0.4798 -0.2814
vn 0.9596 -0.0000 -0.2814
vn 0.4683 0.8112 -0.3502
vn 0.4798 0.8310 -0.2814
vn -0.0000 0.9367 -0.3502
vn -0.0000 0.9596 -0.2814
vn -0.4683 0.8112 -0.3502
vn -0.4798 0.8310 -0.2814
vn -0.8112 0.4683 -0.3502
vn -0.8310 0.4798 -0.2814
vn -0.9367 -0.0000 -0.3502
vn -0.9596 -0.0000 -0.2814
vn -0.8112 -0.4683 -0.3502
vn -0.8310 -0.4798 -0.2814
vn -0.4683 -0.8112 -0.3502
vn -0.4798 -0.8310 -0.2814
vn -0.0000 -0.9367 -0.3502
vn -0.0000 -0.9596 -0.2814
vn 0.4683 -0.8112 -0.3502
vn 0.4798 -0.8310 -0.2814
vn 0.8112 -0.4683 -0.3502
vn 0.8310 -0.4798 -0.2814
vn 0.8453 0.4880 -0.2174
vn 0.9761 -0.0000 -0.2174
vn 0.4880 0.8453 -0.2174
vn -0.0000 0.9761 -0.2174
vn -0.4880 0.8453 -0.2174
vn -0.8453 0.4880 -0.2174
vn -0.9761 0.0000 -0.2174
vn -0.8453 -0.4880 -0.2174
vn -0.4880 -0.8453 -0.2174
vn -0.0000 -0.9761 -0.2174
vn 0.4880 -0.8453 -0.2174
vn 0.8453 -0.4880 -0.2174
vn 0.6373 0.0000 0.7706
vn 0.5519 0.3186 0.7706
vn 0.3186 0.5519 0.7706
vn -0.0000 0.6373 0.7706
vn -0.3186 0.5519 0.7706
vn -0.5519 0.3186 0.7706
vn -0.6373 -0.0000 0.7706
vn -0.5519 -0.3186 0.7706
vn -0.3186 -0.5519 0.7706
vn 0.0000 -0.6373 0.7706
vn 0.3186 -0.5519 0.7706
vn 0.5519 -0.3186 0.7706
vn -0.0000 -0.0000 1.0000
vn 0.6730 0.0000 -0.7396
vn 0.6730 -0.0000 -0.7396
vn 0.5829 0.3365 -0.7396
vn 0.3365 0.5829 -0.7396
vn 0.0000 0.6730 -0.7396
vn -0.3365 0.5829 -0.7396
vn -0.5829 0.3365 -0.7396
vn -0.6730 -0.0000 -0.7396
vn -0.5829 -0.3365 -0.7396
vn -0.3365 -0.5829 -0.7396
vn 0.0000 -0.6730 -0.7396
vn 0.3365 -0.5829 -0.7396
vn 0.5829 -0.3365 -0.7396
vn 0.9367 0.0000 0.3502
vn 0.9596 0.0000 0.2814
vn 0.8310 0.4798 0.2814
vn 0.8112 0.4683 0.3502
vn 0.4798 0.8310 0.2814
vn 0.4683 0.8112 0.3502
vn -0.0000 0.9596 0.2814
vn -0.0000 0.9367 0.3502
vn -0.4798 0.8310 0.2814
vn -0.4683 0.8112 0.3502
vn -0.8310 0.4798 0.2814
vn -0.8112 0.4683 0.3502
vn -0.9596 0.0000 0.2814
vn -0.9367 0.0000 0.3502
vn -0.8310 -0.4798 0.2814
vn -0.8112 -0.4683 0.3502
vn -0.4798 -0.8310 0.2814
vn -0.4683 -0.8112 0.3502
vn -0.0000 -0.9596 0.2814
vn 0.0000 -0.9367 0.3502
vn 0.4798 -0.8310 0.2814
vn 0.4683 -0.8112 0.3502
vn 0.8310 -0.4798 0.2814
vn 0.8112 -0.4683 0.3502
vn 0.9761 -0.0000 0.2174
vn 0.8453 0.4880 0.2174
vn 0.4880 0.8453 0.2174
vn 0.0000 0.9761 0.2174
vn -0.4880 0.8453 0.2174
vn -0.8453 0.4880 0.2174
vn -0.9761 0.0000 0.2174
vn -0.8453 -0.4880 0.2174
vn -0.4880 -0.8453 0.2174
vn -0.0000 -0.9761 0.2174
vn 0.4880 -0.8453 0.2174
vn 0.8453 -0.4880 0.2174
vn 0.6373 0.0000 -0.7706
vn 0.5519 0.3186 -0.7706
vn 0.3186 0.5519 -0.7706
vn 0.0000 0.6373 -0.7706
vn -0.3186 0.5519 -0.7706
vn -0.5519 0.3186 -0.7706
vn -0.6373 -0.0000 -0.7706
vn -0.5519 -0.3186 -0.7706
vn -0.3186 -0.5519 -0.7706
vn 0.0000 -0.6373 -0.7706
vn -0.0000 -0.6373 -0.7706
vn 0.3186 -0.5519 -0.7706
vn 0.5519 -0.3186 -0.7706
vn 0.0000 -0.0000 -1.0000
# 164 vertex normals

vt 0.0709 0.9442 0.0000
vt 0.0845 0.9442 0.0000
vt 0.0845 0.9618 0.0000
vt 0.0709 0.9618 0.0000
vt 0.0709 0.9442 0.0000
vt 0.0845 0.9442 0.0000
vt 0.0845 0.9618 0.0000
vt 0.0709 0.9618 0.0000
vt 0.0709 0.9442 0.0000
vt 0.0845 0.9442 0.0000
vt 0.0845 0.9618 0.0000
vt 0.0709 0.9618 0.0000
vt 0.0709 0.9442 0.0000
vt 0.0845 0.9442 0.0000
vt 0.0845 0.9618 0.0000
vt 0.0709 0.9618 0.0000
vt 0.1289 0.7856 0.0000
vt 0.1516 0.7856 0.0000
vt 0.1516 0.7856 0.0000
vt 0.1289 0.7856 0.0000
vt 0.1005 0.7842 0.0000
vt 0.1170 0.7842 0.0000
vt 0.1170 0.8091 0.0000
vt 0.1005 0.8091 0.0000
vt 0.1289 0.7918 0.0000
vt 0.1289 0.7918 0.0000
vt 0.1516 0.7918 0.0000
vt 0.1516 0.7918 0.0000
vt 0.1170 0.7842 0.0000
vt 0.1005 0.7842 0.0000
vt 0.1005 0.8091 0.0000
vt 0.1170 0.8091 0.0000
vt 0.1289 0.7856 0.0000
vt 0.1004 0.7842 0.0000
vt 0.1005 0.7840 0.0000
vt 0.1170 0.7840 0.0000
vt 0.1172 0.7842 0.0000
vt 0.1516 0.7856 0.0000
vt 0.1004 0.7842 0.0000
vt 0.1005 0.7840 0.0000
vt 0.1516 0.7918 0.0000
vt 0.1170 0.7840 0.0000
vt 0.1172 0.7842 0.0000
vt 0.1289 0.7918 0.0000
vt 0.1005 0.8093 0.0000
vt 0.1004 0.8091 0.0000
vt 0.1516 0.7856 0.0000
vt 0.1289 0.7856 0.0000
vt 0.1172 0.8091 0.0000
vt 0.1170 0.8093 0.0000
vt 0.1004 0.8091 0.0000
vt 0.1005 0.8093 0.0000
vt 0.1289 0.7918 0.0000
vt 0.1516 0.7918 0.0000
vt 0.1170 0.8093 0.0000
vt 0.1172 0.8091 0.0000
vt 0.1137 0.9773 1.0000
vt 0.1149 0.9773 1.0000
vt 0.1161 0.9773 1.0000
vt 0.1031 0.9773 1.0000
vt 0.1043 0.9773 1.0000
vt 0.1055 0.9773 1.0000
vt 0.1067 0.9773 1.0000
vt 0.1079 0.9773 1.0000
vt 0.1090 0.9773 1.0000
vt 0.1102 0.9773 1.0000
vt 0.1114 0.9773 1.0000
vt 0.1126 0.9773 1.0000
vt 0.1137 0.9801 1.0000
vt 0.1149 0.9801 1.0000
vt 0.1161 0.9801 1.0000
vt 0.1031 0.9801 1.0000
vt 0.1043 0.9801 1.0000
vt 0.1055 0.9801 1.0000
vt 0.1067 0.9801 1.0000
vt 0.1079 0.9801 1.0000
vt 0.1090 0.9801 1.0000
vt 0.1102 0.9801 1.0000
vt 0.1114 0.9801 1.0000
vt 0.1126 0.9801 1.0000
vt 0.1137 0.9829 1.0000
vt 0.1149 0.9829 1.0000
vt 0.1161 0.9829 1.0000
vt 0.1031 0.9829 1.0000
vt 0.1043 0.9829 1.0000
vt 0.1055 0.9829 1.0000
vt 0.1067 0.9829 1.0000
vt 0.1079 0.9829 1.0000
vt 0.1090 0.9829 1.0000
vt 0.1102 0.9829 1.0000
vt 0.1114 0.9829 1.0000
vt 0.1126 0.9829 1.0000
vt 0.1137 0.9857 1.0000
vt 0.1149 0.9857 1.0000
vt 0.1161 0.9857 1.0000
vt 0.1031 0.9857 1.0000
vt 0.1043 0.9857 1.0000
vt 0.1055 0.9857 1.0000
vt 0.1067 0.9857 1.0000
vt 0.1079 0.9857 1.0000
vt 0.1090 0.9857 1.0000
vt 0.1102 0.9857 1.0000
vt 0.1114 0.9857 1.0000
vt 0.1126 0.9857 1.0000
vt 0.1137 0.9886 1.0000
vt 0.1149 0.9886 1.0000
vt 0.1161 0.9886 1.0000
vt 0.1031 0.9886 1.0000
vt 0.1043 0.9886 1.0000
vt 0.1055 0.9886 1.0000
vt 0.1067 0.9886 1.0000
vt 0.1079 0.9886 1.0000
vt 0.1090 0.9886 1.0000
vt 0.1102 0.9886 1.0000
vt 0.1114 0.9886 1.0000
vt 0.1126 0.9886 1.0000
vt 0.1137 0.9914 1.0000
vt 0.1149 0.9914 1.0000
vt 0.1161 0.9914 1.0000
vt 0.1031 0.9914 1.0000
vt 0.1043 0.9914 1.0000
vt 0.1055 0.9914 1.0000
vt 0.1067 0.9914 1.0000
vt 0.1079 0.9914 1.0000
vt 0.1090 0.9914 1.0000
vt 0.1102 0.9914 1.0000
vt 0.1114 0.9914 1.0000
vt 0.1126 0.9914 1.0000
vt 0.1020 0.9773 1.0000
vt 0.1020 0.9801 1.0000
vt 0.1020 0.9801 1.0000
vt 0.1020 0.9829 1.0000
vt 0.1020 0.9829 1.0000
vt 0.1020 0.9857 1.0000
vt 0.1020 0.9857 1.0000
vt 0.1020 0.9886 1.0000
vt 0.1020 0.9886 1.0000
vt 0.1020 0.9914 1.0000
vt 0.1157 0.9914 0.7321
vt 0.1138 0.9914 0.2679
vt 0.1110 0.9914 -0.2679
vt 0.1079 0.9914 -0.7321
vt 0.1055 0.9914 -1.0000
vt 0.1043 0.9914 -1.0000
vt 0.1047 0.9914 -0.7321
vt 0.1066 0.9914 -0.2679
vt 0.1137 0.9773 1.0000
vt 0.1149 0.9773 1.0000
vt 0.1161 0.9773 1.0000
vt 0.1031 0.9773 1.0000
vt 0.1043 0.9773 1.0000
vt 0.1055 0.9773 1.0000
vt 0.1067 0.9773 1.0000
vt 0.1079 0.9773 1.0000
vt 0.1090 0.9773 1.0000
vt 0.1102 0.9773 1.0000
vt 0.1114 0.9773 1.0000
vt 0.1126 0.9773 1.0000
vt 0.1137 0.9801 1.0000
vt 0.1149 0.9801 1.0000
vt 0.1161 0.9801 1.0000
vt 0.1031 0.9801 1.0000
vt 0.1043 0.9801 1.0000
vt 0.1055 0.9801 1.0000
vt 0.1067 0.9801 1.0000
vt 0.1079 0.9801 1.0000
vt 0.1090 0.9801 1.0000
vt 0.1102 0.9801 1.0000
vt 0.1114 0.9801 1.0000
vt 0.1126 0.9801 1.0000
vt 0.1137 0.9829 1.0000
vt 0.1149 0.9829 1.0000
vt 0.1161 0.9829 1.0000
vt 0.1031 0.9829 1.0000
vt 0.1043 0.9829 1.0000
vt 0.1055 0.9829 1.0000
vt 0.1067 0.9829 1.0000
vt 0.1079 0.9829 1.0000
vt 0.1090 0.9829 1.0000
vt 0.1102 0.9829 1.0000
vt 0.1114 0.9829 1.0000
vt 0.1126 0.9829 1.0000
vt 0.1137 0.9857 1.0000
vt 0.1149 0.9857 1.0000
vt 0.1161 0.9857 1.0000
vt 0.1031 0.9857 1.0000
vt 0.1043 0.9857 1.0000
vt 0.1055 0.9857 1.0000
vt 0.1067 0.9857 1.0000
vt 0.1079 0.9857 1.0000
vt 0.1090 0.9857 1.0000
vt 0.1102 0.9857 1.0000
vt 0.1114 0.9857 1.0000
vt 0.1126 0.9857 1.0000
vt 0.1137 0.9886 1.0000
vt 0.1149 0.9886 1.0000
vt 0.1161 0.9886 1.0000
vt 0.1031 0.9886 1.0000
vt 0.1043 0.9886 1.0000
vt 0.1055 0.9886 1.0000
vt 0.1067 0.9886 1.0000
vt 0.1079 0.9886 1.0000
vt 0.1090 0.9886 1.0000
vt 0.1102 0.9886 1.0000
vt 0.1114 0.9886 1.0000
vt 0.1126 0.9886 1.0000
vt 0.1137 0.9914 1.0000
vt 0.1149 0.9914 1.0000
vt 0.1161 0.9914 1.0000
vt 0.1031 0.9914 1.0000
vt 0.1043 0.9914 1.0000
vt 0.1055 0.9914 1.0000
vt 0.1067 0.9914 1.0000
vt 0.1079 0.9914 1.0000
vt 0.1090 0.9914 1.0000
vt 0.1102 0.9914 1.0000
vt 0.1114 0.9914 1.0000
vt 0.1126 0.9914 1.0000
vt 0.1020 0.9773 1.0000
vt 0.1020 0.9801 1.0000
vt 0.1020 0.9801 1.0000
vt 0.1020 0.9829 1.0000
vt 0.1020 0.9829 1.0000
vt 0.1020 0.9857 1.0000
vt 0.1020 0.9857 1.0000
vt 0.1020 0.9886 1.0000
vt 0.1020 0.9886 1.0000
vt 0.1020 0.9914 1.0000
vt 0.1157 0.9914 0.7321
vt 0.1138 0.9914 0.2679
vt 0.1110 0.9914 -0.2679
vt 0.1079 0.9914 -0.7321
vt 0.1055 0.9914 -1.0000
vt 0.1043 0.9914 -1.0000
vt 0.1047 0.9914 -0.7321
vt 0.1066 0.9914 -0.2679
# 236 texture coords

g Door
s 4
f 1/3/1 2/4/1 3/1/1 4/2/1 
s 8
f 4/2/2 3/1/2 5/5/2 6/6/2 
s 16
f 1/3/3 4/2/3 6/6/3 7/7/3 
s 32
f 2/4/4 1/3/4 7/7/4 8/8/4 
s 64
f 3/1/5 2/4/5 8/8/5 5/5/5 
s 4
f 9/11/1 10/12/1 11/9/1 12/10/1 
s 8
f 12/10/2 11/9/2 13/13/2 14/14/2 
s 16
f 9/11/3 12/10/3 14/14/3 15/15/3 
s 32
f 10/12/4 9/11/4 15/15/4 16/16/4 
s 64
f 11/9/5 10/12/5 16/16/5 13/13/5 
s 2
f 17/19/2 18/20/2 19/17/2 20/18/2 
s 4
f 21/27/4 22/28/4 23/25/4 24/26/4 
s 8
f 25/23/6 26/24/7 27/21/6 28/22/6 
s 16
f 29/41/8 30/44/8 31/33/8 32/38/8 
s 32
f 33/31/9 34/32/9 35/29/9 36/30/10 
s 64
f 37/53/11 38/54/11 39/47/11 40/48/11 
s off
f 27/21/12 40/34/12 19/35/12 
f 18/36/13 31/37/13 28/22/13 
f 39/39/14 36/30/14 20/40/14 
f 17/42/15 35/29/15 32/43/15 
f 26/24/16 23/45/16 37/46/16 
f 30/49/17 24/50/17 25/23/17 
f 38/51/18 22/52/18 33/31/18 
f 34/32/19 21/55/19 29/56/19 
f 19/17/20 40/48/20 39/47/20 20/18/20 
f 20/40/21 36/30/21 35/29/21 17/42/21 
f 17/19/22 32/38/22 31/33/22 18/20/22 
f 18/36/23 28/22/23 27/21/23 19/35/23 
f 23/45/24 26/24/24 25/23/24 24/50/24 
f 24/26/25 30/44/25 29/41/25 21/27/25 
f 21/55/26 34/32/26 33/31/26 22/52/26 
f 22/28/27 38/54/27 37/53/27 23/25/27 
f 28/22/28 31/37/28 30/49/28 25/23/28 
f 26/24/29 37/46/29 40/34/29 27/21/29 
f 32/43/30 35/29/30 34/32/30 29/56/30 
f 36/30/31 39/39/31 38/51/31 33/31/31 
s 8
f 41/57/8 42/58/32 43/70/32 44/69/8 
f 42/58/32 45/59/33 46/71/33 43/70/32 
f 45/129/33 47/60/4 48/72/4 46/130/33 
f 47/60/4 49/61/34 50/73/34 48/72/4 
f 49/61/34 51/62/35 52/74/35 50/73/34 
f 51/62/35 53/63/1 54/75/1 52/74/35 
f 53/63/1 55/64/36 56/76/36 54/75/1 
f 55/64/36 57/65/37 58/77/37 56/76/36 
f 57/65/37 59/66/2 60/78/38 58/77/37 
f 59/66/2 61/67/39 62/79/39 60/78/38 
f 61/67/39 63/68/40 64/80/40 62/79/39 
f 63/68/40 41/57/8 44/69/8 64/80/40 
s 16
f 44/69/41 43/70/42 65/82/42 66/81/41 
f 43/70/42 46/71/43 67/83/43 65/82/42 
f 46/131/43 48/72/44 68/84/44 67/132/43 
f 48/72/44 50/73/45 69/85/45 68/84/44 
f 50/73/45 52/74/46 70/86/46 69/85/45 
f 52/74/46 54/75/47 71/87/47 70/86/46 
f 54/75/47 56/76/48 72/88/48 71/87/47 
f 56/76/48 58/77/49 73/89/49 72/88/48 
f 58/77/49 60/78/50 74/90/50 73/89/49 
f 60/78/50 62/79/51 75/91/51 74/90/50 
f 62/79/51 64/80/52 76/92/52 75/91/51 
f 64/80/52 44/69/41 66/81/41 76/92/52 
s 8
f 66/81/53 65/82/54 77/94/55 78/93/56 
f 65/82/54 67/83/57 79/95/58 77/94/55 
f 67/133/57 68/84/59 80/96/60 79/134/58 
f 68/84/59 69/85/61 81/97/62 80/96/60 
f 69/85/61 70/86/63 82/98/64 81/97/62 
f 70/86/63 71/87/65 83/99/66 82/98/64 
f 71/87/65 72/88/67 84/100/68 83/99/66 
f 72/88/67 73/89/69 85/101/70 84/100/68 
f 73/89/69 74/90/71 86/102/72 85/101/70 
f 74/90/71 75/91/73 87/103/74 86/102/72 
f 75/91/73 76/92/75 88/104/76 87/103/74 
f 76/92/75 66/81/53 78/93/56 88/104/76 
f 78/93/56 77/94/55 89/106/77 90/105/78 
f 77/94/55 79/95/58 91/107/79 89/106/77 
f 79/135/58 80/96/60 92/108/80 91/136/79 
f 80/96/60 81/97/62 93/109/81 92/108/80 
f 81/97/62 82/98/64 94/110/82 93/109/81 
f 82/98/64 83/99/66 95/111/83 94/110/82 
f 83/99/66 84/100/68 96/112/84 95/111/83 
f 84/100/68 85/101/70 97/113/85 96/112/84 
f 85/101/70 86/102/72 98/114/86 97/113/85 
f 86/102/72 87/103/74 99/115/87 98/114/86 
f 87/103/74 88/104/76 100/116/88 99/115/87 
f 88/104/76 78/93/56 90/105/78 100/116/88 
s 2
f 90/105/89 89/106/90 101/118/90 102/117/89 
f 89/106/90 91/107/91 103/119/91 101/118/90 
f 91/137/91 92/108/92 104/120/92 103/138/91 
f 92/108/92 93/109/93 105/121/93 104/120/92 
f 93/109/93 94/110/94 106/122/94 105/121/93 
f 94/110/94 95/111/95 107/123/95 106/122/94 
f 95/111/95 96/112/96 108/124/96 107/123/95 
f 96/112/96 97/113/97 109/125/97 108/124/96 
f 97/113/97 98/114/98 110/126/98 109/125/97 
f 98/114/98 99/115/99 111/127/99 110/126/98 
f 99/115/99 100/116/100 112/128/100 111/127/99 
f 100/116/100 90/105/89 102/117/89 112/128/100 
s 4
f 102/117/3 101/118/3 103/119/3 111/146/101 
f 103/119/3 104/139/3 105/140/6 107/142/7 
f 105/140/6 106/141/7 107/142/7 
f 107/142/7 108/143/6 109/144/7 111/146/101 
f 109/144/7 110/145/3 111/146/101 
f 103/119/3 107/142/7 111/146/101 
f 112/128/3 102/117/3 111/146/101 
s 8
f 113/147/8 114/159/8 115/160/32 116/148/32 
f 116/148/32 115/160/32 117/161/33 118/149/33 
f 118/219/33 117/220/33 119/162/4 120/150/4 
f 120/150/4 119/162/4 121/163/34 122/151/34 
f 122/151/34 121/163/34 123/164/35 124/152/35 
f 124/152/35 123/164/35 125/165/1 126/153/1 
f 126/153/1 125/165/1 127/166/36 128/154/36 
f 128/154/36 127/166/36 129/167/37 130/155/37 
f 130/155/37 129/167/37 131/168/2 132/156/2 
f 132/156/2 131/168/2 133/169/39 134/157/39 
f 134/157/39 133/169/39 135/170/40 136/158/40 
f 136/158/40 135/170/40 114/159/8 113/147/8 
s 16
f 114/159/102 137/171/103 138/172/104 115/160/104 
f 115/160/104 138/172/104 139/173/105 117/161/105 
f 117/221/105 139/222/105 140/174/106 119/162/106 
f 119/162/106 140/174/106 141/175/107 121/163/107 
f 121/163/107 141/175/107 142/176/108 123/164/108 
f 123/164/108 142/176/108 143/177/109 125/165/109 
f 125/165/109 143/177/109 144/178/110 127/166/110 
f 127/166/110 144/178/110 145/179/111 129/167/111 
f 129/167/111 145/179/111 146/180/112 131/168/112 
f 131/168/112 146/180/112 147/181/113 133/169/113 
f 133/169/113 147/181/113 148/182/114 135/170/114 
f 135/170/114 148/182/114 137/171/103 114/159/102 
s 8
f 137/171/115 149/183/116 150/184/117 138/172/118 
f 138/172/118 150/184/117 151/185/119 139/173/120 
f 139/223/120 151/224/119 152/186/121 140/174/122 
f 140/174/122 152/186/121 153/187/123 141/175/124 
f 141/175/124 153/187/123 154/188/125 142/176/126 
f 142/176/126 154/188/125 155/189/127 143/177/128 
f 143/177/128 155/189/127 156/190/129 144/178/130 
f 144/178/130 156/190/129 157/191/131 145/179/132 
f 145/179/132 157/191/131 158/192/133 146/180/134 
f 146/180/134 158/192/133 159/193/135 147/181/136 
f 147/181/136 159/193/135 160/194/137 148/182/138 
f 148/182/138 160/194/137 149/183/116 137/171/115 
f 149/183/116 161/195/139 162/196/140 150/184/117 
f 150/184/117 162/196/140 163/197/141 151/185/119 
f 151/225/119 163/226/141 164/198/142 152/186/121 
f 152/186/121 164/198/142 165/199/143 153/187/123 
f 153/187/123 165/199/143 166/200/144 154/188/125 
f 154/188/125 166/200/144 167/201/145 155/189/127 
f 155/189/127 167/201/145 168/202/146 156/190/129 
f 156/190/129 168/202/146 169/203/147 157/191/131 
f 157/191/131 169/203/147 170/204/148 158/192/133 
f 158/192/133 170/204/148 171/205/149 159/193/135 
f 159/193/135 171/205/149 172/206/150 160/194/137 
f 160/194/137 172/206/150 161/195/139 149/183/116 
s 2
f 161/195/151 173/207/151 174/208/152 162/196/152 
f 162/196/152 174/208/152 175/209/153 163/197/153 
f 163/227/153 175/228/153 176/210/154 164/198/154 
f 164/198/154 176/210/154 177/211/155 165/199/155 
f 165/199/155 177/211/155 178/212/156 166/200/156 
f 166/200/156 178/212/156 179/213/157 167/201/157 
f 167/201/157 179/213/157 180/214/158 168/202/158 
f 168/202/158 180/214/158 181/215/159 169/203/159 
f 169/203/159 181/215/159 182/216/160 170/204/161 
f 170/204/161 182/216/160 183/217/162 171/205/162 
f 171/205/162 183/217/162 184/218/163 172/206/163 
f 172/206/163 184/218/163 173/207/151 161/195/151 
s 4
f 183/236/5 182/235/5 181/234/10 179/232/10 
f 181/234/10 180/233/9 179/232/10 
f 179/232/10 178/231/10 177/230/9 175/209/164 
f 177/230/9 176/229/5 175/209/164 
f 183/236/5 179/232/10 175/209/164 173/207/5 
f 175/209/164 174/208/5 173/207/5 
f 184/218/5 183/236/5 173/207/5 
# 154 polygons - 16 triangles

