# 3ds Max Wavefront OBJ Exporter v0.97b - (c)2007 guruware
# File Created: 12.06.2017 15:29:08

#
# object doorControlConsole
#

v  -99.1066 34.3675 64.0640
v  -99.1066 34.3675 -74.8320
v  -98.1155 34.3675 -76.3592
v  99.1066 34.3675 -74.8320
v  98.1155 34.3675 -76.3592
v  99.1066 34.3675 64.0640
v  98.1155 34.3675 65.5911
v  -98.1155 34.3675 65.5911
v  98.1155 49.4741 64.0640
v  98.1155 49.4741 2.3062
v  -98.1155 49.4741 2.3062
v  -98.1155 49.4741 64.0640
v  98.1155 47.9469 65.5911
v  -98.1155 47.9469 65.5911
v  99.1066 34.6556 -74.8594
v  99.1066 48.0888 1.7425
v  99.1066 47.9469 64.0640
v  -99.1066 47.9469 64.0640
v  -99.1066 48.0888 1.7425
v  -99.1066 34.6556 -74.8594
v  98.1155 112.3526 -74.8320
v  -98.1155 112.3526 -74.8320
v  -98.1155 112.3526 -40.6258
v  98.1155 112.3526 -40.6258
v  -98.1155 110.8254 -76.3592
v  98.1155 110.8254 -76.3592
v  -99.1066 110.8254 -39.9215
v  -99.1066 110.8254 -74.8320
v  98.1155 111.0771 -38.2587
v  -98.1155 111.0771 -38.2587
v  99.1066 110.8254 -74.8320
v  99.1066 110.8254 -39.9215
v  -96.6289 0.0000 23.7688
v  96.6289 0.0000 23.7688
v  96.6289 34.1408 23.7688
v  -96.6289 34.1408 23.7688
v  96.6289 0.0000 -72.5412
v  96.6289 34.1408 -72.5412
v  -96.6289 0.0000 -72.5412
v  -96.6289 34.1408 -72.5412
v  0.0000 126.8227 -57.8878
v  -0.0000 124.8877 -65.1094
v  -3.6108 124.8877 -64.1419
v  -6.2540 124.8877 -61.4986
v  -7.2215 124.8877 -57.8878
v  -6.2540 124.8877 -54.2771
v  -3.6108 124.8877 -51.6338
v  -0.0000 124.8877 -50.6663
v  3.6108 124.8877 -51.6338
v  6.2540 124.8877 -54.2771
v  7.2215 124.8877 -57.8878
v  6.2540 124.8877 -61.4986
v  3.6108 124.8877 -64.1419
v  -0.0000 119.6012 -70.3959
v  -6.2540 119.6012 -68.7201
v  -10.8323 119.6012 -64.1419
v  -12.5081 119.6012 -57.8878
v  -10.8323 119.6012 -51.6338
v  -6.2540 119.6012 -47.0555
v  -0.0000 119.6012 -45.3798
v  6.2540 119.6012 -47.0555
v  10.8323 119.6012 -51.6338
v  12.5081 119.6012 -57.8878
v  10.8323 119.6012 -64.1419
v  6.2540 119.6012 -68.7201
v  -0.0000 112.6065 -72.3291
v  -7.2206 112.6065 -70.3944
v  -12.5065 112.6065 -65.1085
v  -14.4413 112.6065 -57.8878
v  -12.5065 112.6065 -50.6672
v  -7.2206 112.6065 -45.3813
v  -0.0000 112.6065 -43.4466
v  7.2206 112.6065 -45.3813
v  12.5065 112.6065 -50.6672
v  14.4413 112.6065 -57.8878
v  12.5065 112.6065 -65.1085
v  7.2207 112.6065 -70.3944
v  0.0000 112.6065 -57.8878
# 78 vertices

vn 0.0000 -1.0000 -0.0000
vn 0.0000 1.0000 -0.0000
vn 0.0000 0.0000 1.0000
vn 1.0000 0.0000 -0.0000
vn -1.0000 0.0000 -0.0000
vn 0.0000 0.0000 -1.0000
vn 0.0000 0.5500 0.8352
vn -0.8953 -0.0422 -0.4434
vn 0.8953 -0.0422 -0.4434
vn -0.8191 0.4056 0.4056
vn 0.8191 0.4056 0.4056
vn 0.8191 0.4056 -0.4056
vn -0.8191 0.4056 -0.4056
vn -0.8006 0.5275 0.2843
vn 0.8006 0.5275 0.2843
vn 0.0000 0.7071 0.7071
vn 0.8875 0.4608 0.0005
vn 0.8961 0.0000 0.4438
vn -0.8961 0.0000 0.4438
vn -0.8875 0.4608 0.0005
vn 0.0000 0.7071 -0.7071
vn -0.8961 0.4438 -0.0000
vn 0.0000 0.8803 0.4744
vn 0.8961 0.4438 -0.0000
vn 0.8945 0.0001 -0.4470
vn -0.8945 0.0001 -0.4470
vn -0.8770 0.2651 0.4008
vn 0.8770 0.2651 0.4008
vn -0.0000 1.0000 0.0000
vn 0.0000 0.8421 -0.5393
vn -0.3379 0.8282 -0.4471
vn -0.5450 0.8032 -0.2404
vn -0.6108 0.7918 -0.0000
vn -0.5450 0.8032 0.2404
vn -0.3379 0.8282 0.4471
vn -0.0000 0.8421 0.5393
vn 0.3379 0.8282 0.4471
vn 0.5450 0.8032 0.2404
vn 0.6108 0.7918 0.0000
vn 0.5450 0.8032 -0.2404
vn 0.3379 0.8282 -0.4471
vn 0.0000 0.4813 -0.8766
vn -0.5199 0.4607 -0.7193
vn -0.8236 0.4233 -0.3775
vn -0.9137 0.4064 -0.0000
vn -0.8236 0.4233 0.3775
vn -0.5199 0.4607 0.7193
vn -0.0000 0.4813 0.8766
vn 0.5199 0.4607 0.7193
vn 0.8236 0.4233 0.3775
vn 0.9137 0.4064 0.0000
vn 0.8236 0.4233 -0.3775
vn 0.5199 0.4607 -0.7193
vn 0.0000 0.2664 -0.9639
vn -0.5622 0.2481 -0.7889
vn -0.8856 0.2184 -0.4098
vn -0.9785 0.2064 -0.0000
vn -0.8856 0.2184 0.4098
vn -0.5622 0.2481 0.7889
vn -0.0000 0.2664 0.9639
vn 0.5622 0.2481 0.7889
vn 0.8856 0.2184 0.4098
vn 0.9785 0.2064 0.0000
vn 0.8856 0.2184 -0.4098
vn 0.5622 0.2481 -0.7889
# 65 vertex normals

vt 0.4273 0.6673 0.0000
vt 0.4273 0.6768 0.0000
vt 0.4272 0.6769 0.0000
vt 0.4173 0.6768 0.0000
vt 0.4174 0.6769 0.0000
vt 0.4173 0.6673 0.0000
vt 0.4174 0.6672 0.0000
vt 0.4272 0.6672 0.0000
vt 0.3250 0.5928 0.0000
vt 0.3250 0.6055 0.0000
vt 0.2641 0.6055 0.0000
vt 0.2641 0.5928 0.0000
vt 0.3942 0.6656 0.0000
vt 0.3808 0.6656 0.0000
vt 0.3808 0.6677 0.0000
vt 0.3942 0.6677 0.0000
vt 0.3803 0.6648 0.0000
vt 0.3935 0.6648 0.0000
vt 0.3863 0.6674 0.0000
vt 0.3803 0.6672 0.0000
vt 0.3802 0.6634 0.0000
vt 0.3946 0.6634 0.0000
vt 0.3946 0.6662 0.0000
vt 0.3880 0.6665 0.0000
vt 0.3175 0.6587 0.0000
vt 0.3286 0.6587 0.0000
vt 0.3286 0.6598 0.0000
vt 0.3175 0.6598 0.0000
vt 0.3942 0.6773 0.0000
vt 0.3808 0.6773 0.0000
vt 0.3838 0.6796 0.0000
vt 0.3802 0.6796 0.0000
vt 0.3250 0.6223 0.0000
vt 0.2641 0.6223 0.0000
vt 0.3935 0.6785 0.0000
vt 0.3902 0.6785 0.0000
vt 0.3241 0.6602 0.0000
vt 0.3242 0.6602 0.0000
vt 0.3347 0.6600 0.0000
vt 0.3346 0.6600 0.0000
vt 0.3240 0.6587 0.0000
vt 0.3345 0.6586 0.0000
vt 0.3345 0.6585 0.0000
vt 0.3346 0.6601 0.0000
vt 0.3347 0.6601 0.0000
vt 0.3241 0.6603 0.0000
vt 0.3242 0.6603 0.0000
vt 0.3242 0.6599 0.0000
vt 0.3241 0.6599 0.0000
vt 0.3346 0.6597 0.0000
vt 0.3346 0.6592 0.0000
vt 0.3345 0.6592 0.0000
vt 0.3241 0.6594 0.0000
vt 0.4181 0.6680 0.0000
vt 0.4274 0.6680 0.0000
vt 0.4274 0.6774 0.0000
vt 0.4181 0.6774 0.0000
vt 0.1645 0.9657 0.0000
vt 0.1621 0.9622 0.0000
vt 0.1624 0.9622 0.0000
vt 0.1633 0.9622 0.0000
vt 0.1645 0.9622 0.0000
vt 0.1657 0.9622 0.0000
vt 0.1666 0.9622 0.0000
vt 0.1669 0.9622 0.0000
vt 0.1603 0.9529 0.0000
vt 0.1609 0.9529 0.0000
vt 0.1624 0.9529 0.0000
vt 0.1645 0.9529 0.0000
vt 0.1666 0.9529 0.0000
vt 0.1681 0.9529 0.0000
vt 0.1687 0.9529 0.0000
vt 0.1597 0.9405 0.0000
vt 0.1603 0.9405 0.0000
vt 0.1621 0.9405 0.0000
vt 0.1645 0.9405 0.0000
vt 0.1669 0.9405 0.0000
vt 0.1687 0.9405 0.0000
vt 0.1693 0.9405 0.0000
# 79 texture coords

g doorControlConsole
s 2
f 1/1/1 2/2/1 3/3/1 4/4/1 
f 3/3/1 5/5/1 4/4/1 
f 4/4/1 6/6/1 7/7/1 1/1/1 
f 8/8/1 1/1/1 7/7/1 
s 4
f 9/9/2 10/10/2 11/11/2 12/12/2 
s 8
f 8/13/3 7/14/3 13/15/3 14/16/3 
s 16
f 6/17/4 4/18/4 15/18/4 16/19/4 
f 6/17/4 16/19/4 17/20/4 
s 64
f 2/21/5 1/22/5 18/23/5 19/24/5 
f 20/21/5 2/21/5 19/24/5 
s 4
f 21/25/2 22/26/2 23/27/2 24/28/2 
s off
f 5/14/6 3/13/6 25/29/6 26/30/6 
f 20/21/5 19/24/5 27/31/5 28/32/5 
f 11/11/7 10/10/7 29/33/7 30/34/7 
f 16/19/4 15/18/4 31/35/4 32/36/4 
f 2/37/8 20/37/8 3/38/8 
f 4/39/9 5/40/9 15/39/9 
f 14/41/10 12/41/10 18/41/10 
f 17/42/11 9/42/11 13/43/11 
f 26/44/12 21/44/12 31/45/12 
f 28/46/13 22/47/13 25/47/13 
f 30/48/14 23/48/14 27/49/14 
f 32/50/15 24/50/15 29/50/15 
f 12/41/16 14/41/16 13/43/16 9/42/16 
f 9/42/17 17/42/17 16/51/17 10/52/17 
f 7/43/18 6/43/18 17/42/18 13/43/18 
f 14/41/19 18/41/19 1/41/19 8/41/19 
f 11/53/20 19/53/20 18/41/20 12/41/20 
f 21/44/21 26/44/21 25/47/21 22/47/21 
f 22/47/22 28/46/22 27/49/22 23/48/22 
f 23/48/23 30/48/23 29/50/23 24/50/23 
f 24/50/24 32/50/24 31/45/24 21/44/24 
f 15/39/25 5/40/25 26/44/25 31/45/25 
f 3/38/26 20/37/26 28/46/26 25/47/26 
f 19/53/27 11/53/27 30/48/27 27/49/27 
f 10/52/28 16/51/28 32/50/28 29/50/28 
s 8
f 33/54/3 34/55/3 35/56/3 36/57/3 
s 16
f 34/54/4 37/55/4 38/56/4 35/57/4 
s 32
f 37/54/6 39/55/6 40/56/6 38/57/6 
s 64
f 39/54/5 33/55/5 36/56/5 40/57/5 
s 1
f 41/58/29 42/59/30 43/60/31 
f 41/58/29 43/60/31 44/61/32 
f 41/58/29 44/61/32 45/62/33 
f 41/58/29 45/62/33 46/63/34 
f 41/58/29 46/63/34 47/64/35 
f 41/58/29 47/64/35 48/65/36 
f 41/58/29 48/65/36 49/64/37 
f 41/58/29 49/64/37 50/63/38 
f 41/58/29 50/63/38 51/62/39 
f 41/58/29 51/62/39 52/61/40 
f 41/58/29 52/61/40 53/60/41 
f 41/58/29 53/60/41 42/59/30 
f 42/59/30 54/66/42 55/67/43 43/60/31 
f 43/60/31 55/67/43 56/68/44 44/61/32 
f 44/61/32 56/68/44 57/69/45 45/62/33 
f 45/62/33 57/69/45 58/70/46 46/63/34 
f 46/63/34 58/70/46 59/71/47 47/64/35 
f 47/64/35 59/71/47 60/72/48 48/65/36 
f 48/65/36 60/72/48 61/71/49 49/64/37 
f 49/64/37 61/71/49 62/70/50 50/63/38 
f 50/63/38 62/70/50 63/69/51 51/62/39 
f 51/62/39 63/69/51 64/68/52 52/61/40 
f 52/61/40 64/68/52 65/67/53 53/60/41 
f 53/60/41 65/67/53 54/66/42 42/59/30 
f 54/66/42 66/73/54 67/74/55 55/67/43 
f 55/67/43 67/74/55 68/75/56 56/68/44 
f 56/68/44 68/75/56 69/76/57 57/69/45 
f 57/69/45 69/76/57 70/77/58 58/70/46 
f 58/70/46 70/77/58 71/78/59 59/71/47 
f 59/71/47 71/78/59 72/79/60 60/72/48 
f 60/72/48 72/79/60 73/78/61 61/71/49 
f 61/71/49 73/78/61 74/77/62 62/70/50 
f 62/70/50 74/77/62 75/76/63 63/69/51 
f 63/69/51 75/76/63 76/75/64 64/68/52 
f 64/68/52 76/75/64 77/74/65 65/67/53 
f 65/67/53 77/74/65 66/73/54 54/66/42 
s 2
f 78/76/1 67/74/1 66/73/1 
f 78/76/1 68/75/1 67/74/1 
f 78/76/1 69/76/1 68/75/1 
f 78/76/1 70/77/1 69/76/1 
f 78/76/1 71/78/1 70/77/1 
f 78/76/1 72/79/1 71/78/1 
f 78/76/1 73/78/1 72/79/1 
f 78/76/1 74/77/1 73/78/1 
f 78/76/1 75/76/1 74/77/1 
f 78/76/1 76/75/1 75/76/1 
f 78/76/1 77/74/1 76/75/1 
f 78/76/1 66/73/1 77/74/1 
# 52 polygons - 36 triangles

