# 3ds Max Wavefront OBJ Exporter v0.97b - (c)2007 guruware
# File Created: 29.03.2016 17:42:58

#
# object drinkmachine
#

v  -34.2047 115.9240 23.4572
v  34.2047 115.9240 23.4572
v  34.2047 115.9240 -23.4572
v  -34.2047 115.9240 -23.4572
v  -15.4974 18.3385 10.2726
v  15.4974 18.3385 10.2726
v  15.4974 34.0680 10.2726
v  -15.4974 34.0680 10.2726
v  -33.0175 70.0462 24.1556
v  33.0175 70.0462 24.1556
v  33.0175 82.6364 24.1556
v  -33.0175 82.6364 24.1556
v  33.0175 114.0385 24.1556
v  -33.0175 114.0385 24.1556
v  34.9031 0.0000 23.4572
v  34.9031 0.0000 -23.4572
v  34.9031 70.0462 -23.4572
v  34.9031 70.0462 23.4572
v  34.9031 82.6364 -23.4572
v  34.9031 82.6364 23.4572
v  34.9031 115.2257 -23.4572
v  34.9031 115.2257 23.4572
v  34.2047 0.0000 -24.1556
v  -34.2047 0.0000 -24.1556
v  -34.2047 70.0462 -24.1556
v  34.2047 70.0462 -24.1556
v  -34.2047 82.6364 -24.1556
v  34.2047 82.6364 -24.1556
v  -34.2047 115.2257 -24.1556
v  34.2047 115.2257 -24.1556
v  -34.9031 0.0000 -23.4572
v  -34.9031 0.0000 23.4572
v  -34.9031 70.0462 23.4572
v  -34.9031 70.0462 -23.4572
v  -34.9031 82.6364 23.4572
v  -34.9031 82.6364 -23.4572
v  -34.9031 115.2257 23.4572
v  -34.9031 115.2257 -23.4572
v  34.4093 0.0000 24.1556
v  33.0175 1.8855 24.1556
v  -33.0175 1.8855 24.1556
v  -34.4093 0.0000 24.1556
v  34.2047 70.0462 24.1556
v  34.2047 82.6364 24.1556
v  34.4093 115.4302 24.1556
v  -34.4093 115.4302 24.1556
v  -34.2047 82.6364 24.1556
v  -34.2047 70.0462 24.1556
v  -17.5941 36.1646 24.1556
v  17.5941 36.1646 24.1556
v  -17.5941 16.2418 24.1556
v  17.5941 16.2418 24.1556
v  -15.4974 34.0680 24.1556
v  15.4974 34.0680 24.1556
v  -15.4974 18.3385 24.1556
v  15.4974 18.3385 24.1556
v  29.4775 5.8597 -27.3233
v  11.1036 5.8597 -27.3233
v  11.1036 17.1093 -27.3233
v  29.4775 17.1093 -27.3233
v  29.4775 5.8597 -24.1556
v  11.1036 5.8597 -24.1556
v  11.1036 17.1093 -24.1556
v  29.4775 17.1093 -24.1556
v  25.3335 57.0541 26.2363
v  27.6153 57.0541 26.2363
v  27.6153 64.2562 26.2363
v  25.3335 64.2562 26.2363
v  23.1547 66.1697 24.1556
v  23.1547 55.1406 24.1556
v  23.1547 55.1406 26.2363
v  23.1547 66.1697 26.2363
v  29.7942 55.1406 24.1556
v  29.7942 55.1406 26.2363
v  29.7942 66.1697 24.1556
v  29.7942 66.1697 26.2363
v  22.8257 75.7506 27.6144
v  30.1231 75.7506 27.6144
v  30.1231 77.0752 27.6144
v  22.8257 77.0752 27.6144
v  22.8257 78.0219 26.6126
v  22.8257 74.8040 26.6126
v  30.1231 74.8040 26.6126
v  30.1231 78.0219 26.6126
v  11.3556 75.7506 27.6144
v  18.6530 75.7506 27.6144
v  18.6530 77.0752 27.6144
v  11.3556 77.0752 27.6144
v  11.3556 78.0219 26.6126
v  11.3556 74.8040 26.6126
v  18.6530 74.8040 26.6126
v  18.6530 78.0219 26.6126
v  -0.0656 75.7506 27.6144
v  7.2318 75.7506 27.6144
v  7.2318 77.0752 27.6144
v  -0.0656 77.0752 27.6144
v  -0.0656 78.0219 26.6126
v  -0.0656 74.8040 26.6126
v  7.2318 74.8040 26.6126
v  7.2318 78.0219 26.6126
v  -11.4662 75.7506 27.6144
v  -4.1688 75.7506 27.6144
v  -4.1688 77.0752 27.6144
v  -11.4662 77.0752 27.6144
v  -11.4662 78.0219 26.6126
v  -11.4662 74.8040 26.6126
v  -4.1688 74.8040 26.6126
v  -4.1688 78.0219 26.6126
v  -12.8879 72.7406 26.2363
v  -2.6958 72.7406 26.2363
v  -2.6958 80.0852 26.2363
v  -12.8879 80.0852 26.2363
v  -12.8879 80.0852 24.1556
v  -12.8879 72.7406 24.1556
v  -2.6958 72.7406 24.1556
v  -2.6958 80.0852 24.1556
v  -1.4658 72.7406 26.2363
v  8.7263 72.7406 26.2363
v  8.7263 80.0852 26.2363
v  -1.4658 80.0852 26.2363
v  -1.4658 80.0852 24.1556
v  -1.4658 72.7406 24.1556
v  8.7263 72.7406 24.1556
v  8.7263 80.0852 24.1556
v  9.9563 72.7406 26.2363
v  20.1484 72.7406 26.2363
v  20.1484 80.0852 26.2363
v  9.9563 80.0852 26.2363
v  9.9563 80.0852 24.1556
v  9.9563 72.7406 24.1556
v  20.1484 72.7406 24.1556
v  20.1484 80.0852 24.1556
v  21.3784 72.7406 26.2363
v  31.5705 72.7406 26.2363
v  31.5705 80.0852 26.2363
v  21.3784 80.0852 26.2363
v  21.3784 80.0852 24.1556
v  21.3784 72.7406 24.1556
v  31.5705 72.7406 24.1556
v  31.5705 80.0852 24.1556
# 140 vertices

vn 0.0000 1.0000 -0.0000
vn 0.0000 0.0000 1.0000
vn 1.0000 0.0000 -0.0000
vn 0.0000 0.0000 -1.0000
vn -1.0000 0.0000 -0.0000
vn 0.0000 -1.0000 -0.0000
vn -0.6786 0.6786 0.2811
vn 0.6786 0.6786 0.2811
vn -0.5774 0.5773 -0.5774
vn 0.5774 0.5773 -0.5774
vn 0.0000 0.8165 0.5774
vn 0.7071 0.7071 -0.0000
vn 0.0000 0.7071 -0.7071
vn -0.7071 0.7071 -0.0000
vn 0.7606 0.0011 0.6492
vn -0.7606 0.0011 0.6492
vn 0.7071 0.0000 0.7071
vn -0.7071 0.0000 0.7071
vn 0.7604 -0.0024 0.6494
vn -0.7604 -0.0024 0.6494
vn 0.7071 0.0000 -0.7071
vn -0.7071 0.0000 -0.7071
vn 1.0000 0.0000 0.0000
vn 0.0000 -0.3957 0.9184
vn 0.0000 0.3957 0.9184
vn 0.0000 -0.7268 0.6868
vn 0.0000 0.7268 0.6868
# 27 vertex normals

vt 0.1199 0.6089 0.0000
vt 0.1199 0.5985 0.0000
vt 0.1277 0.5985 0.0000
vt 0.1277 0.6089 0.0000
vt 0.2607 0.8845 0.0000
vt 0.2724 0.8845 0.0000
vt 0.2724 0.8955 0.0000
vt 0.2607 0.8955 0.0000
vt 0.0732 0.9484 0.0000
vt 0.0846 0.9484 0.0000
vt 0.0846 0.9585 0.0000
vt 0.0732 0.9585 0.0000
vt 0.1194 0.6479 0.0000
vt 0.1194 0.6003 0.0000
vt 0.1416 0.6003 0.0000
vt 0.1416 0.6479 0.0000
vt 0.1198 0.5926 0.0000
vt 0.1443 0.5926 0.0000
vt 0.1443 0.6292 0.0000
vt 0.1198 0.6292 0.0000
vt 0.1443 0.6358 0.0000
vt 0.1198 0.6358 0.0000
vt 0.1443 0.6528 0.0000
vt 0.1198 0.6528 0.0000
vt 0.1171 0.5959 0.0000
vt 0.1293 0.5959 0.0000
vt 0.1293 0.6014 0.0000
vt 0.1171 0.6014 0.0000
vt 0.1293 0.6024 0.0000
vt 0.1171 0.6024 0.0000
vt 0.1293 0.6050 0.0000
vt 0.1171 0.6050 0.0000
vt 0.1196 0.5927 0.0000
vt 0.1441 0.5927 0.0000
vt 0.1441 0.6293 0.0000
vt 0.1196 0.6293 0.0000
vt 0.1441 0.6359 0.0000
vt 0.1196 0.6359 0.0000
vt 0.1441 0.6529 0.0000
vt 0.1196 0.6529 0.0000
vt 0.0828 0.9786 0.0000
vt 0.0826 0.9788 0.0000
vt 0.0751 0.9788 0.0000
vt 0.0749 0.9786 0.0000
vt 0.0827 0.9853 0.0000
vt 0.0826 0.9853 0.0000
vt 0.0827 0.9866 0.0000
vt 0.0826 0.9866 0.0000
vt 0.0828 0.9897 0.0000
vt 0.0826 0.9896 0.0000
vt 0.0749 0.9897 0.0000
vt 0.0751 0.9896 0.0000
vt 0.0749 0.9866 0.0000
vt 0.0751 0.9866 0.0000
vt 0.0749 0.9853 0.0000
vt 0.0751 0.9853 0.0000
vt 0.1445 0.5816 0.0000
vt 0.1226 0.5816 0.0000
vt 0.1277 0.5772 0.0000
vt 0.1394 0.5772 0.0000
vt 0.1226 0.5728 0.0000
vt 0.1277 0.5746 0.0000
vt 0.1445 0.5728 0.0000
vt 0.1394 0.5746 0.0000
vt 0.0850 0.9913 0.0000
vt 0.0718 0.9913 0.0000
vt 0.0726 0.9898 0.0000
vt 0.0842 0.9898 0.0000
vt 0.0718 0.9773 0.0000
vt 0.0726 0.9788 0.0000
vt 0.0850 0.9773 0.0000
vt 0.0842 0.9788 0.0000
vt 0.0749 0.9898 0.0000
vt 0.0827 0.9898 0.0000
vt 0.1295 0.6050 0.0000
vt 0.1170 0.6050 0.0000
vt 0.1199 0.5984 0.0000
vt 0.1277 0.5984 0.0000
vt 0.1277 0.6091 0.0000
vt 0.1199 0.6091 0.0000
vt 0.0828 0.9854 0.0000
vt 0.0749 0.9854 0.0000
vt 0.0828 0.9866 0.0000
vt 0.1170 0.5959 0.0000
vt 0.1170 0.6014 0.0000
vt 0.1170 0.6024 0.0000
vt 0.1295 0.5959 0.0000
vt 0.1295 0.6014 0.0000
vt 0.1295 0.6024 0.0000
vt 0.2615 0.8862 0.0000
vt 0.2712 0.8862 0.0000
vt 0.2712 0.8955 0.0000
vt 0.2615 0.8955 0.0000
vt 0.0718 0.9775 0.0000
vt 0.0848 0.9775 0.0000
vt 0.0848 0.9899 0.0000
vt 0.0718 0.9899 0.0000
vt 0.2646 0.8850 0.0000
vt 0.2685 0.8850 0.0000
vt 0.2685 0.8944 0.0000
vt 0.2646 0.8944 0.0000
vt 0.0727 0.9917 0.0000
vt 0.0727 0.9774 0.0000
vt 0.0841 0.9774 0.0000
vt 0.0841 0.9917 0.0000
vt 0.0764 0.9799 0.0000
vt 0.0764 0.9892 0.0000
vt 0.0803 0.9799 0.0000
vt 0.0803 0.9892 0.0000
vt 0.1046 0.9457 0.0000
vt 0.1155 0.9457 0.0000
vt 0.1155 0.9480 0.0000
vt 0.1046 0.9480 0.0000
vt 0.1046 0.9496 0.0000
vt 0.1046 0.9441 0.0000
vt 0.1155 0.9441 0.0000
vt 0.1155 0.9496 0.0000
vt 0.1045 0.9457 0.0000
vt 0.1154 0.9457 0.0000
vt 0.1154 0.9480 0.0000
vt 0.1045 0.9480 0.0000
vt 0.1045 0.9496 0.0000
vt 0.1045 0.9441 0.0000
vt 0.1154 0.9441 0.0000
vt 0.1154 0.9496 0.0000
vt 0.1040 0.9457 0.0000
vt 0.1149 0.9457 0.0000
vt 0.1149 0.9480 0.0000
vt 0.1040 0.9480 0.0000
vt 0.1040 0.9496 0.0000
vt 0.1040 0.9441 0.0000
vt 0.1149 0.9441 0.0000
vt 0.1149 0.9496 0.0000
vt 0.1037 0.9457 0.0000
vt 0.1146 0.9457 0.0000
vt 0.1146 0.9480 0.0000
vt 0.1037 0.9480 0.0000
vt 0.1037 0.9496 0.0000
vt 0.1037 0.9441 0.0000
vt 0.1146 0.9441 0.0000
vt 0.1146 0.9496 0.0000
vt 0.1354 0.7617 0.0000
vt 0.1472 0.7617 0.0000
vt 0.1472 0.7706 0.0000
vt 0.1354 0.7706 0.0000
vt 0.1354 0.7711 0.0000
vt 0.1354 0.7622 0.0000
vt 0.1472 0.7622 0.0000
vt 0.1472 0.7711 0.0000
vt 0.0736 0.8853 0.0000
vt 0.0831 0.8853 0.0000
vt 0.0831 0.8947 0.0000
vt 0.0736 0.8947 0.0000
vt 0.0736 0.8952 0.0000
vt 0.0736 0.8858 0.0000
vt 0.0831 0.8858 0.0000
vt 0.0831 0.8952 0.0000
vt 0.3242 0.8705 0.0000
vt 0.3335 0.8705 0.0000
vt 0.3335 0.8799 0.0000
vt 0.3242 0.8799 0.0000
vt 0.3242 0.8804 0.0000
vt 0.3242 0.8711 0.0000
vt 0.3335 0.8711 0.0000
vt 0.3335 0.8804 0.0000
vt 0.3244 0.8705 0.0000
vt 0.3337 0.8705 0.0000
vt 0.3337 0.8799 0.0000
vt 0.3244 0.8799 0.0000
vt 0.3244 0.8804 0.0000
vt 0.3244 0.8711 0.0000
vt 0.3337 0.8711 0.0000
vt 0.3337 0.8804 0.0000
# 173 texture coords

g drinkmachine
f 1/1/1 2/2/1 3/3/1 4/4/1 
f 5/5/2 6/6/2 7/7/2 8/8/2 
f 9/9/2 10/10/2 11/11/2 12/12/2 
f 12/13/2 11/14/2 13/15/2 14/16/2 
f 15/17/3 16/18/3 17/19/3 18/20/3 
f 18/20/3 17/19/3 19/21/3 20/22/3 
f 20/22/3 19/21/3 21/23/3 22/24/3 
f 23/25/4 24/26/4 25/27/4 26/28/4 
f 26/28/4 25/27/4 27/29/4 28/30/4 
f 28/30/4 27/29/4 29/31/4 30/32/4 
f 31/33/5 32/34/5 33/35/5 34/36/5 
f 34/36/5 33/35/5 35/37/5 36/38/5 
f 36/38/5 35/37/5 37/39/5 38/40/5 
f 39/41/2 40/42/2 41/43/2 42/44/2 
f 39/41/2 43/45/2 10/46/2 40/42/2 
f 43/45/2 44/47/2 11/48/2 10/46/2 
f 44/47/2 45/49/2 13/50/2 11/48/2 
f 45/49/2 46/51/2 14/52/2 13/50/2 
f 46/51/2 47/53/2 12/54/2 14/52/2 
f 47/53/2 48/55/2 9/56/2 12/54/2 
f 48/55/2 42/44/2 41/43/2 9/56/2 
f 10/57/2 9/58/2 49/59/2 50/60/2 
f 9/58/2 41/61/2 51/62/2 49/59/2 
f 41/61/2 40/63/2 52/64/2 51/62/2 
f 40/63/2 10/57/2 50/60/2 52/64/2 
f 50/65/2 49/66/2 53/67/2 54/68/2 
f 49/66/2 51/69/2 55/70/2 53/67/2 
f 51/69/2 52/71/2 56/72/2 55/70/2 
f 52/71/2 50/65/2 54/68/2 56/72/2 
f 54/7/6 53/8/6 8/8/6 7/7/6 
f 53/8/3 55/5/3 5/5/3 8/8/3 
f 55/5/1 56/6/1 6/6/1 5/5/1 
f 56/6/5 54/7/5 7/7/5 6/6/5 
f 1/73/7 37/51/7 46/51/7 
f 45/49/8 22/49/8 2/74/8 
f 4/31/9 29/31/9 38/75/9 
f 21/76/10 30/32/10 3/32/10 
f 45/49/11 2/74/11 1/73/11 46/51/11 
f 2/2/12 22/77/12 21/78/12 3/3/12 
f 3/32/13 30/32/13 29/31/13 4/31/13 
f 4/4/14 38/79/14 37/80/14 1/1/14 
f 39/41/15 15/41/15 18/81/15 43/45/15 
f 48/55/16 33/82/16 32/44/16 42/44/16 
f 43/45/17 18/81/17 20/83/17 44/47/17 
f 47/53/18 35/53/18 33/82/18 48/55/18 
f 44/47/19 20/83/19 22/49/19 45/49/19 
f 46/51/20 37/51/20 35/53/20 47/53/20 
f 16/84/21 23/25/21 26/28/21 17/85/21 
f 17/85/21 26/28/21 28/30/21 19/86/21 
f 19/86/21 28/30/21 30/32/21 21/76/21 
f 24/26/22 31/87/22 34/88/22 25/27/22 
f 25/27/22 34/88/22 36/89/22 27/29/22 
f 27/29/22 36/89/22 38/75/22 29/31/22 
f 57/90/4 58/91/4 59/92/4 60/93/4 
f 61/94/6 62/95/6 58/95/6 57/94/6 
f 62/95/5 63/96/5 59/96/5 58/95/5 
f 63/96/1 64/97/1 60/97/1 59/96/1 
f 64/97/23 61/94/23 57/94/23 60/97/23 
f 65/98/2 66/99/2 67/100/2 68/101/2 
f 69/102/5 70/103/5 71/103/5 72/102/5 
f 70/103/6 73/104/6 74/104/6 71/103/6 
f 73/104/3 75/105/3 76/105/3 74/104/3 
f 75/105/1 69/102/1 72/102/1 76/105/1 
f 72/102/2 71/103/2 65/106/2 68/107/2 
f 71/103/2 74/104/2 66/108/2 65/106/2 
f 74/104/2 76/105/2 67/109/2 66/108/2 
f 76/105/2 72/102/2 68/107/2 67/109/2 
f 77/110/24 78/111/24 79/112/25 80/113/25 
f 81/114/5 82/115/5 77/110/5 80/113/5 
f 82/115/26 83/116/26 78/111/24 77/110/24 
f 83/116/3 84/117/3 79/112/3 78/111/3 
f 84/117/27 81/114/27 80/113/25 79/112/25 
f 85/118/24 86/119/24 87/120/25 88/121/25 
f 89/122/5 90/123/5 85/118/5 88/121/5 
f 90/123/26 91/124/26 86/119/24 85/118/24 
f 91/124/3 92/125/3 87/120/3 86/119/3 
f 92/125/27 89/122/27 88/121/25 87/120/25 
f 93/126/24 94/127/24 95/128/25 96/129/25 
f 97/130/5 98/131/5 93/126/5 96/129/5 
f 98/131/26 99/132/26 94/127/24 93/126/24 
f 99/132/3 100/133/3 95/128/3 94/127/3 
f 100/133/27 97/130/27 96/129/25 95/128/25 
f 101/134/24 102/135/24 103/136/25 104/137/25 
f 105/138/5 106/139/5 101/134/5 104/137/5 
f 106/139/26 107/140/26 102/135/24 101/134/24 
f 107/140/3 108/141/3 103/136/3 102/135/3 
f 108/141/27 105/138/27 104/137/25 103/136/25 
f 109/142/2 110/143/2 111/144/2 112/145/2 
f 113/146/5 114/147/5 109/142/5 112/145/5 
f 114/147/6 115/148/6 110/143/6 109/142/6 
f 115/148/3 116/149/3 111/144/3 110/143/3 
f 116/149/1 113/146/1 112/145/1 111/144/1 
f 117/150/2 118/151/2 119/152/2 120/153/2 
f 121/154/5 122/155/5 117/150/5 120/153/5 
f 122/155/6 123/156/6 118/151/6 117/150/6 
f 123/156/3 124/157/3 119/152/3 118/151/3 
f 124/157/1 121/154/1 120/153/1 119/152/1 
f 125/158/2 126/159/2 127/160/2 128/161/2 
f 129/162/5 130/163/5 125/158/5 128/161/5 
f 130/163/6 131/164/6 126/159/6 125/158/6 
f 131/164/3 132/165/3 127/160/3 126/159/3 
f 132/165/1 129/162/1 128/161/1 127/160/1 
f 133/166/2 134/167/2 135/168/2 136/169/2 
f 137/170/5 138/171/5 133/166/5 136/169/5 
f 138/171/6 139/172/6 134/167/6 133/166/6 
f 139/172/3 140/173/3 135/168/3 134/167/3 
f 140/173/1 137/170/1 136/169/1 135/168/1 
# 103 polygons - 4 triangles

