# 3ds Max Wavefront OBJ Exporter v0.97b - (c)2007 guruware
# File Created: 29.03.2016 14:19:16

#
# object foodtraydirty
#

v  -34.6312 1.3641 114.4419
v  -14.1704 1.3641 114.4419
v  -14.1704 1.3641 85.5581
v  -34.6312 1.3641 85.5581
v  -10.2304 1.3641 114.4419
v  10.2304 1.3641 114.4419
v  10.2304 1.3641 85.5581
v  -10.2304 1.3641 85.5581
v  14.1704 1.3641 114.4419
v  34.6312 1.3641 114.4419
v  34.6312 1.3641 85.5581
v  14.1704 1.3641 85.5581
v  -37.5712 0.0000 118.3819
v  -12.1704 0.0000 118.3819
v  -12.1704 2.3641 118.3819
v  -37.5712 2.3641 118.3819
v  12.1704 0.0000 118.3819
v  12.1704 2.3641 118.3819
v  37.5712 0.0000 118.3819
v  37.5712 2.3641 118.3819
v  38.5712 0.0000 117.3819
v  38.5712 0.0000 82.6181
v  38.5712 2.3641 82.6181
v  38.5712 2.3641 117.3819
v  37.5712 0.0000 81.6181
v  12.1704 0.0000 81.6181
v  12.1704 2.3641 81.6181
v  37.5712 2.3641 81.6181
v  -12.1704 0.0000 81.6181
v  -12.1704 2.3641 81.6181
v  -37.5712 0.0000 81.6181
v  -37.5712 2.3641 81.6181
v  -38.5712 0.0000 82.6181
v  -38.5712 0.0000 117.3819
v  -38.5712 2.3641 117.3819
v  -38.5712 2.3641 82.6181
v  -13.1704 2.3641 115.4419
v  -35.6312 2.3641 115.4419
v  -35.6312 2.3641 84.5581
v  -13.1704 2.3641 84.5581
v  11.2304 2.3641 115.4419
v  -11.2304 2.3641 115.4419
v  -11.2304 2.3641 84.5581
v  11.2304 2.3641 84.5581
v  35.6312 2.3641 115.4419
v  13.1704 2.3641 115.4419
v  35.6312 2.3641 84.5581
v  13.1704 2.3641 84.5581
v  -29.8528 2.0235 102.3971
v  -27.9416 1.6025 99.6837
v  -30.6441 3.4246 100.7362
v  -31.1342 1.9582 99.0113
v  -33.0453 1.7318 101.7247
v  -26.3005 1.8612 107.3434
v  -23.9879 1.9813 106.5619
v  -25.5863 2.4175 105.4639
v  -24.7375 1.6147 104.7178
v  -26.1836 1.8892 105.8681
v  -22.2251 1.6953 110.7279
v  -21.1758 1.6348 113.9836
v  -19.7382 3.1084 112.3773
v  -17.5267 1.7305 113.0810
v  -19.0634 1.8394 109.8202
v  -16.9218 1.6703 104.1902
v  -17.1928 1.9003 100.4382
v  -19.0000 3.8044 103.0411
v  -20.3413 1.3958 101.2713
v  -20.8804 2.0501 104.0707
v  -18.8858 2.1421 96.4598
v  -20.8929 1.6773 99.5960
v  -17.5670 3.4582 99.0661
v  -17.4404 1.7380 100.7042
v  -15.4465 2.2451 97.5779
v  -21.8219 1.5481 98.0731
v  -22.1422 1.8529 96.4930
v  -22.9122 2.7693 97.6237
v  -23.4156 1.7871 97.0969
v  -23.4186 2.0516 98.7930
v  -24.2801 1.7243 96.6632
v  -22.2584 1.8842 95.6166
v  -23.8343 3.0153 94.9498
v  -23.0427 1.8720 92.5452
v  -25.8864 1.6782 94.1493
v  -20.4926 1.8489 90.5046
v  -19.9935 1.8786 93.1437
v  -19.1700 3.0611 92.3647
v  -19.4937 1.8774 94.3321
v  -16.9910 1.6880 92.3385
v  -31.9459 1.9134 91.1541
v  -29.4786 1.9311 91.8614
v  -30.6890 3.1566 89.6925
v  -29.3928 1.8108 87.8507
v  -32.3661 1.5101 88.3433
v  -30.7600 2.2763 109.6800
v  -34.6337 1.5361 109.3551
v  -32.2569 3.2195 111.0904
v  -33.1768 2.0756 112.9458
v  -29.9935 1.3956 112.0051
v  -24.3138 1.8152 88.4287
v  -22.3199 1.6808 88.2630
v  -23.6709 2.7360 86.8949
v  -22.0945 1.5317 85.9239
v  -23.7030 2.0768 87.1661
v  0.6047 1.9404 102.0189
v  -1.5912 1.6041 104.0742
v  0.9376 3.2090 103.5024
v  1.1929 1.9143 104.9906
v  3.3888 1.7299 102.9352
v  5.0012 1.7982 112.5759
v  7.6443 1.7231 110.0279
v  5.7873 3.6742 110.5966
v  5.7923 1.7676 108.3924
v  3.1833 1.7867 110.0158
v  7.5266 1.7240 101.8407
v  9.3905 1.8042 103.7949
v  9.7484 3.1974 101.9553
v  10.4762 1.7354 101.3554
v  8.0691 1.4981 100.1412
v  0.6003 2.0066 96.5061
v  1.5726 2.1327 98.7218
v  2.7855 2.9365 97.2130
v  3.5032 1.7913 97.7669
v  2.6375 1.6688 95.9278
v  2.3614 1.5755 92.6684
v  4.5382 1.4957 90.3010
v  3.6606 2.9641 90.5986
v  3.1236 1.6742 88.9153
v  1.2929 1.5893 90.4990
v  -3.1846 2.0479 90.5174
v  -1.8051 1.5303 89.5621
v  -1.7395 2.6988 89.3478
v  -1.6241 1.6184 88.0855
v  -3.7642 1.6315 88.5337
v  -8.9113 2.0070 93.9589
v  -5.4157 1.6501 96.4032
v  -5.7659 3.9059 94.1506
v  -3.3936 1.4999 93.7827
v  -6.0891 2.0017 91.6706
v  -5.5172 1.7718 103.3068
v  -8.1063 1.7073 106.0435
v  -6.2199 3.7292 105.7835
v  -5.9692 1.8863 108.0482
v  -3.1811 1.9188 105.7429
v  -3.4036 1.8275 111.6191
v  -2.6514 1.8874 112.8258
v  -1.8626 2.5926 111.8513
v  -1.5387 1.7153 112.1278
v  -2.3635 2.0051 111.1202
v  28.6360 1.9320 109.1014
v  29.0702 1.7241 112.6684
v  30.9339 3.6391 110.0838
v  32.5383 1.8567 111.7549
v  32.1040 1.7843 108.1879
v  24.1796 1.4068 107.9067
v  20.3374 1.5236 108.0702
v  21.4820 3.4158 109.9801
v  20.4477 1.9002 111.0688
v  22.6477 1.5758 111.3773
v  26.8044 1.8605 105.0675
v  25.8128 2.2865 107.1496
v  26.6786 2.7859 106.3081
v  27.3648 1.8372 107.4581
v  27.5362 2.4075 106.5502
v  27.9485 1.8975 100.0273
v  25.4007 2.1210 99.1486
v  25.7555 3.0063 101.3924
v  23.4489 1.4541 102.5255
v  27.1463 1.7536 103.1939
v  19.2327 1.8502 101.3509
v  16.4053 2.1589 102.1163
v  18.0989 3.2075 102.8794
v  16.1926 1.7811 104.7788
v  20.2920 1.9017 103.7186
v  15.6159 1.8872 96.9940
v  17.5984 1.9039 95.4599
v  15.5019 2.6227 95.2995
v  15.7575 1.4927 93.6446
v  14.3370 1.7388 95.5392
v  22.3099 1.8379 91.9555
v  20.0659 1.4004 90.8048
v  21.2478 2.9037 92.6619
v  18.2725 1.6935 93.4372
v  20.9070 1.8247 94.8486
v  27.1421 1.7798 92.7430
v  31.8255 1.6565 91.3939
v  29.5382 3.5231 90.9444
v  30.2180 1.8168 88.5416
v  25.7840 1.4836 89.8052
v  16.8034 1.5257 85.6120
v  14.9638 1.9737 88.1211
v  17.2292 3.2882 87.9631
v  16.8009 1.8041 90.0947
v  18.3489 1.5262 88.4081
# 193 vertices

vn 0.0000 1.0000 -0.0000
vn 0.0000 0.0000 1.0000
vn 1.0000 0.0000 -0.0000
vn 0.0000 0.0000 -1.0000
vn -1.0000 0.0000 -0.0000
vn -0.7071 0.0000 0.7071
vn 0.7071 0.0000 0.7071
vn 0.7071 0.0000 -0.7071
vn -0.7071 0.0000 -0.7071
vn 0.0000 0.7071 -0.7071
vn -0.7071 0.7071 -0.0000
vn 0.0000 0.7071 0.7071
vn 0.7071 0.7071 -0.0000
vn 0.2501 0.7955 0.5519
vn 0.4896 0.8466 -0.2086
vn -0.0291 0.9995 -0.0077
vn -0.1979 0.7738 -0.6017
vn -0.5143 0.8374 0.1849
vn -0.1766 0.9600 0.2171
vn 0.2453 0.9690 0.0278
vn -0.2787 0.8447 -0.4569
vn 0.2014 0.7725 -0.6022
vn -0.7339 0.6234 -0.2696
vn -0.3961 0.9014 -0.1749
vn -0.3056 0.8220 0.4806
vn 0.0367 0.9899 0.1367
vn 0.4563 0.8562 0.2423
vn 0.1531 0.9007 -0.4066
vn 0.5247 0.7387 0.4231
vn 0.2414 0.8554 -0.4582
vn -0.0559 0.9926 0.1075
vn -0.5047 0.6758 -0.5372
vn -0.5625 0.7738 0.2911
vn -0.2346 0.9103 -0.3410
vn -0.4323 0.8737 0.2233
vn 0.1079 0.9712 0.2125
vn 0.1361 0.6884 0.7124
vn 0.4340 0.8941 -0.1104
vn 0.6647 0.6947 0.2750
vn 0.3581 0.8296 -0.4285
vn -0.0805 0.9959 -0.0420
vn -0.6388 0.5914 -0.4922
vn -0.1375 0.8696 0.4742
vn -0.2025 0.8067 0.5552
vn 0.4887 0.8333 0.2584
vn -0.0197 0.9961 0.0855
vn 0.1046 0.9111 -0.3987
vn -0.5113 0.8520 -0.1124
vn -0.2305 0.8820 -0.4109
vn -0.7210 0.6536 0.2300
vn -0.0205 0.9992 -0.0340
vn -0.0680 0.8598 0.5061
vn 0.5318 0.8450 -0.0559
vn -0.4541 0.8324 0.3176
vn 0.2658 0.8953 0.3576
vn -0.0111 0.9982 -0.0594
vn 0.2473 0.8570 -0.4521
vn -0.4719 0.7943 -0.3827
vn 0.3437 0.9074 -0.2420
vn -0.4270 0.8672 -0.2563
vn -0.0117 0.9988 0.0472
vn -0.1753 0.8745 0.4522
vn 0.4922 0.7920 0.3612
vn -0.1525 0.8742 0.4609
vn 0.3936 0.8739 0.2854
vn -0.3949 0.8199 -0.4145
vn 0.4737 0.8381 -0.2705
vn -0.7932 -0.1982 -0.5759
vn -0.1581 0.7677 -0.6210
vn -0.5126 0.8503 0.1194
vn -0.0031 1.0000 0.0075
vn 0.1118 0.7591 0.6413
vn 0.4968 0.8620 -0.1009
vn -0.0973 0.7414 0.6640
vn 0.7143 0.6973 -0.0597
vn 0.1314 0.9872 0.0904
vn 0.0568 0.7552 -0.6531
vn -0.5642 0.8164 -0.1232
vn -0.5529 0.8332 0.0082
vn 0.0397 0.7928 0.6082
vn 0.2981 0.9545 0.0026
vn 0.7514 0.5334 -0.3885
vn -0.2393 0.8093 -0.5365
vn -0.2939 0.9109 -0.2897
vn -0.1165 0.9124 0.3924
vn 0.3627 0.9285 -0.0798
vn 0.7859 0.5868 0.1950
vn 0.2980 0.6622 -0.6875
vn -0.1089 0.8558 0.5057
vn 0.8554 0.5172 -0.0290
vn 0.3238 0.9449 0.0474
vn -0.0027 0.7942 -0.6077
vn -0.4994 0.8643 -0.0593
vn -0.1464 0.9302 0.3367
vn 0.8574 0.0459 0.5127
vn 0.5285 0.8415 0.1119
vn 0.4221 0.7074 -0.5669
vn -0.3248 0.8801 -0.3463
vn -0.5187 0.8523 0.0673
vn 0.1821 0.7088 0.6815
vn 0.0978 0.9926 0.0714
vn 0.7094 0.7041 -0.0306
vn 0.0594 0.7880 -0.6128
vn -0.0012 0.7844 -0.6202
vn -0.7304 0.6829 0.0108
vn -0.1616 0.9867 -0.0161
vn -0.0400 0.7729 0.6333
vn 0.5118 0.8591 -0.0040
vn -0.4404 0.8972 -0.0337
vn -0.1336 0.8511 0.5078
vn 0.4592 0.8858 -0.0667
vn 0.8771 0.4052 0.2578
vn 0.0061 0.7774 -0.6290
vn -0.4897 0.8237 -0.2859
vn -0.2798 0.8568 0.4331
vn 0.0886 0.9935 -0.0716
vn 0.4839 0.7895 0.3775
vn 0.3662 0.7680 -0.5253
vn 0.4084 0.8611 -0.3030
vn -0.3744 0.7611 -0.5297
vn -0.0889 0.9922 0.0879
vn -0.5103 0.7035 0.4946
vn 0.4483 0.7031 0.5519
vn -0.1468 0.7857 -0.6009
vn -0.2631 0.9240 0.2776
vn -0.1258 0.9809 -0.1482
vn 0.1520 0.8050 0.5734
vn 0.3518 0.9171 0.1873
vn 0.3866 0.9142 -0.1215
vn -0.1552 0.9271 -0.3412
vn -0.0778 0.9921 0.0984
vn -0.4342 0.8542 0.2861
vn 0.2060 0.8708 0.4464
vn 0.3130 0.8135 -0.4903
vn -0.4176 0.8686 -0.2667
vn 0.0347 0.9992 -0.0216
vn -0.2410 0.8766 0.4165
vn 0.4410 0.8734 0.2066
vn -0.0743 0.9129 0.4013
vn 0.3292 0.9400 -0.0898
vn -0.1672 0.9790 -0.1164
vn -0.0576 0.8203 -0.5690
vn -0.6109 0.7897 -0.0570
vn 0.5444 0.7673 -0.3390
vn -0.2145 0.8214 -0.5284
vn 0.2361 0.9705 -0.0484
vn -0.3782 0.9257 -0.0064
vn 0.0506 0.8925 0.4483
vn -0.3111 0.8552 0.4145
vn 0.5881 0.7758 0.2287
vn 0.1327 0.9849 0.1113
vn 0.1866 0.8252 -0.5332
vn -0.4219 0.8855 -0.1948
vn 0.1264 0.7826 -0.6096
vn -0.5027 0.8643 -0.0174
vn 0.2429 0.9688 -0.0499
vn 0.0938 0.8081 0.5815
vn 0.8330 0.5482 0.0744
# 158 vertex normals

vt 0.1026 0.9434 0.0000
vt 0.1071 0.9434 0.0000
vt 0.1071 0.9497 0.0000
vt 0.1026 0.9497 0.0000
vt 0.1079 0.9434 0.0000
vt 0.1124 0.9434 0.0000
vt 0.1124 0.9497 0.0000
vt 0.1079 0.9497 0.0000
vt 0.1132 0.9434 0.0000
vt 0.1176 0.9434 0.0000
vt 0.1176 0.9497 0.0000
vt 0.1132 0.9497 0.0000
vt 0.1020 0.9425 0.0000
vt 0.1075 0.9425 0.0000
vt 0.1128 0.9425 0.0000
vt 0.1183 0.9425 0.0000
vt 0.1185 0.9428 0.0000
vt 0.1185 0.9503 0.0000
vt 0.1183 0.9505 0.0000
vt 0.1128 0.9505 0.0000
vt 0.1075 0.9505 0.0000
vt 0.1020 0.9505 0.0000
vt 0.1018 0.9503 0.0000
vt 0.1018 0.9428 0.0000
vt 0.1073 0.9432 0.0000
vt 0.1024 0.9432 0.0000
vt 0.1024 0.9499 0.0000
vt 0.1073 0.9499 0.0000
vt 0.1126 0.9432 0.0000
vt 0.1077 0.9432 0.0000
vt 0.1077 0.9499 0.0000
vt 0.1126 0.9499 0.0000
vt 0.1179 0.9432 0.0000
vt 0.1130 0.9432 0.0000
vt 0.1179 0.9499 0.0000
vt 0.1130 0.9499 0.0000
vt 0.1024 0.9806 0.0000
vt 0.1073 0.9806 0.0000
vt 0.1071 0.9808 0.0000
vt 0.1026 0.9808 0.0000
vt 0.1073 0.9873 0.0000
vt 0.1071 0.9871 0.0000
vt 0.1024 0.9873 0.0000
vt 0.1026 0.9871 0.0000
vt 0.1077 0.9806 0.0000
vt 0.1126 0.9806 0.0000
vt 0.1124 0.9808 0.0000
vt 0.1079 0.9808 0.0000
vt 0.1126 0.9873 0.0000
vt 0.1124 0.9871 0.0000
vt 0.1077 0.9873 0.0000
vt 0.1079 0.9871 0.0000
vt 0.1130 0.9806 0.0000
vt 0.1179 0.9806 0.0000
vt 0.1176 0.9808 0.0000
vt 0.1132 0.9808 0.0000
vt 0.1179 0.9873 0.0000
vt 0.1176 0.9871 0.0000
vt 0.1130 0.9873 0.0000
vt 0.1132 0.9871 0.0000
vt 0.0120 0.7054 0.0000
vt 0.0120 0.7025 0.0000
vt 0.0135 0.7040 0.0000
vt 0.0150 0.7025 0.0000
vt 0.0150 0.7054 0.0000
vt 0.0129 0.7150 0.0000
vt 0.0129 0.7124 0.0000
vt 0.0118 0.7137 0.0000
vt 0.0107 0.7124 0.0000
vt 0.0107 0.7150 0.0000
vt 0.0224 0.7125 0.0000
vt 0.0224 0.7095 0.0000
vt 0.0239 0.7110 0.0000
vt 0.0254 0.7095 0.0000
vt 0.0254 0.7125 0.0000
vt 0.0181 0.7054 0.0000
vt 0.0181 0.7025 0.0000
vt 0.0196 0.7040 0.0000
vt 0.0211 0.7025 0.0000
vt 0.0211 0.7054 0.0000
vt 0.0118 0.7128 0.0000
vt 0.0118 0.7099 0.0000
vt 0.0133 0.7113 0.0000
vt 0.0148 0.7099 0.0000
vt 0.0148 0.7128 0.0000
vt 0.0054 0.7117 0.0000
vt 0.0054 0.7088 0.0000
vt 0.0069 0.7103 0.0000
vt 0.0084 0.7088 0.0000
vt 0.0084 0.7117 0.0000
vt 0.0160 0.7071 0.0000
vt 0.0160 0.7042 0.0000
vt 0.0175 0.7057 0.0000
vt 0.0190 0.7042 0.0000
vt 0.0190 0.7071 0.0000
vt 0.0097 0.7086 0.0000
vt 0.0097 0.7057 0.0000
vt 0.0112 0.7071 0.0000
vt 0.0127 0.7057 0.0000
vt 0.0127 0.7086 0.0000
vt 0.0036 0.7070 0.0000
vt 0.0036 0.7041 0.0000
vt 0.0051 0.7055 0.0000
vt 0.0066 0.7041 0.0000
vt 0.0066 0.7070 0.0000
vt 0.0166 0.7124 0.0000
vt 0.0166 0.7094 0.0000
vt 0.0180 0.7109 0.0000
vt 0.0195 0.7094 0.0000
vt 0.0195 0.7124 0.0000
vt 0.0222 0.7069 0.0000
vt 0.0222 0.7040 0.0000
vt 0.0237 0.7054 0.0000
vt 0.0252 0.7040 0.0000
vt 0.0252 0.7069 0.0000
vt 0.0212 0.6242 0.0000
vt 0.0212 0.6212 0.0000
vt 0.0227 0.6227 0.0000
vt 0.0242 0.6212 0.0000
vt 0.0242 0.6242 0.0000
vt 0.0093 0.6165 0.0000
vt 0.0093 0.6136 0.0000
vt 0.0108 0.6150 0.0000
vt 0.0123 0.6136 0.0000
vt 0.0123 0.6165 0.0000
vt 0.0256 0.6199 0.0000
vt 0.0256 0.6170 0.0000
vt 0.0271 0.6184 0.0000
vt 0.0285 0.6170 0.0000
vt 0.0285 0.6199 0.0000
vt 0.0139 0.6337 0.0000
vt 0.0139 0.6308 0.0000
vt 0.0154 0.6323 0.0000
vt 0.0169 0.6308 0.0000
vt 0.0169 0.6337 0.0000
vt 0.0089 0.6242 0.0000
vt 0.0089 0.6212 0.0000
vt 0.0104 0.6227 0.0000
vt 0.0119 0.6212 0.0000
vt 0.0119 0.6242 0.0000
vt 0.0153 0.6193 0.0000
vt 0.0153 0.6164 0.0000
vt 0.0168 0.6179 0.0000
vt 0.0183 0.6164 0.0000
vt 0.0183 0.6193 0.0000
vt 0.0082 0.6301 0.0000
vt 0.0082 0.6271 0.0000
vt 0.0097 0.6286 0.0000
vt 0.0111 0.6271 0.0000
vt 0.0111 0.6301 0.0000
vt 0.0195 0.6185 0.0000
vt 0.0195 0.6155 0.0000
vt 0.0210 0.6170 0.0000
vt 0.0225 0.6155 0.0000
vt 0.0225 0.6185 0.0000
vt 0.0207 0.6300 0.0000
vt 0.0207 0.6271 0.0000
vt 0.0221 0.6285 0.0000
vt 0.0236 0.6271 0.0000
vt 0.0236 0.6300 0.0000
vt 0.0169 0.6808 0.0000
vt 0.0169 0.6779 0.0000
vt 0.0184 0.6793 0.0000
vt 0.0199 0.6779 0.0000
vt 0.0199 0.6808 0.0000
# 165 texture coords

g foodtraydirty
f 1/1/1 2/2/1 3/3/1 4/4/1 
f 5/5/1 6/6/1 7/7/1 8/8/1 
f 9/9/1 10/10/1 11/11/1 12/12/1 
f 13/13/2 14/14/2 15/14/2 16/13/2 
f 14/14/2 17/15/2 18/15/2 15/14/2 
f 17/15/2 19/16/2 20/16/2 18/15/2 
f 21/17/3 22/18/3 23/18/3 24/17/3 
f 25/19/4 26/20/4 27/20/4 28/19/4 
f 26/20/4 29/21/4 30/21/4 27/20/4 
f 29/21/4 31/22/4 32/22/4 30/21/4 
f 33/23/5 34/24/5 35/24/5 36/23/5 
f 16/13/1 15/14/1 37/25/1 38/26/1 
f 30/21/1 32/22/1 39/27/1 40/28/1 
f 36/23/1 35/24/1 38/26/1 39/27/1 
f 15/14/1 18/15/1 41/29/1 42/30/1 
f 27/20/1 30/21/1 43/31/1 44/32/1 
f 18/15/1 20/16/1 45/33/1 46/34/1 
f 24/17/1 23/18/1 47/35/1 45/33/1 
f 28/19/1 27/20/1 48/36/1 47/35/1 
f 16/13/1 38/26/1 35/24/1 
f 24/17/1 45/33/1 20/16/1 
f 36/23/1 39/27/1 32/22/1 
f 28/19/1 47/35/1 23/18/1 
f 16/13/6 35/24/6 34/24/6 13/13/6 
f 19/16/7 21/17/7 24/17/7 20/16/7 
f 22/18/8 25/19/8 28/19/8 23/18/8 
f 31/22/9 33/23/9 36/23/9 32/22/9 
f 38/37/10 37/38/10 2/39/10 1/40/10 
f 37/38/11 40/41/11 3/42/11 2/39/11 
f 40/41/12 39/43/12 4/44/12 3/42/12 
f 39/43/13 38/37/13 1/40/13 4/44/13 
f 42/45/10 41/46/10 6/47/10 5/48/10 
f 41/46/11 44/49/11 7/50/11 6/47/11 
f 44/49/12 43/51/12 8/52/12 7/50/12 
f 43/51/13 42/45/13 5/48/13 8/52/13 
f 46/53/10 45/54/10 10/55/10 9/56/10 
f 45/54/11 47/57/11 11/58/11 10/55/11 
f 47/57/12 48/59/12 12/60/12 11/58/12 
f 48/59/13 46/53/13 9/56/13 12/60/13 
f 48/36/1 44/32/1 41/29/1 46/34/1 
f 43/31/1 40/28/1 37/25/1 42/30/1 
f 15/14/1 42/30/1 37/25/1 
f 40/28/1 43/31/1 30/21/1 
f 18/15/1 46/34/1 41/29/1 
f 44/32/1 48/36/1 27/20/1 
f 49/61/14 50/62/15 51/63/16 
f 50/62/15 52/64/17 51/63/16 
f 52/64/17 53/65/18 51/63/16 
f 53/65/18 49/61/14 51/63/16 
f 54/66/19 55/67/20 56/68/21 
f 55/67/20 57/69/22 56/68/21 
f 57/69/22 58/70/23 56/68/21 
f 58/70/23 54/66/19 56/68/21 
f 59/71/24 60/72/25 61/73/26 
f 60/72/25 62/74/27 61/73/26 
f 62/74/27 63/75/28 61/73/26 
f 63/75/28 59/71/24 61/73/26 
f 64/76/29 65/77/30 66/78/31 
f 65/77/30 67/79/32 66/78/31 
f 67/79/32 68/80/33 66/78/31 
f 68/80/33 64/76/29 66/78/31 
f 69/81/34 70/82/35 71/83/36 
f 70/82/35 72/84/37 71/83/36 
f 72/84/37 73/85/38 71/83/36 
f 73/85/38 69/81/34 71/83/36 
f 74/86/39 75/87/40 76/88/41 
f 75/87/40 77/89/42 76/88/41 
f 77/89/42 78/90/43 76/88/41 
f 78/90/43 74/86/39 76/88/41 
f 79/91/44 80/92/45 81/93/46 
f 80/92/45 82/94/47 81/93/46 
f 82/94/47 83/95/48 81/93/46 
f 83/95/48 79/91/44 81/93/46 
f 84/96/49 85/97/50 86/98/51 
f 85/97/50 87/99/52 86/98/51 
f 87/99/52 88/100/53 86/98/51 
f 88/100/53 84/96/49 86/98/51 
f 89/101/54 90/102/55 91/103/56 
f 90/102/55 92/104/57 91/103/56 
f 92/104/57 93/105/58 91/103/56 
f 93/105/58 89/101/54 91/103/56 
f 94/106/59 95/107/60 96/108/61 
f 95/107/60 97/109/62 96/108/61 
f 97/109/62 98/110/63 96/108/61 
f 98/110/63 94/106/59 96/108/61 
f 99/111/64 100/112/65 101/113/66 
f 100/112/65 102/114/67 101/113/66 
f 102/114/67 103/115/68 101/113/66 
f 103/115/68 99/111/64 101/113/66 
f 104/116/69 105/117/70 106/118/71 
f 105/117/70 107/119/72 106/118/71 
f 107/119/72 108/120/73 106/118/71 
f 108/120/73 104/116/69 106/118/71 
f 109/121/74 110/122/75 111/123/76 
f 110/122/75 112/124/77 111/123/76 
f 112/124/77 113/125/78 111/123/76 
f 113/125/78 109/121/74 111/123/76 
f 114/126/79 115/127/80 116/128/81 
f 115/127/80 117/129/82 116/128/81 
f 117/129/82 118/130/83 116/128/81 
f 118/130/83 114/126/79 116/128/81 
f 119/131/84 120/132/85 121/133/86 
f 120/132/85 122/134/87 121/133/86 
f 122/134/87 123/135/88 121/133/86 
f 123/135/88 119/131/84 121/133/86 
f 124/136/89 125/137/90 126/138/91 
f 125/137/90 127/139/92 126/138/91 
f 127/139/92 128/140/93 126/138/91 
f 128/140/93 124/136/89 126/138/91 
f 129/141/94 130/142/95 131/143/96 
f 130/142/95 132/144/97 131/143/96 
f 132/144/97 133/145/98 131/143/96 
f 133/145/98 129/141/94 131/143/96 
f 134/146/99 135/147/100 136/148/101 
f 135/147/100 137/149/102 136/148/101 
f 137/149/102 138/150/103 136/148/101 
f 138/150/103 134/146/99 136/148/101 
f 139/151/104 140/152/105 141/153/106 
f 140/152/105 142/154/107 141/153/106 
f 142/154/107 143/155/108 141/153/106 
f 143/155/108 139/151/104 141/153/106 
f 144/156/109 145/157/110 146/158/111 
f 145/157/110 147/159/112 146/158/111 
f 147/159/112 148/160/113 146/158/111 
f 148/160/113 144/156/109 146/158/111 
f 149/161/114 150/162/115 151/163/116 
f 150/162/115 152/164/117 151/163/116 
f 152/164/117 153/165/118 151/163/116 
f 153/165/118 149/161/114 151/163/116 
f 154/161/119 155/162/120 156/163/121 
f 155/162/120 157/164/122 156/163/121 
f 157/164/122 158/165/123 156/163/121 
f 158/165/123 154/161/119 156/163/121 
f 159/161/124 160/162/125 161/163/126 
f 160/162/125 162/164/127 161/163/126 
f 162/164/127 163/165/128 161/163/126 
f 163/165/128 159/161/124 161/163/126 
f 164/161/129 165/162/130 166/163/131 
f 165/162/130 167/164/132 166/163/131 
f 167/164/132 168/165/133 166/163/131 
f 168/165/133 164/161/129 166/163/131 
f 169/161/134 170/162/135 171/163/136 
f 170/162/135 172/164/137 171/163/136 
f 172/164/137 173/165/138 171/163/136 
f 173/165/138 169/161/134 171/163/136 
f 174/161/139 175/162/140 176/163/141 
f 175/162/140 177/164/142 176/163/141 
f 177/164/142 178/165/143 176/163/141 
f 178/165/143 174/161/139 176/163/141 
f 179/161/144 180/162/145 181/163/146 
f 180/162/145 182/164/147 181/163/146 
f 182/164/147 183/165/148 181/163/146 
f 183/165/148 179/161/144 181/163/146 
f 184/161/149 185/162/150 186/163/151 
f 185/162/150 187/164/152 186/163/151 
f 187/164/152 188/165/153 186/163/151 
f 188/165/153 184/161/149 186/163/151 
f 189/161/154 190/162/155 191/163/156 
f 190/162/155 192/164/157 191/163/156 
f 192/164/157 193/165/158 191/163/156 
f 193/165/158 189/161/154 191/163/156 
# 37 polygons - 124 triangles

