# 3ds Max Wavefront OBJ Exporter v0.97b - (c)2007 guruware
# File Created: 29.03.2016 14:19:30

#
# object foodtray
#

v  -34.6312 1.3641 14.4419
v  -14.1704 1.3641 14.4419
v  -14.1704 1.3641 -14.4419
v  -34.6312 1.3641 -14.4419
v  -10.2304 1.3641 14.4419
v  10.2304 1.3641 14.4419
v  10.2304 1.3641 -14.4419
v  -10.2304 1.3641 -14.4419
v  14.1704 1.3641 14.4419
v  34.6312 1.3641 14.4419
v  34.6312 1.3641 -14.4419
v  14.1704 1.3641 -14.4419
v  -37.5712 0.0000 18.3819
v  -12.1704 0.0000 18.3819
v  -12.1704 2.3641 18.3819
v  -37.5712 2.3641 18.3819
v  12.1704 0.0000 18.3819
v  12.1704 2.3641 18.3819
v  37.5712 0.0000 18.3819
v  37.5712 2.3641 18.3819
v  38.5712 0.0000 17.3819
v  38.5712 0.0000 -17.3819
v  38.5712 2.3641 -17.3819
v  38.5712 2.3641 17.3819
v  37.5712 0.0000 -18.3819
v  12.1704 0.0000 -18.3819
v  12.1704 2.3641 -18.3819
v  37.5712 2.3641 -18.3819
v  -12.1704 0.0000 -18.3819
v  -12.1704 2.3641 -18.3819
v  -37.5712 0.0000 -18.3819
v  -37.5712 2.3641 -18.3819
v  -38.5712 0.0000 -17.3819
v  -38.5712 0.0000 17.3819
v  -38.5712 2.3641 17.3819
v  -38.5712 2.3641 -17.3819
v  -13.1704 2.3641 15.4419
v  -35.6312 2.3641 15.4419
v  -35.6312 2.3641 -15.4419
v  -13.1704 2.3641 -15.4419
v  11.2304 2.3641 15.4419
v  -11.2304 2.3641 15.4419
v  -11.2304 2.3641 -15.4419
v  11.2304 2.3641 -15.4419
v  35.6312 2.3641 15.4419
v  13.1704 2.3641 15.4419
v  35.6312 2.3641 -15.4419
v  13.1704 2.3641 -15.4419
# 48 vertices

vn 0.0000 1.0000 -0.0000
vn 0.0000 0.0000 1.0000
vn 1.0000 0.0000 -0.0000
vn 0.0000 0.0000 -1.0000
vn -1.0000 0.0000 -0.0000
vn -0.7071 0.0000 0.7071
vn 0.7071 0.0000 0.7071
vn 0.7071 0.0000 -0.7071
vn -0.7071 0.0000 -0.7071
vn 0.0000 0.7071 -0.7071
vn -0.7071 0.7071 -0.0000
vn 0.0000 0.7071 0.7071
vn 0.7071 0.7071 -0.0000
# 13 vertex normals

vt 0.1026 0.9434 0.0000
vt 0.1071 0.9434 0.0000
vt 0.1071 0.9497 0.0000
vt 0.1026 0.9497 0.0000
vt 0.1079 0.9434 0.0000
vt 0.1124 0.9434 0.0000
vt 0.1124 0.9497 0.0000
vt 0.1079 0.9497 0.0000
vt 0.1132 0.9434 0.0000
vt 0.1176 0.9434 0.0000
vt 0.1176 0.9497 0.0000
vt 0.1132 0.9497 0.0000
vt 0.1020 0.9425 0.0000
vt 0.1075 0.9425 0.0000
vt 0.1128 0.9425 0.0000
vt 0.1183 0.9425 0.0000
vt 0.1185 0.9428 0.0000
vt 0.1185 0.9503 0.0000
vt 0.1183 0.9505 0.0000
vt 0.1128 0.9505 0.0000
vt 0.1075 0.9505 0.0000
vt 0.1020 0.9505 0.0000
vt 0.1018 0.9503 0.0000
vt 0.1018 0.9428 0.0000
vt 0.1073 0.9432 0.0000
vt 0.1024 0.9432 0.0000
vt 0.1024 0.9499 0.0000
vt 0.1073 0.9499 0.0000
vt 0.1126 0.9432 0.0000
vt 0.1077 0.9432 0.0000
vt 0.1077 0.9499 0.0000
vt 0.1126 0.9499 0.0000
vt 0.1179 0.9432 0.0000
vt 0.1130 0.9432 0.0000
vt 0.1179 0.9499 0.0000
vt 0.1130 0.9499 0.0000
vt 0.1024 0.9806 0.0000
vt 0.1073 0.9806 0.0000
vt 0.1071 0.9808 0.0000
vt 0.1026 0.9808 0.0000
vt 0.1073 0.9873 0.0000
vt 0.1071 0.9871 0.0000
vt 0.1024 0.9873 0.0000
vt 0.1026 0.9871 0.0000
vt 0.1077 0.9806 0.0000
vt 0.1126 0.9806 0.0000
vt 0.1124 0.9808 0.0000
vt 0.1079 0.9808 0.0000
vt 0.1126 0.9873 0.0000
vt 0.1124 0.9871 0.0000
vt 0.1077 0.9873 0.0000
vt 0.1079 0.9871 0.0000
vt 0.1130 0.9806 0.0000
vt 0.1179 0.9806 0.0000
vt 0.1176 0.9808 0.0000
vt 0.1132 0.9808 0.0000
vt 0.1179 0.9873 0.0000
vt 0.1176 0.9871 0.0000
vt 0.1130 0.9873 0.0000
vt 0.1132 0.9871 0.0000
# 60 texture coords

g foodtray
f 1/1/1 2/2/1 3/3/1 4/4/1 
f 5/5/1 6/6/1 7/7/1 8/8/1 
f 9/9/1 10/10/1 11/11/1 12/12/1 
f 13/13/2 14/14/2 15/14/2 16/13/2 
f 14/14/2 17/15/2 18/15/2 15/14/2 
f 17/15/2 19/16/2 20/16/2 18/15/2 
f 21/17/3 22/18/3 23/18/3 24/17/3 
f 25/19/4 26/20/4 27/20/4 28/19/4 
f 26/20/4 29/21/4 30/21/4 27/20/4 
f 29/21/4 31/22/4 32/22/4 30/21/4 
f 33/23/5 34/24/5 35/24/5 36/23/5 
f 16/13/1 15/14/1 37/25/1 38/26/1 
f 30/21/1 32/22/1 39/27/1 40/28/1 
f 36/23/1 35/24/1 38/26/1 39/27/1 
f 15/14/1 18/15/1 41/29/1 42/30/1 
f 27/20/1 30/21/1 43/31/1 44/32/1 
f 18/15/1 20/16/1 45/33/1 46/34/1 
f 24/17/1 23/18/1 47/35/1 45/33/1 
f 28/19/1 27/20/1 48/36/1 47/35/1 
f 16/13/1 38/26/1 35/24/1 
f 24/17/1 45/33/1 20/16/1 
f 36/23/1 39/27/1 32/22/1 
f 28/19/1 47/35/1 23/18/1 
f 16/13/6 35/24/6 34/24/6 13/13/6 
f 19/16/7 21/17/7 24/17/7 20/16/7 
f 22/18/8 25/19/8 28/19/8 23/18/8 
f 31/22/9 33/23/9 36/23/9 32/22/9 
f 38/37/10 37/38/10 2/39/10 1/40/10 
f 37/38/11 40/41/11 3/42/11 2/39/11 
f 40/41/12 39/43/12 4/44/12 3/42/12 
f 39/43/13 38/37/13 1/40/13 4/44/13 
f 42/45/10 41/46/10 6/47/10 5/48/10 
f 41/46/11 44/49/11 7/50/11 6/47/11 
f 44/49/12 43/51/12 8/52/12 7/50/12 
f 43/51/13 42/45/13 5/48/13 8/52/13 
f 46/53/10 45/54/10 10/55/10 9/56/10 
f 45/54/11 47/57/11 11/58/11 10/55/11 
f 47/57/12 48/59/12 12/60/12 11/58/12 
f 48/59/13 46/53/13 9/56/13 12/60/13 
f 48/36/1 44/32/1 41/29/1 46/34/1 
f 43/31/1 40/28/1 37/25/1 42/30/1 
f 15/14/1 42/30/1 37/25/1 
f 40/28/1 43/31/1 30/21/1 
f 18/15/1 46/34/1 41/29/1 
f 44/32/1 48/36/1 27/20/1 
# 37 polygons - 8 triangles

