# 3ds Max Wavefront OBJ Exporter v0.97b - (c)2007 guruware
# File Created: 11.03.2014 12:18:54

mtllib freezer.mtl

#
# object freezer
#

v  92.6100 19.1600 42.6100
v  92.6100 19.1600 -42.6100
v  -92.6100 19.1600 -42.6100
v  -92.6100 19.1600 42.6100
v  -100.0000 0.0000 -48.7600
v  -100.0000 0.0000 48.7600
v  -100.0000 78.7600 48.7600
v  -100.0000 50.0126 -48.7600
v  -100.0000 78.7600 -48.7600
v  98.7600 78.7600 50.0000
v  -98.7600 78.7600 50.0000
v  -98.7600 0.0000 50.0000
v  98.7600 0.0000 50.0000
v  100.0000 0.0000 48.7600
v  100.0000 0.0000 -48.7600
v  100.0000 50.0126 -48.7600
v  100.0000 78.7600 -48.7600
v  100.0000 78.7600 48.7600
v  -92.6582 6.1018 -48.3037
v  -92.6582 43.9108 -48.3037
v  92.6582 43.9108 -48.3037
v  92.6582 6.1018 -48.3037
v  -99.1232 80.0000 -49.1232
v  -99.1232 80.0000 49.1232
v  -92.6100 80.0000 42.6100
v  -92.6100 80.0000 -42.6100
v  99.1232 80.0000 49.1232
v  92.6100 80.0000 42.6100
v  99.1232 80.0000 -49.1232
v  92.6100 80.0000 -42.6100
v  -98.7600 78.7600 -50.0000
v  98.7600 78.7600 -50.0000
v  -98.7600 50.0126 -50.0000
v  98.7600 0.0000 -50.0000
v  98.7600 50.0126 -50.0000
v  -98.7600 0.0000 -50.0000
v  -94.1782 4.5818 -50.0000
v  94.1782 4.5818 -50.0000
v  -94.1782 45.4308 -50.0000
v  94.1782 45.4308 -50.0000
v  -90.1757 22.0200 -50.9437
v  -67.5497 22.0200 -50.9437
v  -67.5497 9.3172 -50.9437
v  -90.1757 9.3172 -50.9437
v  -67.5497 9.3172 -48.6354
v  -90.1757 9.3172 -48.6354
v  -90.1757 22.0200 -48.6354
v  -67.5497 22.0200 -48.6354
# 48 vertices

vn 0.0000 1.0000 -0.0000
vn -1.0000 0.0000 -0.0000
vn -0.0000 0.0000 1.0000
vn 1.0000 0.0000 0.0000
vn 0.0000 0.0000 -1.0000
vn -0.6786 0.2811 -0.6786
vn -0.6786 0.2811 0.6786
vn 0.6786 0.2811 -0.6786
vn 0.6786 0.2811 0.6786
vn -0.8165 0.5774 -0.0000
vn -0.0000 0.5774 0.8165
vn 0.8165 0.5774 0.0000
vn 0.0000 0.5774 -0.8165
vn -0.7071 0.0000 0.7071
vn -0.7071 0.0000 -0.7071
vn 0.7071 0.0000 0.7071
vn 0.7071 0.0000 -0.7071
vn 0.0000 0.7448 -0.6673
vn 0.7448 0.0000 -0.6673
vn 0.0000 -0.7448 -0.6673
vn -0.7448 0.0000 -0.6673
vn 0.0000 -1.0000 -0.0000
# 22 vertex normals

vt 0.4843 0.9799 0.0000
vt 0.4279 0.9917 0.0000
vt 0.0686 0.9879 0.0000
vt 0.0686 0.9791 0.0000
vt 0.4379 0.9798 0.0000
vt 0.4405 0.9798 0.0000
vt 0.0692 0.9797 0.0000
vt 0.0692 0.9873 0.0000
vt 0.4081 0.9990 0.0000
vt 0.4243 0.9990 0.0000
vt 0.4243 0.9833 0.0000
vt 0.4081 0.9833 0.0000
vt 0.4243 0.9990 0.0000
vt 0.4081 0.9990 0.0000
vt 0.4081 0.9833 0.0000
vt 0.4243 0.9833 0.0000
vt 0.4279 0.9983 0.0000
vt 0.4405 0.9983 0.0000
vt 0.4259 0.9799 0.0000
vt 0.4843 0.9799 0.0000
vt 0.0862 0.9791 0.0000
vt 0.4438 0.9983 0.0000
vt 0.0856 0.9797 0.0000
vt 0.0862 0.9879 0.0000
vt 0.0856 0.9873 0.0000
vt 0.0685 0.9878 0.0000
vt 0.4438 0.9917 0.0000
vt 0.0686 0.9879 0.0000
vt 0.0686 0.9791 0.0000
vt 0.0685 0.9792 0.0000
vt 0.0862 0.9879 0.0000
vt 0.0863 0.9878 0.0000
vt 0.0863 0.9792 0.0000
vt 0.0862 0.9791 0.0000
vt 0.3667 0.9804 0.0000
vt 0.3667 0.9766 0.0000
vt 0.4859 0.9799 0.0000
vt 0.4859 0.9983 0.0000
vt 0.4859 0.9983 0.0000
vt 0.4843 0.9983 0.0000
vt 0.4859 0.9799 0.0000
vt 0.4859 0.9983 0.0000
vt 0.4843 0.9799 0.0000
vt 0.4859 0.9799 0.0000
vt 0.4379 0.9983 0.0000
vt 0.4843 0.9916 0.0000
vt 0.4379 0.9915 0.0000
vt 0.4859 0.9916 0.0000
vt 0.4438 0.9802 0.0000
vt 0.4279 0.9802 0.0000
vt 0.4282 0.9813 0.0000
vt 0.4434 0.9813 0.0000
vt 0.4282 0.9906 0.0000
vt 0.4434 0.9906 0.0000
vt 0.1421 0.9509 0.0000
vt 0.1394 0.9509 0.0000
vt 0.1394 0.9537 0.0000
vt 0.1421 0.9537 0.0000
vt 0.4823 0.9799 0.0000
vt 0.4823 0.9983 0.0000
vt 0.4259 0.9983 0.0000
vt 0.4405 0.9798 0.0000
vt 0.4379 0.9798 0.0000
vt 0.4379 0.9915 0.0000
vt 0.4379 0.9983 0.0000
vt 0.4405 0.9983 0.0000
vt 0.4843 0.9983 0.0000
vt 0.4843 0.9983 0.0000
vt 0.4859 0.9916 0.0000
vt 0.4843 0.9799 0.0000
vt 0.4859 0.9799 0.0000
vt 0.4843 0.9916 0.0000
vt 0.4859 0.9983 0.0000
vt 0.4843 0.9983 0.0000
vt 0.3911 0.9766 0.0000
vt 0.3911 0.9804 0.0000
vt 0.3568 0.9992 0.0000
vt 0.4077 0.9992 0.0000
vt 0.4077 0.9842 0.0000
vt 0.3568 0.9842 0.0000
vt 0.4077 0.9992 0.0000
vt 0.3568 0.9992 0.0000
vt 0.3568 0.9842 0.0000
vt 0.4077 0.9842 0.0000
vt 0.4284 0.9816 0.0000
vt 0.4433 0.9816 0.0000
vt 0.4284 0.9903 0.0000
vt 0.4433 0.9903 0.0000
vt 0.2204 0.9679 0.0000
vt 0.2292 0.9679 0.0000
vt 0.2292 0.9731 0.0000
vt 0.2204 0.9731 0.0000
vt 0.2204 0.9679 0.0000
vt 0.2292 0.9679 0.0000
vt 0.2292 0.9731 0.0000
vt 0.2204 0.9731 0.0000
# 96 texture coords

g freezer
usemtl PAOBJS
s 4
f 1/75/1 2/76/1 3/35/1 4/36/1 
s 8
f 5/5/2 6/6/2 7/18/2 8/47/2 
f 7/18/2 9/45/2 8/47/2 
s 16
f 10/60/3 11/61/3 12/19/3 13/59/3 
s 32
f 14/62/4 15/63/4 16/64/4 17/65/4 
f 14/62/4 17/65/4 18/66/4 
s 64
f 19/56/5 20/57/5 21/58/5 22/55/5 
s off
f 23/3/1 24/4/1 25/7/1 26/8/1 
f 24/4/1 27/21/1 28/23/1 25/7/1 
f 27/21/1 29/24/1 30/25/1 28/23/1 
f 29/24/1 23/3/1 26/8/1 30/25/1 
f 26/9/4 25/10/4 4/11/4 3/12/4 
f 25/77/5 28/78/5 1/79/5 4/80/5 
f 28/13/2 30/14/2 2/15/2 1/16/2 
f 30/81/3 26/82/3 3/83/3 2/84/3 
f 9/26/6 23/3/6 31/28/6 
f 11/29/7 24/4/7 7/30/7 
f 32/31/8 29/24/8 17/32/8 
f 18/33/9 27/21/9 10/34/9 
f 23/3/10 9/26/10 7/30/10 24/4/10 
f 24/4/11 11/29/11 10/34/11 27/21/11 
f 27/21/12 18/33/12 17/32/12 29/24/12 
f 29/24/13 32/31/13 31/28/13 23/3/13 
f 6/1/14 12/37/14 11/38/14 7/68/14 
f 31/40/15 33/46/15 8/69/15 9/39/15 
f 13/20/16 14/41/16 18/42/16 10/67/16 
f 34/44/17 35/48/17 16/72/17 15/43/17 
s 64
f 31/17/5 32/22/5 35/27/5 33/2/5 
s off
f 36/70/15 5/71/15 8/69/15 33/46/15 
f 32/73/17 17/74/17 16/72/17 35/48/17 
f 34/49/5 36/50/5 37/51/5 38/52/5 
f 36/50/5 33/2/5 39/53/5 37/51/5 
f 33/2/5 35/27/5 40/54/5 39/53/5 
f 35/27/5 34/49/5 38/52/5 40/54/5 
f 38/52/18 37/51/18 19/85/18 22/86/18 
f 37/51/19 39/53/19 20/87/19 19/85/19 
f 39/53/20 40/54/20 21/88/20 20/87/20 
f 40/54/21 38/52/21 22/86/21 21/88/21 
s 4
f 41/91/5 42/92/5 43/89/5 44/90/5 
s 8
f 44/90/22 43/89/22 45/93/22 46/94/22 
s 16
f 41/91/2 44/90/2 46/94/2 47/95/2 
s 32
f 42/92/1 41/91/1 47/95/1 48/96/1 
s 64
f 43/89/4 42/92/4 48/96/4 45/93/4 
# 37 polygons - 6 triangles

