# 3ds Max Wavefront OBJ Exporter v0.97b - (c)2007 guruware
# File Created: 29.03.2016 13:28:56

#
# object ingredient1
#

v  -0.7274 7.4356 2.0658
v  5.0233 6.5652 2.9840
v  1.8812 7.9934 -2.8654
v  9.2899 3.7844 2.8261
v  7.8566 5.9121 -2.6410
v  4.1226 6.2709 -7.3373
v  -4.7620 7.0548 -2.1494
v  -1.8659 6.3485 -7.8523
v  -7.3712 4.2310 -5.2848
v  -5.1956 4.7217 4.2412
v  -9.4291 3.7259 -1.5950
v  -9.1480 0.8303 5.3090
v  0.0067 4.5953 7.4300
v  -4.6615 1.0646 9.0849
v  1.0659 0.7962 10.2926
v  5.8378 2.7593 7.7326
v  9.6439 -0.3499 5.0989
v  10.8273 1.5567 -1.3174
v  7.1954 -4.5764 5.7514
v  9.5889 -3.4305 0.6045
v  9.1557 -1.1356 -5.0393
v  7.7821 3.0159 -7.2356
v  1.7054 3.3049 -10.3441
v  4.6863 -1.0230 -9.1272
v  -1.3389 -0.8906 -9.5104
v  -4.6645 3.1166 -11.1573
v  -9.6865 0.5289 -5.2363
v  -6.1252 -2.6740 -7.6145
v  -9.1806 -3.7371 -2.9249
v  -10.3901 -3.1483 -1.5676
v  -7.5255 -2.4025 5.8895
v  -7.3400 -5.9163 2.8629
v  -4.2142 -6.9829 8.0079
v  -2.0627 -3.4335 10.2527
v  4.9904 -2.0454 9.5736
v  1.6934 -6.6699 7.4300
v  0.7952 -7.3886 -2.2023
v  0.0453 -4.5626 -7.8402
v  6.1851 -4.8316 -4.7142
v  -4.4619 -6.2586 -3.8514
v  -3.4694 -7.8739 2.2686
v  5.6907 -6.7999 1.8590
# 42 vertices

vn -0.1309 0.9460 0.2966
vn 0.4273 0.8359 0.3446
vn 0.1490 0.9696 -0.1940
vn 0.8319 0.4671 0.2998
vn 0.6984 0.6897 -0.1910
vn 0.3584 0.6985 -0.6194
vn -0.4774 0.8720 -0.1081
vn -0.1785 0.7750 -0.6062
vn -0.6905 0.5645 -0.4523
vn -0.5510 0.6950 0.4620
vn -0.8809 0.4709 -0.0472
vn -0.8566 0.1426 0.4959
vn -0.0476 0.6758 0.7355
vn -0.4751 0.2250 0.8507
vn 0.0865 0.1951 0.9770
vn 0.5235 0.4065 0.7488
vn 0.8804 -0.0361 0.4729
vn 0.9836 0.1431 -0.1096
vn 0.6756 -0.5250 0.5176
vn 0.9028 -0.4290 0.0293
vn 0.8516 -0.2065 -0.4818
vn 0.7047 0.2789 -0.6524
vn 0.2194 0.2610 -0.9401
vn 0.3995 -0.2059 -0.8933
vn -0.0635 -0.2389 -0.9690
vn -0.3679 0.2411 -0.8981
vn -0.8993 0.0503 -0.4345
vn -0.5303 -0.4147 -0.7394
vn -0.7461 -0.5587 -0.3623
vn -0.9367 -0.3435 -0.0680
vn -0.7711 -0.2730 0.5753
vn -0.7591 -0.6235 0.1871
vn -0.3820 -0.6731 0.6333
vn -0.2102 -0.2660 0.9408
vn 0.4550 -0.1941 0.8691
vn 0.2339 -0.7585 0.6082
vn 0.0908 -0.9637 -0.2509
vn 0.0015 -0.6148 -0.7887
vn 0.5692 -0.6684 -0.4789
vn -0.4216 -0.8149 -0.3976
vn -0.2649 -0.9614 0.0740
vn 0.4963 -0.8605 0.1150
# 42 vertex normals

vt 0.0159 0.6238 0.0000
vt 0.0238 0.6235 0.0000
vt 0.0183 0.6307 0.0000
vt 0.0293 0.6235 0.0000
vt 0.0262 0.6308 0.0000
vt 0.0200 0.6360 0.0000
vt 0.0095 0.6280 0.0000
vt 0.0119 0.6354 0.0000
vt 0.0050 0.6303 0.0000
vt 0.0103 0.6191 0.0000
vt 0.0031 0.6251 0.0000
vt 0.0050 0.6155 0.0000
vt 0.0181 0.6162 0.0000
vt 0.0119 0.6118 0.0000
vt 0.0199 0.6114 0.0000
vt 0.0258 0.6163 0.0000
vt 0.0301 0.6192 0.0000
vt 0.0302 0.6281 0.0000
vt 0.0266 0.6162 0.0000
vt 0.0287 0.6235 0.0000
vt 0.0268 0.6313 0.0000
vt 0.0248 0.6353 0.0000
vt 0.0158 0.6380 0.0000
vt 0.0198 0.6354 0.0000
vt 0.0117 0.6347 0.0000
vt 0.0071 0.6376 0.0000
vt 0.0016 0.6283 0.0000
vt 0.0056 0.6307 0.0000
vt 0.0026 0.6238 0.0000
vt 0.0013 0.6221 0.0000
vt 0.0071 0.6138 0.0000
vt 0.0063 0.6162 0.0000
vt 0.0117 0.6101 0.0000
vt 0.0154 0.6091 0.0000
vt 0.0248 0.6120 0.0000
vt 0.0195 0.6121 0.0000
vt 0.0159 0.6236 0.0000
vt 0.0137 0.6315 0.0000
vt 0.0227 0.6288 0.0000
vt 0.0085 0.6250 0.0000
vt 0.0112 0.6170 0.0000
vt 0.0235 0.6198 0.0000
# 42 texture coords

g ingredient1
f 1/1/1 2/2/2 3/3/3 
f 2/2/2 4/4/4 5/5/5 
f 2/2/2 5/5/5 3/3/3 
f 3/3/3 5/5/5 6/6/6 
f 1/1/1 3/3/3 7/7/7 
f 3/3/3 6/6/6 8/8/8 
f 3/3/3 8/8/8 7/7/7 
f 7/7/7 8/8/8 9/9/9 
f 1/1/1 7/7/7 10/10/10 
f 7/7/7 9/9/9 11/11/11 
f 7/7/7 11/11/11 10/10/10 
f 10/10/10 11/11/11 12/12/12 
f 1/1/1 10/10/10 13/13/13 
f 10/10/10 12/12/12 14/14/14 
f 10/10/10 14/14/14 13/13/13 
f 13/13/13 14/14/14 15/15/15 
f 1/1/1 13/13/13 2/2/2 
f 13/13/13 15/15/15 16/16/16 
f 13/13/13 16/16/16 2/2/2 
f 2/2/2 16/16/16 4/4/4 
f 4/4/4 17/17/17 18/18/18 
f 17/17/17 19/19/19 20/20/20 
f 17/17/17 20/20/20 18/18/18 
f 18/18/18 20/20/20 21/21/21 
f 6/6/6 22/22/22 23/23/23 
f 22/22/22 21/21/21 24/24/24 
f 22/22/22 24/24/24 23/23/23 
f 23/23/23 24/24/24 25/25/25 
f 9/9/9 26/26/26 27/27/27 
f 26/26/26 25/25/25 28/28/28 
f 26/26/26 28/28/28 27/27/27 
f 27/27/27 28/28/28 29/29/29 
f 12/12/12 30/30/30 31/31/31 
f 30/30/30 29/29/29 32/32/32 
f 30/30/30 32/32/32 31/31/31 
f 31/31/31 32/32/32 33/33/33 
f 15/15/15 34/34/34 35/35/35 
f 34/34/34 33/33/33 36/36/36 
f 34/34/34 36/36/36 35/35/35 
f 35/35/35 36/36/36 19/19/19 
f 21/21/21 22/22/22 18/18/18 
f 22/22/22 6/6/6 5/5/5 
f 22/22/22 5/5/5 18/18/18 
f 18/18/18 5/5/5 4/4/4 
f 25/25/25 26/26/26 23/23/23 
f 26/26/26 9/9/9 8/8/8 
f 26/26/26 8/8/8 23/23/23 
f 23/23/23 8/8/8 6/6/6 
f 29/29/29 30/30/30 27/27/27 
f 30/30/30 12/12/12 11/11/11 
f 30/30/30 11/11/11 27/27/27 
f 27/27/27 11/11/11 9/9/9 
f 33/33/33 34/34/34 31/31/31 
f 34/34/34 15/15/15 14/14/14 
f 34/34/34 14/14/14 31/31/31 
f 31/31/31 14/14/14 12/12/12 
f 19/19/19 17/17/17 35/35/35 
f 17/17/17 4/4/4 16/16/16 
f 17/17/17 16/16/16 35/35/35 
f 35/35/35 16/16/16 15/15/15 
f 37/37/37 38/38/38 39/39/39 
f 38/38/38 25/25/25 24/24/24 
f 38/38/38 24/24/24 39/39/39 
f 39/39/39 24/24/24 21/21/21 
f 37/37/37 40/40/40 38/38/38 
f 40/40/40 29/29/29 28/28/28 
f 40/40/40 28/28/28 38/38/38 
f 38/38/38 28/28/28 25/25/25 
f 37/37/37 41/41/41 40/40/40 
f 41/41/41 33/33/33 32/32/32 
f 41/41/41 32/32/32 40/40/40 
f 40/40/40 32/32/32 29/29/29 
f 37/37/37 42/42/42 41/41/41 
f 42/42/42 19/19/19 36/36/36 
f 42/42/42 36/36/36 41/41/41 
f 41/41/41 36/36/36 33/33/33 
f 37/37/37 39/39/39 42/42/42 
f 39/39/39 21/21/21 20/20/20 
f 39/39/39 20/20/20 42/42/42 
f 42/42/42 20/20/20 19/19/19 
# 0 polygons - 80 triangles

