# 3ds Max Wavefront OBJ Exporter v0.97b - (c)2007 guruware
# File Created: 29.03.2016 13:31:56

#
# object ingredient3
#

v  8.2135 0.9628 13.6892
v  13.6892 0.9628 8.2135
v  11.5320 0.9628 6.0563
v  6.0563 0.9628 11.5320
v  6.3009 2.2057 2.4932
v  0.8252 2.2057 7.9689
v  3.4765 0.8523 -3.4765
v  -1.9992 0.8523 1.9992
v  -2.4932 2.2057 -6.3009
v  -7.9689 2.2057 -0.8252
v  -6.0563 0.9628 -11.5320
v  -11.5320 0.9628 -6.0563
v  -8.2135 0.9628 -13.6892
v  -13.6892 0.9628 -8.2135
# 14 vertices

vn 0.0000 1.0000 -0.0000
vn 0.0653 0.9957 0.0653
vn 0.0735 0.9946 0.0735
vn -0.0122 0.9999 -0.0122
vn 0.0026 1.0000 0.0026
vn -0.0000 1.0000 -0.0000
vn 0.0122 0.9999 0.0122
vn -0.0026 1.0000 -0.0026
vn -0.0653 0.9957 -0.0653
vn -0.0735 0.9946 -0.0735
# 10 vertex normals

vt 0.0025 0.6759 0.0000
vt 0.0285 0.6759 0.0000
vt 0.0285 0.6773 0.0000
vt 0.0025 0.6773 0.0000
vt 0.0285 0.6787 0.0000
vt 0.0025 0.6787 0.0000
vt 0.0285 0.6801 0.0000
vt 0.0025 0.6801 0.0000
vt 0.0285 0.6814 0.0000
vt 0.0025 0.6814 0.0000
vt 0.0285 0.6828 0.0000
vt 0.0025 0.6828 0.0000
vt 0.0285 0.6842 0.0000
vt 0.0025 0.6842 0.0000
# 14 texture coords

g ingredient3
f 1/1/1 2/2/1 3/3/2 4/4/3 
f 4/4/3 3/3/2 5/5/4 6/6/5 
f 6/6/5 5/5/4 7/7/6 8/8/1 
f 8/8/1 7/7/6 9/9/7 10/10/8 
f 10/10/8 9/9/7 11/11/9 12/12/10 
f 12/12/10 11/11/9 13/13/1 14/14/1 
# 6 polygons

