# 3ds Max Wavefront OBJ Exporter v0.97b - (c)2007 guruware
# File Created: 29.03.2016 13:30:51

#
# object ingredient2
#

v  0.8650 7.6915 -5.1493
v  4.3268 7.3619 -1.9117
v  5.2430 7.7217 -4.3763
v  3.0416 8.2539 -7.3120
v  -2.1310 6.8123 -8.8008
v  0.2942 7.3005 -9.6557
v  -2.6849 5.5122 -6.6581
v  -0.8458 5.9202 -3.4004
v  2.2639 5.9333 -1.3786
v  4.6121 6.9639 -8.8100
v  7.4160 6.8399 -4.3596
v  9.0180 4.6090 -4.9943
v  5.8795 4.7478 -9.9756
v  0.4004 6.2428 -11.8439
v  1.1654 3.9407 -13.3715
v  -2.8805 4.8757 -10.9665
v  -2.5069 2.4105 -12.3894
v  -3.8229 3.7076 -7.5944
v  -3.5617 1.1030 -8.6150
v  -1.0189 3.5836 -3.1439
v  -0.4232 0.9642 -3.6336
v  3.1928 4.3046 -0.1100
v  4.2909 1.7713 -0.2378
v  6.4737 5.6718 -0.9874
v  7.9632 3.3015 -1.2198
v  3.6271 0.5228 -7.6033
v  -7.7843 7.4899 -3.1994
v  -5.3676 7.7816 -7.0153
v  -7.2501 6.1007 -7.1644
v  -9.5917 5.5725 -4.5732
v  -9.6522 6.0289 0.7150
v  -10.5336 4.7575 -1.2404
v  -7.3429 6.8002 0.9408
v  -5.4281 8.2380 -1.7271
v  -4.0594 8.1434 -4.9833
v  -9.7023 3.2205 -5.0637
v  -6.6210 4.6552 -8.7475
v  -5.5157 2.2571 -9.2357
v  -8.9645 0.6513 -5.1125
v  -11.2758 2.7510 -0.3493
v  -10.7258 0.1258 0.1643
v  -9.7900 3.8816 2.5965
v  -9.0627 1.3912 3.4615
v  -6.7525 5.6469 2.7428
v  -5.6629 3.3671 3.6253
v  -3.6712 7.0816 -0.9409
v  -2.2140 4.9729 -0.4979
v  -2.0977 7.5510 -5.6554
v  -0.4528 5.4984 -5.7748
v  -3.5836 6.4205 -8.6011
v  -2.1159 4.2330 -9.0719
v  -4.5302 0.5550 -2.6150
v  8.4473 7.2674 4.0991
v  6.6829 6.5153 7.9741
v  8.6816 5.2182 7.5796
v  10.5778 5.5297 4.8061
v  9.8340 6.8683 -0.0280
v  11.0964 5.4888 1.4472
v  7.5415 7.2698 0.1705
v  5.9391 7.8538 3.1400
v  5.1267 6.9993 6.3028
v  11.0515 3.2815 4.8017
v  8.4999 3.5106 8.8467
v  7.8409 1.0345 8.9692
v  10.6969 0.7781 4.4415
v  11.9233 3.8941 0.1533
v  11.6726 1.4638 -0.7614
v  9.9741 5.2205 -2.2007
v  9.4909 2.9484 -3.3961
v  6.8838 6.4190 -1.6567
v  6.0319 4.2899 -2.7873
v  4.3322 6.6481 2.3883
v  3.1759 4.5463 1.7403
v  3.4604 6.0355 7.0367
v  2.2002 3.8607 6.9432
v  5.4096 4.7092 9.3906
v  4.3819 2.3761 9.5780
v  6.2074 0.4402 2.6045
v  0.5987 7.2921 4.6983
v  0.6884 4.9348 7.7589
v  2.0225 4.3164 6.1789
v  2.4451 5.9035 3.6498
v  0.0206 8.7925 1.1370
v  1.5107 7.2727 1.1043
v  -1.6935 8.7444 2.3277
v  -1.7361 7.8238 5.2462
v  -1.1817 5.7881 7.4023
v  2.6501 4.1875 2.5408
v  2.2557 2.4397 6.4269
v  1.5930 0.3515 5.7513
v  2.0344 2.3078 1.4017
v  1.5302 6.6307 -0.7671
v  0.7810 5.0425 -2.3009
v  -0.8619 8.3723 -1.0989
v  -1.8965 6.9919 -2.6723
v  -3.0122 8.7170 0.9673
v  -4.3033 7.3777 -0.3596
v  -3.4065 6.9692 4.8533
v  -4.7447 5.4214 3.9901
v  -2.2867 4.5260 8.1613
v  -3.4913 2.6867 7.6926
v  0.1054 2.7844 8.4931
v  -0.8138 0.7373 8.0640
v  -2.2979 2.2108 1.7297
# 104 vertices

vn -0.3243 0.9170 0.2324
vn 0.0613 0.8402 0.5389
vn 0.2541 0.9589 0.1259
vn 0.0945 0.9806 -0.1719
vn -0.6334 0.7663 -0.1076
vn -0.1212 0.9315 -0.3428
vn -0.8009 0.5377 0.2635
vn -0.6453 0.4973 0.5799
vn -0.4078 0.5203 0.7503
vn 0.4479 0.7474 -0.4907
vn 0.6506 0.7569 0.0616
vn 0.9894 -0.0316 -0.1418
vn 0.7259 0.0299 -0.6872
vn -0.0667 0.7143 -0.6966
vn 0.1879 -0.0800 -0.9789
vn -0.7667 0.4205 -0.4851
vn -0.5098 -0.3943 -0.7646
vn -0.9781 0.1120 0.1755
vn -0.7270 -0.6839 -0.0605
vn -0.7163 -0.0775 0.6934
vn -0.4482 -0.7555 0.4779
vn -0.2420 0.1304 0.9615
vn 0.0719 -0.6353 0.7689
vn 0.4498 0.4927 0.7449
vn 0.7670 -0.3122 0.5606
vn 0.3305 -0.9121 -0.2428
vn -0.4938 0.8660 -0.0787
vn -0.2206 0.8405 -0.4949
vn -0.5931 0.5636 -0.5750
vn -0.8188 0.4584 -0.3455
vn -0.6276 0.6939 0.3530
vn -0.9057 0.4158 -0.0833
vn -0.2060 0.8642 0.4590
vn 0.0461 0.9713 0.2333
vn 0.1514 0.9877 -0.0399
vn -0.8728 -0.0498 -0.4855
vn -0.4905 0.2180 -0.8437
vn -0.0678 -0.5559 -0.8285
vn -0.4965 -0.7477 -0.4410
vn -0.9983 0.0296 0.0495
vn -0.6276 -0.7605 0.1667
vn -0.6470 0.2970 0.7023
vn -0.2596 -0.5050 0.8231
vn 0.0343 0.6225 0.7819
vn 0.4386 -0.1374 0.8881
vn 0.5349 0.7177 0.4458
vn 0.8696 0.0367 0.4925
vn 0.5789 0.8051 -0.1290
vn 0.9927 0.0635 -0.1023
vn 0.1752 0.5808 -0.7950
vn 0.6227 -0.1815 -0.7611
vn 0.4831 -0.8724 0.0748
vn 0.3793 0.9054 0.1905
vn 0.1762 0.7624 0.6227
vn 0.5901 0.5387 0.6013
vn 0.7917 0.5138 0.3304
vn 0.4702 0.8372 -0.2795
vn 0.8440 0.5333 0.0565
vn 0.0185 0.9541 -0.2988
vn -0.2097 0.9774 -0.0279
vn -0.2750 0.9274 0.2536
vn 0.9334 0.0040 0.3589
vn 0.5754 0.1386 0.8060
vn 0.2627 -0.6774 0.6871
vn 0.6516 -0.7256 0.2211
vn 0.9671 0.1971 -0.1606
vn 0.6926 -0.6081 -0.3881
vn 0.4911 0.5177 -0.7006
vn 0.2013 -0.3012 -0.9321
vn -0.2319 0.7390 -0.6325
vn -0.5418 -0.0441 -0.8393
vn -0.6860 0.6912 -0.2272
vn -0.9294 -0.0149 -0.3687
vn -0.6564 0.6659 0.3546
vn -0.9664 -0.1153 0.2298
vn -0.1328 0.3933 0.9098
vn -0.4741 -0.4121 0.7781
vn -0.3674 -0.9106 -0.1893
vn 0.4996 0.7689 0.3989
vn 0.5001 0.4216 0.7564
vn 0.8401 0.2911 0.4577
vn 0.8962 0.4180 0.1488
vn 0.3643 0.9306 -0.0363
vn 0.8218 0.5645 -0.0774
vn -0.0364 0.9795 0.1983
vn -0.1164 0.8475 0.5179
vn -0.0527 0.6688 0.7415
vn 0.9919 -0.0258 -0.1246
vn 0.8848 -0.1559 0.4392
vn 0.4841 -0.8683 0.1080
vn 0.6176 -0.6491 -0.4441
vn 0.8057 0.3811 -0.4534
vn 0.3913 -0.2681 -0.8803
vn 0.1674 0.8385 -0.5186
vn -0.2636 0.1769 -0.9483
vn -0.4270 0.9028 -0.0507
vn -0.8618 0.2590 -0.4362
vn -0.6538 0.6166 0.4385
vn -0.9937 0.0210 0.1103
vn -0.3692 0.3393 0.8652
vn -0.7671 -0.3394 0.5443
vn 0.3224 -0.0759 0.9436
vn -0.1086 -0.7773 0.6197
vn -0.4889 -0.7724 -0.4055
# 104 vertex normals

vt 0.0158 0.7084 0.0000
vt 0.0257 0.7083 0.0000
vt 0.0235 0.7132 0.0000
vt 0.0159 0.7148 0.0000
vt 0.0059 0.7086 0.0000
vt 0.0083 0.7134 0.0000
vt 0.0082 0.7037 0.0000
vt 0.0157 0.7021 0.0000
vt 0.0234 0.7035 0.0000
vt 0.0026 0.6975 0.0000
vt 0.0058 0.6975 0.0000
vt 0.0047 0.6931 0.0000
vt 0.0011 0.6931 0.0000
vt 0.0160 0.7176 0.0000
vt 0.0051 0.7155 0.0000
vt 0.0267 0.7151 0.0000
vt 0.0154 0.6975 0.0000
vt 0.0154 0.6931 0.0000
vt 0.0249 0.6975 0.0000
vt 0.0260 0.6931 0.0000
vt 0.0015 0.7087 0.0000
vt 0.0050 0.7017 0.0000
vt 0.0281 0.6975 0.0000
vt 0.0296 0.6931 0.0000
vt 0.0157 0.6993 0.0000
vt 0.0265 0.7014 0.0000
vt 0.0302 0.7082 0.0000
vt 0.0154 0.6888 0.0000
# 28 texture coords

g ingredient2
f 1/1/1 2/2/2 3/3/3 4/4/4 
f 5/5/5 1/1/1 4/4/4 6/6/6 
f 1/1/1 5/5/5 7/7/7 8/8/8 
f 2/2/2 1/1/1 8/8/8 9/9/9 
f 10/10/10 11/11/11 12/12/12 13/13/13 
f 14/11/14 10/10/10 13/13/13 15/12/15 
f 10/14/10 14/15/14 6/6/6 4/4/4 
f 11/16/11 10/14/10 4/4/4 3/3/3 
f 16/17/16 14/11/14 15/12/15 17/18/17 
f 18/19/18 16/17/16 17/18/17 19/20/19 
f 16/21/16 18/22/18 7/7/7 5/5/5 
f 14/15/14 16/21/16 5/5/5 6/6/6 
f 20/23/20 18/19/18 19/20/19 21/24/21 
f 22/19/22 20/23/20 21/24/21 23/20/23 
f 20/25/20 22/26/22 9/9/9 8/8/8 
f 18/22/18 20/25/20 8/8/8 7/7/7 
f 24/17/24 22/19/22 23/20/23 25/18/25 
f 11/11/11 24/17/24 25/18/25 12/12/12 
f 24/27/24 11/16/11 3/3/3 2/2/2 
f 22/26/22 24/27/24 2/2/2 9/9/9 
f 13/13/13 12/12/12 26/28/26 
f 15/12/15 13/13/13 26/28/26 
f 17/18/17 15/12/15 26/28/26 
f 19/20/19 17/18/17 26/28/26 
f 21/24/21 19/20/19 26/28/26 
f 23/20/23 21/24/21 26/28/26 
f 25/18/25 23/20/23 26/28/26 
f 12/12/12 25/18/25 26/28/26 
f 27/1/27 28/2/28 29/3/29 30/4/30 
f 31/5/31 27/1/27 30/4/30 32/6/32 
f 27/1/27 31/5/31 33/7/33 34/8/34 
f 28/2/28 27/1/27 34/8/34 35/9/35 
f 36/10/36 37/11/37 38/12/38 39/13/39 
f 40/11/40 36/10/36 39/13/39 41/12/41 
f 36/14/36 40/15/40 32/6/32 30/4/30 
f 37/16/37 36/14/36 30/4/30 29/3/29 
f 42/17/42 40/11/40 41/12/41 43/18/43 
f 44/19/44 42/17/42 43/18/43 45/20/45 
f 42/21/42 44/22/44 33/7/33 31/5/31 
f 40/15/40 42/21/42 31/5/31 32/6/32 
f 46/23/46 44/19/44 45/20/45 47/24/47 
f 48/19/48 46/23/46 47/24/47 49/20/49 
f 46/25/46 48/26/48 35/9/35 34/8/34 
f 44/22/44 46/25/46 34/8/34 33/7/33 
f 50/17/50 48/19/48 49/20/49 51/18/51 
f 37/11/37 50/17/50 51/18/51 38/12/38 
f 50/27/50 37/16/37 29/3/29 28/2/28 
f 48/26/48 50/27/50 28/2/28 35/9/35 
f 39/13/39 38/12/38 52/28/52 
f 41/12/41 39/13/39 52/28/52 
f 43/18/43 41/12/41 52/28/52 
f 45/20/45 43/18/43 52/28/52 
f 47/24/47 45/20/45 52/28/52 
f 49/20/49 47/24/47 52/28/52 
f 51/18/51 49/20/49 52/28/52 
f 38/12/38 51/18/51 52/28/52 
f 53/1/53 54/2/54 55/3/55 56/4/56 
f 57/5/57 53/1/53 56/4/56 58/6/58 
f 53/1/53 57/5/57 59/7/59 60/8/60 
f 54/2/54 53/1/53 60/8/60 61/9/61 
f 62/10/62 63/11/63 64/12/64 65/13/65 
f 66/11/66 62/10/62 65/13/65 67/12/67 
f 62/14/62 66/15/66 58/6/58 56/4/56 
f 63/16/63 62/14/62 56/4/56 55/3/55 
f 68/17/68 66/11/66 67/12/67 69/18/69 
f 70/19/70 68/17/68 69/18/69 71/20/71 
f 68/21/68 70/22/70 59/7/59 57/5/57 
f 66/15/66 68/21/68 57/5/57 58/6/58 
f 72/23/72 70/19/70 71/20/71 73/24/73 
f 74/19/74 72/23/72 73/24/73 75/20/75 
f 72/25/72 74/26/74 61/9/61 60/8/60 
f 70/22/70 72/25/72 60/8/60 59/7/59 
f 76/17/76 74/19/74 75/20/75 77/18/77 
f 63/11/63 76/17/76 77/18/77 64/12/64 
f 76/27/76 63/16/63 55/3/55 54/2/54 
f 74/26/74 76/27/76 54/2/54 61/9/61 
f 65/13/65 64/12/64 78/28/78 
f 67/12/67 65/13/65 78/28/78 
f 69/18/69 67/12/67 78/28/78 
f 71/20/71 69/18/69 78/28/78 
f 73/24/73 71/20/71 78/28/78 
f 75/20/75 73/24/73 78/28/78 
f 77/18/77 75/20/75 78/28/78 
f 64/12/64 77/18/77 78/28/78 
f 79/1/79 80/2/80 81/3/81 82/4/82 
f 83/5/83 79/1/79 82/4/82 84/6/84 
f 79/1/79 83/5/83 85/7/85 86/8/86 
f 80/2/80 79/1/79 86/8/86 87/9/87 
f 88/10/88 89/11/89 90/12/90 91/13/91 
f 92/11/92 88/10/88 91/13/91 93/12/93 
f 88/14/88 92/15/92 84/6/84 82/4/82 
f 89/16/89 88/14/88 82/4/82 81/3/81 
f 94/17/94 92/11/92 93/12/93 95/18/95 
f 96/19/96 94/17/94 95/18/95 97/20/97 
f 94/21/94 96/22/96 85/7/85 83/5/83 
f 92/15/92 94/21/94 83/5/83 84/6/84 
f 98/23/98 96/19/96 97/20/97 99/24/99 
f 100/19/100 98/23/98 99/24/99 101/20/101 
f 98/25/98 100/26/100 87/9/87 86/8/86 
f 96/22/96 98/25/98 86/8/86 85/7/85 
f 102/17/102 100/19/100 101/20/101 103/18/103 
f 89/11/89 102/17/102 103/18/103 90/12/90 
f 102/27/102 89/16/89 81/3/81 80/2/80 
f 100/26/100 102/27/102 80/2/80 87/9/87 
f 91/13/91 90/12/90 104/28/104 
f 93/12/93 91/13/91 104/28/104 
f 95/18/95 93/12/93 104/28/104 
f 97/20/97 95/18/95 104/28/104 
f 99/24/99 97/20/97 104/28/104 
f 101/20/101 99/24/99 104/28/104 
f 103/18/103 101/20/101 104/28/104 
f 90/12/90 103/18/103 104/28/104 
# 80 polygons - 32 triangles

