# 3ds Max Wavefront OBJ Exporter v0.97b - (c)2007 guruware
# File Created: 11.03.2014 12:17:53

mtllib jaildoor_large_frame.mtl

#
# object jaildoor_large_frame
#

v  -99.0790 149.7926 6.9294
v  -99.0790 0.0072 6.9294
v  -92.3318 0.0072 6.9294
v  -92.3318 149.7926 6.9294
v  -100.0790 149.7926 4.8894
v  -100.0790 0.0072 4.8894
v  -100.0790 0.0072 5.9294
v  -100.0790 149.7926 5.9294
v  -92.3318 149.7926 4.8894
v  -92.3318 0.0072 4.8894
v  99.2600 0.0072 6.9294
v  99.2601 149.7926 6.9294
v  92.5128 149.7926 6.9294
v  92.5128 0.0072 6.9294
v  100.2600 0.0072 4.8894
v  100.2601 149.7926 4.8894
v  100.2601 149.7926 5.9294
v  100.2600 0.0072 5.9294
v  92.5128 0.0072 4.8894
v  92.5128 149.7926 4.8894
v  -100.0790 149.7926 -4.6352
v  -100.0790 0.0072 -4.6352
v  -92.3318 0.0072 -4.6352
v  -92.3318 149.7926 -4.6352
v  -100.0790 149.7926 -5.6752
v  -100.0790 0.0072 -5.6752
v  -92.3318 149.7926 -6.6752
v  -92.3318 0.0072 -6.6752
v  -99.0790 0.0072 -6.6752
v  -99.0790 149.7926 -6.6752
v  100.2600 0.0072 -4.6352
v  100.2601 149.7926 -4.6352
v  92.5128 149.7926 -4.6352
v  92.5128 0.0072 -4.6352
v  100.2600 0.0072 -5.6752
v  100.2601 149.7926 -5.6752
v  92.5128 0.0072 -6.6752
v  92.5128 149.7926 -6.6752
v  99.2601 149.7926 -6.6752
v  99.2600 0.0072 -6.6752
v  -92.3318 154.5754 6.9294
v  -99.0790 154.5755 6.9294
v  99.2601 154.5755 6.9294
v  92.5128 154.5754 6.9294
v  -100.0790 154.5755 5.9294
v  -100.0790 154.5755 -5.6752
v  -99.0790 154.5755 -6.6752
v  -92.3318 154.5754 -6.6752
v  100.2601 154.5755 -5.6752
v  100.2601 154.5755 5.9294
v  92.5128 154.5754 -6.6752
v  99.2601 154.5755 -6.6752
v  -92.3318 155.5754 -5.6752
v  -99.0790 155.5755 -5.6752
v  -99.0790 155.5755 5.9294
v  -92.3318 155.5754 5.9294
v  92.5128 155.5754 -5.6752
v  92.5128 155.5754 5.9294
v  99.2601 155.5755 5.9294
v  99.2601 155.5755 -5.6752
# 60 vertices

vn 0.0000 -0.0000 1.0000
vn -1.0000 0.0000 -0.0000
vn -0.0000 0.0000 -1.0000
vn 0.0000 0.0000 -1.0000
vn 1.0000 0.0000 -0.0000
vn -0.0000 -0.0000 1.0000
vn 1.0000 -0.0000 -0.0000
vn 0.0000 -1.0000 -0.0000
vn 0.0000 1.0000 0.0000
vn -0.0000 1.0000 0.0000
vn -0.0000 -1.0000 -0.0000
vn -0.5774 0.5774 0.5774
vn 0.5774 0.5774 0.5774
vn -0.5774 0.5774 -0.5774
vn 0.5774 0.5774 -0.5774
vn -0.7071 -0.0000 0.7071
vn 0.7071 -0.0000 0.7071
vn -0.7071 0.0000 -0.7071
vn 0.7071 0.0000 -0.7071
vn 0.0000 0.7071 0.7071
vn -0.7071 0.7071 0.0000
vn -0.0000 0.7071 0.7071
vn 0.0000 0.7071 -0.7071
vn 0.7071 0.7071 0.0000
vn -0.0000 0.7071 -0.7071
# 25 vertex normals

vt 0.1032 0.9764 0.0000
vt 0.1032 0.9764 0.0000
vt 0.1023 0.9764 0.0000
vt 0.1023 0.9764 0.0000
vt 0.1022 0.9775 0.0000
vt 0.1022 0.9775 0.0000
vt 0.1022 0.9786 0.0000
vt 0.1022 0.9786 0.0000
vt 0.1032 0.9786 0.0000
vt 0.1032 0.9786 0.0000
vt 0.1162 0.9764 0.0000
vt 0.1162 0.9764 0.0000
vt 0.1171 0.9764 0.0000
vt 0.1171 0.9764 0.0000
vt 0.1172 0.9775 0.0000
vt 0.1172 0.9775 0.0000
vt 0.1172 0.9786 0.0000
vt 0.1172 0.9786 0.0000
vt 0.1162 0.9786 0.0000
vt 0.1162 0.9786 0.0000
vt 0.1032 0.9887 0.0000
vt 0.1032 0.9887 0.0000
vt 0.1022 0.9887 0.0000
vt 0.1022 0.9887 0.0000
vt 0.1022 0.9898 0.0000
vt 0.1022 0.9898 0.0000
vt 0.1023 0.9909 0.0000
vt 0.1023 0.9909 0.0000
vt 0.1032 0.9909 0.0000
vt 0.1032 0.9909 0.0000
vt 0.1162 0.9887 0.0000
vt 0.1162 0.9887 0.0000
vt 0.1172 0.9887 0.0000
vt 0.1172 0.9887 0.0000
vt 0.1172 0.9898 0.0000
vt 0.1172 0.9898 0.0000
vt 0.1171 0.9909 0.0000
vt 0.1171 0.9909 0.0000
vt 0.1162 0.9909 0.0000
vt 0.1162 0.9909 0.0000
vt 0.1032 0.9764 0.0000
vt 0.1023 0.9764 0.0000
vt 0.1171 0.9764 0.0000
vt 0.1162 0.9764 0.0000
vt 0.1022 0.9775 0.0000
vt 0.1022 0.9898 0.0000
vt 0.1023 0.9909 0.0000
vt 0.1032 0.9909 0.0000
vt 0.1172 0.9898 0.0000
vt 0.1172 0.9775 0.0000
vt 0.1162 0.9909 0.0000
vt 0.1171 0.9909 0.0000
vt 0.1032 0.9898 0.0000
vt 0.1023 0.9898 0.0000
vt 0.1023 0.9775 0.0000
vt 0.1032 0.9775 0.0000
vt 0.1171 0.9898 0.0000
vt 0.1162 0.9898 0.0000
vt 0.1162 0.9775 0.0000
vt 0.1171 0.9775 0.0000
vt 0.0731 0.9842 0.0000
vt 0.0731 0.9844 0.0000
vt 0.0731 0.9845 0.0000
vt 0.0814 0.9835 0.0000
vt 0.0813 0.9835 0.0000
vt 0.0813 0.9832 0.0000
vt 0.0731 0.9876 0.0000
vt 0.0731 0.9876 0.0000
vt 0.0731 0.9879 0.0000
vt 0.0813 0.9869 0.0000
vt 0.0813 0.9866 0.0000
vt 0.0814 0.9866 0.0000
vt 0.0731 0.9842 0.0000
vt 0.0731 0.9845 0.0000
vt 0.0731 0.9845 0.0000
vt 0.0731 0.9842 0.0000
vt 0.0813 0.9832 0.0000
vt 0.0814 0.9835 0.0000
vt 0.0814 0.9835 0.0000
vt 0.0813 0.9832 0.0000
vt 0.0731 0.9876 0.0000
vt 0.0731 0.9879 0.0000
vt 0.0731 0.9879 0.0000
vt 0.0731 0.9876 0.0000
vt 0.0814 0.9866 0.0000
vt 0.0813 0.9869 0.0000
vt 0.0813 0.9869 0.0000
vt 0.0814 0.9866 0.0000
vt 0.0736 0.9841 0.0000
vt 0.0736 0.9844 0.0000
vt 0.0808 0.9835 0.0000
vt 0.0808 0.9833 0.0000
vt 0.0736 0.9875 0.0000
vt 0.0736 0.9878 0.0000
vt 0.0808 0.9870 0.0000
vt 0.0808 0.9867 0.0000
# 96 texture coords

g jaildoor_large_frame
usemtl PA_allmap
s 2049
f 1/3/1 2/4/1 3/1/1 4/2/1 
s 4100
f 5/7/2 6/8/2 7/5/2 8/6/2 
s 8194
f 9/9/3 10/10/4 6/8/3 5/7/3 
s 4100
f 4/2/5 3/1/5 10/10/5 9/9/5 
s 2049
f 11/13/6 12/14/6 13/11/6 14/12/1 
s 4100
f 15/17/7 16/18/7 17/15/7 18/16/7 
s 8194
f 19/19/4 20/20/4 16/18/4 15/17/4 
s 4100
f 14/12/2 13/11/2 20/20/2 19/19/2 
s 2147483648
f 6/8/8 10/10/8 3/1/8 7/5/8 
f 3/1/8 2/4/8 7/5/8 
f 15/17/8 18/16/8 11/13/8 14/12/8 
f 15/17/8 14/12/8 19/19/8 
s 2049
f 21/23/1 22/24/1 23/21/1 24/22/1 
s 4100
f 25/25/2 26/26/2 22/24/2 21/23/2 
s 8194
f 27/29/3 28/30/4 29/27/3 30/28/3 
s 4100
f 24/22/5 23/21/5 28/30/5 27/29/5 
s 2049
f 31/33/6 32/34/6 33/31/6 34/32/1 
s 4100
f 35/35/7 36/36/7 32/34/7 31/33/7 
s 8194
f 37/39/4 38/40/4 39/37/4 40/38/4 
s 4100
f 34/32/2 33/31/2 38/40/2 37/39/2 
s 2147483648
f 29/27/8 28/30/8 23/21/8 22/24/8 
f 26/26/8 29/27/8 22/24/8 
f 35/35/8 31/33/8 34/32/8 37/39/8 
f 40/38/8 35/35/8 37/39/8 
s off
f 1/3/1 4/2/1 41/41/1 42/42/1 
f 13/11/6 12/14/6 43/43/6 44/44/6 
s 8
f 5/7/2 8/6/2 45/45/2 46/46/2 
f 21/23/2 5/7/2 46/46/2 25/25/2 
s off
f 27/29/3 30/28/3 47/47/3 48/48/3 
s 8
f 32/34/5 36/36/5 49/49/5 50/50/5 
f 50/50/5 17/15/5 16/18/5 32/34/5 
s off
f 39/37/4 38/40/4 51/51/4 52/52/4 
s 16
f 53/53/9 54/54/9 55/55/9 56/56/9 
f 57/58/10 58/59/10 59/60/10 60/57/10 
f 9/9/11 5/7/11 21/23/11 24/22/11 
f 16/18/8 20/20/8 33/31/8 32/34/8 
s 8
f 27/29/3 48/48/3 51/51/3 38/40/4 
s 32
f 53/53/9 56/56/9 58/59/9 57/58/9 
s 8
f 41/41/1 4/2/1 13/11/1 44/44/1 
s 32
f 4/2/8 9/9/8 20/20/8 13/11/8 
f 9/9/8 24/22/8 33/31/8 20/20/8 
f 24/22/8 27/29/8 38/40/8 33/31/8 
s off
f 42/61/12 55/62/12 45/63/12 
f 50/64/13 59/65/13 43/66/13 
f 46/67/14 54/68/14 47/69/14 
f 52/70/15 60/71/15 49/72/15 
f 1/73/16 8/74/16 7/75/16 2/76/16 
f 11/77/17 18/78/17 17/79/17 12/80/17 
f 25/81/18 30/82/18 29/83/18 26/84/18 
f 35/85/19 40/86/19 39/87/19 36/88/19 
f 8/74/16 1/73/16 42/61/16 45/63/16 
f 12/80/17 17/79/17 50/64/17 43/66/17 
f 30/82/18 25/81/18 46/67/18 47/69/18 
f 36/88/19 39/87/19 52/70/19 49/72/19 
f 41/89/20 56/90/20 55/62/20 42/61/20 
f 45/63/21 55/62/21 54/68/21 46/67/21 
f 43/66/22 59/65/22 58/91/22 44/92/22 
f 47/69/23 54/68/23 53/93/23 48/94/23 
f 49/72/24 60/71/24 59/65/24 50/64/24 
f 51/95/25 57/96/25 60/71/25 52/70/25 
f 48/94/25 53/93/25 57/96/25 51/95/25 
f 56/90/20 41/89/20 44/92/20 58/91/20 
# 54 polygons - 8 triangles

