# 3ds Max Wavefront OBJ Exporter v0.97b - (c)2007 guruware
# File Created: 11.03.2014 12:17:10

mtllib jaildoor_small_frame.mtl

#
# object jaildoor_small_frame
#

v  -56.7996 149.8051 6.8023
v  -56.7996 0.0072 6.8023
v  -50.0524 0.0072 6.8023
v  -50.0524 149.8051 6.8023
v  -57.7996 149.8051 4.7623
v  -57.7996 0.0072 4.7623
v  -57.7996 0.0072 5.8023
v  -57.7996 149.8051 5.8023
v  -50.0524 149.8051 4.7623
v  -50.0524 0.0072 4.7623
v  56.7996 0.0072 6.8023
v  56.7996 149.8051 6.8023
v  50.0524 149.8051 6.8023
v  50.0524 0.0072 6.8023
v  57.7996 0.0072 4.7623
v  57.7996 149.8051 4.7623
v  57.7996 149.8051 5.8023
v  57.7996 0.0072 5.8023
v  50.0524 0.0072 4.7623
v  50.0524 149.8051 4.7623
v  -57.7996 149.8051 -4.7623
v  -57.7996 0.0072 -4.7623
v  -50.0524 0.0072 -4.7623
v  -50.0524 149.8051 -4.7623
v  -57.7996 149.8051 -5.8023
v  -57.7996 0.0072 -5.8023
v  -50.0524 149.8051 -6.8023
v  -50.0524 0.0072 -6.8023
v  -56.7996 0.0072 -6.8023
v  -56.7996 149.8051 -6.8023
v  57.7996 0.0072 -4.7623
v  57.7996 149.8051 -4.7623
v  50.0524 149.8051 -4.7623
v  50.0524 0.0072 -4.7623
v  57.7996 0.0072 -5.8023
v  57.7996 149.8051 -5.8023
v  50.0524 0.0072 -6.8023
v  50.0524 149.8051 -6.8023
v  56.7996 149.8051 -6.8023
v  56.7996 0.0072 -6.8023
v  -50.0524 154.5879 6.8023
v  -56.7996 154.5879 6.8023
v  56.7996 154.5879 6.8023
v  50.0524 154.5879 6.8023
v  -57.7996 154.5879 5.8023
v  -57.7996 154.5879 -5.8023
v  -56.7996 154.5879 -6.8023
v  -50.0524 154.5879 -6.8023
v  57.7996 154.5879 -5.8023
v  57.7996 154.5879 5.8023
v  50.0524 154.5879 -6.8023
v  56.7996 154.5879 -6.8023
v  -50.0524 155.5879 -5.8023
v  -56.7996 155.5879 -5.8023
v  -56.7996 155.5879 5.8023
v  -50.0524 155.5879 5.8023
v  50.0524 155.5879 -5.8023
v  50.0524 155.5879 5.8023
v  56.7996 155.5879 5.8023
v  56.7996 155.5879 -5.8023
# 60 vertices

vn 0.0000 -0.0000 1.0000
vn -1.0000 0.0000 -0.0000
vn -0.0000 0.0000 -1.0000
vn 0.0000 0.0000 -1.0000
vn 1.0000 0.0000 -0.0000
vn -0.0000 -0.0000 1.0000
vn 1.0000 -0.0000 -0.0000
vn 0.0000 -1.0000 -0.0000
vn 0.0000 0.0000 1.0000
vn -0.0000 0.0000 1.0000
vn -0.0000 -0.0000 -1.0000
vn 0.0000 -0.0000 -1.0000
vn 0.0000 1.0000 0.0000
vn -0.0000 1.0000 0.0000
vn -0.0000 -1.0000 -0.0000
vn -0.5774 0.5774 0.5774
vn 0.5774 0.5774 0.5774
vn -0.5774 0.5774 -0.5774
vn 0.5774 0.5774 -0.5774
vn -0.7071 -0.0000 0.7071
vn 0.7071 -0.0000 0.7071
vn -0.7071 0.0000 -0.7071
vn 0.7071 0.0000 -0.7071
vn -0.7071 0.0000 0.7071
vn 0.7071 0.0000 0.7071
vn -0.7071 -0.0000 -0.7071
vn 0.7071 -0.0000 -0.7071
vn 0.0000 0.7071 0.7071
vn -0.7071 0.7071 0.0000
vn -0.0000 0.7071 0.7071
vn 0.0000 0.7071 -0.7071
vn 0.7071 0.7071 0.0000
vn -0.0000 0.7071 -0.7071
# 33 vertex normals

vt 0.1032 0.9764 0.0000
vt 0.1032 0.9764 0.0000
vt 0.1023 0.9764 0.0000
vt 0.1023 0.9764 0.0000
vt 0.1022 0.9775 0.0000
vt 0.1022 0.9775 0.0000
vt 0.1022 0.9786 0.0000
vt 0.1022 0.9786 0.0000
vt 0.1032 0.9786 0.0000
vt 0.1032 0.9786 0.0000
vt 0.1162 0.9764 0.0000
vt 0.1162 0.9764 0.0000
vt 0.1171 0.9764 0.0000
vt 0.1171 0.9764 0.0000
vt 0.1172 0.9775 0.0000
vt 0.1172 0.9775 0.0000
vt 0.1172 0.9786 0.0000
vt 0.1172 0.9786 0.0000
vt 0.1162 0.9786 0.0000
vt 0.1162 0.9786 0.0000
vt 0.1032 0.9887 0.0000
vt 0.1032 0.9887 0.0000
vt 0.1022 0.9887 0.0000
vt 0.1022 0.9887 0.0000
vt 0.1022 0.9898 0.0000
vt 0.1022 0.9898 0.0000
vt 0.1023 0.9909 0.0000
vt 0.1023 0.9909 0.0000
vt 0.1032 0.9909 0.0000
vt 0.1032 0.9909 0.0000
vt 0.1162 0.9887 0.0000
vt 0.1162 0.9887 0.0000
vt 0.1172 0.9887 0.0000
vt 0.1172 0.9887 0.0000
vt 0.1172 0.9898 0.0000
vt 0.1172 0.9898 0.0000
vt 0.1171 0.9909 0.0000
vt 0.1171 0.9909 0.0000
vt 0.1162 0.9909 0.0000
vt 0.1162 0.9909 0.0000
vt 0.1032 0.9764 0.0000
vt 0.1023 0.9764 0.0000
vt 0.1171 0.9764 0.0000
vt 0.1162 0.9764 0.0000
vt 0.1022 0.9775 0.0000
vt 0.1022 0.9898 0.0000
vt 0.1023 0.9909 0.0000
vt 0.1032 0.9909 0.0000
vt 0.1172 0.9898 0.0000
vt 0.1172 0.9775 0.0000
vt 0.1162 0.9909 0.0000
vt 0.1171 0.9909 0.0000
vt 0.1032 0.9898 0.0000
vt 0.1023 0.9898 0.0000
vt 0.1023 0.9775 0.0000
vt 0.1032 0.9775 0.0000
vt 0.1171 0.9898 0.0000
vt 0.1162 0.9898 0.0000
vt 0.1162 0.9775 0.0000
vt 0.1171 0.9775 0.0000
vt 0.0731 0.9842 0.0000
vt 0.0731 0.9844 0.0000
vt 0.0731 0.9845 0.0000
vt 0.0814 0.9835 0.0000
vt 0.0813 0.9835 0.0000
vt 0.0813 0.9832 0.0000
vt 0.0731 0.9876 0.0000
vt 0.0731 0.9876 0.0000
vt 0.0731 0.9879 0.0000
vt 0.0813 0.9869 0.0000
vt 0.0813 0.9866 0.0000
vt 0.0814 0.9866 0.0000
vt 0.0731 0.9842 0.0000
vt 0.0731 0.9845 0.0000
vt 0.0731 0.9845 0.0000
vt 0.0731 0.9842 0.0000
vt 0.0813 0.9832 0.0000
vt 0.0814 0.9835 0.0000
vt 0.0814 0.9835 0.0000
vt 0.0813 0.9832 0.0000
vt 0.0731 0.9876 0.0000
vt 0.0731 0.9879 0.0000
vt 0.0731 0.9879 0.0000
vt 0.0731 0.9876 0.0000
vt 0.0814 0.9866 0.0000
vt 0.0813 0.9869 0.0000
vt 0.0813 0.9869 0.0000
vt 0.0814 0.9866 0.0000
vt 0.0736 0.9841 0.0000
vt 0.0736 0.9844 0.0000
vt 0.0808 0.9835 0.0000
vt 0.0808 0.9833 0.0000
vt 0.0736 0.9875 0.0000
vt 0.0736 0.9878 0.0000
vt 0.0808 0.9870 0.0000
vt 0.0808 0.9867 0.0000
# 96 texture coords

g jaildoor_small_frame
usemtl PA_allmap
s 2049
f 1/3/1 2/4/1 3/1/1 4/2/1 
s 4100
f 5/7/2 6/8/2 7/5/2 8/6/2 
s 8194
f 9/9/3 10/10/4 6/8/3 5/7/3 
s 4100
f 4/2/5 3/1/5 10/10/5 9/9/5 
s 2049
f 11/13/6 12/14/6 13/11/6 14/12/1 
s 4100
f 15/17/7 16/18/7 17/15/7 18/16/7 
s 8194
f 19/19/4 20/20/4 16/18/4 15/17/4 
s 4100
f 14/12/2 13/11/2 20/20/2 19/19/2 
s 2147483648
f 6/8/8 10/10/8 3/1/8 7/5/8 
f 3/1/8 2/4/8 7/5/8 
f 15/17/8 18/16/8 11/13/8 14/12/8 
f 15/17/8 14/12/8 19/19/8 
s 2049
f 21/23/1 22/24/1 23/21/1 24/22/1 
s 4100
f 25/25/2 26/26/2 22/24/2 21/23/2 
s 8194
f 27/29/3 28/30/4 29/27/3 30/28/3 
s 4100
f 24/22/5 23/21/5 28/30/5 27/29/5 
s 2049
f 31/33/6 32/34/6 33/31/6 34/32/1 
s 4100
f 35/35/7 36/36/7 32/34/7 31/33/7 
s 8194
f 37/39/4 38/40/4 39/37/4 40/38/4 
s 4100
f 34/32/2 33/31/2 38/40/2 37/39/2 
s 2147483648
f 29/27/8 28/30/8 23/21/8 22/24/8 
f 26/26/8 29/27/8 22/24/8 
f 35/35/8 31/33/8 34/32/8 37/39/8 
f 40/38/8 35/35/8 37/39/8 
s off
f 1/3/9 4/2/9 41/41/9 42/42/9 
f 13/11/10 12/14/10 43/43/10 44/44/10 
s 8
f 5/7/2 8/6/2 45/45/2 46/46/2 
f 21/23/2 5/7/2 46/46/2 25/25/2 
s off
f 27/29/11 30/28/11 47/47/11 48/48/11 
s 8
f 32/34/5 36/36/5 49/49/5 50/50/5 
f 50/50/5 17/15/5 16/18/5 32/34/5 
s off
f 39/37/12 38/40/12 51/51/12 52/52/12 
s 16
f 53/53/13 54/54/13 55/55/13 56/56/13 
f 57/58/14 58/59/14 59/60/14 60/57/14 
f 9/9/15 5/7/15 21/23/15 24/22/15 
f 16/18/8 20/20/8 33/31/8 32/34/8 
s 8
f 27/29/4 48/48/4 51/51/4 38/40/4 
s 32
f 53/53/13 56/56/13 58/59/13 57/58/13 
s 8
f 41/41/9 4/2/9 13/11/9 44/44/9 
s 32
f 4/2/8 9/9/8 20/20/8 13/11/8 
f 9/9/8 24/22/8 33/31/8 20/20/8 
f 24/22/8 27/29/8 38/40/8 33/31/8 
s off
f 42/61/16 55/62/16 45/63/16 
f 50/64/17 59/65/17 43/66/17 
f 46/67/18 54/68/18 47/69/18 
f 52/70/19 60/71/19 49/72/19 
f 1/73/20 8/74/20 7/75/20 2/76/20 
f 11/77/21 18/78/21 17/79/21 12/80/21 
f 25/81/22 30/82/22 29/83/22 26/84/22 
f 35/85/23 40/86/23 39/87/23 36/88/23 
f 8/74/24 1/73/24 42/61/24 45/63/24 
f 12/80/25 17/79/25 50/64/25 43/66/25 
f 30/82/26 25/81/26 46/67/26 47/69/26 
f 36/88/27 39/87/27 52/70/27 49/72/27 
f 41/89/28 56/90/28 55/62/28 42/61/28 
f 45/63/29 55/62/29 54/68/29 46/67/29 
f 43/66/30 59/65/30 58/91/30 44/92/30 
f 47/69/31 54/68/31 53/93/31 48/94/31 
f 49/72/32 60/71/32 59/65/32 50/64/32 
f 51/95/33 57/96/33 60/71/33 52/70/33 
f 48/94/31 53/93/31 57/96/31 51/95/31 
f 56/90/28 41/89/28 44/92/28 58/91/28 
# 54 polygons - 8 triangles

