# 3ds Max Wavefront OBJ Exporter v0.97b - (c)2007 guruware
# File Created: 21.03.2014 15:41:13

#
# object LaundryMachine
#

v  99.0000 99.5232 99.0000
v  99.0000 99.5232 1.0000
v  1.0000 99.5232 1.0000
v  1.0000 99.5232 99.0000
v  -0.0000 87.9232 99.0000
v  0.0000 87.9232 1.0000
v  0.0000 5.9321 1.0000
v  -0.0000 5.9321 99.0000
v  100.0000 87.9232 1.0000
v  100.0000 87.9232 99.0000
v  100.0000 5.9321 99.0000
v  100.0000 5.9321 1.0000
v  1.0000 87.9232 -0.0000
v  99.0000 87.9232 0.0000
v  99.0000 5.9321 0.0000
v  1.0000 5.9321 -0.0000
v  -0.0000 90.1373 99.0000
v  0.0000 90.1373 1.0000
v  0.3912 88.9842 1.3911
v  0.3911 88.9842 98.6088
v  99.0000 90.1373 100.0000
v  1.0000 90.1373 100.0000
v  1.3911 88.9842 99.6088
v  98.6088 88.9842 99.6089
v  100.0000 90.1373 1.0000
v  100.0000 90.1373 99.0000
v  99.6088 88.9842 98.6089
v  99.6089 88.9842 1.3912
v  1.0000 90.1373 -0.0000
v  99.0000 90.1373 0.0000
v  98.6089 88.9842 0.3912
v  1.3912 88.9842 0.3911
v  -0.0000 98.5232 99.0000
v  0.0000 98.5232 1.0000
v  99.0000 98.5232 100.0000
v  1.0000 98.5232 100.0000
v  1.0000 87.9232 100.0000
v  99.0000 87.9232 100.0000
v  100.0000 98.5232 1.0000
v  100.0000 98.5232 99.0000
v  1.0000 98.5232 -0.0000
v  99.0000 98.5232 0.0000
v  99.0000 4.7443 0.0000
v  1.0000 4.7443 -0.0000
v  1.4259 5.3209 0.4259
v  98.5741 5.3209 0.4259
v  100.0000 4.7443 99.0000
v  100.0000 4.7443 1.0000
v  99.5741 5.3209 1.4259
v  99.5741 5.3209 98.5741
v  1.0000 4.7443 100.0000
v  99.0000 4.7443 100.0000
v  98.5741 5.3209 99.5741
v  1.4259 5.3209 99.5741
v  0.0000 4.7443 1.0000
v  -0.0000 4.7443 99.0000
v  0.4259 5.3209 98.5741
v  0.4259 5.3209 1.4259
v  99.0000 0.1321 0.0000
v  1.0000 0.1321 -0.0000
v  100.0000 0.1321 99.0000
v  100.0000 0.1321 1.0000
v  1.0000 0.1321 100.0000
v  99.0000 0.1321 100.0000
v  99.0000 5.9321 100.0000
v  1.0000 5.9321 100.0000
v  0.0000 0.1321 1.0000
v  -0.0000 0.1321 99.0000
v  66.4513 30.5004 100.0000
v  58.7535 26.0561 100.0000
v  50.0000 5.9321 100.0000
v  72.1648 37.3094 100.0000
v  50.0000 24.5126 100.0000
v  41.2464 26.0561 100.0000
v  33.5487 30.5004 100.0000
v  75.2048 45.6620 100.0000
v  27.8352 37.3094 100.0000
v  24.7951 45.6620 100.0000
v  24.7951 54.5506 100.0000
v  27.8352 62.9031 100.0000
v  75.2049 54.5506 100.0000
v  33.5487 69.7122 100.0000
v  41.2464 74.1565 100.0000
v  50.0000 87.9232 100.0000
v  50.0000 75.7000 100.0000
v  58.7536 74.1565 100.0000
v  66.4513 69.7122 100.0000
v  72.1648 62.9031 100.0000
v  65.6650 31.4374 98.0643
v  58.3352 27.2055 98.0643
v  71.1054 37.9210 98.0643
v  50.0000 25.7358 98.0643
v  41.6648 27.2055 98.0643
v  34.3350 31.4374 98.0643
v  74.0002 45.8744 98.0643
v  28.8946 37.9211 98.0643
v  25.9998 45.8744 98.0643
v  25.9998 54.3382 98.0643
v  28.8946 62.2915 98.0643
v  74.0002 54.3382 98.0643
v  34.3350 68.7751 98.0643
v  41.6648 73.0070 98.0643
v  50.0000 74.4767 98.0643
v  58.3352 73.0070 98.0643
v  65.6650 68.7751 98.0643
v  71.1054 62.2915 98.0643
v  50.0000 50.1063 6.6228
v  21.9266 96.0846 102.8929
v  10.2752 96.0846 102.8929
v  10.2752 93.1861 102.8929
v  21.9266 93.1861 102.8929
v  9.6429 92.5879 101.8909
v  22.5588 92.5879 101.8909
v  22.5588 96.6828 101.8909
v  9.6429 96.6828 101.8909
v  7.7227 94.6091 101.8909
v  7.2360 96.1071 101.8909
v  6.6607 95.6891 103.0958
v  7.0116 94.6091 103.0958
v  5.9617 97.0329 101.8909
v  5.7420 96.3566 103.0958
v  4.3866 97.0329 101.8909
v  4.6063 96.3566 103.0958
v  3.1123 96.1071 101.8909
v  3.6876 95.6891 103.0958
v  2.6256 94.6091 101.8909
v  3.3367 94.6091 103.0958
v  3.1123 93.1111 101.8909
v  3.6876 93.5290 103.0958
v  4.3866 92.1852 101.8909
v  4.6063 92.8615 103.0958
v  5.9617 92.1852 101.8909
v  5.7420 92.8615 103.0958
v  7.2360 93.1111 101.8909
v  6.6607 93.5290 103.0958
v  23.4514 97.7876 101.8909
v  1.7452 97.7876 101.8909
v  1.7452 91.4475 101.8909
v  23.4514 91.4475 101.8909
v  23.4514 91.1075 101.5509
v  1.7452 91.1075 101.5509
v  1.7452 91.1075 100.0000
v  23.4514 91.1075 100.0000
v  23.7914 97.7876 101.5509
v  23.7914 91.4475 101.5509
v  23.7914 91.4475 100.0000
v  23.7914 97.7876 100.0000
v  1.7452 98.1276 101.5509
v  23.4514 98.1276 101.5509
v  23.4514 98.1276 100.0000
v  1.7452 98.1276 100.0000
v  1.4052 91.4475 101.5509
v  1.4052 97.7876 101.5509
v  1.4052 97.7876 100.0000
v  1.4052 91.4475 100.0000
# 155 vertices

vn 0.0000 1.0000 -0.0000
vn -1.0000 0.0000 -0.0000
vn 1.0000 0.0000 0.0000
vn 0.0000 0.0000 -1.0000
vn -0.9470 -0.3213 -0.0000
vn -0.0000 -0.3213 0.9470
vn 0.9470 -0.3213 0.0000
vn 0.0000 -0.3213 -0.9470
vn -0.9383 0.3459 -0.0000
vn -0.0000 0.0000 1.0000
vn -0.0000 0.3459 0.9383
vn 0.9383 0.3459 0.0000
vn 0.0000 0.3459 -0.9383
vn 0.0000 0.5942 -0.8043
vn 0.8043 0.5942 0.0000
vn -0.0000 0.5942 0.8043
vn -0.8043 0.5942 -0.0000
vn 0.0000 -0.5717 -0.8205
vn 0.8205 -0.5717 0.0000
vn -0.0000 -0.5717 0.8205
vn -0.8205 -0.5717 -0.0000
vn -0.5774 0.5774 -0.5774
vn -0.5774 0.5774 0.5774
vn 0.5774 0.5774 0.5774
vn 0.5774 0.5774 -0.5774
vn -0.7071 0.0000 0.7071
vn -0.7071 0.0000 -0.7071
vn 0.7071 0.0000 0.7071
vn 0.7071 0.0000 -0.7071
vn -0.7071 0.7071 -0.0000
vn -0.0000 0.7071 0.7071
vn 0.7071 0.7071 0.0000
vn 0.0000 0.7071 -0.7071
vn -0.6270 0.4623 -0.6270
vn -0.6270 0.4623 0.6270
vn 0.6270 0.4623 0.6270
vn 0.6270 0.4623 -0.6270
vn -0.6375 -0.4325 -0.6375
vn -0.6375 -0.4325 0.6375
vn 0.6375 -0.4325 0.6375
vn 0.6375 -0.4325 -0.6375
vn -0.5037 -0.7019 -0.5037
vn 0.5037 -0.7019 -0.5037
vn 0.5037 -0.7019 0.5037
vn -0.5037 -0.7019 0.5037
vn -0.4890 0.7224 -0.4890
vn 0.4890 0.7224 -0.4890
vn 0.4890 0.7224 0.4890
vn -0.4890 0.7224 0.4890
vn 0.0000 0.0000 1.0000
vn -0.0000 -0.0000 1.0000
vn 0.0000 -0.0000 1.0000
vn -0.2891 0.7944 0.5342
vn -0.5434 0.6476 0.5342
vn -0.5872 0.6998 0.4067
vn -0.3125 0.8585 0.4067
vn -0.7321 0.4227 0.5342
vn -0.7912 0.4568 0.4067
vn 0.0000 0.8454 0.5342
vn 0.0000 0.9136 0.4067
vn 0.2891 0.7944 0.5342
vn 0.3125 0.8585 0.4067
vn 0.5434 0.6476 0.5342
vn 0.5872 0.6998 0.4067
vn -0.8325 0.1468 0.5342
vn -0.8997 0.1586 0.4067
vn 0.7321 0.4227 0.5342
vn 0.7912 0.4568 0.4067
vn 0.8325 0.1468 0.5342
vn 0.8997 0.1586 0.4067
vn 0.8325 -0.1468 0.5342
vn 0.8997 -0.1586 0.4067
vn 0.7321 -0.4227 0.5342
vn 0.7912 -0.4568 0.4067
vn -0.8325 -0.1468 0.5342
vn -0.8997 -0.1586 0.4067
vn 0.5434 -0.6476 0.5342
vn 0.5872 -0.6998 0.4067
vn 0.2891 -0.7944 0.5342
vn 0.3125 -0.8585 0.4067
vn -0.0000 -0.8454 0.5342
vn -0.0000 -0.9136 0.4067
vn -0.2891 -0.7944 0.5342
vn -0.3125 -0.8585 0.4067
vn -0.5434 -0.6476 0.5342
vn -0.5872 -0.6998 0.4067
vn -0.7321 -0.4227 0.5342
vn -0.7912 -0.4568 0.4067
vn -0.0000 -0.8586 0.5127
vn 0.8457 0.0000 0.5336
vn -0.0000 0.8586 0.5127
vn -0.8457 0.0000 0.5337
vn 0.8612 0.0000 0.5083
vn 0.6967 0.5062 0.5083
vn 0.2661 0.8191 0.5083
vn -0.2661 0.8191 0.5083
vn -0.6967 0.5062 0.5083
vn -0.8612 -0.0000 0.5083
vn -0.6967 -0.5062 0.5083
vn -0.2661 -0.8191 0.5083
vn 0.2661 -0.8191 0.5083
vn 0.6967 -0.5062 0.5083
vn 0.0000 -1.0000 -0.0000
vn 1.0000 0.0000 -0.0000
vn -0.5773 -0.5774 0.5773
vn 0.5773 -0.5774 0.5773
vn -0.5773 0.5774 0.5773
vn 0.5773 0.5774 0.5773
vn -0.0000 -0.7071 0.7071
vn 0.7071 -0.7071 -0.0000
vn -0.7071 -0.7071 -0.0000
vn 0.7071 0.7071 -0.0000
# 112 vertex normals

vt 0.1615 0.9577 0.0000
vt 0.1675 0.9577 0.0000
vt 0.1675 0.9640 0.0000
vt 0.1615 0.9640 0.0000
vt 0.0686 0.9439 0.0000
vt 0.0686 0.9439 0.0000
vt 0.0686 0.9608 0.0000
vt 0.0686 0.9608 0.0000
vt 0.0877 0.9439 0.0000
vt 0.0877 0.9439 0.0000
vt 0.0877 0.9608 0.0000
vt 0.0877 0.9608 0.0000
vt 0.0875 0.9439 0.0000
vt 0.0688 0.9439 0.0000
vt 0.0688 0.9608 0.0000
vt 0.0875 0.9608 0.0000
vt 0.0687 0.9611 0.0000
vt 0.1675 0.9576 0.0000
vt 0.1675 0.9576 0.0000
vt 0.0687 0.9611 0.0000
vt 0.0689 0.9611 0.0000
vt 0.1615 0.9576 0.0000
vt 0.1615 0.9576 0.0000
vt 0.0688 0.9608 0.0000
vt 0.0875 0.9608 0.0000
vt 0.1676 0.9640 0.0000
vt 0.1676 0.9640 0.0000
vt 0.0874 0.9611 0.0000
vt 0.0876 0.9611 0.0000
vt 0.1676 0.9577 0.0000
vt 0.1676 0.9577 0.0000
vt 0.0876 0.9611 0.0000
vt 0.1615 0.9641 0.0000
vt 0.1615 0.9641 0.0000
vt 0.1675 0.9641 0.0000
vt 0.1675 0.9641 0.0000
vt 0.0874 0.9611 0.0000
vt 0.0689 0.9611 0.0000
vt 0.1615 0.9577 0.0000
vt 0.1614 0.9577 0.0000
vt 0.1614 0.9640 0.0000
vt 0.1615 0.9640 0.0000
vt 0.0874 0.9438 0.0000
vt 0.0875 0.9437 0.0000
vt 0.0688 0.9437 0.0000
vt 0.0689 0.9438 0.0000
vt 0.0876 0.9438 0.0000
vt 0.1220 0.9484 0.0000
vt 0.1220 0.9484 0.0000
vt 0.0876 0.9438 0.0000
vt 0.0689 0.9438 0.0000
vt 0.0981 0.9484 0.0000
vt 0.1218 0.9484 0.0000
vt 0.0874 0.9438 0.0000
vt 0.0687 0.9438 0.0000
vt 0.0979 0.9484 0.0000
vt 0.0979 0.9484 0.0000
vt 0.0687 0.9438 0.0000
vt 0.0875 0.9427 0.0000
vt 0.0688 0.9427 0.0000
vt 0.1220 0.9449 0.0000
vt 0.1220 0.9449 0.0000
vt 0.0981 0.9449 0.0000
vt 0.1218 0.9449 0.0000
vt 0.0875 0.9439 0.0000
vt 0.0688 0.9439 0.0000
vt 0.0979 0.9449 0.0000
vt 0.0979 0.9449 0.0000
vt 0.0813 0.9490 0.0000
vt 0.0798 0.9481 0.0000
vt 0.0782 0.9439 0.0000
vt 0.0824 0.9504 0.0000
vt 0.0782 0.9477 0.0000
vt 0.0765 0.9481 0.0000
vt 0.0750 0.9490 0.0000
vt 0.0830 0.9521 0.0000
vt 0.0739 0.9504 0.0000
vt 0.0734 0.9521 0.0000
vt 0.0734 0.9539 0.0000
vt 0.0739 0.9557 0.0000
vt 0.0830 0.9539 0.0000
vt 0.0750 0.9571 0.0000
vt 0.0765 0.9580 0.0000
vt 0.0782 0.9608 0.0000
vt 0.0782 0.9583 0.0000
vt 0.0798 0.9580 0.0000
vt 0.0813 0.9571 0.0000
vt 0.0824 0.9557 0.0000
vt 0.0811 0.9492 0.0000
vt 0.0797 0.9483 0.0000
vt 0.0822 0.9505 0.0000
vt 0.0782 0.9480 0.0000
vt 0.0766 0.9483 0.0000
vt 0.0752 0.9492 0.0000
vt 0.0827 0.9522 0.0000
vt 0.0741 0.9505 0.0000
vt 0.0736 0.9522 0.0000
vt 0.0736 0.9539 0.0000
vt 0.0741 0.9555 0.0000
vt 0.0827 0.9539 0.0000
vt 0.0752 0.9569 0.0000
vt 0.0766 0.9578 0.0000
vt 0.0782 0.9581 0.0000
vt 0.0797 0.9578 0.0000
vt 0.0811 0.9569 0.0000
vt 0.0822 0.9555 0.0000
vt 0.0470 0.9227 0.0000
vt 0.1675 0.9576 0.0000
vt 0.1615 0.9576 0.0000
vt 0.1676 0.9640 0.0000
vt 0.1676 0.9577 0.0000
vt 0.1615 0.9641 0.0000
vt 0.1675 0.9641 0.0000
vt 0.1614 0.9577 0.0000
vt 0.1614 0.9640 0.0000
vt 0.0515 0.9174 0.0000
vt 0.0494 0.9162 0.0000
vt 0.0530 0.9193 0.0000
vt 0.0470 0.9158 0.0000
vt 0.0447 0.9162 0.0000
vt 0.0426 0.9174 0.0000
vt 0.0538 0.9215 0.0000
vt 0.0410 0.9193 0.0000
vt 0.0402 0.9215 0.0000
vt 0.0402 0.9239 0.0000
vt 0.0410 0.9262 0.0000
vt 0.0538 0.9239 0.0000
vt 0.0426 0.9280 0.0000
vt 0.0447 0.9292 0.0000
vt 0.0470 0.9297 0.0000
vt 0.0494 0.9292 0.0000
vt 0.0515 0.9280 0.0000
vt 0.0530 0.9262 0.0000
vt 0.1217 0.9488 0.0000
vt 0.1218 0.9484 0.0000
vt 0.0981 0.9484 0.0000
vt 0.0983 0.9488 0.0000
vt 0.1219 0.9488 0.0000
vt 0.1219 0.9488 0.0000
vt 0.0983 0.9488 0.0000
vt 0.1217 0.9488 0.0000
vt 0.0980 0.9488 0.0000
vt 0.0980 0.9488 0.0000
vt 0.1218 0.9449 0.0000
vt 0.0981 0.9449 0.0000
vt 0.0421 0.9123 0.0000
vt 0.0528 0.9123 0.0000
vt 0.0528 0.9236 0.0000
vt 0.0421 0.9236 0.0000
vt 0.0415 0.9100 0.0000
vt 0.0534 0.9100 0.0000
vt 0.0534 0.9259 0.0000
vt 0.0415 0.9259 0.0000
vt 0.0867 0.9845 0.0000
vt 0.0851 0.9894 0.0000
vt 0.0832 0.9881 0.0000
vt 0.0844 0.9845 0.0000
vt 0.0809 0.9925 0.0000
vt 0.0801 0.9903 0.0000
vt 0.0756 0.9925 0.0000
vt 0.0764 0.9903 0.0000
vt 0.0714 0.9894 0.0000
vt 0.0733 0.9881 0.0000
vt 0.0698 0.9845 0.0000
vt 0.0722 0.9845 0.0000
vt 0.0714 0.9795 0.0000
vt 0.0733 0.9809 0.0000
vt 0.0756 0.9764 0.0000
vt 0.0764 0.9787 0.0000
vt 0.0809 0.9764 0.0000
vt 0.0801 0.9787 0.0000
vt 0.0851 0.9795 0.0000
vt 0.0832 0.9809 0.0000
vt 0.2058 0.8552 0.0000
vt 0.2066 0.8530 0.0000
vt 0.2040 0.8565 0.0000
vt 0.2017 0.8565 0.0000
vt 0.1998 0.8552 0.0000
vt 0.1991 0.8530 0.0000
vt 0.1998 0.8508 0.0000
vt 0.2017 0.8494 0.0000
vt 0.2040 0.8494 0.0000
vt 0.2058 0.8508 0.0000
vt 0.1028 0.8551 0.0000
vt 0.1172 0.8551 0.0000
vt 0.1172 0.8672 0.0000
vt 0.1028 0.8672 0.0000
vt 0.1028 0.8545 0.0000
vt 0.1172 0.8545 0.0000
vt 0.1172 0.8545 0.0000
vt 0.1028 0.8545 0.0000
vt 0.1175 0.8551 0.0000
vt 0.1175 0.8672 0.0000
vt 0.1175 0.8672 0.0000
vt 0.1175 0.8551 0.0000
vt 0.1172 0.8678 0.0000
vt 0.1028 0.8678 0.0000
vt 0.1028 0.8678 0.0000
vt 0.1172 0.8678 0.0000
vt 0.1026 0.8672 0.0000
vt 0.1026 0.8551 0.0000
vt 0.1026 0.8551 0.0000
vt 0.1026 0.8672 0.0000
# 203 texture coords

g LaundryMachine
s 4
f 1/3/1 2/4/1 3/1/1 4/2/1 
s 8
f 5/7/2 6/8/2 7/5/2 8/6/2 
s 32
f 9/11/3 10/12/3 11/9/3 12/10/3 
s 64
f 13/15/4 14/16/4 15/13/4 16/14/4 
s off
f 17/19/5 18/22/5 19/23/5 20/18/5 
f 21/27/6 22/30/6 23/31/6 24/26/6 
f 25/34/7 26/35/7 27/36/7 28/33/7 
f 29/40/8 30/41/8 31/42/8 32/39/8 
f 33/108/2 34/109/2 18/22/2 17/19/2 
f 6/8/9 5/7/9 20/20/9 19/17/9 
f 35/110/10 36/111/10 22/30/10 21/27/10 
f 37/24/11 38/25/11 24/28/11 23/21/11 
f 39/112/3 40/113/3 26/35/3 25/34/3 
f 10/12/12 9/11/12 28/32/12 27/29/12 
f 41/114/4 42/115/4 30/41/4 29/40/4 
f 14/16/13 13/15/13 32/38/13 31/37/13 
f 43/44/14 44/45/14 45/46/14 46/43/14 
f 47/48/15 48/49/15 49/139/15 50/138/15 
f 51/52/16 52/53/16 53/141/16 54/140/16 
f 55/56/17 56/57/17 57/143/17 58/142/17 
f 59/59/4 60/60/4 44/45/4 43/44/4 
f 16/14/18 15/13/18 46/43/18 45/46/18 
f 61/61/3 62/62/3 48/49/3 47/48/3 
f 12/10/19 11/9/19 50/47/19 49/50/19 
f 63/63/10 64/64/10 52/53/10 51/52/10 
f 65/65/20 66/66/20 54/51/20 53/54/20 
f 67/67/2 68/68/2 56/57/2 55/56/2 
f 8/6/21 7/5/21 58/55/21 57/58/21 
f 3/1/22 41/114/22 34/109/22 
f 33/108/23 36/111/23 4/2/23 
f 35/110/24 40/113/24 1/3/24 
f 2/4/25 39/112/25 42/115/25 
f 8/6/26 66/66/26 37/24/26 5/7/26 
f 6/8/27 13/15/27 16/14/27 7/5/27 
f 10/12/28 38/25/28 65/65/28 11/9/28 
f 12/10/29 15/13/29 14/16/29 9/11/29 
f 3/1/30 34/109/30 33/108/30 4/2/30 
f 4/2/31 36/111/31 35/110/31 1/3/31 
f 1/3/32 40/113/32 39/112/32 2/4/32 
f 2/4/33 42/115/33 41/114/33 3/1/33 
f 13/15/34 6/8/34 19/17/34 32/38/34 
f 5/7/35 37/24/35 23/21/35 20/20/35 
f 38/25/36 10/12/36 27/29/36 24/28/36 
f 9/11/37 14/16/37 31/37/37 28/32/37 
f 32/39/38 19/23/38 18/22/38 29/40/38 
f 29/40/27 18/22/27 34/109/27 41/114/27 
f 20/18/39 23/31/39 22/30/39 17/19/39 
f 17/19/26 22/30/26 36/111/26 33/108/26 
f 24/26/40 27/36/40 26/35/40 21/27/40 
f 21/27/28 26/35/28 40/113/28 35/110/28 
f 28/33/41 31/42/41 30/41/41 25/34/41 
f 25/34/29 30/41/29 42/115/29 39/112/29 
f 7/5/42 16/14/42 45/46/42 58/55/42 
f 15/13/43 12/10/43 49/50/43 46/43/43 
f 11/9/44 65/65/44 53/54/44 50/47/44 
f 66/66/45 8/6/45 57/58/45 54/51/45 
f 58/142/46 45/137/46 44/136/46 55/56/46 
f 55/56/27 44/136/27 60/145/27 67/67/27 
f 46/134/47 49/139/47 48/49/47 43/135/47 
f 43/135/29 48/49/29 62/62/29 59/144/29 
f 50/138/48 53/141/48 52/53/48 47/48/48 
f 47/48/28 52/53/28 64/64/28 61/61/28 
f 54/140/49 57/143/49 56/57/49 51/52/49 
f 51/52/26 56/57/26 68/68/26 63/63/26 
f 69/69/10 70/70/10 71/71/10 65/65/10 
f 72/72/10 69/69/10 65/65/10 
f 70/70/10 73/73/10 71/71/10 
f 73/73/50 74/74/50 71/71/50 
f 74/74/10 75/75/10 66/66/10 71/71/10 
f 76/76/10 72/72/10 65/65/10 
f 75/75/50 77/77/50 66/66/50 
f 77/77/50 78/78/50 66/66/50 
f 78/78/50 79/79/50 37/24/50 66/66/50 
f 79/79/50 80/80/50 37/24/50 
f 81/81/10 76/76/10 65/65/10 38/25/10 
f 80/80/50 82/82/50 37/24/50 
f 82/82/51 83/83/51 84/84/51 37/24/51 
f 83/83/52 85/85/52 84/84/52 
f 85/85/51 86/86/51 84/84/51 
f 86/86/51 87/87/51 38/25/51 84/84/51 
f 87/87/51 88/88/51 38/25/51 
f 88/88/51 81/81/51 38/25/51 
s 65536
f 70/70/53 69/69/54 89/89/55 90/90/56 
f 69/69/54 72/72/57 91/91/58 89/89/55 
f 73/73/59 70/70/53 90/90/56 92/92/60 
f 74/74/61 73/73/59 92/92/60 93/93/62 
f 75/75/63 74/74/61 93/93/62 94/94/64 
f 72/72/57 76/76/65 95/95/66 91/91/58 
f 77/77/67 75/75/63 94/94/64 96/96/68 
f 78/78/69 77/77/67 96/96/68 97/97/70 
f 79/79/71 78/78/69 97/97/70 98/98/72 
f 80/80/73 79/79/71 98/98/72 99/99/74 
f 76/76/65 81/81/75 100/100/76 95/95/66 
f 82/82/77 80/80/73 99/99/74 101/101/78 
f 83/83/79 82/82/77 101/101/78 102/102/80 
f 85/85/81 83/83/79 102/102/80 103/103/82 
f 86/86/83 85/85/81 103/103/82 104/104/84 
f 87/87/85 86/86/83 104/104/84 105/105/86 
f 88/88/87 87/87/85 105/105/86 106/106/88 
f 81/81/75 88/88/87 106/106/88 100/100/76 
f 90/117/56 89/116/55 107/107/10 
f 89/116/55 91/118/58 107/107/10 
f 92/119/60 90/117/56 107/107/10 
f 93/120/62 92/119/60 107/107/10 
f 94/121/64 93/120/62 107/107/10 
f 91/118/58 95/122/66 107/107/10 
f 96/123/68 94/121/64 107/107/10 
f 97/124/70 96/123/68 107/107/10 
f 98/125/72 97/124/70 107/107/10 
f 99/126/74 98/125/72 107/107/10 
f 95/122/66 100/127/76 107/107/10 
f 101/128/78 99/126/74 107/107/10 
f 102/129/80 101/128/78 107/107/10 
f 103/130/82 102/129/80 107/107/10 
f 104/131/84 103/130/82 107/107/10 
f 105/132/86 104/131/84 107/107/10 
f 106/133/88 105/132/86 107/107/10 
f 100/127/76 106/133/88 107/107/10 
s 4
f 108/148/10 109/149/10 110/146/10 111/147/10 
s 8
f 111/147/89 110/146/89 112/150/89 113/151/89 
s 16
f 108/148/90 111/147/90 113/151/90 114/152/90 
s 32
f 109/149/91 108/148/91 114/152/91 115/153/91 
s 64
f 110/146/92 109/149/92 115/153/92 112/150/92 
s 8
f 116/154/93 117/155/94 118/156/94 119/157/93 
f 117/155/94 120/158/95 121/159/95 118/156/94 
f 120/158/95 122/160/96 123/161/96 121/159/95 
f 122/160/96 124/162/97 125/163/97 123/161/96 
f 124/162/97 126/164/98 127/165/98 125/163/97 
f 126/164/98 128/166/99 129/167/99 127/165/98 
f 128/166/99 130/168/100 131/169/100 129/167/99 
f 130/168/100 132/170/101 133/171/101 131/169/100 
f 132/170/101 134/172/102 135/173/102 133/171/101 
f 134/172/102 116/154/93 119/157/93 135/173/102 
s 1
f 119/175/50 118/174/50 121/176/50 133/182/50 
f 121/176/50 123/177/50 125/178/50 133/182/50 
f 125/178/50 127/179/50 129/180/50 133/182/50 
f 129/180/50 131/181/50 133/182/50 
f 135/183/50 119/175/50 133/182/50 
s 4
f 136/186/10 137/187/10 138/184/10 139/185/10 
s 8
f 140/190/103 141/191/103 142/188/103 143/189/103 
s 16
f 144/194/104 145/195/104 146/192/104 147/193/104 
s 32
f 148/198/1 149/199/1 150/196/1 151/197/1 
s 64
f 152/202/2 153/203/2 154/200/2 155/201/2 
s off
f 141/191/105 138/184/105 152/202/105 
f 145/195/106 139/185/106 140/190/106 
f 153/203/107 137/187/107 148/198/107 
f 149/199/108 136/186/108 144/194/108 
f 138/184/109 141/191/109 140/190/109 139/185/109 
f 139/185/28 145/195/28 144/194/28 136/186/28 
f 136/186/31 149/199/31 148/198/31 137/187/31 
f 137/187/26 153/203/26 152/202/26 138/184/26 
f 143/189/110 146/192/110 145/195/110 140/190/110 
f 141/191/111 152/202/111 155/201/111 142/188/111 
f 147/193/112 150/196/112 149/199/112 144/194/112 
f 151/197/30 154/200/30 153/203/30 148/198/30 
# 115 polygons - 40 triangles

