# 3ds Max Wavefront OBJ Exporter v0.97b - (c)2007 guruware
# File Created: 28.04.2016 17:06:41

#
# object LinkLeftUpRight
#

v  -775.0000 4.1902 -50.0000
v  -775.0000 4.1902 -25.0000
v  -775.0000 198.0000 -25.0000
v  -775.0000 198.0000 -50.0000
v  -777.0000 200.0000 -50.0000
v  -777.0000 200.0000 -23.0000
v  -750.0000 4.1902 -25.0000
v  -750.0000 198.0000 -25.0000
v  -750.0000 200.0000 -23.0000
v  -750.0000 200.0000 23.0000
v  -800.0000 200.0000 23.0000
v  -800.0000 198.0000 25.0000
v  -750.0000 198.0000 25.0000
v  -750.0000 4.1902 25.0000
v  -850.0000 4.1902 25.0000
v  -850.0000 198.0000 25.0000
v  -825.0000 4.1902 -50.0000
v  -825.0000 198.0000 -50.0000
v  -825.0000 198.0000 -25.0000
v  -825.0000 4.1902 -25.0000
v  -823.0000 200.0000 -50.0000
v  -823.0000 200.0000 -23.0000
v  -850.0000 4.1902 -25.0000
v  -850.0000 198.0000 -25.0000
v  -850.0000 200.0000 -23.0000
v  -850.0000 200.0000 23.0000
v  -850.0000 2.1467 50.0000
v  -850.0000 2.1467 -50.0000
v  -750.0000 2.1467 -50.0000
v  -750.0000 2.1467 50.0000
# 30 vertices

vn 1.0000 -0.0000 0.0000
vn 0.7071 0.7071 -0.0000
vn -0.0000 0.0000 -1.0000
vn -0.0000 0.7071 -0.7071
vn 0.0000 1.0000 -0.0000
vn -0.0000 -0.0000 1.0000
vn 0.0000 -0.0000 1.0000
vn -0.0000 0.7071 0.7071
vn -1.0000 -0.0000 0.0000
vn -0.7071 0.7071 -0.0000
vn 0.0000 0.0000 -1.0000
vn 0.0000 0.7071 -0.7071
vn 0.0000 0.7071 0.7071
# 13 vertex normals

vt 0.0126 0.0035 0.0000
vt 0.0058 0.0035 0.0000
vt 0.0058 0.0619 0.0000
vt 0.0126 0.0619 0.0000
vt 0.2724 0.8938 0.0000
vt 0.2724 0.8860 0.0000
vt 0.2620 0.8860 0.0000
vt 0.2620 0.8938 0.0000
vt 0.0125 0.0035 0.0000
vt 0.0125 0.0619 0.0000
vt 0.0055 0.0619 0.0000
vt 0.0055 0.0035 0.0000
vt 0.0726 0.9919 0.0000
vt 0.0852 0.9919 0.0000
vt 0.0852 0.9784 0.0000
vt 0.0726 0.9852 0.0000
vt 0.0268 0.0619 0.0000
vt 0.0407 0.0619 0.0000
vt 0.0407 0.0035 0.0000
vt 0.0129 0.0035 0.0000
vt 0.0129 0.0619 0.0000
vt 0.2654 0.8860 0.0000
vt 0.2652 0.8938 0.0000
vt 0.0057 0.0619 0.0000
vt 0.0057 0.0035 0.0000
vt 0.0128 0.0035 0.0000
vt 0.0059 0.0035 0.0000
vt 0.0059 0.0619 0.0000
vt 0.0128 0.0619 0.0000
vt 0.1043 0.8550 0.0000
vt 0.1043 0.8653 0.0000
vt 0.1159 0.8653 0.0000
vt 0.1159 0.8550 0.0000
# 33 texture coords

g LinkLeftUpRight
f 4/4/1 3/3/1 2/2/1 1/1/1 
f 6/8/2 3/7/2 4/6/2 5/5/2 
f 2/12/3 3/11/3 8/10/3 7/9/3 
f 8/6/4 3/7/4 6/8/4 9/5/4 
f 11/16/5 10/15/5 9/14/5 6/13/5 
f 15/20/6 14/19/6 13/18/6 12/17/6 
f 16/21/7 15/20/7 12/17/7 
f 11/23/8 12/22/8 13/6/8 10/5/8 
f 20/25/9 19/24/9 18/4/9 17/1/9 
f 18/6/10 19/7/10 22/8/10 21/5/10 
f 24/29/11 19/28/11 20/27/11 23/26/11 
f 22/8/12 19/7/12 24/6/12 25/5/12 
f 5/14/5 22/13/5 11/16/5 6/13/5 
f 21/14/5 22/13/5 5/14/5 
f 11/16/5 22/13/5 25/14/5 26/15/5 
f 16/6/13 12/22/13 11/23/13 26/5/13 
f 30/33/5 29/32/5 28/31/5 27/30/5 
# 15 polygons - 2 triangles

