# 3ds Max Wavefront OBJ Exporter v0.97b - (c)2007 guruware
# File Created: 28.04.2016 17:07:18

#
# object LinkRightDownLeft
#

v  -625.0000 4.1902 50.0000
v  -625.0000 4.1902 25.0000
v  -625.0000 198.0000 25.0000
v  -625.0000 198.0000 50.0000
v  -623.0000 200.0000 50.0000
v  -623.0000 200.0000 23.0000
v  -650.0000 4.1902 25.0000
v  -650.0000 198.0000 25.0000
v  -650.0000 200.0000 23.0000
v  -650.0000 200.0000 -23.0000
v  -600.0000 200.0000 -23.0000
v  -600.0000 198.0000 -25.0000
v  -650.0000 198.0000 -25.0000
v  -650.0000 4.1902 -25.0000
v  -550.0000 4.1902 -25.0000
v  -550.0000 198.0000 -25.0000
v  -575.0000 4.1902 50.0000
v  -575.0000 198.0000 50.0000
v  -575.0000 198.0000 25.0000
v  -575.0000 4.1902 25.0000
v  -577.0000 200.0000 50.0000
v  -577.0000 200.0000 23.0000
v  -550.0000 4.1902 25.0000
v  -550.0000 198.0000 25.0000
v  -550.0000 200.0000 23.0000
v  -550.0000 200.0000 -23.0000
v  -550.0000 2.1467 -50.0000
v  -550.0000 2.1467 50.0000
v  -650.0000 2.1467 50.0000
v  -650.0000 2.1467 -50.0000
# 30 vertices

vn -1.0000 -0.0000 -0.0000
vn -0.7071 0.7071 -0.0000
vn -0.0000 0.0000 1.0000
vn 0.0000 0.7071 0.7071
vn 0.0000 1.0000 -0.0000
vn 0.0000 -0.0000 -1.0000
vn 0.0000 0.7071 -0.7071
vn 1.0000 -0.0000 0.0000
vn 0.7071 0.7071 0.0000
vn -0.0000 0.7071 0.7071
# 10 vertex normals

vt 0.0126 0.0035 0.0000
vt 0.0058 0.0035 0.0000
vt 0.0058 0.0619 0.0000
vt 0.0126 0.0619 0.0000
vt 0.2724 0.8938 0.0000
vt 0.2724 0.8860 0.0000
vt 0.2620 0.8860 0.0000
vt 0.2620 0.8938 0.0000
vt 0.0125 0.0035 0.0000
vt 0.0125 0.0619 0.0000
vt 0.0055 0.0619 0.0000
vt 0.0055 0.0035 0.0000
vt 0.0726 0.9919 0.0000
vt 0.0852 0.9919 0.0000
vt 0.0852 0.9784 0.0000
vt 0.0726 0.9852 0.0000
vt 0.0268 0.0619 0.0000
vt 0.0407 0.0619 0.0000
vt 0.0407 0.0035 0.0000
vt 0.0129 0.0035 0.0000
vt 0.0129 0.0619 0.0000
vt 0.2654 0.8860 0.0000
vt 0.2652 0.8938 0.0000
vt 0.0057 0.0619 0.0000
vt 0.0057 0.0035 0.0000
vt 0.0128 0.0035 0.0000
vt 0.0059 0.0035 0.0000
vt 0.0059 0.0619 0.0000
vt 0.0128 0.0619 0.0000
vt 0.1043 0.8550 0.0000
vt 0.1043 0.8653 0.0000
vt 0.1159 0.8653 0.0000
vt 0.1159 0.8550 0.0000
# 33 texture coords

g LinkRightDownLeft
f 4/4/1 3/3/1 2/2/1 1/1/1 
f 6/8/2 3/7/2 4/6/2 5/5/2 
f 2/12/3 3/11/3 8/10/3 7/9/3 
f 8/6/4 3/7/4 6/8/4 9/5/4 
f 11/16/5 10/15/5 9/14/5 6/13/5 
f 15/20/6 14/19/6 13/18/6 12/17/6 
f 16/21/6 15/20/6 12/17/6 
f 11/23/7 12/22/7 13/6/7 10/5/7 
f 20/25/8 19/24/8 18/4/8 17/1/8 
f 18/6/9 19/7/9 22/8/9 21/5/9 
f 24/29/3 19/28/3 20/27/3 23/26/3 
f 22/8/10 19/7/10 24/6/10 25/5/10 
f 5/14/5 22/13/5 11/16/5 6/13/5 
f 21/14/5 22/13/5 5/14/5 
f 11/16/5 22/13/5 25/14/5 26/15/5 
f 16/6/7 12/22/7 11/23/7 26/5/7 
f 30/33/5 29/32/5 28/31/5 27/30/5 
# 15 polygons - 2 triangles

