# 3ds Max Wavefront OBJ Exporter v0.97b - (c)2007 guruware
# File Created: 29.03.2016 15:25:33

#
# object sofasingle
#

v  169.5277 22.5547 34.0000
v  230.5855 22.5547 34.0000
v  231.4572 22.5547 33.7094
v  231.7478 22.5547 32.8377
v  231.7478 22.5547 -32.8377
v  231.4572 22.5547 -33.7094
v  230.5855 22.5547 -34.0000
v  168.3654 22.5547 -32.8377
v  169.5277 22.5547 -34.0000
v  168.6560 22.5547 -33.7094
v  168.6560 22.5547 33.7094
v  168.3654 22.5547 32.8377
v  169.3654 6.3489 35.0000
v  230.7478 6.3489 35.0000
v  230.7478 21.5547 35.0000
v  169.3654 21.5547 35.0000
v  232.7478 6.3489 33.0000
v  232.7478 6.3489 -33.0000
v  232.7478 21.5547 -33.0000
v  232.7478 21.5547 33.0000
v  230.7478 6.3489 -35.0000
v  169.3654 6.3489 -35.0000
v  169.3654 21.5547 -35.0000
v  230.7478 21.5547 -35.0000
v  167.8654 6.3489 34.5000
v  167.8654 21.5547 34.5000
v  232.2478 21.5547 34.5000
v  232.2478 6.3489 34.5000
v  232.2478 21.5547 -34.5000
v  232.2478 6.3489 -34.5000
v  167.8654 21.5547 -34.5000
v  167.8654 6.3489 -34.5000
v  167.3654 6.3489 33.0000
v  167.3654 21.5547 33.0000
v  167.3654 21.5547 -33.0000
v  167.3654 6.3489 -33.0000
v  234.9101 39.5125 34.0000
v  247.2538 39.5125 34.0000
v  248.1255 39.5125 33.7094
v  248.4161 39.5125 32.8377
v  248.4161 39.5125 -32.8377
v  248.1255 39.5125 -33.7094
v  247.2538 39.5125 -34.0000
v  233.7478 39.5125 -32.8377
v  234.9101 39.5125 -34.0000
v  234.0384 39.5125 -33.7094
v  234.0384 39.5125 33.7094
v  233.7478 39.5125 32.8377
v  234.7478 6.5125 35.0000
v  247.4161 6.5125 35.0000
v  247.4161 38.5125 35.0000
v  234.7478 38.5125 35.0000
v  249.4161 6.5125 33.0000
v  249.4161 6.5125 -33.0000
v  249.4161 38.5125 -33.0000
v  249.4161 38.5125 33.0000
v  247.4161 6.5125 -35.0000
v  234.7478 6.5125 -35.0000
v  234.7478 38.5125 -35.0000
v  247.4161 38.5125 -35.0000
v  232.7478 6.5125 -33.0000
v  232.7478 6.5125 33.0000
v  232.7478 38.5125 33.0000
v  232.7478 38.5125 -33.0000
v  248.9161 38.5125 34.5000
v  248.9161 6.5125 34.5000
v  233.2478 6.5125 34.5000
v  233.2478 38.5125 34.5000
v  248.9161 38.5125 -34.5000
v  248.9161 6.5125 -34.5000
v  233.2478 38.5125 -34.5000
v  233.2478 6.5125 -34.5000
v  166.0748 39.5125 -33.7094
v  165.2031 39.5125 -34.0000
v  152.8594 39.5125 -34.0000
v  166.3654 39.5125 -32.8377
v  151.9877 39.5125 -33.7094
v  151.6971 39.5125 -32.8377
v  151.6971 39.5125 32.8377
v  151.9877 39.5125 33.7094
v  152.8594 39.5125 34.0000
v  165.2031 39.5125 34.0000
v  166.0748 39.5125 33.7094
v  166.3654 39.5125 32.8377
v  165.3654 6.5125 35.0000
v  165.3654 38.5125 35.0000
v  152.6971 38.5125 35.0000
v  152.6971 6.5125 35.0000
v  150.6971 6.5125 33.0000
v  150.6971 38.5125 33.0000
v  150.6971 38.5125 -33.0000
v  150.6971 6.5125 -33.0000
v  152.6971 6.5125 -35.0000
v  152.6971 38.5125 -35.0000
v  165.3654 38.5125 -35.0000
v  165.3654 6.5125 -35.0000
v  167.3654 6.5125 -33.0000
v  167.3654 38.5125 -33.0000
v  167.3654 38.5125 33.0000
v  167.3654 6.5125 33.0000
v  151.1971 38.5125 34.5000
v  151.1971 6.5125 34.5000
v  166.8654 6.5125 34.5000
v  166.8654 38.5125 34.5000
v  151.1971 38.5125 -34.5000
v  151.1971 6.5125 -34.5000
v  166.8654 38.5125 -34.5000
v  166.8654 6.5125 -34.5000
v  231.7478 56.7009 -23.6702
v  231.7478 56.7009 -32.8397
v  231.4572 56.7009 -33.7114
v  230.5855 56.7009 -34.0019
v  169.5277 56.7009 -34.0019
v  168.6560 56.7009 -33.7114
v  168.3654 56.7009 -32.8397
v  169.5277 56.7009 -22.5079
v  168.3654 56.7009 -23.6702
v  168.6560 56.7009 -22.7985
v  231.4572 56.7009 -22.7985
v  230.5855 56.7009 -22.5079
v  232.7478 23.7009 -19.3316
v  232.7478 23.7009 -33.0019
v  232.7478 55.7009 -33.0019
v  232.7478 55.7009 -23.5079
v  230.7478 23.7009 -35.0019
v  169.3654 23.7009 -35.0019
v  169.3654 55.7009 -35.0019
v  230.7478 55.7009 -35.0019
v  169.3654 23.7009 -17.3316
v  230.7478 23.7009 -17.3316
v  230.7478 55.7009 -21.5079
v  169.3654 55.7009 -21.5079
v  232.2478 55.7009 -34.5019
v  232.2478 23.7009 -34.5019
v  232.2478 23.7009 -17.8316
v  232.2478 55.7009 -22.0079
v  167.8654 55.7009 -34.5019
v  167.8654 23.7009 -34.5019
v  167.8654 55.7009 -22.0079
v  167.3654 55.7009 -23.5079
v  167.3654 23.7009 -19.3316
v  167.8654 23.7009 -17.8316
v  167.3654 55.7009 -33.0019
v  167.3654 23.7009 -33.0019
v  169.5277 22.7009 -18.3316
v  230.5855 22.7009 -18.3316
v  168.6560 22.7009 -18.6222
v  168.3654 22.7009 -19.4939
v  168.6560 22.7009 -33.7114
v  168.3654 22.7009 -32.8397
v  169.5277 22.7009 -34.0019
v  230.5855 22.7009 -34.0019
v  231.4572 22.7009 -33.7114
v  231.7478 22.7009 -32.8397
v  231.7478 22.7009 -19.4939
v  231.4572 22.7009 -18.6222
v  244.0010 6.5000 25.0472
v  244.8610 6.5000 25.9072
v  244.8610 0.0000 25.9072
v  244.0010 0.0000 25.0472
v  238.0886 6.5000 25.0472
v  238.0886 0.0000 25.0472
v  237.2286 6.5000 25.9072
v  237.2286 0.0000 25.9072
v  237.2286 6.5000 31.8196
v  237.2286 0.0000 31.8196
v  238.0886 6.5000 32.6796
v  238.0886 0.0000 32.6796
v  244.0010 6.5000 32.6796
v  244.0010 0.0000 32.6796
v  244.8610 6.5000 31.8196
v  244.8610 0.0000 31.8196
v  156.1120 6.5000 25.0472
v  156.1120 0.0000 25.0472
v  155.2520 0.0000 25.9072
v  155.2520 6.5000 25.9072
v  162.0245 6.5000 25.0472
v  162.0245 0.0000 25.0472
v  162.8845 6.5000 25.9072
v  162.8845 0.0000 25.9072
v  162.8845 6.5000 31.8196
v  162.8845 0.0000 31.8196
v  162.0245 6.5000 32.6796
v  162.0245 0.0000 32.6796
v  156.1120 6.5000 32.6796
v  156.1120 0.0000 32.6796
v  155.2520 6.5000 31.8196
v  155.2520 0.0000 31.8196
v  156.1120 6.5000 -32.4036
v  156.1120 0.0000 -32.4036
v  155.2520 0.0000 -31.5436
v  155.2520 6.5000 -31.5436
v  162.0245 6.5000 -32.4036
v  162.0245 0.0000 -32.4036
v  162.8845 6.5000 -31.5436
v  162.8845 0.0000 -31.5436
v  162.8845 6.5000 -25.6312
v  162.8845 0.0000 -25.6312
v  162.0245 6.5000 -24.7712
v  162.0245 0.0000 -24.7712
v  156.1120 6.5000 -24.7712
v  156.1120 0.0000 -24.7712
v  155.2520 6.5000 -25.6312
v  155.2520 0.0000 -25.6312
v  244.0010 6.5000 -32.4036
v  244.8610 6.5000 -31.5436
v  244.8610 0.0000 -31.5436
v  244.0010 0.0000 -32.4036
v  238.0886 6.5000 -32.4036
v  238.0886 0.0000 -32.4036
v  237.2286 6.5000 -31.5436
v  237.2286 0.0000 -31.5436
v  237.2286 6.5000 -25.6312
v  237.2286 0.0000 -25.6312
v  238.0886 6.5000 -24.7712
v  238.0886 0.0000 -24.7712
v  244.0010 6.5000 -24.7712
v  244.0010 0.0000 -24.7712
v  244.8610 6.5000 -25.6312
v  244.8610 0.0000 -25.6312
# 220 vertices

vn 0.0000 1.0000 -0.0000
vn 0.0000 0.0000 1.0000
vn 1.0000 0.0000 -0.0000
vn 0.0000 0.0000 -1.0000
vn -0.3162 0.0000 0.9487
vn 0.3162 0.0000 0.9487
vn 0.9487 0.0000 -0.3162
vn -0.3162 0.0000 -0.9487
vn -0.9487 0.0000 0.3162
vn 0.9487 0.0000 0.3162
vn 0.3162 0.0000 -0.9487
vn -0.9487 0.0000 -0.3162
vn -0.7071 0.7071 -0.0000
vn -0.6708 0.7071 0.2236
vn -0.2236 0.7071 0.6708
vn 0.0000 0.7071 0.7071
vn 0.2236 0.7071 0.6708
vn 0.6708 0.7071 0.2236
vn 0.7071 0.7071 -0.0000
vn 0.6708 0.7071 -0.2236
vn 0.2236 0.7071 -0.6708
vn 0.0000 0.7071 -0.7071
vn -0.2236 0.7071 -0.6708
vn -0.6708 0.7071 -0.2236
vn -1.0000 0.0000 -0.0000
vn 0.0000 0.1294 0.9916
vn 0.9479 0.0412 0.3160
vn -0.9479 0.0412 0.3160
vn 0.3138 0.1229 0.9415
vn -0.3138 0.1229 0.9415
vn 0.0000 -0.7071 0.7071
vn -0.2236 -0.7071 0.6708
vn -0.6708 -0.7071 0.2236
vn -0.6708 -0.7071 -0.2236
vn -0.2236 -0.7071 -0.6708
vn 0.0000 -0.7071 -0.7071
vn 0.2236 -0.7071 -0.6708
vn 0.6708 -0.7071 -0.2236
vn 0.7071 -0.7071 -0.0000
vn 0.6708 -0.7071 0.2236
vn 0.2236 -0.7071 0.6708
vn -1.0000 -0.0000 -0.0000
vn -0.7071 -0.7071 -0.0000
vn 0.7071 0.0000 -0.7071
vn -0.7071 0.0000 -0.7071
vn -0.7071 0.0000 0.7071
vn 0.7071 0.0000 0.7071
# 47 vertex normals

vt 0.0830 0.6300 0.0000
vt 0.0737 0.6299 0.0000
vt 0.0736 0.6299 0.0000
vt 0.0735 0.6298 0.0000
vt 0.0735 0.6198 0.0000
vt 0.0736 0.6197 0.0000
vt 0.0737 0.6196 0.0000
vt 0.0831 0.6198 0.0000
vt 0.0830 0.6196 0.0000
vt 0.0831 0.6197 0.0000
vt 0.0831 0.6299 0.0000
vt 0.0831 0.6298 0.0000
vt 0.0830 0.6301 0.0000
vt 0.0737 0.6301 0.0000
vt 0.0734 0.6298 0.0000
vt 0.0734 0.6198 0.0000
vt 0.0737 0.6195 0.0000
vt 0.0830 0.6195 0.0000
vt 0.0832 0.6300 0.0000
vt 0.0734 0.6300 0.0000
vt 0.0734 0.6196 0.0000
vt 0.0832 0.6196 0.0000
vt 0.0833 0.6298 0.0000
vt 0.0833 0.6198 0.0000
vt 0.0730 0.6300 0.0000
vt 0.0712 0.6300 0.0000
vt 0.0710 0.6299 0.0000
vt 0.0710 0.6298 0.0000
vt 0.0710 0.6198 0.0000
vt 0.0710 0.6197 0.0000
vt 0.0712 0.6196 0.0000
vt 0.0732 0.6198 0.0000
vt 0.0730 0.6196 0.0000
vt 0.0732 0.6197 0.0000
vt 0.0732 0.6299 0.0000
vt 0.0732 0.6298 0.0000
vt 0.0731 0.6301 0.0000
vt 0.0711 0.6301 0.0000
vt 0.0708 0.6298 0.0000
vt 0.0708 0.6198 0.0000
vt 0.0711 0.6195 0.0000
vt 0.0731 0.6195 0.0000
vt 0.0709 0.6300 0.0000
vt 0.0733 0.6300 0.0000
vt 0.0709 0.6196 0.0000
vt 0.0733 0.6196 0.0000
vt 0.0835 0.6197 0.0000
vt 0.0836 0.6196 0.0000
vt 0.0855 0.6196 0.0000
vt 0.0834 0.6198 0.0000
vt 0.0856 0.6197 0.0000
vt 0.0857 0.6198 0.0000
vt 0.0857 0.6298 0.0000
vt 0.0856 0.6299 0.0000
vt 0.0855 0.6300 0.0000
vt 0.0836 0.6300 0.0000
vt 0.0835 0.6299 0.0000
vt 0.0834 0.6298 0.0000
vt 0.0836 0.6301 0.0000
vt 0.0855 0.6301 0.0000
vt 0.0858 0.6298 0.0000
vt 0.0858 0.6198 0.0000
vt 0.0855 0.6195 0.0000
vt 0.0836 0.6195 0.0000
vt 0.0857 0.6300 0.0000
vt 0.0834 0.6300 0.0000
vt 0.0857 0.6196 0.0000
vt 0.0834 0.6196 0.0000
vt 0.0735 0.6212 0.0000
vt 0.0830 0.6214 0.0000
vt 0.0831 0.6212 0.0000
vt 0.0831 0.6213 0.0000
vt 0.0736 0.6213 0.0000
vt 0.0737 0.6214 0.0000
vt 0.0734 0.6219 0.0000
vt 0.0734 0.6212 0.0000
vt 0.0830 0.6222 0.0000
vt 0.0737 0.6222 0.0000
vt 0.0737 0.6215 0.0000
vt 0.0830 0.6215 0.0000
vt 0.0734 0.6221 0.0000
vt 0.0734 0.6215 0.0000
vt 0.0832 0.6215 0.0000
vt 0.0833 0.6212 0.0000
vt 0.0833 0.6219 0.0000
vt 0.0832 0.6221 0.0000
vt 0.0830 0.6220 0.0000
vt 0.0737 0.6220 0.0000
vt 0.0831 0.6220 0.0000
vt 0.0831 0.6218 0.0000
vt 0.0735 0.6218 0.0000
vt 0.0736 0.6220 0.0000
vt 0.0762 0.7331 0.0000
vt 0.0757 0.7335 0.0000
vt 0.0792 0.7331 0.0000
vt 0.0797 0.7335 0.0000
vt 0.0797 0.7366 0.0000
vt 0.0792 0.7370 0.0000
vt 0.0762 0.7370 0.0000
vt 0.0757 0.7366 0.0000
vt 0.0797 0.7322 0.0000
vt 0.0802 0.7327 0.0000
vt 0.0767 0.7322 0.0000
vt 0.0762 0.7327 0.0000
vt 0.0762 0.7357 0.0000
vt 0.0767 0.7362 0.0000
vt 0.0797 0.7362 0.0000
vt 0.0802 0.7357 0.0000
vt 0.0762 0.7324 0.0000
vt 0.0757 0.7328 0.0000
vt 0.0792 0.7324 0.0000
vt 0.0797 0.7328 0.0000
vt 0.0797 0.7359 0.0000
vt 0.0792 0.7363 0.0000
vt 0.0762 0.7363 0.0000
vt 0.0757 0.7359 0.0000
# 116 texture coords

g sofasingle
f 1/1/1 2/2/1 3/3/1 4/4/1 
f 4/4/1 5/5/1 6/6/1 7/7/1 
f 1/1/1 4/4/1 7/7/1 8/8/1 
f 7/7/1 9/9/1 10/10/1 8/8/1 
f 11/11/1 1/1/1 8/8/1 12/12/1 
f 13/13/2 14/14/2 15/14/2 16/13/2 
f 17/15/3 18/16/3 19/16/3 20/15/3 
f 21/17/4 22/18/4 23/18/4 24/17/4 
f 25/19/5 13/13/5 16/13/5 26/19/5 
f 27/20/6 15/14/6 14/14/6 28/20/6 
f 29/21/7 19/16/7 18/16/7 30/21/7 
f 31/22/8 23/18/8 22/18/8 32/22/8 
f 33/23/9 25/19/9 26/19/9 34/23/9 
f 20/15/10 27/20/10 28/20/10 17/15/10 
f 24/17/11 29/21/11 30/21/11 21/17/11 
f 35/24/12 31/22/12 32/22/12 36/24/12 
f 35/24/13 34/23/13 12/12/13 8/8/13 
f 34/23/14 26/19/14 11/11/14 12/12/14 
f 26/19/15 16/13/15 1/1/15 11/11/15 
f 16/13/16 15/14/16 2/2/16 1/1/16 
f 15/14/17 27/20/17 3/3/17 2/2/17 
f 27/20/18 20/15/18 4/4/18 3/3/18 
f 20/15/19 19/16/19 5/5/19 4/4/19 
f 19/16/20 29/21/20 6/6/20 5/5/20 
f 29/21/21 24/17/21 7/7/21 6/6/21 
f 24/17/22 23/18/22 9/9/22 7/7/22 
f 23/18/23 31/22/23 10/10/23 9/9/23 
f 31/22/24 35/24/24 8/8/24 10/10/24 
f 36/24/25 33/23/25 34/23/25 35/24/25 
f 37/25/1 38/26/1 39/27/1 40/28/1 
f 40/28/1 41/29/1 42/30/1 43/31/1 
f 37/25/1 40/28/1 43/31/1 44/32/1 
f 43/31/1 45/33/1 46/34/1 44/32/1 
f 47/35/1 37/25/1 44/32/1 48/36/1 
f 49/37/2 50/38/2 51/38/2 52/37/2 
f 53/39/3 54/40/3 55/40/3 56/39/3 
f 57/41/4 58/42/4 59/42/4 60/41/4 
f 61/16/25 62/15/25 63/15/25 64/16/25 
f 65/43/6 51/38/6 50/38/6 66/43/6 
f 67/44/5 49/37/5 52/37/5 68/44/5 
f 69/45/7 55/40/7 54/40/7 70/45/7 
f 71/46/8 59/42/8 58/42/8 72/46/8 
f 56/39/10 65/43/10 66/43/10 53/39/10 
f 62/15/9 67/44/9 68/44/9 63/15/9 
f 60/41/11 69/45/11 70/45/11 57/41/11 
f 64/16/12 71/46/12 72/46/12 61/16/12 
f 52/37/16 51/38/16 38/26/16 37/25/16 
f 51/38/17 65/43/17 39/27/17 38/26/17 
f 65/43/18 56/39/18 40/28/18 39/27/18 
f 56/39/19 55/40/19 41/29/19 40/28/19 
f 55/40/20 69/45/20 42/30/20 41/29/20 
f 69/45/21 60/41/21 43/31/21 42/30/21 
f 60/41/22 59/42/22 45/33/22 43/31/22 
f 59/42/23 71/46/23 46/34/23 45/33/23 
f 71/46/24 64/16/24 44/32/24 46/34/24 
f 64/16/13 63/15/13 48/36/13 44/32/13 
f 63/15/14 68/44/14 47/35/14 48/36/14 
f 68/44/15 52/37/15 37/25/15 47/35/15 
f 73/47/1 74/48/1 75/49/1 76/50/1 
f 77/51/1 78/52/1 79/53/1 75/49/1 
f 80/54/1 81/55/1 82/56/1 79/53/1 
f 75/49/1 79/53/1 82/56/1 76/50/1 
f 76/50/1 82/56/1 83/57/1 84/58/1 
f 85/59/2 86/59/2 87/60/2 88/60/2 
f 89/61/25 90/61/25 91/62/25 92/62/25 
f 93/63/4 94/63/4 95/64/4 96/64/4 
f 97/24/3 98/24/3 99/23/3 100/23/3 
f 101/65/5 102/65/5 88/60/5 87/60/5 
f 103/66/6 104/66/6 86/59/6 85/59/6 
f 105/67/12 106/67/12 92/62/12 91/62/12 
f 107/68/11 108/68/11 96/64/11 95/64/11 
f 90/61/9 89/61/9 102/65/9 101/65/9 
f 100/23/10 99/23/10 104/66/10 103/66/10 
f 94/63/8 93/63/8 106/67/8 105/67/8 
f 98/24/7 97/24/7 108/68/7 107/68/7 
f 86/59/16 82/56/16 81/55/16 87/60/16 
f 87/60/15 81/55/15 80/54/15 101/65/15 
f 101/65/14 80/54/14 79/53/14 90/61/14 
f 90/61/13 79/53/13 78/52/13 91/62/13 
f 91/62/24 78/52/24 77/51/24 105/67/24 
f 105/67/23 77/51/23 75/49/23 94/63/23 
f 94/63/22 75/49/22 74/48/22 95/64/22 
f 95/64/21 74/48/21 73/47/21 107/68/21 
f 107/68/20 73/47/20 76/50/20 98/24/20 
f 98/24/19 76/50/19 84/58/19 99/23/19 
f 99/23/18 84/58/18 83/57/18 104/66/18 
f 104/66/17 83/57/17 82/56/17 86/59/17 
f 109/69/1 110/5/1 111/6/1 112/7/1 
f 112/7/1 113/9/1 114/10/1 115/8/1 
f 109/69/1 112/7/1 115/8/1 116/70/1 
f 115/8/1 117/71/1 118/72/1 116/70/1 
f 119/73/1 109/69/1 116/70/1 120/74/1 
f 121/75/3 122/16/3 123/16/3 124/76/3 
f 125/17/4 126/18/4 127/18/4 128/17/4 
f 129/77/26 130/78/26 131/79/26 132/80/26 
f 133/21/7 123/16/7 122/16/7 134/21/7 
f 135/81/27 121/75/27 124/76/27 136/82/27 
f 137/22/8 127/18/8 126/18/8 138/22/8 
f 139/83/28 140/84/28 141/85/28 142/86/28 
f 128/17/11 133/21/11 134/21/11 125/17/11 
f 130/78/29 135/81/29 136/82/29 131/79/29 
f 143/24/12 137/22/12 138/22/12 144/24/12 
f 132/80/30 139/83/30 142/86/30 129/77/30 
f 124/76/19 123/16/19 110/5/19 109/69/19 
f 123/16/20 133/21/20 111/6/20 110/5/20 
f 133/21/21 128/17/21 112/7/21 111/6/21 
f 128/17/22 127/18/22 113/9/22 112/7/22 
f 127/18/23 137/22/23 114/10/23 113/9/23 
f 137/22/24 143/24/24 115/8/24 114/10/24 
f 143/24/13 140/84/13 117/71/13 115/8/13 
f 140/84/14 139/83/14 118/72/14 117/71/14 
f 139/83/15 132/80/15 116/70/15 118/72/15 
f 132/80/16 131/79/16 120/74/16 116/70/16 
f 131/79/17 136/82/17 119/73/17 120/74/17 
f 136/82/18 124/76/18 109/69/18 119/73/18 
f 130/78/31 129/77/31 145/87/31 146/88/31 
f 129/77/32 142/86/32 147/89/32 145/87/32 
f 142/86/33 141/85/33 148/90/33 147/89/33 
f 144/24/34 138/22/34 149/10/34 150/8/34 
f 138/22/35 126/18/35 151/9/35 149/10/35 
f 126/18/36 125/17/36 152/7/36 151/9/36 
f 125/17/37 134/21/37 153/6/37 152/7/37 
f 134/21/38 122/16/38 154/5/38 153/6/38 
f 122/16/39 121/75/39 155/91/39 154/5/39 
f 121/75/40 135/81/40 156/92/40 155/91/40 
f 135/81/41 130/78/41 146/88/41 156/92/41 
f 144/24/42 141/85/42 140/84/42 143/24/25 
f 150/8/43 148/90/43 141/85/43 144/24/43 
f 157/93/44 158/94/44 159/94/44 160/93/44 
f 161/95/4 157/93/4 160/93/4 162/95/4 
f 163/96/45 161/95/45 162/95/45 164/96/45 
f 165/97/25 163/96/25 164/96/25 166/97/25 
f 167/98/46 165/97/46 166/97/46 168/98/46 
f 169/99/2 167/98/2 168/98/2 170/99/2 
f 171/100/47 169/99/47 170/99/47 172/100/47 
f 158/94/3 171/100/3 172/100/3 159/94/3 
f 173/95/45 174/95/45 175/96/45 176/96/45 
f 177/93/4 178/93/4 174/95/4 173/95/4 
f 179/94/44 180/94/44 178/93/44 177/93/44 
f 181/100/3 182/100/3 180/94/3 179/94/3 
f 183/99/47 184/99/47 182/100/47 181/100/47 
f 185/98/2 186/98/2 184/99/2 183/99/2 
f 187/97/46 188/97/46 186/98/46 185/98/46 
f 176/96/25 175/96/25 188/97/25 187/97/25 
f 189/101/45 190/101/45 191/102/45 192/102/45 
f 193/103/4 194/103/4 190/101/4 189/101/4 
f 195/104/44 196/104/44 194/103/44 193/103/44 
f 197/105/3 198/105/3 196/104/3 195/104/3 
f 199/106/47 200/106/47 198/105/47 197/105/47 
f 201/107/2 202/107/2 200/106/2 199/106/2 
f 203/108/46 204/108/46 202/107/46 201/107/46 
f 192/102/25 191/102/25 204/108/25 203/108/25 
f 205/109/44 206/110/44 207/110/44 208/109/44 
f 209/111/4 205/109/4 208/109/4 210/111/4 
f 211/112/45 209/111/45 210/111/45 212/112/45 
f 213/113/25 211/112/25 212/112/25 214/113/25 
f 215/114/46 213/113/46 214/113/46 216/114/46 
f 217/115/2 215/114/2 216/114/2 218/115/2 
f 219/116/47 217/115/47 218/115/47 220/116/47 
f 206/110/3 219/116/3 220/116/3 207/110/3 
# 160 polygons

