# 3ds Max Wavefront OBJ Exporter v0.97b - (c)2007 guruware
# File Created: 29.03.2016 17:44:18

#
# object sofadouble
#

v  2.2669 23.6458 24.1190
v  78.4580 23.6458 24.1190
v  79.3719 23.6458 23.8143
v  79.6765 23.6458 22.9005
v  79.6765 23.6458 -45.9520
v  79.3719 23.6458 -46.8659
v  78.4580 23.6458 -47.1705
v  1.0484 23.6458 -45.9520
v  2.2669 23.6458 -47.1705
v  1.3530 23.6458 -46.8659
v  1.3530 23.6458 23.8143
v  1.0484 23.6458 22.9005
v  2.0968 6.6560 25.1673
v  78.6281 6.6560 25.1673
v  78.6281 22.5975 25.1673
v  2.0968 22.5975 25.1673
v  80.7249 6.6560 23.0706
v  80.7249 6.6560 -46.1222
v  80.7249 22.5975 -46.1222
v  80.7249 22.5975 23.0706
v  78.6281 6.6560 -48.2189
v  2.0968 6.6560 -48.2189
v  2.0968 22.5975 -48.2189
v  78.6281 22.5975 -48.2189
v  0.5242 6.6560 24.6431
v  0.5242 22.5975 24.6431
v  80.2007 22.5975 24.6431
v  80.2007 6.6560 24.6431
v  80.2007 22.5975 -47.6947
v  80.2007 6.6560 -47.6947
v  0.5242 22.5975 -47.6947
v  0.5242 6.6560 -47.6947
v  0.0000 6.6560 23.0706
v  0.0000 22.5975 23.0706
v  0.0000 22.5975 -46.1222
v  0.0000 6.6560 -46.1222
v  -1.3530 23.6458 -46.8659
v  -2.2669 23.6458 -47.1705
v  -78.4580 23.6458 -47.1705
v  -1.0484 23.6458 -45.9520
v  -79.3719 23.6458 -46.8659
v  -79.6765 23.6458 -45.9520
v  -79.6765 23.6458 22.9005
v  -79.3719 23.6458 23.8143
v  -78.4580 23.6458 24.1190
v  -2.2669 23.6458 24.1190
v  -1.3530 23.6458 23.8143
v  -1.0484 23.6458 22.9005
v  -2.0968 6.6560 25.1673
v  -2.0968 22.5975 25.1673
v  -78.6281 22.5975 25.1673
v  -78.6281 6.6560 25.1673
v  -80.7249 6.6560 23.0706
v  -80.7249 22.5975 23.0706
v  -80.7249 22.5975 -46.1222
v  -80.7249 6.6560 -46.1222
v  -78.6281 6.6560 -48.2189
v  -78.6281 22.5975 -48.2189
v  -2.0968 22.5975 -48.2189
v  -2.0968 6.6560 -48.2189
v  -0.5242 6.6560 24.6431
v  -0.5242 22.5975 24.6431
v  -80.2007 22.5975 24.6431
v  -80.2007 6.6560 24.6431
v  -80.2007 22.5975 -47.6947
v  -80.2007 6.6560 -47.6947
v  -0.5242 22.5975 -47.6947
v  -0.5242 6.6560 -47.6947
v  83.0953 41.4240 24.1190
v  96.0361 41.4240 24.1190
v  96.9500 41.4240 23.8143
v  97.2546 41.4240 22.9005
v  97.2546 41.4240 -45.9520
v  96.9500 41.4240 -46.8659
v  96.0361 41.4240 -47.1705
v  81.8768 41.4240 -45.9520
v  83.0953 41.4240 -47.1705
v  82.1814 41.4240 -46.8659
v  82.1814 41.4240 23.8143
v  81.8768 41.4240 22.9005
v  82.9251 6.8276 25.1673
v  96.2062 6.8276 25.1673
v  96.2062 40.3756 25.1673
v  82.9251 40.3756 25.1673
v  98.3030 6.8276 23.0706
v  98.3030 6.8276 -46.1222
v  98.3030 40.3756 -46.1222
v  98.3030 40.3756 23.0706
v  96.2062 6.8276 -48.2189
v  82.9251 6.8276 -48.2189
v  82.9251 40.3756 -48.2189
v  96.2062 40.3756 -48.2189
v  80.8284 6.8276 -46.1222
v  80.8284 6.8276 23.0706
v  80.8284 40.3756 23.0706
v  80.8284 40.3756 -46.1222
v  97.7788 40.3756 24.6431
v  97.7788 6.8276 24.6431
v  81.3526 6.8276 24.6431
v  81.3526 40.3756 24.6431
v  97.7788 40.3756 -47.6947
v  97.7788 6.8276 -47.6947
v  81.3526 40.3756 -47.6947
v  81.3526 6.8276 -47.6947
v  79.5348 59.4438 -36.3410
v  79.5348 59.4438 -45.9541
v  79.2301 59.4438 -46.8680
v  78.3163 59.4438 -47.1726
v  2.2669 59.4438 -47.1726
v  1.3530 59.4438 -46.8679
v  1.0484 59.4438 -45.9541
v  2.2669 59.4438 -35.1225
v  1.0484 59.4438 -36.3410
v  1.3530 59.4438 -35.4272
v  79.2301 59.4438 -35.4272
v  78.3163 59.4438 -35.1226
v  80.5831 24.8474 -31.7926
v  80.5831 24.8474 -46.1242
v  80.5831 58.3954 -46.1242
v  80.5831 58.3954 -36.1709
v  78.4864 24.8474 -48.2209
v  2.0968 24.8474 -48.2209
v  2.0968 58.3954 -48.2209
v  78.4864 58.3954 -48.2209
v  2.0968 24.8474 -29.6958
v  78.4864 24.8474 -29.6958
v  78.4864 58.3954 -34.0742
v  2.0968 58.3954 -34.0742
v  80.0589 58.3954 -47.6968
v  80.0589 24.8474 -47.6968
v  80.0589 24.8474 -30.2200
v  80.0589 58.3954 -34.5984
v  0.5242 58.3954 -47.6968
v  0.5242 24.8474 -47.6968
v  0.5242 58.3954 -34.5984
v  0.0000 58.3954 -36.1709
v  0.0000 24.8474 -31.7925
v  0.5242 24.8474 -30.2200
v  0.0000 58.3954 -46.1242
v  0.0000 24.8474 -46.1242
v  2.2669 23.7990 -30.7442
v  78.3163 23.7990 -30.7442
v  1.3530 23.7990 -31.0488
v  1.0484 23.7990 -31.9627
v  1.3530 23.7990 -46.8679
v  1.0484 23.7990 -45.9541
v  2.2669 23.7990 -47.1726
v  78.3163 23.7990 -47.1726
v  79.2301 23.7990 -46.8680
v  79.5348 23.7990 -45.9541
v  79.5348 23.7990 -31.9627
v  79.2301 23.7990 -31.0488
v  -1.3530 59.4438 -35.4272
v  -1.0484 59.4438 -36.3410
v  -1.0484 59.4438 -45.9541
v  -2.2669 59.4438 -35.1225
v  -1.3530 59.4438 -46.8679
v  -2.2669 59.4438 -47.1726
v  -78.3163 59.4438 -47.1726
v  -79.2301 59.4438 -46.8679
v  -79.5348 59.4438 -45.9541
v  -79.5348 59.4438 -36.3410
v  -79.2301 59.4438 -35.4272
v  -78.3163 59.4438 -35.1225
v  -80.5831 24.8474 -31.7925
v  -80.5831 58.3954 -36.1709
v  -80.5831 58.3954 -46.1242
v  -80.5831 24.8474 -46.1242
v  -78.4864 24.8474 -48.2209
v  -78.4864 58.3954 -48.2209
v  -2.0968 58.3954 -48.2209
v  -2.0968 24.8474 -48.2209
v  -2.0968 24.8474 -29.6958
v  -2.0968 58.3954 -34.0742
v  -78.4864 58.3954 -34.0742
v  -78.4864 24.8474 -29.6958
v  -80.0589 58.3954 -47.6968
v  -80.0589 24.8474 -47.6968
v  -80.0589 24.8474 -30.2200
v  -80.0589 58.3954 -34.5984
v  -0.5242 58.3954 -47.6968
v  -0.5242 24.8474 -47.6968
v  -0.5242 58.3954 -34.5984
v  -0.5242 24.8474 -30.2200
v  -78.3163 23.7990 -30.7442
v  -2.2669 23.7990 -30.7442
v  -1.3530 23.7990 -31.0488
v  -1.0484 23.7990 -31.9627
v  -1.0484 23.7990 -45.9541
v  -1.3530 23.7990 -46.8679
v  -2.2669 23.7990 -47.1726
v  -78.3163 23.7990 -47.1726
v  -79.2301 23.7990 -46.8679
v  -79.5348 23.7990 -45.9541
v  -79.5348 23.7990 -31.9627
v  -79.2301 23.7990 -31.0488
v  -82.1158 41.4240 -46.8659
v  -83.0297 41.4240 -47.1705
v  -95.9705 41.4240 -47.1705
v  -81.8112 41.4240 -45.9520
v  -96.8844 41.4240 -46.8659
v  -97.1890 41.4240 -45.9520
v  -97.1890 41.4240 22.9005
v  -96.8844 41.4240 23.8143
v  -95.9705 41.4240 24.1190
v  -83.0297 41.4240 24.1190
v  -82.1158 41.4240 23.8143
v  -81.8112 41.4240 22.9005
v  -82.8595 6.8276 25.1673
v  -82.8595 40.3756 25.1673
v  -96.1406 40.3756 25.1673
v  -96.1406 6.8276 25.1673
v  -98.2374 6.8276 23.0706
v  -98.2374 40.3756 23.0706
v  -98.2374 40.3756 -46.1222
v  -98.2374 6.8276 -46.1222
v  -96.1406 6.8276 -48.2189
v  -96.1406 40.3756 -48.2189
v  -82.8595 40.3756 -48.2189
v  -82.8595 6.8276 -48.2189
v  -80.7628 6.8276 -46.1222
v  -80.7628 40.3756 -46.1222
v  -80.7628 40.3756 23.0706
v  -80.7628 6.8276 23.0706
v  -97.7132 40.3756 24.6431
v  -97.7132 6.8276 24.6431
v  -81.2870 6.8276 24.6431
v  -81.2870 40.3756 24.6431
v  -97.7132 40.3756 -47.6947
v  -97.7132 6.8276 -47.6947
v  -81.2870 40.3756 -47.6947
v  -81.2870 6.8276 -47.6947
v  -86.4661 6.8144 14.7330
v  -85.5645 6.8144 15.6346
v  -85.5645 0.0000 15.6346
v  -86.4661 0.0000 14.7330
v  -92.6646 6.8144 14.7330
v  -92.6646 0.0000 14.7330
v  -93.5662 6.8144 15.6346
v  -93.5662 0.0000 15.6346
v  -93.5662 6.8144 21.8331
v  -93.5662 0.0000 21.8331
v  -92.6646 6.8144 22.7347
v  -92.6646 0.0000 22.7347
v  -86.4661 6.8144 22.7347
v  -86.4661 0.0000 22.7347
v  -85.5645 6.8144 21.8331
v  -85.5645 0.0000 21.8331
v  92.3326 6.8144 14.7330
v  93.2342 6.8144 15.6346
v  93.2342 0.0000 15.6346
v  92.3326 0.0000 14.7330
v  86.1341 6.8144 14.7330
v  86.1341 0.0000 14.7330
v  85.2325 6.8144 15.6346
v  85.2325 0.0000 15.6346
v  85.2325 6.8144 21.8331
v  85.2325 0.0000 21.8331
v  86.1341 6.8144 22.7347
v  86.1341 0.0000 22.7347
v  92.3326 6.8144 22.7347
v  92.3326 0.0000 22.7347
v  93.2342 6.8144 21.8331
v  93.2342 0.0000 21.8331
v  92.3326 6.8144 -45.4969
v  93.2342 6.8144 -44.5953
v  93.2342 0.0000 -44.5953
v  92.3326 0.0000 -45.4969
v  86.1341 6.8144 -45.4969
v  86.1341 0.0000 -45.4969
v  85.2325 6.8144 -44.5953
v  85.2325 0.0000 -44.5953
v  85.2325 6.8144 -38.3969
v  85.2325 0.0000 -38.3969
v  86.1341 6.8144 -37.4953
v  86.1341 0.0000 -37.4953
v  92.3326 6.8144 -37.4953
v  92.3326 0.0000 -37.4953
v  93.2342 6.8144 -38.3969
v  93.2342 0.0000 -38.3969
v  -86.4661 6.8144 -45.4969
v  -85.5645 6.8144 -44.5953
v  -85.5645 0.0000 -44.5953
v  -86.4661 0.0000 -45.4969
v  -92.6646 6.8144 -45.4969
v  -92.6646 0.0000 -45.4969
v  -93.5662 6.8144 -44.5953
v  -93.5662 0.0000 -44.5953
v  -93.5662 6.8144 -38.3969
v  -93.5662 0.0000 -38.3969
v  -92.6646 6.8144 -37.4953
v  -92.6646 0.0000 -37.4953
v  -86.4661 6.8144 -37.4953
v  -86.4661 0.0000 -37.4953
v  -85.5645 6.8144 -38.3969
v  -85.5645 0.0000 -38.3969
# 296 vertices

vn 0.0000 1.0000 -0.0000
vn 0.0000 0.0000 1.0000
vn 1.0000 0.0000 -0.0000
vn 0.0000 0.0000 -1.0000
vn -0.3162 0.0000 0.9487
vn 0.3162 0.0000 0.9487
vn 0.9487 0.0000 -0.3162
vn -0.3162 0.0000 -0.9487
vn -0.9487 0.0000 0.3162
vn 0.9487 0.0000 0.3162
vn 0.3162 0.0000 -0.9487
vn -0.9487 0.0000 -0.3162
vn -0.7071 0.7071 -0.0000
vn -0.6708 0.7071 0.2236
vn -0.2236 0.7071 0.6708
vn 0.0000 0.7071 0.7071
vn 0.2236 0.7071 0.6708
vn 0.6708 0.7071 0.2236
vn 0.7071 0.7071 -0.0000
vn 0.6708 0.7071 -0.2236
vn 0.2236 0.7071 -0.6708
vn 0.0000 0.7071 -0.7071
vn -0.2236 0.7071 -0.6708
vn -0.6708 0.7071 -0.2236
vn -1.0000 0.0000 -0.0000
vn 0.0000 0.1294 0.9916
vn 0.9479 0.0412 0.3160
vn -0.9479 0.0412 0.3160
vn 0.3138 0.1229 0.9415
vn -0.3138 0.1229 0.9415
vn 0.0000 -0.7071 0.7071
vn -0.2236 -0.7071 0.6708
vn -0.6708 -0.7071 0.2236
vn -0.6708 -0.7071 -0.2236
vn -0.2236 -0.7071 -0.6708
vn 0.0000 -0.7071 -0.7071
vn 0.2236 -0.7071 -0.6708
vn 0.6708 -0.7071 -0.2236
vn 0.7071 -0.7071 -0.0000
vn 0.6708 -0.7071 0.2236
vn 0.2236 -0.7071 0.6708
vn -0.0000 0.0000 -1.0000
vn -0.0000 0.7071 -0.7071
vn -0.0000 -0.7071 -0.7071
vn -0.7071 -0.7071 -0.0000
vn 0.7071 0.0000 -0.7071
vn -0.7071 0.0000 -0.7071
vn -0.7071 0.0000 0.7071
vn 0.7071 0.0000 0.7071
# 49 vertex normals

vt 0.0778 0.6314 0.0000
vt 0.0718 0.6314 0.0000
vt 0.0718 0.6313 0.0000
vt 0.0717 0.6311 0.0000
vt 0.0717 0.6171 0.0000
vt 0.0718 0.6169 0.0000
vt 0.0779 0.6171 0.0000
vt 0.0778 0.6169 0.0000
vt 0.0779 0.6169 0.0000
vt 0.0779 0.6313 0.0000
vt 0.0779 0.6311 0.0000
vt 0.0778 0.6316 0.0000
vt 0.0718 0.6316 0.0000
vt 0.0718 0.6166 0.0000
vt 0.0778 0.6167 0.0000
vt 0.0718 0.6167 0.0000
vt 0.0779 0.6315 0.0000
vt 0.0717 0.6315 0.0000
vt 0.0717 0.6168 0.0000
vt 0.0779 0.6168 0.0000
vt 0.0780 0.6311 0.0000
vt 0.0780 0.6312 0.0000
vt 0.0780 0.6171 0.0000
vt 0.0781 0.6169 0.0000
vt 0.0782 0.6169 0.0000
vt 0.0841 0.6169 0.0000
vt 0.0781 0.6171 0.0000
vt 0.0842 0.6169 0.0000
vt 0.0842 0.6171 0.0000
vt 0.0842 0.6311 0.0000
vt 0.0842 0.6313 0.0000
vt 0.0841 0.6314 0.0000
vt 0.0782 0.6314 0.0000
vt 0.0781 0.6313 0.0000
vt 0.0781 0.6311 0.0000
vt 0.0781 0.6316 0.0000
vt 0.0841 0.6316 0.0000
vt 0.0843 0.6312 0.0000
vt 0.0843 0.6171 0.0000
vt 0.0841 0.6167 0.0000
vt 0.0781 0.6167 0.0000
vt 0.0780 0.6315 0.0000
vt 0.0843 0.6315 0.0000
vt 0.0843 0.6168 0.0000
vt 0.0780 0.6168 0.0000
vt 0.0715 0.6314 0.0000
vt 0.0705 0.6314 0.0000
vt 0.0704 0.6313 0.0000
vt 0.0704 0.6311 0.0000
vt 0.0704 0.6171 0.0000
vt 0.0704 0.6169 0.0000
vt 0.0705 0.6169 0.0000
vt 0.0716 0.6171 0.0000
vt 0.0715 0.6169 0.0000
vt 0.0715 0.6313 0.0000
vt 0.0716 0.6311 0.0000
vt 0.0715 0.6316 0.0000
vt 0.0704 0.6316 0.0000
vt 0.0703 0.6311 0.0000
vt 0.0703 0.6171 0.0000
vt 0.0703 0.6312 0.0000
vt 0.0704 0.6166 0.0000
vt 0.0715 0.6166 0.0000
vt 0.0715 0.6167 0.0000
vt 0.0704 0.6167 0.0000
vt 0.0716 0.6312 0.0000
vt 0.0703 0.6315 0.0000
vt 0.0716 0.6315 0.0000
vt 0.0703 0.6168 0.0000
vt 0.0716 0.6168 0.0000
vt 0.0717 0.6191 0.0000
vt 0.0778 0.6193 0.0000
vt 0.0779 0.6191 0.0000
vt 0.0779 0.6193 0.0000
vt 0.0718 0.6193 0.0000
vt 0.0717 0.6200 0.0000
vt 0.0778 0.6204 0.0000
vt 0.0718 0.6204 0.0000
vt 0.0718 0.6195 0.0000
vt 0.0778 0.6195 0.0000
vt 0.0717 0.6203 0.0000
vt 0.0717 0.6194 0.0000
vt 0.0779 0.6194 0.0000
vt 0.0780 0.6191 0.0000
vt 0.0780 0.6200 0.0000
vt 0.0779 0.6203 0.0000
vt 0.0778 0.6202 0.0000
vt 0.0718 0.6202 0.0000
vt 0.0779 0.6201 0.0000
vt 0.0779 0.6200 0.0000
vt 0.0718 0.6201 0.0000
vt 0.0781 0.6193 0.0000
vt 0.0781 0.6191 0.0000
vt 0.0782 0.6193 0.0000
vt 0.0842 0.6191 0.0000
vt 0.0842 0.6193 0.0000
vt 0.0841 0.6193 0.0000
vt 0.0843 0.6200 0.0000
vt 0.0843 0.6191 0.0000
vt 0.0781 0.6204 0.0000
vt 0.0781 0.6195 0.0000
vt 0.0841 0.6195 0.0000
vt 0.0841 0.6204 0.0000
vt 0.0842 0.6168 0.0000
vt 0.0842 0.6203 0.0000
vt 0.0842 0.6194 0.0000
vt 0.0780 0.6194 0.0000
vt 0.0780 0.6203 0.0000
vt 0.0841 0.6202 0.0000
vt 0.0782 0.6202 0.0000
vt 0.0781 0.6201 0.0000
vt 0.0781 0.6200 0.0000
vt 0.0842 0.6200 0.0000
vt 0.0842 0.6201 0.0000
vt 0.0844 0.6169 0.0000
vt 0.0845 0.6169 0.0000
vt 0.0855 0.6169 0.0000
vt 0.0844 0.6171 0.0000
vt 0.0856 0.6169 0.0000
vt 0.0856 0.6171 0.0000
vt 0.0856 0.6311 0.0000
vt 0.0856 0.6313 0.0000
vt 0.0855 0.6314 0.0000
vt 0.0845 0.6314 0.0000
vt 0.0844 0.6313 0.0000
vt 0.0844 0.6311 0.0000
vt 0.0845 0.6316 0.0000
vt 0.0855 0.6316 0.0000
vt 0.0857 0.6312 0.0000
vt 0.0857 0.6171 0.0000
vt 0.0855 0.6167 0.0000
vt 0.0845 0.6167 0.0000
vt 0.0856 0.6315 0.0000
vt 0.0856 0.6168 0.0000
vt 0.0783 0.7339 0.0000
vt 0.0781 0.7345 0.0000
vt 0.0797 0.7339 0.0000
vt 0.0799 0.7345 0.0000
vt 0.0799 0.7382 0.0000
vt 0.0797 0.7387 0.0000
vt 0.0783 0.7387 0.0000
vt 0.0781 0.7382 0.0000
vt 0.0778 0.7318 0.0000
vt 0.0776 0.7323 0.0000
vt 0.0792 0.7318 0.0000
vt 0.0794 0.7323 0.0000
vt 0.0794 0.7360 0.0000
vt 0.0792 0.7365 0.0000
vt 0.0778 0.7365 0.0000
vt 0.0776 0.7360 0.0000
vt 0.0787 0.7319 0.0000
vt 0.0785 0.7324 0.0000
vt 0.0801 0.7319 0.0000
vt 0.0803 0.7325 0.0000
vt 0.0803 0.7324 0.0000
vt 0.0803 0.7361 0.0000
vt 0.0801 0.7367 0.0000
vt 0.0787 0.7367 0.0000
vt 0.0785 0.7361 0.0000
vt 0.0774 0.7335 0.0000
vt 0.0772 0.7340 0.0000
vt 0.0788 0.7335 0.0000
vt 0.0790 0.7340 0.0000
vt 0.0790 0.7377 0.0000
vt 0.0788 0.7382 0.0000
vt 0.0774 0.7382 0.0000
vt 0.0772 0.7377 0.0000
# 167 texture coords

g sofadouble
f 1/1/1 2/2/1 3/3/1 4/4/1 
f 4/4/1 5/5/1 6/6/1 7/6/1 
f 1/1/1 4/4/1 7/6/1 8/7/1 
f 7/6/1 9/8/1 10/9/1 8/7/1 
f 11/10/1 1/1/1 8/7/1 12/11/1 
f 13/12/2 14/13/2 15/13/2 16/12/2 
f 17/4/3 18/5/3 19/5/3 20/4/3 
f 21/14/4 22/15/4 23/15/4 24/16/4 
f 25/17/5 13/12/5 16/12/5 26/17/5 
f 27/18/6 15/13/6 14/13/6 28/18/6 
f 29/19/7 19/5/7 18/5/7 30/19/7 
f 31/20/8 23/15/8 22/15/8 32/20/8 
f 33/21/9 25/17/9 26/17/9 34/22/9 
f 20/4/10 27/18/10 28/18/10 17/4/10 
f 24/16/11 29/19/11 30/19/11 21/14/11 
f 35/23/12 31/20/12 32/20/12 36/23/12 
f 35/23/13 34/22/13 12/11/13 8/7/13 
f 34/22/14 26/17/14 11/10/14 12/11/14 
f 26/17/15 16/12/15 1/1/15 11/10/15 
f 16/12/16 15/13/16 2/2/16 1/1/16 
f 15/13/17 27/18/17 3/3/17 2/2/17 
f 27/18/18 20/4/18 4/4/18 3/3/18 
f 20/4/19 19/5/19 5/5/19 4/4/19 
f 19/5/20 29/19/20 6/6/20 5/5/20 
f 29/19/21 24/16/21 7/6/21 6/6/21 
f 24/16/22 23/15/22 9/8/22 7/6/22 
f 23/15/23 31/20/23 10/9/23 9/8/23 
f 31/20/24 35/23/24 8/7/24 10/9/24 
f 37/24/1 38/25/1 39/26/1 40/27/1 
f 41/28/1 42/29/1 43/30/1 39/26/1 
f 44/31/1 45/32/1 46/33/1 43/30/1 
f 39/26/1 43/30/1 46/33/1 40/27/1 
f 40/27/1 46/33/1 47/34/1 48/35/1 
f 49/36/2 50/36/2 51/37/2 52/37/2 
f 53/38/25 54/38/25 55/39/25 56/39/25 
f 57/40/4 58/40/4 59/41/4 60/41/4 
f 61/42/6 62/42/6 50/36/6 49/36/6 
f 63/43/5 64/43/5 52/37/5 51/37/5 
f 65/44/12 66/44/12 56/39/12 55/39/12 
f 67/45/11 68/45/11 60/41/11 59/41/11 
f 33/21/10 34/22/10 62/42/10 61/42/10 
f 54/38/9 53/38/9 64/43/9 63/43/9 
f 58/40/8 57/40/8 66/44/8 65/44/8 
f 35/23/7 36/23/7 68/45/7 67/45/7 
f 35/23/19 40/27/19 48/35/19 34/22/19 
f 34/22/18 48/35/18 47/34/18 62/42/18 
f 62/42/17 47/34/17 46/33/17 50/36/17 
f 50/36/16 46/33/16 45/32/16 51/37/16 
f 51/37/15 45/32/15 44/31/15 63/43/15 
f 63/43/14 44/31/14 43/30/14 54/38/14 
f 54/38/13 43/30/13 42/29/13 55/39/13 
f 55/39/24 42/29/24 41/28/24 65/44/24 
f 65/44/23 41/28/23 39/26/23 58/40/23 
f 58/40/22 39/26/22 38/25/22 59/41/22 
f 59/41/21 38/25/21 37/24/21 67/45/21 
f 67/45/20 37/24/20 40/27/20 35/23/20 
f 69/46/1 70/47/1 71/48/1 72/49/1 
f 72/49/1 73/50/1 74/51/1 75/52/1 
f 69/46/1 72/49/1 75/52/1 76/53/1 
f 75/52/1 77/54/1 78/54/1 76/53/1 
f 79/55/1 69/46/1 76/53/1 80/56/1 
f 81/57/2 82/58/2 83/58/2 84/57/2 
f 85/59/3 86/60/3 87/60/3 88/61/3 
f 89/62/4 90/63/4 91/64/4 92/65/4 
f 93/53/25 94/56/25 95/66/25 96/53/25 
f 97/67/6 83/58/6 82/58/6 98/67/6 
f 99/68/5 81/57/5 84/57/5 100/68/5 
f 101/69/7 87/60/7 86/60/7 102/69/7 
f 103/70/8 91/64/8 90/63/8 104/70/8 
f 88/61/10 97/67/10 98/67/10 85/59/10 
f 94/56/9 99/68/9 100/68/9 95/66/9 
f 92/65/11 101/69/11 102/69/11 89/62/11 
f 96/53/12 103/70/12 104/70/12 93/53/12 
f 84/57/16 83/58/16 70/47/16 69/46/16 
f 83/58/17 97/67/17 71/48/17 70/47/17 
f 97/67/18 88/61/18 72/49/18 71/48/18 
f 88/61/19 87/60/19 73/50/19 72/49/19 
f 87/60/20 101/69/20 74/51/20 73/50/20 
f 101/69/21 92/65/21 75/52/21 74/51/21 
f 92/65/22 91/64/22 77/54/22 75/52/22 
f 91/64/23 103/70/23 78/54/23 77/54/23 
f 103/70/24 96/53/24 76/53/24 78/54/24 
f 96/53/13 95/66/13 80/56/13 76/53/13 
f 95/66/14 100/68/14 79/55/14 80/56/14 
f 100/68/15 84/57/15 69/46/15 79/55/15 
f 105/71/1 106/5/1 107/6/1 108/6/1 
f 108/6/1 109/8/1 110/9/1 111/7/1 
f 105/71/1 108/6/1 111/7/1 112/72/1 
f 111/7/1 113/73/1 114/74/1 112/72/1 
f 115/75/1 105/71/1 112/72/1 116/75/1 
f 117/76/3 118/5/3 119/5/3 120/71/3 
f 121/16/4 122/15/4 123/15/4 124/16/4 
f 125/77/26 126/78/26 127/79/26 128/80/26 
f 129/19/7 119/5/7 118/5/7 130/19/7 
f 131/81/27 117/76/27 120/71/27 132/82/27 
f 133/20/8 123/15/8 122/15/8 134/20/8 
f 135/83/28 136/84/28 137/85/28 138/86/28 
f 124/16/11 129/19/11 130/19/11 121/16/11 
f 126/78/29 131/81/29 132/82/29 127/79/29 
f 139/23/12 133/20/12 134/20/12 140/23/12 
f 128/80/30 135/83/30 138/86/30 125/77/30 
f 120/71/19 119/5/19 106/5/19 105/71/19 
f 119/5/20 129/19/20 107/6/20 106/5/20 
f 129/19/21 124/16/21 108/6/21 107/6/21 
f 124/16/22 123/15/22 109/8/22 108/6/22 
f 123/15/23 133/20/23 110/9/23 109/8/23 
f 133/20/24 139/23/24 111/7/24 110/9/24 
f 139/23/13 136/84/13 113/73/13 111/7/13 
f 136/84/14 135/83/14 114/74/14 113/73/14 
f 135/83/15 128/80/15 112/72/15 114/74/15 
f 128/80/16 127/79/16 116/75/16 112/72/16 
f 127/79/17 132/82/17 115/75/17 116/75/17 
f 132/82/18 120/71/18 105/71/18 115/75/18 
f 126/78/31 125/77/31 141/87/31 142/88/31 
f 125/77/32 138/86/32 143/89/32 141/87/32 
f 138/86/33 137/85/33 144/90/33 143/89/33 
f 140/23/34 134/20/34 145/9/34 146/7/34 
f 134/20/35 122/15/35 147/8/35 145/9/35 
f 122/15/36 121/16/36 148/6/36 147/8/36 
f 121/16/37 130/19/37 149/6/37 148/6/37 
f 130/19/38 118/5/38 150/5/38 149/6/38 
f 118/5/39 117/76/39 151/76/39 150/5/39 
f 117/76/40 131/81/40 152/91/40 151/76/40 
f 131/81/41 126/78/41 142/88/41 152/91/41 
f 153/92/1 154/93/1 155/27/1 156/94/1 
f 157/24/1 158/25/1 159/26/1 155/27/1 
f 160/28/1 161/29/1 162/95/1 159/26/1 
f 155/27/1 159/26/1 162/95/1 156/94/1 
f 156/94/1 162/95/1 163/96/1 164/97/1 
f 165/98/25 166/99/25 167/39/25 168/39/25 
f 169/40/42 170/40/42 171/41/42 172/41/42 
f 173/100/26 174/101/26 175/102/26 176/103/26 
f 177/104/12 178/104/12 168/39/12 167/39/12 
f 179/105/28 180/106/28 166/99/28 165/98/28 
f 181/45/11 182/45/11 172/41/11 171/41/11 
f 183/107/27 184/108/27 137/85/27 136/84/27 
f 170/40/8 169/40/8 178/104/8 177/104/8 
f 176/103/30 175/102/30 180/106/30 179/105/30 
f 139/23/7 140/23/7 182/45/7 181/45/7 
f 174/101/29 173/100/29 184/108/29 183/107/29 
f 166/99/13 162/95/13 161/29/13 167/39/13 
f 167/39/24 161/29/24 160/28/24 177/104/24 
f 177/104/23 160/28/23 159/26/23 170/40/23 
f 170/40/43 159/26/43 158/25/43 171/41/43 
f 171/41/21 158/25/21 157/24/21 181/45/21 
f 181/45/20 157/24/20 155/27/20 139/23/20 
f 139/23/19 155/27/19 154/93/19 136/84/19 
f 136/84/18 154/93/18 153/92/18 183/107/18 
f 183/107/17 153/92/17 156/94/17 174/101/17 
f 174/101/16 156/94/16 164/97/16 175/102/16 
f 175/102/15 164/97/15 163/96/15 180/106/15 
f 180/106/14 163/96/14 162/95/14 166/99/14 
f 176/103/31 185/109/31 186/110/31 173/100/31 
f 173/100/41 186/110/41 187/111/41 184/108/41 
f 184/108/40 187/111/40 188/112/40 137/85/40 
f 140/23/38 189/27/38 190/24/38 182/45/38 
f 182/45/37 190/24/37 191/25/37 172/41/37 
f 172/41/44 191/25/44 192/26/44 169/40/44 
f 169/40/35 192/26/35 193/28/35 178/104/35 
f 178/104/34 193/28/34 194/29/34 168/39/34 
f 168/39/45 194/29/45 195/113/45 165/98/45 
f 165/98/33 195/113/33 196/114/33 179/105/33 
f 179/105/32 196/114/32 185/109/32 176/103/32 
f 197/115/1 198/116/1 199/117/1 200/118/1 
f 201/119/1 202/120/1 203/121/1 199/117/1 
f 204/122/1 205/123/1 206/124/1 203/121/1 
f 199/117/1 203/121/1 206/124/1 200/118/1 
f 200/118/1 206/124/1 207/125/1 208/126/1 
f 209/127/2 210/127/2 211/128/2 212/128/2 
f 213/129/25 214/129/25 215/130/25 216/130/25 
f 217/131/4 218/131/4 219/132/4 220/132/4 
f 221/39/3 222/39/3 223/38/3 224/38/3 
f 225/133/5 226/133/5 212/128/5 211/128/5 
f 227/43/6 228/43/6 210/127/6 209/127/6 
f 229/134/12 230/134/12 216/130/12 215/130/12 
f 231/44/11 232/44/11 220/132/11 219/132/11 
f 214/129/9 213/129/9 226/133/9 225/133/9 
f 224/38/10 223/38/10 228/43/10 227/43/10 
f 218/131/8 217/131/8 230/134/8 229/134/8 
f 222/39/7 221/39/7 232/44/7 231/44/7 
f 210/127/16 206/124/16 205/123/16 211/128/16 
f 211/128/15 205/123/15 204/122/15 225/133/15 
f 225/133/14 204/122/14 203/121/14 214/129/14 
f 214/129/13 203/121/13 202/120/13 215/130/13 
f 215/130/24 202/120/24 201/119/24 229/134/24 
f 229/134/23 201/119/23 199/117/23 218/131/23 
f 218/131/22 199/117/22 198/116/22 219/132/22 
f 219/132/21 198/116/21 197/115/21 231/44/21 
f 231/44/20 197/115/20 200/118/20 222/39/20 
f 222/39/19 200/118/19 208/126/19 223/38/19 
f 223/38/18 208/126/18 207/125/18 228/43/18 
f 228/43/17 207/125/17 206/124/17 210/127/17 
f 233/135/46 234/136/46 235/136/46 236/135/46 
f 237/137/4 233/135/4 236/135/4 238/137/4 
f 239/138/47 237/137/47 238/137/47 240/138/47 
f 241/139/25 239/138/25 240/138/25 242/139/25 
f 243/140/48 241/139/48 242/139/48 244/140/48 
f 245/141/2 243/140/2 244/140/2 246/141/2 
f 247/142/49 245/141/49 246/141/49 248/142/49 
f 234/136/3 247/142/3 248/142/3 235/136/3 
f 249/143/46 250/144/46 251/144/46 252/143/46 
f 253/145/4 249/143/4 252/143/4 254/145/4 
f 255/146/47 253/145/47 254/145/47 256/146/47 
f 257/147/25 255/146/25 256/146/25 258/147/25 
f 259/148/48 257/147/48 258/147/48 260/148/48 
f 261/149/2 259/148/2 260/148/2 262/149/2 
f 263/150/49 261/149/49 262/149/49 264/150/49 
f 250/144/3 263/150/3 264/150/3 251/144/3 
f 265/151/46 266/152/46 267/152/46 268/151/46 
f 269/153/4 265/151/4 268/151/4 270/153/4 
f 271/154/47 269/153/47 270/153/47 272/155/47 
f 273/156/25 271/154/25 272/155/25 274/156/25 
f 275/157/48 273/156/48 274/156/48 276/157/48 
f 277/158/2 275/157/2 276/157/2 278/158/2 
f 279/159/49 277/158/49 278/158/49 280/159/49 
f 266/152/3 279/159/3 280/159/3 267/152/3 
f 281/160/46 282/161/46 283/161/46 284/160/46 
f 285/162/4 281/160/4 284/160/4 286/162/4 
f 287/163/47 285/162/47 286/162/47 288/163/47 
f 289/164/25 287/163/25 288/163/25 290/164/25 
f 291/165/48 289/164/48 290/164/48 292/165/48 
f 293/166/2 291/165/2 292/165/2 294/166/2 
f 295/167/49 293/166/49 294/166/49 296/167/49 
f 282/161/3 295/167/3 296/167/3 283/161/3 
# 224 polygons

