# 3ds Max Wavefront OBJ Exporter v0.97b - (c)2007 guruware
# File Created: 29.03.2016 14:21:16

#
# object stackfoodtraysb
#

v  -162.4288 0.0000 18.3819
v  -162.4288 2.3641 18.3819
v  -237.5712 2.3641 18.3819
v  -237.5712 0.0000 18.3819
v  -161.4288 0.0000 17.3819
v  -161.4288 0.0000 -17.3819
v  -161.4288 2.3641 -17.3819
v  -161.4288 2.3641 17.3819
v  -237.5712 0.0000 -18.3819
v  -237.5712 2.3641 -18.3819
v  -162.4288 2.3641 -18.3819
v  -162.4288 0.0000 -18.3819
v  -238.5712 0.0000 -17.3819
v  -238.5712 0.0000 17.3819
v  -238.5712 2.3641 17.3819
v  -238.5712 2.3641 -17.3819
v  -163.2864 2.6444 17.1123
v  -163.2864 5.0085 17.1123
v  -238.4270 5.0085 17.6369
v  -238.4270 2.6444 17.6369
v  -162.2934 2.6444 16.1053
v  -162.5361 2.6444 -18.6575
v  -162.5361 5.0085 -18.6575
v  -162.2934 5.0085 16.1053
v  -238.6837 2.6444 -19.1259
v  -238.6837 5.0085 -19.1259
v  -163.5431 5.0085 -19.6505
v  -163.5431 2.6444 -19.6505
v  -239.6767 2.6444 -18.1190
v  -239.4340 2.6444 16.6439
v  -239.4340 5.0085 16.6439
v  -239.6767 5.0085 -18.1190
v  -161.8968 5.2888 19.5905
v  -161.8968 7.6529 19.5905
v  -237.0228 7.6529 18.0168
v  -237.0228 5.2888 18.0168
v  -160.8761 5.2888 18.6116
v  -160.1480 5.2888 -16.1445
v  -160.1480 7.6529 -16.1445
v  -160.8761 7.6529 18.6116
v  -236.2528 5.2888 -18.7389
v  -236.2528 7.6529 -18.7389
v  -161.1268 7.6529 -17.1652
v  -161.1268 5.2888 -17.1652
v  -237.2736 5.2888 -17.7600
v  -238.0016 5.2888 16.9961
v  -238.0016 7.6529 16.9961
v  -237.2736 7.6529 -17.7600
v  -161.8260 7.9332 17.0449
v  -161.8260 10.2972 17.0449
v  -236.9656 10.2972 17.7007
v  -236.9656 7.9332 17.7007
v  -160.8348 7.9332 16.0362
v  -161.1381 7.9332 -18.7262
v  -161.1381 10.2972 -18.7262
v  -160.8348 10.2972 16.0362
v  -237.2864 7.9332 -19.0617
v  -237.2864 10.2972 -19.0617
v  -162.1468 10.2972 -19.7174
v  -162.1468 7.9332 -19.7174
v  -238.2777 7.9332 -18.0530
v  -237.9743 7.9332 16.7094
v  -237.9743 10.2972 16.7094
v  -238.2777 10.2972 -18.0530
v  -163.2622 10.5776 18.7143
v  -163.2622 12.9416 18.7143
v  -238.4018 12.9416 19.3701
v  -238.4018 10.5776 19.3701
v  -162.2710 10.5776 17.7056
v  -162.5743 10.5776 -17.0567
v  -162.5743 12.9416 -17.0567
v  -162.2710 12.9416 17.7056
v  -238.7227 10.5776 -17.3922
v  -238.7227 12.9416 -17.3922
v  -163.5830 12.9416 -18.0480
v  -163.5830 10.5776 -18.0480
v  -239.7139 10.5776 -16.3836
v  -239.4105 10.5776 18.3788
v  -239.4105 12.9416 18.3788
v  -239.7139 12.9416 -16.3836
v  -234.4938 14.5805 13.9127
v  -214.0330 14.5805 13.9127
v  -214.0330 14.5805 -14.9710
v  -234.4938 14.5805 -14.9710
v  -210.0930 14.5805 13.9127
v  -189.6322 14.5805 13.9127
v  -189.6322 14.5805 -14.9710
v  -210.0930 14.5805 -14.9710
v  -185.6922 14.5805 13.9127
v  -165.2313 14.5805 13.9127
v  -165.2313 14.5805 -14.9710
v  -185.6922 14.5805 -14.9710
v  -237.4338 13.2165 17.8527
v  -212.0330 13.2165 17.8527
v  -212.0330 15.5805 17.8527
v  -237.4338 15.5805 17.8527
v  -187.6922 13.2165 17.8527
v  -187.6922 15.5805 17.8527
v  -162.2913 13.2165 17.8527
v  -162.2913 15.5805 17.8527
v  -161.2913 13.2165 16.8527
v  -161.2913 13.2165 -17.9110
v  -161.2913 15.5805 -17.9110
v  -161.2913 15.5805 16.8527
v  -162.2913 13.2165 -18.9110
v  -187.6922 13.2165 -18.9110
v  -187.6922 15.5805 -18.9110
v  -162.2913 15.5805 -18.9110
v  -212.0330 13.2165 -18.9110
v  -212.0330 15.5805 -18.9110
v  -237.4338 13.2165 -18.9110
v  -237.4338 15.5805 -18.9110
v  -238.4338 13.2165 -17.9110
v  -238.4338 13.2165 16.8527
v  -238.4338 15.5805 16.8527
v  -238.4338 15.5805 -17.9110
v  -213.0330 15.5805 14.9127
v  -235.4938 15.5805 14.9127
v  -235.4938 15.5805 -15.9710
v  -213.0330 15.5805 -15.9710
v  -188.6322 15.5805 14.9127
v  -211.0930 15.5805 14.9127
v  -211.0930 15.5805 -15.9710
v  -188.6322 15.5805 -15.9710
v  -164.2313 15.5805 14.9127
v  -186.6922 15.5805 14.9127
v  -164.2313 15.5805 -15.9710
v  -186.6922 15.5805 -15.9710
# 128 vertices

vn 0.0000 0.0000 1.0000
vn 1.0000 0.0000 -0.0000
vn 0.0000 0.0000 -1.0000
vn -1.0000 0.0000 -0.0000
vn -0.7071 0.0000 0.7071
vn 0.7071 0.0000 0.7071
vn 0.7071 0.0000 -0.7071
vn -0.7071 0.0000 -0.7071
vn 0.0000 1.0000 -0.0000
vn 0.0070 0.0000 1.0000
vn 1.0000 0.0000 -0.0070
vn -0.0070 0.0000 -1.0000
vn -1.0000 0.0000 0.0070
vn -0.7022 0.0000 0.7120
vn 0.7120 0.0000 0.7022
vn 0.7022 0.0000 -0.7120
vn -0.7120 0.0000 -0.7022
vn -0.0209 0.0000 0.9998
vn 0.9998 0.0000 0.0209
vn 0.0209 0.0000 -0.9998
vn -0.9998 0.0000 -0.0209
vn -0.7218 0.0000 0.6921
vn 0.6921 0.0000 0.7218
vn 0.7218 0.0000 -0.6921
vn -0.6921 0.0000 -0.7218
vn 0.0087 0.0000 1.0000
vn 1.0000 0.0000 -0.0087
vn -0.0087 0.0000 -1.0000
vn -1.0000 0.0000 0.0087
vn -0.7009 0.0000 0.7133
vn 0.7133 0.0000 0.7009
vn 0.7009 0.0000 -0.7133
vn -0.7133 0.0000 -0.7009
vn 0.0000 0.7071 -0.7071
vn -0.7071 0.7071 -0.0000
vn 0.0000 0.7071 0.7071
vn 0.7071 0.7071 -0.0000
# 37 vertex normals

vt 0.1192 0.9429 0.0000
vt 0.1007 0.9427 0.0000
vt 0.1195 0.9431 0.0000
vt 0.1194 0.9517 0.0000
vt 0.1007 0.9518 0.0000
vt 0.1191 0.9519 0.0000
vt 0.1004 0.9515 0.0000
vt 0.1005 0.9430 0.0000
vt 0.1004 0.9884 0.0000
vt 0.1005 0.9799 0.0000
vt 0.1007 0.9796 0.0000
vt 0.1191 0.9888 0.0000
vt 0.1192 0.9798 0.0000
vt 0.1195 0.9800 0.0000
vt 0.1194 0.9886 0.0000
vt 0.1007 0.9887 0.0000
vt 0.1026 0.9434 0.0000
vt 0.1071 0.9434 0.0000
vt 0.1071 0.9497 0.0000
vt 0.1026 0.9497 0.0000
vt 0.1079 0.9434 0.0000
vt 0.1124 0.9434 0.0000
vt 0.1124 0.9497 0.0000
vt 0.1079 0.9497 0.0000
vt 0.1132 0.9434 0.0000
vt 0.1176 0.9434 0.0000
vt 0.1176 0.9497 0.0000
vt 0.1132 0.9497 0.0000
vt 0.1020 0.9425 0.0000
vt 0.1075 0.9425 0.0000
vt 0.1128 0.9425 0.0000
vt 0.1183 0.9425 0.0000
vt 0.1185 0.9428 0.0000
vt 0.1185 0.9503 0.0000
vt 0.1183 0.9505 0.0000
vt 0.1128 0.9505 0.0000
vt 0.1075 0.9505 0.0000
vt 0.1020 0.9505 0.0000
vt 0.1018 0.9503 0.0000
vt 0.1018 0.9428 0.0000
vt 0.1073 0.9432 0.0000
vt 0.1024 0.9432 0.0000
vt 0.1024 0.9499 0.0000
vt 0.1073 0.9499 0.0000
vt 0.1126 0.9432 0.0000
vt 0.1077 0.9432 0.0000
vt 0.1077 0.9499 0.0000
vt 0.1126 0.9499 0.0000
vt 0.1179 0.9432 0.0000
vt 0.1130 0.9432 0.0000
vt 0.1179 0.9499 0.0000
vt 0.1130 0.9499 0.0000
vt 0.1024 0.9806 0.0000
vt 0.1073 0.9806 0.0000
vt 0.1071 0.9808 0.0000
vt 0.1026 0.9808 0.0000
vt 0.1073 0.9873 0.0000
vt 0.1071 0.9871 0.0000
vt 0.1024 0.9873 0.0000
vt 0.1026 0.9871 0.0000
vt 0.1077 0.9806 0.0000
vt 0.1126 0.9806 0.0000
vt 0.1124 0.9808 0.0000
vt 0.1079 0.9808 0.0000
vt 0.1126 0.9873 0.0000
vt 0.1124 0.9871 0.0000
vt 0.1077 0.9873 0.0000
vt 0.1079 0.9871 0.0000
vt 0.1130 0.9806 0.0000
vt 0.1179 0.9806 0.0000
vt 0.1176 0.9808 0.0000
vt 0.1132 0.9808 0.0000
vt 0.1179 0.9873 0.0000
vt 0.1176 0.9871 0.0000
vt 0.1130 0.9873 0.0000
vt 0.1132 0.9871 0.0000
# 76 texture coords

g stackfoodtraysb
f 1/1/1 2/1/1 3/2/1 4/2/1 
f 5/3/2 6/4/2 7/4/2 8/3/2 
f 9/5/3 10/5/3 11/6/3 12/6/3 
f 13/7/4 14/8/4 15/8/4 16/7/4 
f 3/2/5 15/8/5 14/8/5 4/2/5 
f 1/1/6 5/3/6 8/3/6 2/1/6 
f 6/4/7 12/6/7 11/6/7 7/4/7 
f 9/5/8 13/7/8 16/7/8 10/5/8 
f 16/9/9 15/10/9 3/11/9 11/12/9 
f 3/11/9 2/13/9 8/14/9 11/12/9 
f 8/14/9 7/15/9 11/12/9 
f 10/16/9 16/9/9 11/12/9 
f 17/1/10 18/1/10 19/2/10 20/2/10 
f 21/3/11 22/4/11 23/4/11 24/3/11 
f 25/5/12 26/5/12 27/6/12 28/6/12 
f 29/7/13 30/8/13 31/8/13 32/7/13 
f 19/2/14 31/8/14 30/8/14 20/2/14 
f 17/1/15 21/3/15 24/3/15 18/1/15 
f 22/4/16 28/6/16 27/6/16 23/4/16 
f 25/5/17 29/7/17 32/7/17 26/5/17 
f 32/9/9 31/10/9 19/11/9 27/12/9 
f 19/11/9 18/13/9 24/14/9 27/12/9 
f 24/14/9 23/15/9 27/12/9 
f 26/16/9 32/9/9 27/12/9 
f 33/1/18 34/1/18 35/2/18 36/2/18 
f 37/3/19 38/4/19 39/4/19 40/3/19 
f 41/5/20 42/5/20 43/6/20 44/6/20 
f 45/7/21 46/8/21 47/8/21 48/7/21 
f 35/2/22 47/8/22 46/8/22 36/2/22 
f 33/1/23 37/3/23 40/3/23 34/1/23 
f 38/4/24 44/6/24 43/6/24 39/4/24 
f 41/5/25 45/7/25 48/7/25 42/5/25 
f 48/9/9 47/10/9 35/11/9 43/12/9 
f 35/11/9 34/13/9 40/14/9 43/12/9 
f 40/14/9 39/15/9 43/12/9 
f 42/16/9 48/9/9 43/12/9 
f 49/1/26 50/1/26 51/2/26 52/2/26 
f 53/3/27 54/4/27 55/4/27 56/3/27 
f 57/5/28 58/5/28 59/6/28 60/6/28 
f 61/7/29 62/8/29 63/8/29 64/7/29 
f 51/2/30 63/8/30 62/8/30 52/2/30 
f 49/1/31 53/3/31 56/3/31 50/1/31 
f 54/4/32 60/6/32 59/6/32 55/4/32 
f 57/5/33 61/7/33 64/7/33 58/5/33 
f 64/9/9 63/10/9 51/11/9 59/12/9 
f 51/11/9 50/13/9 56/14/9 59/12/9 
f 56/14/9 55/15/9 59/12/9 
f 58/16/9 64/9/9 59/12/9 
f 65/1/26 66/1/26 67/2/26 68/2/26 
f 69/3/27 70/4/27 71/4/27 72/3/27 
f 73/5/28 74/5/28 75/6/28 76/6/28 
f 77/7/29 78/8/29 79/8/29 80/7/29 
f 67/2/30 79/8/30 78/8/30 68/2/30 
f 65/1/31 69/3/31 72/3/31 66/1/31 
f 70/4/32 76/6/32 75/6/32 71/4/32 
f 73/5/33 77/7/33 80/7/33 74/5/33 
f 80/9/9 79/10/9 67/11/9 75/12/9 
f 67/11/9 66/13/9 72/14/9 75/12/9 
f 72/14/9 71/15/9 75/12/9 
f 74/16/9 80/9/9 75/12/9 
f 81/17/9 82/18/9 83/19/9 84/20/9 
f 85/21/9 86/22/9 87/23/9 88/24/9 
f 89/25/9 90/26/9 91/27/9 92/28/9 
f 93/29/1 94/30/1 95/30/1 96/29/1 
f 94/30/1 97/31/1 98/31/1 95/30/1 
f 97/31/1 99/32/1 100/32/1 98/31/1 
f 101/33/2 102/34/2 103/34/2 104/33/2 
f 105/35/3 106/36/3 107/36/3 108/35/3 
f 106/36/3 109/37/3 110/37/3 107/36/3 
f 109/37/3 111/38/3 112/38/3 110/37/3 
f 113/39/4 114/40/4 115/40/4 116/39/4 
f 96/29/9 95/30/9 117/41/9 118/42/9 
f 110/37/9 112/38/9 119/43/9 120/44/9 
f 116/39/9 115/40/9 118/42/9 119/43/9 
f 95/30/9 98/31/9 121/45/9 122/46/9 
f 107/36/9 110/37/9 123/47/9 124/48/9 
f 98/31/9 100/32/9 125/49/9 126/50/9 
f 104/33/9 103/34/9 127/51/9 125/49/9 
f 108/35/9 107/36/9 128/52/9 127/51/9 
f 96/29/9 118/42/9 115/40/9 
f 104/33/9 125/49/9 100/32/9 
f 116/39/9 119/43/9 112/38/9 
f 108/35/9 127/51/9 103/34/9 
f 96/29/5 115/40/5 114/40/5 93/29/5 
f 99/32/6 101/33/6 104/33/6 100/32/6 
f 102/34/7 105/35/7 108/35/7 103/34/7 
f 111/38/8 113/39/8 116/39/8 112/38/8 
f 118/53/34 117/54/34 82/55/34 81/56/34 
f 117/54/35 120/57/35 83/58/35 82/55/35 
f 120/57/36 119/59/36 84/60/36 83/58/36 
f 119/59/37 118/53/37 81/56/37 84/60/37 
f 122/61/34 121/62/34 86/63/34 85/64/34 
f 121/62/35 124/65/35 87/66/35 86/63/35 
f 124/65/36 123/67/36 88/68/36 87/66/36 
f 123/67/37 122/61/37 85/64/37 88/68/37 
f 126/69/34 125/70/34 90/71/34 89/72/34 
f 125/70/35 127/73/35 91/74/35 90/71/35 
f 127/73/36 128/75/36 92/76/36 91/74/36 
f 128/75/37 126/69/37 89/72/37 92/76/37 
f 128/52/9 124/48/9 121/45/9 126/50/9 
f 123/47/9 120/44/9 117/41/9 122/46/9 
f 95/30/9 122/46/9 117/41/9 
f 120/44/9 123/47/9 110/37/9 
f 98/31/9 126/50/9 121/45/9 
f 124/48/9 128/52/9 107/36/9 
# 87 polygons - 18 triangles

