# 3ds Max Wavefront OBJ Exporter v0.97b - (c)2007 guruware
# File Created: 21.03.2016 18:33:10

#
# object stackbrickc
#

v  -46.9189 7.0000 46.1399
v  -28.1875 7.0000 46.1399
v  -28.1875 7.0000 34.4328
v  -46.9189 7.0000 34.4328
v  -9.4561 7.0000 46.1399
v  9.2754 7.0000 46.1399
v  9.2754 7.0000 34.4328
v  -9.4561 7.0000 34.4328
v  28.0068 7.0000 46.1399
v  28.0068 7.0000 34.4328
v  46.7382 7.0000 46.1399
v  46.7382 7.0000 34.4328
v  -28.1875 7.0000 22.7256
v  -46.9189 7.0000 22.7256
v  -9.4561 7.0000 22.7256
v  9.2754 7.0000 22.7256
v  28.0068 7.0000 22.7256
v  46.7382 7.0000 22.7256
v  -28.1875 7.0000 11.0185
v  -46.9189 7.0000 11.0185
v  -9.4561 7.0000 11.0185
v  9.2754 7.0000 11.0185
v  28.0068 7.0000 11.0185
v  46.7382 7.0000 11.0185
v  -28.1875 7.0000 -0.6887
v  -46.9189 7.0000 -0.6887
v  -9.4561 7.0000 -0.6887
v  9.2754 7.0000 -0.6887
v  28.0068 7.0000 -0.6887
v  46.7382 7.0000 -0.6887
v  -28.1875 7.0000 -12.3958
v  -46.9189 7.0000 -12.3958
v  -9.4561 7.0000 -12.3958
v  9.2754 7.0000 -12.3958
v  28.0068 7.0000 -12.3958
v  46.7382 7.0000 -12.3958
v  -28.1875 7.0000 -24.1029
v  -46.9189 7.0000 -24.1029
v  -9.4561 7.0000 -24.1029
v  9.2754 7.0000 -24.1029
v  -28.1875 7.0000 -35.8101
v  -46.9189 7.0000 -35.8101
v  -9.4561 7.0000 -35.8101
v  9.2754 7.0000 -35.8101
v  28.0068 7.0000 -24.1029
v  28.0068 7.0000 -35.8101
v  46.7382 7.0000 -24.1029
v  46.7382 7.0000 -35.8101
v  -9.4561 7.0000 -47.5172
v  -28.1875 7.0000 -47.5172
v  9.2754 7.0000 -47.5172
v  28.0068 7.0000 -47.5172
v  46.7382 7.0000 -47.5172
v  -46.9189 0.0000 34.4328
v  -46.9189 0.0000 46.1399
v  -28.1875 0.0000 46.1399
v  -28.1875 0.0000 34.4328
v  -9.4561 0.0000 34.4328
v  -9.4561 0.0000 46.1399
v  9.2754 0.0000 46.1399
v  28.0068 0.0000 46.1399
v  46.7382 0.0000 46.1399
v  46.7382 0.0000 34.4328
v  46.7382 0.0000 22.7256
v  46.7382 0.0000 11.0185
v  46.7382 0.0000 -0.6887
v  46.7382 0.0000 -12.3958
v  28.0068 0.0000 -12.3958
v  9.2754 0.0000 -12.3958
v  9.2754 0.0000 -24.1029
v  28.0068 0.0000 -24.1029
v  46.7382 0.0000 -24.1029
v  46.7382 0.0000 -35.8101
v  46.7382 0.0000 -47.5172
v  28.0068 0.0000 -47.5172
v  9.2754 0.0000 -47.5172
v  -9.4561 0.0000 -47.5172
v  -28.1875 0.0000 -47.5172
v  -28.1875 0.0000 -35.8101
v  -46.9189 0.0000 -35.8101
v  -46.9189 0.0000 -24.1029
v  -46.9189 0.0000 -12.3958
v  -46.9189 0.0000 -0.6887
v  -46.9189 0.0000 11.0185
v  -46.9189 0.0000 22.7256
v  35.3098 14.0000 36.9530
v  35.3098 14.0000 18.2216
v  23.6027 14.0000 18.2216
v  23.6027 14.0000 36.9530
v  35.3098 14.0000 -0.5098
v  23.6027 14.0000 -0.5098
v  11.8956 14.0000 18.2216
v  11.8956 14.0000 36.9530
v  11.8956 14.0000 -0.5098
v  0.1884 14.0000 18.2216
v  0.1884 14.0000 36.9530
v  0.1884 14.0000 -0.5098
v  23.6027 7.0000 36.9530
v  35.3098 7.0000 36.9530
v  35.3098 7.0000 18.2216
v  35.3098 7.0000 -0.5098
v  23.6027 7.0000 -0.5098
v  11.8956 7.0000 36.9530
v  11.8956 7.0000 -0.5098
v  0.1884 7.0000 36.9530
v  0.1884 7.0000 18.2216
v  0.1884 7.0000 -0.5098
# 107 vertices

vn 0.0000 1.0000 -0.0000
vn -1.0000 0.0000 -0.0000
vn 0.0000 0.0000 1.0000
vn 1.0000 0.0000 -0.0000
vn 0.0000 0.0000 -1.0000
vn -0.0000 -0.0000 -1.0000
vn -1.0000 -0.0000 0.0000
vn 0.0000 -0.0000 -1.0000
vn -1.0000 -0.0000 -0.0000
# 9 vertex normals

vt 0.1527 0.6600 0.0000
vt 0.1434 0.6600 0.0000
vt 0.1434 0.6668 0.0000
vt 0.1527 0.6668 0.0000
vt 0.1293 0.6600 0.0000
vt 0.1199 0.6600 0.0000
vt 0.1199 0.6668 0.0000
vt 0.1293 0.6668 0.0000
vt 0.1089 0.6600 0.0000
vt 0.1089 0.6668 0.0000
vt 0.0980 0.6600 0.0000
vt 0.0980 0.6668 0.0000
vt 0.1417 0.6668 0.0000
vt 0.1417 0.6737 0.0000
vt 0.1527 0.6737 0.0000
vt 0.1417 0.6680 0.0000
vt 0.1308 0.6680 0.0000
vt 0.1308 0.6737 0.0000
vt 0.1308 0.6668 0.0000
vt 0.1199 0.6737 0.0000
vt 0.1089 0.6737 0.0000
vt 0.0980 0.6737 0.0000
vt 0.1417 0.6805 0.0000
vt 0.1527 0.6805 0.0000
vt 0.1308 0.6805 0.0000
vt 0.1199 0.6805 0.0000
vt 0.1089 0.6805 0.0000
vt 0.0980 0.6805 0.0000
vt 0.1417 0.6873 0.0000
vt 0.1527 0.6873 0.0000
vt 0.1308 0.6873 0.0000
vt 0.1199 0.6873 0.0000
vt 0.1089 0.6873 0.0000
vt 0.0980 0.6873 0.0000
vt 0.1417 0.6942 0.0000
vt 0.1527 0.6942 0.0000
vt 0.1308 0.6942 0.0000
vt 0.1199 0.6942 0.0000
vt 0.1089 0.6923 0.0000
vt 0.1199 0.6923 0.0000
vt 0.0980 0.6923 0.0000
vt 0.1417 0.7010 0.0000
vt 0.1527 0.7010 0.0000
vt 0.1308 0.7010 0.0000
vt 0.1213 0.6942 0.0000
vt 0.1213 0.7010 0.0000
vt 0.1417 0.7068 0.0000
vt 0.1527 0.7068 0.0000
vt 0.1308 0.7079 0.0000
vt 0.1417 0.7079 0.0000
vt 0.1199 0.7010 0.0000
vt 0.1199 0.7079 0.0000
vt 0.1199 0.7028 0.0000
vt 0.1089 0.7028 0.0000
vt 0.1089 0.7079 0.0000
vt 0.0980 0.7028 0.0000
vt 0.0980 0.7079 0.0000
vt 0.1405 0.7079 0.0000
vt 0.1308 0.7147 0.0000
vt 0.1405 0.7147 0.0000
vt 0.1199 0.7147 0.0000
vt 0.1089 0.7147 0.0000
vt 0.0980 0.7147 0.0000
vt 0.1417 0.6600 0.0000
vt 0.1464 0.6600 0.0000
vt 0.1464 0.6668 0.0000
vt 0.1527 0.6665 0.0000
vt 0.1437 0.6665 0.0000
vt 0.1437 0.6611 0.0000
vt 0.1527 0.6611 0.0000
vt 0.1458 0.6668 0.0000
vt 0.1458 0.6600 0.0000
vt 0.1308 0.6699 0.0000
vt 0.1417 0.6699 0.0000
vt 0.1308 0.6666 0.0000
vt 0.1308 0.6597 0.0000
vt 0.1253 0.6597 0.0000
vt 0.1253 0.6666 0.0000
vt 0.1296 0.6663 0.0000
vt 0.1199 0.6663 0.0000
vt 0.1199 0.6631 0.0000
vt 0.1296 0.6631 0.0000
vt 0.1089 0.6663 0.0000
vt 0.1089 0.6631 0.0000
vt 0.0980 0.6663 0.0000
vt 0.0980 0.6631 0.0000
vt 0.1086 0.6600 0.0000
vt 0.1086 0.6668 0.0000
vt 0.1049 0.6668 0.0000
vt 0.1049 0.6600 0.0000
vt 0.1086 0.6737 0.0000
vt 0.1049 0.6737 0.0000
vt 0.1086 0.6805 0.0000
vt 0.1049 0.6805 0.0000
vt 0.1086 0.6873 0.0000
vt 0.1049 0.6873 0.0000
vt 0.1086 0.6928 0.0000
vt 0.1049 0.6928 0.0000
vt 0.0980 0.6875 0.0000
vt 0.1089 0.6875 0.0000
vt 0.1089 0.6917 0.0000
vt 0.0980 0.6917 0.0000
vt 0.1199 0.6875 0.0000
vt 0.1199 0.6917 0.0000
vt 0.1239 0.7010 0.0000
vt 0.1239 0.6942 0.0000
vt 0.1089 0.7010 0.0000
vt 0.1089 0.7056 0.0000
vt 0.1199 0.7056 0.0000
vt 0.0980 0.7010 0.0000
vt 0.0980 0.7056 0.0000
vt 0.1087 0.7024 0.0000
vt 0.1087 0.7079 0.0000
vt 0.1046 0.7079 0.0000
vt 0.1046 0.7024 0.0000
vt 0.1087 0.7147 0.0000
vt 0.1046 0.7147 0.0000
vt 0.0980 0.7082 0.0000
vt 0.1089 0.7082 0.0000
vt 0.1089 0.7115 0.0000
vt 0.0980 0.7115 0.0000
vt 0.1199 0.7082 0.0000
vt 0.1199 0.7115 0.0000
vt 0.1308 0.7082 0.0000
vt 0.1308 0.7115 0.0000
vt 0.1405 0.7082 0.0000
vt 0.1405 0.7115 0.0000
vt 0.1417 0.7147 0.0000
vt 0.1378 0.7079 0.0000
vt 0.1378 0.7147 0.0000
vt 0.1527 0.7079 0.0000
vt 0.1527 0.7134 0.0000
vt 0.1417 0.7134 0.0000
vt 0.1417 0.7069 0.0000
vt 0.1464 0.7010 0.0000
vt 0.1464 0.7069 0.0000
vt 0.1464 0.6942 0.0000
vt 0.1464 0.6873 0.0000
vt 0.1464 0.6805 0.0000
vt 0.1464 0.6737 0.0000
vt 0.1096 0.6812 0.0000
vt 0.1199 0.6812 0.0000
vt 0.1199 0.6876 0.0000
vt 0.1096 0.6876 0.0000
vt 0.1301 0.6812 0.0000
vt 0.1301 0.6876 0.0000
vt 0.1199 0.6941 0.0000
vt 0.1096 0.6941 0.0000
vt 0.1301 0.6941 0.0000
vt 0.1199 0.7005 0.0000
vt 0.1096 0.7005 0.0000
vt 0.1301 0.7005 0.0000
vt 0.1158 0.6812 0.0000
vt 0.1158 0.6876 0.0000
vt 0.1199 0.6834 0.0000
vt 0.1096 0.6834 0.0000
vt 0.1096 0.6871 0.0000
vt 0.1199 0.6871 0.0000
vt 0.1301 0.6834 0.0000
vt 0.1301 0.6871 0.0000
vt 0.1221 0.6876 0.0000
vt 0.1221 0.6812 0.0000
vt 0.1200 0.6812 0.0000
vt 0.1200 0.6876 0.0000
vt 0.1158 0.6941 0.0000
vt 0.1221 0.6941 0.0000
vt 0.1200 0.6941 0.0000
vt 0.1158 0.7005 0.0000
vt 0.1096 0.6980 0.0000
vt 0.1199 0.6980 0.0000
vt 0.1096 0.6942 0.0000
vt 0.1221 0.7005 0.0000
vt 0.1200 0.7005 0.0000
vt 0.1301 0.6980 0.0000
vt 0.1301 0.6942 0.0000
# 175 texture coords

g stackbrickc
f 1/1/1 2/2/1 3/3/1 4/4/1 
f 5/5/1 6/6/1 7/7/1 8/8/1 
f 6/6/1 9/9/1 10/10/1 7/7/1 
f 9/9/1 11/11/1 12/12/1 10/10/1 
f 4/4/1 3/13/1 13/14/1 14/15/1 
f 3/16/1 8/17/1 15/18/1 13/14/1 
f 8/19/1 7/7/1 16/20/1 15/18/1 
f 7/7/1 10/10/1 17/21/1 16/20/1 
f 10/10/1 12/12/1 18/22/1 17/21/1 
f 14/15/1 13/14/1 19/23/1 20/24/1 
f 13/14/1 15/18/1 21/25/1 19/23/1 
f 15/18/1 16/20/1 22/26/1 21/25/1 
f 16/20/1 17/21/1 23/27/1 22/26/1 
f 17/21/1 18/22/1 24/28/1 23/27/1 
f 20/24/1 19/23/1 25/29/1 26/30/1 
f 19/23/1 21/25/1 27/31/1 25/29/1 
f 21/25/1 22/26/1 28/32/1 27/31/1 
f 22/26/1 23/27/1 29/33/1 28/32/1 
f 23/27/1 24/28/1 30/34/1 29/33/1 
f 26/30/1 25/29/1 31/35/1 32/36/1 
f 25/29/1 27/31/1 33/37/1 31/35/1 
f 27/31/1 28/32/1 34/38/1 33/37/1 
f 28/32/1 29/33/1 35/39/1 34/40/1 
f 29/33/1 30/34/1 36/41/1 35/39/1 
f 32/36/1 31/35/1 37/42/1 38/43/1 
f 31/35/1 33/37/1 39/44/1 37/42/1 
f 33/37/1 34/45/1 40/46/1 39/44/1 
f 38/43/1 37/42/1 41/47/1 42/48/1 
f 37/42/1 39/44/1 43/49/1 41/50/1 
f 39/44/1 40/51/1 44/52/1 43/49/1 
f 40/53/1 45/54/1 46/55/1 44/52/1 
f 45/54/1 47/56/1 48/57/1 46/55/1 
f 41/58/1 43/49/1 49/59/1 50/60/1 
f 43/49/1 44/52/1 51/61/1 49/59/1 
f 44/52/1 46/55/1 52/62/1 51/61/1 
f 46/55/1 48/57/1 53/63/1 52/62/1 
f 54/13/2 55/64/2 1/65/2 4/66/2 
f 55/67/3 56/68/3 2/69/3 1/70/3 
f 56/64/4 57/13/4 3/71/4 2/72/4 
f 57/13/3 58/19/3 8/73/3 3/74/3 
f 58/75/2 59/76/2 5/77/2 8/78/2 
f 59/79/3 60/80/3 6/81/3 5/82/3 
f 60/80/3 61/83/3 9/84/3 6/81/3 
f 61/83/3 62/85/3 11/86/3 9/84/3 
f 62/87/4 63/88/4 12/89/4 11/90/4 
f 63/88/4 64/91/4 18/92/4 12/89/4 
f 64/91/4 65/93/4 24/94/4 18/92/4 
f 65/93/4 66/95/4 30/96/4 24/94/4 
f 66/95/4 67/97/4 36/98/4 30/96/4 
f 67/99/5 68/100/5 35/101/5 36/102/5 
f 68/100/5 69/103/5 34/104/5 35/101/5 
f 69/38/4 70/51/4 40/105/4 34/106/4 
f 70/51/3 71/107/3 45/108/3 40/109/3 
f 71/107/3 72/110/3 47/111/3 45/108/3 
f 72/112/4 73/113/4 48/114/4 47/115/4 
f 73/113/4 74/116/4 53/117/4 48/114/4 
f 74/118/5 75/119/5 52/120/5 53/121/5 
f 75/119/5 76/122/5 51/123/5 52/120/5 
f 76/122/5 77/124/5 49/125/5 51/123/5 
f 77/124/5 78/126/5 50/127/5 49/125/5 
f 78/128/2 79/50/2 41/129/2 50/130/2 
f 79/50/5 80/131/5 42/132/5 41/133/5 
f 80/134/2 81/42/2 38/135/2 42/136/2 
f 81/42/2 82/35/2 32/137/2 38/135/2 
f 82/35/2 83/29/2 26/138/2 32/137/2 
f 83/29/2 84/23/2 20/139/2 26/138/2 
f 84/23/2 85/14/2 14/140/2 20/139/2 
f 85/14/2 54/13/2 4/66/2 14/140/2 
f 86/141/1 87/142/1 88/143/1 89/144/1 
f 87/142/1 90/145/1 91/146/1 88/143/1 
f 89/144/1 88/143/1 92/147/1 93/148/1 
f 88/143/1 91/146/1 94/149/1 92/147/1 
f 93/148/1 92/147/1 95/150/1 96/151/1 
f 92/147/1 94/149/1 97/152/1 95/150/1 
f 86/153/3 89/154/3 98/143/3 99/142/3 
f 87/155/4 86/156/4 99/157/4 100/158/4 
f 90/159/4 87/155/4 100/158/4 101/160/4 
f 91/161/5 90/162/5 101/163/5 102/164/5 
f 89/154/3 93/165/3 103/147/3 98/143/3 
f 94/166/6 91/161/6 102/164/6 104/167/6 
f 93/165/3 96/168/3 105/150/3 103/147/3 
f 96/169/7 95/170/7 106/38/7 105/171/7 
f 97/172/8 94/166/8 104/167/8 107/173/8 
f 95/170/9 97/174/9 107/175/9 106/38/9 
# 84 polygons

