# 3ds Max Wavefront OBJ Exporter v0.97b - (c)2007 guruware
# File Created: 29.03.2016 14:21:05

#
# object stackfoodtraysc
#

v  -62.4288 0.0000 18.3819
v  -62.4288 2.3641 18.3819
v  -137.5712 2.3641 18.3819
v  -137.5712 0.0000 18.3819
v  -61.4288 0.0000 17.3819
v  -61.4288 0.0000 -17.3819
v  -61.4288 2.3641 -17.3819
v  -61.4288 2.3641 17.3819
v  -137.5712 0.0000 -18.3819
v  -137.5712 2.3641 -18.3819
v  -62.4288 2.3641 -18.3819
v  -62.4288 0.0000 -18.3819
v  -138.5712 0.0000 -17.3819
v  -138.5712 0.0000 17.3819
v  -138.5712 2.3641 17.3819
v  -138.5712 2.3641 -17.3819
v  -63.2864 2.6444 17.1123
v  -63.2864 5.0085 17.1123
v  -138.4270 5.0085 17.6369
v  -138.4270 2.6444 17.6369
v  -62.2934 2.6444 16.1053
v  -62.5361 2.6444 -18.6575
v  -62.5361 5.0085 -18.6575
v  -62.2934 5.0085 16.1053
v  -138.6837 2.6444 -19.1259
v  -138.6837 5.0085 -19.1259
v  -63.5431 5.0085 -19.6505
v  -63.5431 2.6444 -19.6505
v  -139.6767 2.6444 -18.1190
v  -139.4340 2.6444 16.6439
v  -139.4340 5.0085 16.6439
v  -139.6767 5.0085 -18.1190
v  -133.9650 6.5630 13.9127
v  -113.5042 6.5630 13.9127
v  -113.5042 6.5630 -14.9710
v  -133.9650 6.5630 -14.9710
v  -109.5642 6.5630 13.9127
v  -89.1034 6.5630 13.9127
v  -89.1034 6.5630 -14.9710
v  -109.5642 6.5630 -14.9710
v  -85.1634 6.5630 13.9127
v  -64.7025 6.5630 13.9127
v  -64.7025 6.5630 -14.9710
v  -85.1634 6.5630 -14.9710
v  -136.9050 5.1990 17.8527
v  -111.5042 5.1990 17.8527
v  -111.5042 7.5630 17.8527
v  -136.9050 7.5630 17.8527
v  -87.1634 5.1990 17.8527
v  -87.1634 7.5630 17.8527
v  -61.7625 5.1990 17.8527
v  -61.7625 7.5630 17.8527
v  -60.7625 5.1990 16.8527
v  -60.7625 5.1990 -17.9110
v  -60.7625 7.5630 -17.9110
v  -60.7625 7.5630 16.8527
v  -61.7625 5.1990 -18.9110
v  -87.1634 5.1990 -18.9110
v  -87.1634 7.5630 -18.9110
v  -61.7625 7.5630 -18.9110
v  -111.5042 5.1990 -18.9110
v  -111.5042 7.5630 -18.9110
v  -136.9050 5.1990 -18.9110
v  -136.9050 7.5630 -18.9110
v  -137.9050 5.1990 -17.9110
v  -137.9050 5.1990 16.8527
v  -137.9050 7.5630 16.8527
v  -137.9050 7.5630 -17.9110
v  -112.5042 7.5630 14.9127
v  -134.9650 7.5630 14.9127
v  -134.9650 7.5630 -15.9710
v  -112.5042 7.5630 -15.9710
v  -88.1034 7.5630 14.9127
v  -110.5642 7.5630 14.9127
v  -110.5642 7.5630 -15.9710
v  -88.1034 7.5630 -15.9710
v  -63.7025 7.5630 14.9127
v  -86.1634 7.5630 14.9127
v  -63.7025 7.5630 -15.9710
v  -86.1634 7.5630 -15.9710
# 80 vertices

vn 0.0000 0.0000 1.0000
vn 1.0000 0.0000 -0.0000
vn 0.0000 0.0000 -1.0000
vn -1.0000 0.0000 -0.0000
vn -0.7071 0.0000 0.7071
vn 0.7071 0.0000 0.7071
vn 0.7071 0.0000 -0.7071
vn -0.7071 0.0000 -0.7071
vn 0.0000 1.0000 -0.0000
vn 0.0070 0.0000 1.0000
vn 1.0000 0.0000 -0.0070
vn -0.0070 0.0000 -1.0000
vn -1.0000 0.0000 0.0070
vn -0.7022 0.0000 0.7120
vn 0.7120 0.0000 0.7022
vn 0.7022 0.0000 -0.7120
vn -0.7120 0.0000 -0.7022
vn 0.0000 0.7071 -0.7071
vn -0.7071 0.7071 -0.0000
vn 0.0000 0.7071 0.7071
vn 0.7071 0.7071 -0.0000
# 21 vertex normals

vt 0.1192 0.9429 0.0000
vt 0.1007 0.9427 0.0000
vt 0.1195 0.9431 0.0000
vt 0.1194 0.9517 0.0000
vt 0.1007 0.9518 0.0000
vt 0.1191 0.9519 0.0000
vt 0.1004 0.9515 0.0000
vt 0.1005 0.9430 0.0000
vt 0.1004 0.9884 0.0000
vt 0.1005 0.9799 0.0000
vt 0.1007 0.9796 0.0000
vt 0.1191 0.9888 0.0000
vt 0.1192 0.9798 0.0000
vt 0.1195 0.9800 0.0000
vt 0.1194 0.9886 0.0000
vt 0.1007 0.9887 0.0000
vt 0.1026 0.9434 0.0000
vt 0.1071 0.9434 0.0000
vt 0.1071 0.9497 0.0000
vt 0.1026 0.9497 0.0000
vt 0.1079 0.9434 0.0000
vt 0.1124 0.9434 0.0000
vt 0.1124 0.9497 0.0000
vt 0.1079 0.9497 0.0000
vt 0.1132 0.9434 0.0000
vt 0.1176 0.9434 0.0000
vt 0.1176 0.9497 0.0000
vt 0.1132 0.9497 0.0000
vt 0.1020 0.9425 0.0000
vt 0.1075 0.9425 0.0000
vt 0.1128 0.9425 0.0000
vt 0.1183 0.9425 0.0000
vt 0.1185 0.9428 0.0000
vt 0.1185 0.9503 0.0000
vt 0.1183 0.9505 0.0000
vt 0.1128 0.9505 0.0000
vt 0.1075 0.9505 0.0000
vt 0.1020 0.9505 0.0000
vt 0.1018 0.9503 0.0000
vt 0.1018 0.9428 0.0000
vt 0.1073 0.9432 0.0000
vt 0.1024 0.9432 0.0000
vt 0.1024 0.9499 0.0000
vt 0.1073 0.9499 0.0000
vt 0.1126 0.9432 0.0000
vt 0.1077 0.9432 0.0000
vt 0.1077 0.9499 0.0000
vt 0.1126 0.9499 0.0000
vt 0.1179 0.9432 0.0000
vt 0.1130 0.9432 0.0000
vt 0.1179 0.9499 0.0000
vt 0.1130 0.9499 0.0000
vt 0.1024 0.9806 0.0000
vt 0.1073 0.9806 0.0000
vt 0.1071 0.9808 0.0000
vt 0.1026 0.9808 0.0000
vt 0.1073 0.9873 0.0000
vt 0.1071 0.9871 0.0000
vt 0.1024 0.9873 0.0000
vt 0.1026 0.9871 0.0000
vt 0.1077 0.9806 0.0000
vt 0.1126 0.9806 0.0000
vt 0.1124 0.9808 0.0000
vt 0.1079 0.9808 0.0000
vt 0.1126 0.9873 0.0000
vt 0.1124 0.9871 0.0000
vt 0.1077 0.9873 0.0000
vt 0.1079 0.9871 0.0000
vt 0.1130 0.9806 0.0000
vt 0.1179 0.9806 0.0000
vt 0.1176 0.9808 0.0000
vt 0.1132 0.9808 0.0000
vt 0.1179 0.9873 0.0000
vt 0.1176 0.9871 0.0000
vt 0.1130 0.9873 0.0000
vt 0.1132 0.9871 0.0000
# 76 texture coords

g stackfoodtraysc
f 1/1/1 2/1/1 3/2/1 4/2/1 
f 5/3/2 6/4/2 7/4/2 8/3/2 
f 9/5/3 10/5/3 11/6/3 12/6/3 
f 13/7/4 14/8/4 15/8/4 16/7/4 
f 3/2/5 15/8/5 14/8/5 4/2/5 
f 1/1/6 5/3/6 8/3/6 2/1/6 
f 6/4/7 12/6/7 11/6/7 7/4/7 
f 9/5/8 13/7/8 16/7/8 10/5/8 
f 16/9/9 15/10/9 3/11/9 11/12/9 
f 3/11/9 2/13/9 8/14/9 11/12/9 
f 8/14/9 7/15/9 11/12/9 
f 10/16/9 16/9/9 11/12/9 
f 17/1/10 18/1/10 19/2/10 20/2/10 
f 21/3/11 22/4/11 23/4/11 24/3/11 
f 25/5/12 26/5/12 27/6/12 28/6/12 
f 29/7/13 30/8/13 31/8/13 32/7/13 
f 19/2/14 31/8/14 30/8/14 20/2/14 
f 17/1/15 21/3/15 24/3/15 18/1/15 
f 22/4/16 28/6/16 27/6/16 23/4/16 
f 25/5/17 29/7/17 32/7/17 26/5/17 
f 32/9/9 31/10/9 19/11/9 27/12/9 
f 19/11/9 18/13/9 24/14/9 27/12/9 
f 24/14/9 23/15/9 27/12/9 
f 26/16/9 32/9/9 27/12/9 
f 33/17/9 34/18/9 35/19/9 36/20/9 
f 37/21/9 38/22/9 39/23/9 40/24/9 
f 41/25/9 42/26/9 43/27/9 44/28/9 
f 45/29/1 46/30/1 47/30/1 48/29/1 
f 46/30/1 49/31/1 50/31/1 47/30/1 
f 49/31/1 51/32/1 52/32/1 50/31/1 
f 53/33/2 54/34/2 55/34/2 56/33/2 
f 57/35/3 58/36/3 59/36/3 60/35/3 
f 58/36/3 61/37/3 62/37/3 59/36/3 
f 61/37/3 63/38/3 64/38/3 62/37/3 
f 65/39/4 66/40/4 67/40/4 68/39/4 
f 48/29/9 47/30/9 69/41/9 70/42/9 
f 62/37/9 64/38/9 71/43/9 72/44/9 
f 68/39/9 67/40/9 70/42/9 71/43/9 
f 47/30/9 50/31/9 73/45/9 74/46/9 
f 59/36/9 62/37/9 75/47/9 76/48/9 
f 50/31/9 52/32/9 77/49/9 78/50/9 
f 56/33/9 55/34/9 79/51/9 77/49/9 
f 60/35/9 59/36/9 80/52/9 79/51/9 
f 48/29/9 70/42/9 67/40/9 
f 56/33/9 77/49/9 52/32/9 
f 68/39/9 71/43/9 64/38/9 
f 60/35/9 79/51/9 55/34/9 
f 48/29/5 67/40/5 66/40/5 45/29/5 
f 51/32/6 53/33/6 56/33/6 52/32/6 
f 54/34/7 57/35/7 60/35/7 55/34/7 
f 63/38/8 65/39/8 68/39/8 64/38/8 
f 70/53/18 69/54/18 34/55/18 33/56/18 
f 69/54/19 72/57/19 35/58/19 34/55/19 
f 72/57/20 71/59/20 36/60/20 35/58/20 
f 71/59/21 70/53/21 33/56/21 36/60/21 
f 74/61/18 73/62/18 38/63/18 37/64/18 
f 73/62/19 76/65/19 39/66/19 38/63/19 
f 76/65/20 75/67/20 40/68/20 39/66/20 
f 75/67/21 74/61/21 37/64/21 40/68/21 
f 78/69/18 77/70/18 42/71/18 41/72/18 
f 77/70/19 79/73/19 43/74/19 42/71/19 
f 79/73/20 80/75/20 44/76/20 43/74/20 
f 80/75/21 78/69/21 41/72/21 44/76/21 
f 80/52/9 76/48/9 73/45/9 78/50/9 
f 75/47/9 72/44/9 69/41/9 74/46/9 
f 47/30/9 74/46/9 69/41/9 
f 72/44/9 75/47/9 62/37/9 
f 50/31/9 78/50/9 73/45/9 
f 76/48/9 80/52/9 59/36/9 
# 57 polygons - 12 triangles

