# 3ds Max Wavefront OBJ Exporter v0.97b - (c)2007 guruware
# File Created: 21.03.2016 18:32:54

#
# object stackbrickb
#

v  46.8285 7.0000 46.8286
v  28.0971 7.0000 46.8285
v  28.0971 7.0000 35.1214
v  46.8285 7.0000 35.1214
v  -28.0971 7.0000 46.8285
v  -28.0971 7.0000 35.1214
v  -46.8286 7.0000 46.8285
v  -46.8286 7.0000 35.1214
v  28.0971 7.0000 -35.1214
v  46.8286 7.0000 -35.1214
v  -28.0971 7.0000 -35.1214
v  -46.8285 7.0000 -35.1214
v  28.0971 7.0000 -46.8285
v  46.8286 7.0000 -46.8285
v  -28.0971 7.0000 -46.8285
v  -46.8285 7.0000 -46.8286
v  46.8285 0.0000 35.1214
v  46.8285 0.0000 46.8286
v  28.0971 0.0000 46.8285
v  -28.0971 0.0000 46.8285
v  -46.8286 0.0000 46.8285
v  -46.8286 0.0000 35.1214
v  -46.8285 0.0000 -35.1214
v  -46.8285 0.0000 -46.8286
v  -28.0971 0.0000 -46.8285
v  28.0971 0.0000 -46.8285
v  46.8286 0.0000 -46.8285
v  46.8286 0.0000 -35.1214
v  -35.1214 7.0000 -46.8285
v  -35.1214 14.0000 -46.8285
v  -46.8285 14.0000 -46.8285
v  -46.8285 7.0000 -46.8285
v  -46.8285 14.0000 -28.0971
v  -46.8285 7.0000 -28.0971
v  -46.8285 14.0000 28.0971
v  -46.8285 7.0000 28.0971
v  -46.8285 14.0000 46.8285
v  -46.8285 7.0000 46.8285
v  -35.1214 14.0000 46.8285
v  -35.1214 7.0000 46.8285
v  35.1214 14.0000 46.8285
v  35.1214 7.0000 46.8285
v  46.8285 14.0000 46.8285
v  46.8285 7.0000 46.8285
v  46.8285 14.0000 28.0971
v  46.8285 7.0000 28.0971
v  46.8285 14.0000 -28.0971
v  46.8285 7.0000 -28.0971
v  46.8285 14.0000 -46.8285
v  46.8285 7.0000 -46.8285
v  35.1214 14.0000 -46.8285
v  35.1214 7.0000 -46.8285
v  28.0971 21.0000 -46.1942
v  28.0971 21.0000 -34.4871
v  9.3657 21.0000 -34.4871
v  9.3657 21.0000 -46.1942
v  -9.3657 21.0000 -34.4871
v  -9.3657 21.0000 -46.1942
v  -28.0971 21.0000 -46.1942
v  -28.0971 21.0000 -34.4871
v  -46.8285 21.0000 -34.4871
v  -46.8285 21.0000 -46.1942
v  28.0971 21.0000 -22.7800
v  9.3657 21.0000 -22.7800
v  -9.3657 21.0000 -22.7800
v  -28.0971 21.0000 -22.7800
v  -46.8285 21.0000 -22.7800
v  28.0971 21.0000 -11.0728
v  9.3657 21.0000 -11.0728
v  -9.3657 21.0000 -11.0728
v  -28.0971 21.0000 -11.0728
v  -46.8285 21.0000 -11.0728
v  28.0971 21.0000 0.6343
v  9.3657 21.0000 0.6343
v  -9.3657 21.0000 0.6343
v  -28.0971 21.0000 0.6343
v  28.0971 21.0000 12.3414
v  9.3657 21.0000 12.3414
v  -9.3657 21.0000 12.3414
v  -28.0971 21.0000 12.3414
v  28.0971 21.0000 24.0486
v  9.3657 21.0000 24.0486
v  -9.3657 21.0000 24.0486
v  -28.0971 21.0000 24.0486
v  -46.8285 21.0000 24.0486
v  -46.8285 21.0000 12.3414
v  28.0971 21.0000 35.7557
v  9.3657 21.0000 35.7557
v  -9.3657 21.0000 35.7557
v  -28.0971 21.0000 35.7557
v  -46.8285 21.0000 35.7557
v  28.0971 21.0000 47.4628
v  9.3657 21.0000 47.4628
v  -9.3657 21.0000 47.4628
v  28.0971 14.0000 -34.4871
v  28.0971 14.0000 -46.1942
v  9.3657 14.0000 -46.1942
v  -9.3657 14.0000 -46.1942
v  -9.3657 14.0000 -34.4871
v  -9.3657 14.0000 -22.7800
v  -28.0971 14.0000 -22.7800
v  -28.0971 14.0000 -34.4871
v  -28.0971 14.0000 -46.1942
v  -46.8285 14.0000 -46.1942
v  -46.8285 14.0000 -34.4871
v  -46.8285 14.0000 -22.7800
v  -46.8285 14.0000 -11.0728
v  -28.0971 14.0000 -11.0728
v  -28.0971 14.0000 0.6343
v  -28.0971 14.0000 12.3414
v  -46.8285 14.0000 12.3414
v  -46.8285 14.0000 24.0486
v  -46.8285 14.0000 35.7557
v  -28.0971 14.0000 35.7557
v  -9.3657 14.0000 35.7557
v  -9.3657 14.0000 47.4628
v  9.3657 14.0000 47.4628
v  28.0971 14.0000 47.4628
v  28.0971 14.0000 35.7557
v  28.0971 14.0000 24.0486
v  28.0971 14.0000 12.3414
v  28.0971 14.0000 0.6343
v  28.0971 14.0000 -11.0728
v  28.0971 14.0000 -22.7800
# 124 vertices

vn 0.0000 1.0000 -0.0000
vn 1.0000 0.0000 0.0000
vn -0.0000 0.0000 1.0000
vn -1.0000 0.0000 -0.0000
vn 0.0000 0.0000 -1.0000
vn -0.0000 0.0000 -1.0000
vn 0.0000 0.0000 1.0000
vn 1.0000 0.0000 -0.0000
vn -1.0000 0.0000 0.0000
# 9 vertex normals

vt 0.0977 0.6595 0.0000
vt 0.1088 0.6595 0.0000
vt 0.1088 0.6664 0.0000
vt 0.0977 0.6664 0.0000
vt 0.1421 0.6595 0.0000
vt 0.1421 0.6664 0.0000
vt 0.1532 0.6595 0.0000
vt 0.1532 0.6664 0.0000
vt 0.1088 0.7081 0.0000
vt 0.0977 0.7081 0.0000
vt 0.1421 0.7081 0.0000
vt 0.1532 0.7081 0.0000
vt 0.1088 0.7150 0.0000
vt 0.0977 0.7150 0.0000
vt 0.1421 0.7150 0.0000
vt 0.1532 0.7150 0.0000
vt 0.1087 0.6664 0.0000
vt 0.1087 0.6595 0.0000
vt 0.1040 0.6595 0.0000
vt 0.1040 0.6664 0.0000
vt 0.1088 0.6623 0.0000
vt 0.0977 0.6623 0.0000
vt 0.1421 0.6623 0.0000
vt 0.1532 0.6623 0.0000
vt 0.1419 0.6595 0.0000
vt 0.1419 0.6664 0.0000
vt 0.1444 0.6664 0.0000
vt 0.1444 0.6595 0.0000
vt 0.1419 0.7081 0.0000
vt 0.1444 0.7081 0.0000
vt 0.1419 0.7150 0.0000
vt 0.1444 0.7150 0.0000
vt 0.1421 0.7130 0.0000
vt 0.1532 0.7130 0.0000
vt 0.1088 0.7130 0.0000
vt 0.0977 0.7130 0.0000
vt 0.1087 0.7150 0.0000
vt 0.1087 0.7081 0.0000
vt 0.1040 0.7081 0.0000
vt 0.1040 0.7150 0.0000
vt 0.0975 0.7083 0.0000
vt 0.0975 0.7152 0.0000
vt 0.1086 0.7152 0.0000
vt 0.1419 0.7152 0.0000
vt 0.1531 0.7152 0.0000
vt 0.1531 0.7083 0.0000
vt 0.1531 0.6665 0.0000
vt 0.1086 0.6595 0.0000
vt 0.1531 0.6595 0.0000
vt 0.0975 0.6665 0.0000
vt 0.0975 0.6595 0.0000
vt 0.1101 0.6597 0.0000
vt 0.1101 0.6666 0.0000
vt 0.1198 0.6666 0.0000
vt 0.1198 0.6597 0.0000
vt 0.1296 0.6666 0.0000
vt 0.1296 0.6597 0.0000
vt 0.1418 0.6597 0.0000
vt 0.1418 0.6666 0.0000
vt 0.1529 0.6666 0.0000
vt 0.1529 0.6597 0.0000
vt 0.1101 0.6735 0.0000
vt 0.1198 0.6735 0.0000
vt 0.1296 0.6735 0.0000
vt 0.1418 0.6735 0.0000
vt 0.1529 0.6735 0.0000
vt 0.1101 0.6805 0.0000
vt 0.1198 0.6805 0.0000
vt 0.1308 0.6805 0.0000
vt 0.1308 0.6735 0.0000
vt 0.1418 0.6805 0.0000
vt 0.1418 0.6791 0.0000
vt 0.1529 0.6791 0.0000
vt 0.1101 0.6874 0.0000
vt 0.1198 0.6874 0.0000
vt 0.1308 0.6874 0.0000
vt 0.1403 0.6874 0.0000
vt 0.1403 0.6805 0.0000
vt 0.1101 0.6943 0.0000
vt 0.1198 0.6943 0.0000
vt 0.1308 0.6943 0.0000
vt 0.1403 0.6943 0.0000
vt 0.1101 0.7012 0.0000
vt 0.1198 0.7012 0.0000
vt 0.1308 0.7012 0.0000
vt 0.1418 0.7012 0.0000
vt 0.1418 0.6943 0.0000
vt 0.1418 0.6956 0.0000
vt 0.1529 0.7012 0.0000
vt 0.1529 0.6956 0.0000
vt 0.1101 0.7081 0.0000
vt 0.1198 0.7081 0.0000
vt 0.1308 0.7081 0.0000
vt 0.1308 0.7069 0.0000
vt 0.1418 0.7069 0.0000
vt 0.1529 0.7069 0.0000
vt 0.1107 0.7081 0.0000
vt 0.1107 0.7150 0.0000
vt 0.1198 0.7150 0.0000
vt 0.1288 0.7150 0.0000
vt 0.1288 0.7081 0.0000
vt 0.1148 0.6666 0.0000
vt 0.1148 0.6597 0.0000
vt 0.1101 0.6664 0.0000
vt 0.1101 0.6635 0.0000
vt 0.1198 0.6635 0.0000
vt 0.1198 0.6664 0.0000
vt 0.1298 0.6635 0.0000
vt 0.1298 0.6664 0.0000
vt 0.1308 0.6597 0.0000
vt 0.1269 0.6597 0.0000
vt 0.1269 0.6666 0.0000
vt 0.1308 0.6666 0.0000
vt 0.1269 0.6735 0.0000
vt 0.1308 0.6768 0.0000
vt 0.1418 0.6768 0.0000
vt 0.1452 0.6735 0.0000
vt 0.1452 0.6666 0.0000
vt 0.1452 0.6597 0.0000
vt 0.1418 0.6663 0.0000
vt 0.1418 0.6624 0.0000
vt 0.1529 0.6624 0.0000
vt 0.1529 0.6663 0.0000
vt 0.1419 0.6597 0.0000
vt 0.1460 0.6597 0.0000
vt 0.1460 0.6666 0.0000
vt 0.1419 0.6666 0.0000
vt 0.1460 0.6735 0.0000
vt 0.1419 0.6735 0.0000
vt 0.1460 0.6789 0.0000
vt 0.1419 0.6789 0.0000
vt 0.1529 0.6805 0.0000
vt 0.1529 0.6763 0.0000
vt 0.1418 0.6763 0.0000
vt 0.1383 0.6805 0.0000
vt 0.1383 0.6874 0.0000
vt 0.1418 0.6874 0.0000
vt 0.1383 0.6943 0.0000
vt 0.1418 0.6974 0.0000
vt 0.1529 0.6974 0.0000
vt 0.1529 0.6943 0.0000
vt 0.1418 0.6955 0.0000
vt 0.1470 0.6955 0.0000
vt 0.1470 0.7012 0.0000
vt 0.1470 0.7067 0.0000
vt 0.1418 0.7067 0.0000
vt 0.1529 0.7068 0.0000
vt 0.1418 0.7068 0.0000
vt 0.1308 0.7068 0.0000
vt 0.1243 0.7081 0.0000
vt 0.1243 0.7150 0.0000
vt 0.1289 0.7081 0.0000
vt 0.1289 0.7150 0.0000
vt 0.1106 0.7150 0.0000
vt 0.1106 0.7081 0.0000
vt 0.1148 0.7150 0.0000
vt 0.1148 0.7081 0.0000
vt 0.1148 0.7012 0.0000
vt 0.1148 0.6943 0.0000
vt 0.1148 0.6874 0.0000
vt 0.1148 0.6805 0.0000
vt 0.1148 0.6735 0.0000
# 162 texture coords

g stackbrickb
f 4/4/1 3/3/1 2/2/1 1/1/1 
f 3/3/1 6/6/1 5/5/1 2/2/1 
f 6/6/1 8/8/1 7/7/1 5/5/1 
f 10/10/1 9/9/1 3/3/1 4/4/1 
f 9/9/1 11/11/1 6/6/1 3/3/1 
f 11/11/1 12/12/1 8/8/1 6/6/1 
f 14/14/1 13/13/1 9/9/1 10/10/1 
f 15/15/1 11/11/1 9/9/1 13/13/1 
f 15/15/1 16/16/1 12/12/1 11/11/1 
f 4/20/2 1/19/2 18/18/2 17/17/2 
f 1/22/3 2/21/3 19/3/3 18/4/3 
f 2/21/3 5/23/3 20/6/3 19/3/3 
f 5/23/3 7/24/3 21/8/3 20/6/3 
f 7/28/4 8/27/4 22/26/4 21/25/4 
f 8/27/4 12/30/4 23/29/4 22/26/4 
f 12/30/4 16/32/4 24/31/4 23/29/4 
f 16/34/5 15/33/5 25/11/5 24/12/5 
f 15/33/5 13/35/5 26/9/5 25/11/5 
f 13/35/5 14/36/5 27/10/5 26/9/5 
f 14/40/2 10/39/2 28/38/2 27/37/2 
f 10/39/2 4/20/2 17/17/2 28/38/2 
f 32/18/6 31/19/6 30/20/6 29/17/6 
f 34/3/4 33/21/4 31/22/4 32/4/4 
f 36/6/4 35/23/4 33/21/4 34/3/4 
f 38/8/4 37/24/4 35/23/4 36/6/4 
f 40/26/7 39/27/7 37/28/7 38/25/7 
f 42/29/3 41/30/3 39/27/3 40/26/3 
f 44/31/7 43/32/7 41/30/7 42/29/7 
f 46/11/2 45/33/2 43/34/2 44/12/2 
f 48/9/2 47/35/2 45/33/2 46/11/2 
f 50/10/2 49/36/2 47/35/2 48/9/2 
f 52/38/6 51/39/6 49/40/6 50/37/6 
f 29/17/5 30/20/5 51/39/5 52/38/5 
f 45/44/1 47/43/1 49/42/1 51/41/1 
f 39/47/1 41/46/1 43/45/1 45/44/1 
f 33/48/1 39/47/1 45/44/1 51/41/1 
f 33/48/1 35/25/1 37/49/1 39/47/1 
f 31/51/1 33/48/1 51/41/1 30/50/1 
f 56/55/1 55/54/1 54/53/1 53/52/1 
f 58/57/1 57/56/1 55/54/1 56/55/1 
f 62/61/1 61/60/1 60/59/1 59/58/1 
f 55/54/1 64/63/1 63/62/1 54/53/1 
f 57/56/1 65/64/1 64/63/1 55/54/1 
f 61/60/1 67/66/1 66/65/1 60/59/1 
f 64/63/1 69/68/1 68/67/1 63/62/1 
f 65/70/1 70/69/1 69/68/1 64/63/1 
f 66/65/1 71/71/1 70/69/1 65/70/1 
f 67/66/1 72/73/1 71/72/1 66/65/1 
f 69/68/1 74/75/1 73/74/1 68/67/1 
f 70/69/1 75/76/1 74/75/1 69/68/1 
f 71/78/1 76/77/1 75/76/1 70/69/1 
f 74/75/1 78/80/1 77/79/1 73/74/1 
f 75/76/1 79/81/1 78/80/1 74/75/1 
f 76/77/1 80/82/1 79/81/1 75/76/1 
f 78/80/1 82/84/1 81/83/1 77/79/1 
f 79/81/1 83/85/1 82/84/1 78/80/1 
f 80/87/1 84/86/1 83/85/1 79/81/1 
f 86/90/1 85/89/1 84/86/1 80/88/1 
f 82/84/1 88/92/1 87/91/1 81/83/1 
f 83/85/1 89/93/1 88/92/1 82/84/1 
f 84/86/1 90/95/1 89/94/1 83/85/1 
f 85/89/1 91/96/1 90/95/1 84/86/1 
f 88/92/1 93/99/1 92/98/1 87/97/1 
f 89/101/1 94/100/1 93/99/1 88/92/1 
f 96/55/8 53/103/8 54/102/8 95/54/8 
f 97/107/5 56/106/5 53/105/5 96/104/5 
f 98/109/6 58/108/6 56/106/6 97/107/6 
f 99/113/9 57/112/9 58/111/9 98/110/9 
f 100/70/4 65/114/4 57/112/4 99/113/4 
f 101/65/6 66/116/6 65/115/6 100/70/6 
f 102/59/2 60/118/2 66/117/2 101/65/2 
f 103/58/8 59/119/8 60/118/8 102/59/8 
f 104/123/5 62/122/5 59/121/5 103/120/5 
f 105/127/4 61/126/4 62/125/4 104/124/4 
f 106/129/9 67/128/9 61/126/9 105/127/9 
f 107/131/9 72/130/9 67/128/9 106/129/9 
f 108/71/7 71/134/7 72/133/7 107/132/7 
f 109/137/9 76/136/9 71/135/9 108/71/9 
f 110/87/9 80/138/9 76/136/9 109/137/9 
f 111/141/6 86/140/6 80/139/6 110/87/6 
f 112/86/9 85/144/9 86/143/9 111/142/9 
f 113/146/9 91/145/9 85/144/9 112/86/9 
f 114/86/7 90/148/7 91/147/7 113/89/7 
f 115/85/7 89/149/7 90/148/7 114/86/7 
f 116/99/9 94/151/9 89/150/9 115/92/9 
f 117/92/7 93/99/7 94/153/7 116/152/7 
f 118/155/7 92/154/7 93/99/7 117/92/7 
f 119/92/2 87/157/2 92/156/2 118/99/2 
f 120/84/8 81/158/8 87/157/8 119/92/8 
f 121/80/2 77/159/2 81/158/2 120/84/2 
f 122/75/8 73/160/8 77/159/8 121/80/8 
f 123/68/8 68/161/8 73/160/8 122/75/8 
f 124/63/8 63/162/8 68/161/8 123/68/8 
f 95/54/8 54/102/8 63/162/8 124/63/8 
# 94 polygons

