# 3ds Max Wavefront OBJ Exporter v0.97b - (c)2007 guruware
# File Created: 22.03.2016 13:01:54

#
# object stackingredients3
#

v  29.0000 24.7929 30.0000
v  -29.0000 24.7929 30.0000
v  -29.0000 0.0000 30.0000
v  29.0000 0.0000 30.0000
v  30.0000 24.7929 -29.0000
v  30.0000 24.7929 29.0000
v  30.0000 0.0000 29.0000
v  30.0000 0.0000 -29.0000
v  -29.0000 24.7929 -30.0000
v  29.0000 24.7929 -30.0000
v  29.0000 0.0000 -30.0000
v  -29.0000 0.0000 -30.0000
v  -30.0000 24.7929 29.0000
v  -30.0000 24.7929 -29.0000
v  -30.0000 0.0000 -29.0000
v  -30.0000 0.0000 29.0000
v  28.8367 46.4239 40.5951
v  -28.8367 46.4239 40.5951
v  37.8893 46.4239 -28.8519
v  37.8893 46.4239 28.8519
v  -28.8367 46.4239 -40.5951
v  28.8367 46.4239 -40.5951
v  -37.8893 46.4239 28.8519
v  -37.8893 46.4239 -28.8519
v  28.6346 0.7752 29.1177
v  29.1177 0.7752 28.6346
v  29.1177 0.7752 -28.6346
v  -29.1177 0.7752 28.6346
v  28.6346 0.7752 -29.1177
v  -28.6346 0.7752 -29.1177
v  -29.1177 0.7752 -28.6346
v  -28.6346 0.7752 29.1177
v  -28.6815 24.9901 28.8284
v  28.6815 24.9901 28.8284
v  28.8209 24.9451 28.6845
v  28.8209 24.9451 -28.6845
v  28.6815 24.9901 -28.8284
v  -28.6815 24.9901 -28.8284
v  -28.8209 24.9451 -28.6845
v  -28.8209 24.9451 28.6845
v  -28.8367 46.9649 39.4905
v  28.8367 46.9649 39.4905
v  36.7337 46.8453 28.8519
v  36.7337 46.8453 -28.8519
v  28.8367 46.9649 -39.4905
v  -28.8367 46.9649 -39.4905
v  -36.7337 46.8453 -28.8519
v  -36.7337 46.8453 28.8519
v  10.6974 23.5133 9.2580
v  18.4412 23.5133 9.2580
v  18.4412 23.5133 6.2072
v  10.6974 23.5133 6.2072
v  17.2617 24.7562 -0.0112
v  9.5179 24.7562 -0.0112
v  19.4858 23.4028 -6.2295
v  11.7420 23.4028 -6.2295
v  17.2617 24.7562 -12.4479
v  9.5179 24.7562 -12.4479
v  18.4412 23.5133 -18.6663
v  10.6974 23.5133 -18.6663
v  18.4412 23.5133 -21.7171
v  10.6974 23.5133 -21.7171
v  0.2808 23.5133 9.2580
v  8.0246 23.5133 9.2580
v  8.0246 23.5133 6.2072
v  0.2808 23.5133 6.2072
v  6.8451 24.7562 -0.0112
v  -0.8987 24.7562 -0.0112
v  9.0692 23.4028 -6.2295
v  1.3254 23.4028 -6.2295
v  6.8451 24.7562 -12.4479
v  -0.8987 24.7562 -12.4479
v  8.0246 23.5133 -18.6663
v  0.2808 23.5133 -18.6663
v  8.0246 23.5133 -21.7171
v  0.2808 23.5133 -21.7171
v  -10.2252 23.5133 9.2580
v  -2.4814 23.5133 9.2580
v  -2.4814 23.5133 6.2072
v  -10.2252 23.5133 6.2072
v  -3.6609 24.7562 -0.0112
v  -11.4047 24.7562 -0.0112
v  -1.4368 23.4028 -6.2295
v  -9.1806 23.4028 -6.2295
v  -3.6609 24.7562 -12.4479
v  -11.4047 24.7562 -12.4479
v  -2.4814 23.5133 -18.6663
v  -10.2252 23.5133 -18.6663
v  -2.4814 23.5133 -21.7171
v  -10.2252 23.5133 -21.7171
v  -19.3466 23.5133 9.2580
v  -11.6029 23.5133 9.2580
v  -11.6029 23.5133 6.2072
v  -19.3466 23.5133 6.2072
v  -12.7823 24.7562 -0.0112
v  -20.5261 24.7562 -0.0111
v  -10.5582 23.4028 -6.2295
v  -18.3020 23.4028 -6.2295
v  -12.7823 24.7562 -12.4479
v  -20.5261 24.7562 -12.4479
v  -11.6029 23.5133 -18.6663
v  -19.3466 23.5133 -18.6663
v  -11.6029 23.5133 -21.7171
v  -19.3466 23.5133 -21.7171
v  -15.7164 21.8299 -15.7126
v  -23.4602 21.8299 -15.7126
v  -23.4602 21.8299 -12.6618
v  -15.7164 21.8299 -12.6618
v  -22.2807 23.0728 -6.4434
v  -14.5369 23.0728 -6.4434
v  -24.5048 21.7194 -0.2250
v  -16.7610 21.7194 -0.2250
v  -22.2807 23.0728 5.9934
v  -14.5369 23.0728 5.9934
v  -23.4602 21.8299 12.2118
v  -15.7164 21.8299 12.2118
v  -23.4602 21.8299 15.2626
v  -15.7164 21.8299 15.2626
v  -6.7584 21.8299 -6.6110
v  -14.5021 21.8299 -6.6110
v  -14.5021 21.8299 -3.5602
v  -6.7584 21.8299 -3.5602
v  -13.3226 23.0728 2.6582
v  -5.5789 23.0728 2.6582
v  -15.5468 21.7194 8.8766
v  -7.8030 21.7194 8.8766
v  -13.3226 23.0728 15.0950
v  -5.5789 23.0728 15.0950
v  -14.5021 21.8299 21.3133
v  -6.7583 21.8299 21.3133
v  -14.5021 21.8299 24.3641
v  -6.7583 21.8299 24.3641
v  2.9466 21.8299 -6.6110
v  -4.7971 21.8299 -6.6110
v  -4.7971 21.8299 -3.5602
v  2.9466 21.8299 -3.5602
v  -3.6177 23.0728 2.6582
v  4.1261 23.0728 2.6582
v  -5.8418 21.7194 8.8766
v  1.9020 21.7194 8.8766
v  -3.6177 23.0728 15.0950
v  4.1261 23.0728 15.0950
v  -4.7971 21.8299 21.3133
v  2.9466 21.8299 21.3133
v  -4.7971 21.8299 24.3641
v  2.9466 21.8299 24.3641
v  12.0376 21.8299 -6.6110
v  4.2938 21.8299 -6.6110
v  4.2938 21.8299 -3.5602
v  12.0376 21.8299 -3.5602
v  5.4733 23.0728 2.6582
v  13.2171 23.0728 2.6582
v  3.2492 21.7194 8.8766
v  10.9930 21.7194 8.8766
v  5.4733 23.0728 15.0950
v  13.2171 23.0728 15.0950
v  4.2938 21.8299 21.3133
v  12.0376 21.8299 21.3133
v  4.2938 21.8299 24.3641
v  12.0376 21.8299 24.3641
v  20.8179 21.8299 -11.7302
v  13.0742 21.8299 -11.7302
v  13.0742 21.8299 -8.6794
v  20.8179 21.8299 -8.6794
v  14.2536 23.0728 -2.4610
v  21.9974 23.0728 -2.4610
v  12.0295 21.7194 3.7574
v  19.7733 21.7194 3.7574
v  14.2537 23.0728 9.9757
v  21.9974 23.0728 9.9757
v  13.0742 21.8299 16.1941
v  20.8179 21.8299 16.1941
v  13.0742 21.8299 19.2449
v  20.8179 21.8299 19.2449
v  -12.7131 20.1730 -8.0927
v  -20.4569 20.1730 -8.0927
v  -20.4569 20.1730 -5.0419
v  -12.7131 20.1730 -5.0419
v  -19.2774 21.4159 1.1765
v  -11.5336 21.4159 1.1765
v  -21.5015 20.0625 7.3949
v  -13.7577 20.0625 7.3949
v  -19.2774 21.4159 13.6132
v  -11.5336 21.4159 13.6132
v  -20.4569 20.1730 19.8316
v  -12.7131 20.1730 19.8316
v  -20.4569 20.1730 22.8824
v  -12.7131 20.1730 22.8824
v  -2.2965 20.1730 -8.0927
v  -10.0403 20.1730 -8.0927
v  -10.0403 20.1730 -5.0419
v  -2.2965 20.1730 -5.0419
v  -8.8608 21.4159 1.1765
v  -1.1170 21.4159 1.1765
v  -11.0849 20.0625 7.3949
v  -3.3411 20.0625 7.3949
v  -8.8608 21.4159 13.6132
v  -1.1170 21.4159 13.6132
v  -10.0403 20.1730 19.8316
v  -2.2965 20.1730 19.8316
v  -10.0403 20.1730 22.8824
v  -2.2965 20.1730 22.8824
v  8.2095 20.1730 -8.0927
v  0.4657 20.1730 -8.0927
v  0.4657 20.1730 -5.0419
v  8.2095 20.1730 -5.0419
v  1.6452 21.4159 1.1765
v  9.3890 21.4159 1.1765
v  -0.5789 20.0625 7.3949
v  7.1649 20.0625 7.3949
v  1.6452 21.4159 13.6132
v  9.3890 21.4159 13.6132
v  0.4657 20.1730 19.8316
v  8.2095 20.1730 19.8316
v  0.4657 20.1730 22.8824
v  8.2095 20.1730 22.8824
v  17.3309 20.1730 -8.0927
v  9.5872 20.1730 -8.0927
v  9.5872 20.1730 -5.0419
v  17.3309 20.1730 -5.0419
v  10.7667 21.4159 1.1765
v  18.5104 21.4159 1.1765
v  8.5425 20.0625 7.3949
v  16.2863 20.0625 7.3949
v  10.7667 21.4159 13.6132
v  18.5104 21.4159 13.6132
v  9.5872 20.1730 19.8316
v  17.3310 20.1730 19.8316
v  9.5872 20.1730 22.8824
v  17.3310 20.1730 22.8824
v  13.7007 18.5581 16.8779
v  21.4445 18.5581 16.8779
v  21.4445 18.5581 13.8271
v  13.7007 18.5581 13.8271
v  20.2650 19.8010 7.6087
v  12.5212 19.8010 7.6087
v  22.4891 18.4476 1.3903
v  14.7454 18.4476 1.3903
v  20.2650 19.8010 -4.8281
v  12.5212 19.8010 -4.8281
v  21.4445 18.5581 -11.0465
v  13.7007 18.5581 -11.0465
v  21.4445 18.5581 -14.0973
v  13.7007 18.5581 -14.0973
v  4.7427 18.5581 7.7763
v  12.4864 18.5581 7.7763
v  12.4864 18.5581 4.7255
v  4.7427 18.5581 4.7255
v  11.3070 19.8010 -1.4929
v  3.5632 19.8010 -1.4929
v  13.5311 18.4476 -7.7113
v  5.7873 18.4476 -7.7113
v  11.3070 19.8010 -13.9296
v  3.5632 19.8010 -13.9296
v  12.4864 18.5581 -20.1480
v  4.7427 18.5581 -20.1480
v  12.4864 18.5581 -23.1988
v  4.7427 18.5581 -23.1988
v  -4.9623 18.5581 7.7763
v  2.7815 18.5581 7.7763
v  2.7815 18.5581 4.7255
v  -4.9623 18.5581 4.7255
v  1.6020 19.8010 -1.4929
v  -6.1418 19.8010 -1.4929
v  3.8261 18.4476 -7.7113
v  -3.9177 18.4476 -7.7113
v  1.6020 19.8010 -13.9296
v  -6.1418 19.8010 -13.9296
v  2.7815 18.5581 -20.1480
v  -4.9623 18.5581 -20.1480
v  2.7815 18.5581 -23.1988
v  -4.9623 18.5581 -23.1988
v  -14.0533 18.5581 7.7763
v  -6.3095 18.5581 7.7763
v  -6.3095 18.5581 4.7255
v  -14.0533 18.5581 4.7255
v  -7.4890 19.8010 -1.4929
v  -15.2328 19.8010 -1.4929
v  -5.2649 18.4476 -7.7113
v  -13.0087 18.4476 -7.7113
v  -7.4890 19.8010 -13.9296
v  -15.2328 19.8010 -13.9296
v  -6.3095 18.5581 -20.1480
v  -14.0533 18.5581 -20.1480
v  -6.3095 18.5581 -23.1988
v  -14.0533 18.5581 -23.1988
v  -16.6707 25.2502 -14.9099
v  16.6707 25.2502 -14.9099
v  16.6707 25.2502 -19.7747
v  -16.6707 25.2502 -19.7747
v  -18.1600 25.2502 -20.1947
v  -18.1600 25.2502 -14.4899
v  -17.0906 25.2502 -13.4206
v  17.0906 25.2502 -13.4206
v  18.1600 25.2502 -14.4899
v  18.1600 25.2502 -20.1947
v  17.0906 25.2502 -21.2640
v  -17.0906 25.2502 -21.2640
v  -28.1600 17.9380 -27.0906
v  -28.1600 17.9380 27.0906
v  -27.0906 17.9380 28.1600
v  27.0906 17.9380 -28.1600
v  27.0906 17.9380 28.1600
v  28.1600 17.9380 27.0906
v  28.1600 17.9380 -27.0906
v  -27.0906 17.9380 -28.1600
v  -28.1600 15.8494 -27.0906
v  -28.1600 15.8494 27.0906
v  27.0906 15.8494 -28.1600
v  -27.0906 15.8494 -28.1600
v  28.1600 15.8494 27.0906
v  28.1600 15.8494 -27.0906
v  -27.0906 15.8494 28.1600
v  27.0906 15.8494 28.1600
v  -22.8336 18.5581 12.8955
v  -15.0898 18.5581 12.8955
v  -15.0898 18.5581 9.8447
v  -22.8336 18.5581 9.8447
v  -16.2693 19.8010 3.6263
v  -24.0131 19.8010 3.6263
v  -14.0452 18.4476 -2.5920
v  -21.7890 18.4476 -2.5920
v  -16.2693 19.8010 -8.8104
v  -24.0131 19.8010 -8.8104
v  -15.0898 18.5581 -15.0288
v  -22.8336 18.5581 -15.0288
v  -15.0898 18.5581 -18.0796
v  -22.8336 18.5581 -18.0796
# 328 vertices

vn 0.0000 0.0000 1.0000
vn 1.0000 0.0000 -0.0000
vn 0.0000 -0.0000 -1.0000
vn -1.0000 0.0000 -0.0000
vn 0.0000 -0.4399 0.8981
vn 0.9395 -0.3426 -0.0000
vn 0.0000 -0.4399 -0.8981
vn -0.9395 -0.3426 -0.0000
vn 0.7071 0.0000 0.7071
vn -0.7071 0.0000 0.7071
vn 0.7071 -0.0000 -0.7071
vn -0.7071 -0.0000 -0.7071
vn -0.0000 1.0000 -0.0000
vn -0.0000 1.0000 0.0000
vn 0.0000 1.0000 -0.0000
vn 0.0000 1.0000 0.0000
vn -0.0000 -0.0119 -0.9999
vn 0.0000 -0.0119 -0.9999
vn -0.9999 -0.0123 -0.0000
vn -0.9999 -0.0123 0.0000
vn 0.0000 -0.0119 0.9999
vn 0.9999 -0.0123 -0.0000
vn 0.0000 0.4365 -0.8997
vn -0.9405 0.3398 0.0000
vn 0.0000 0.4365 0.8997
vn 0.9405 0.3398 0.0000
vn -0.7099 -0.0071 -0.7043
vn 0.7099 -0.0071 -0.7043
vn -0.7099 -0.0071 0.7043
vn 0.7099 -0.0071 0.7043
vn 0.9653 0.1202 -0.2317
vn 1.0000 -0.0057 -0.0028
vn 0.9999 -0.0017 -0.0101
vn 0.9625 0.1251 -0.2406
vn 0.0000 0.8981 0.4399
vn -0.9999 0.0094 -0.0047
vn -0.9636 0.1112 -0.2432
vn -0.9655 0.1084 -0.2366
vn -1.0000 0.0061 0.0030
vn -0.2365 0.0923 -0.9672
vn -0.0025 -0.0068 -1.0000
vn -0.0105 -0.0034 -0.9999
vn -0.2457 0.0962 -0.9646
vn 0.3426 0.9395 -0.0000
vn -0.0061 0.0086 0.9999
vn -0.2477 0.0821 0.9654
vn -0.2405 0.0799 0.9674
vn 0.0022 0.0060 1.0000
vn -0.9653 0.1202 0.2317
vn -1.0000 -0.0057 0.0028
vn -0.9999 -0.0017 0.0101
vn -0.9625 0.1251 0.2406
vn 0.0000 0.8981 -0.4399
vn 0.9999 0.0094 0.0047
vn 0.9636 0.1112 0.2432
vn 0.9655 0.1084 0.2366
vn 1.0000 0.0061 -0.0030
vn 0.2365 0.0923 0.9672
vn 0.0025 -0.0068 1.0000
vn 0.0105 -0.0034 0.9999
vn 0.2457 0.0962 0.9646
vn -0.3426 0.9395 -0.0000
vn 0.0061 0.0086 -0.9999
vn 0.2477 0.0821 -0.9654
vn 0.2405 0.0799 -0.9674
vn -0.0022 0.0060 -1.0000
vn 0.2203 0.9719 0.0825
vn 0.3610 0.9307 0.0586
vn 0.1350 0.9862 0.0958
vn 0.1008 0.9898 0.1008
vn -0.1469 0.9891 0.0086
vn -0.1649 0.9755 -0.1454
vn -0.1351 0.9862 0.0959
vn -0.1301 0.9829 0.1301
vn 0.1469 0.9891 -0.0086
vn 0.1649 0.9755 0.1454
vn 0.1351 0.9862 -0.0959
vn 0.1301 0.9829 -0.1301
vn -0.2203 0.9719 -0.0825
vn -0.3610 0.9307 -0.0586
vn -0.1350 0.9862 -0.0958
vn -0.1008 0.9898 -0.1008
vn 0.0000 0.9957 0.0924
vn 0.0000 0.9946 0.1039
vn -0.0000 0.9999 -0.0172
vn 0.0000 1.0000 0.0036
vn 0.0000 0.9999 0.0172
vn -0.0000 1.0000 -0.0036
vn -0.0000 0.9957 -0.0924
vn -0.0000 0.9946 -0.1039
vn 0.0000 1.0000 -0.0036
vn 0.0000 0.9946 -0.1039
vn -0.0000 0.9999 0.0172
vn 0.0000 0.9999 -0.0172
vn -0.0000 1.0000 0.0036
vn 0.0000 0.9957 -0.0924
vn 0.0000 0.0000 -1.0000
vn -0.7071 0.0000 -0.7071
vn 0.7071 0.0000 -0.7071
# 99 vertex normals

vt 0.0514 0.7456 0.0000
vt 0.0388 0.7456 0.0000
vt 0.0388 0.7252 0.0000
vt 0.0514 0.7252 0.0000
vt 0.0548 0.7235 0.0000
vt 0.0548 0.7460 0.0000
vt 0.0389 0.7456 0.0000
vt 0.0389 0.7239 0.0000
vt 0.0627 0.7227 0.0000
vt 0.0627 0.7468 0.0000
vt 0.0427 0.7464 0.0000
vt 0.0427 0.7231 0.0000
vt 0.0381 0.7456 0.0000
vt 0.0381 0.7252 0.0000
vt 0.0521 0.7252 0.0000
vt 0.0521 0.7456 0.0000
vt 0.0386 0.7255 0.0000
vt 0.0386 0.7453 0.0000
vt 0.0516 0.7255 0.0000
vt 0.0516 0.7453 0.0000
vt 0.0524 0.7460 0.0000
vt 0.0524 0.7235 0.0000
vt 0.0528 0.7468 0.0000
vt 0.0528 0.7227 0.0000
vt 0.0025 0.6759 0.0000
vt 0.0285 0.6759 0.0000
vt 0.0285 0.6773 0.0000
vt 0.0025 0.6773 0.0000
vt 0.0285 0.6787 0.0000
vt 0.0025 0.6787 0.0000
vt 0.0285 0.6801 0.0000
vt 0.0025 0.6801 0.0000
vt 0.0285 0.6814 0.0000
vt 0.0025 0.6814 0.0000
vt 0.0285 0.6828 0.0000
vt 0.0025 0.6828 0.0000
vt 0.0285 0.6842 0.0000
vt 0.0025 0.6842 0.0000
vt 0.1948 0.8514 0.0000
vt 0.2115 0.8514 0.0000
vt 0.2115 0.8546 0.0000
vt 0.1948 0.8546 0.0000
vt 0.2934 0.9620 0.0000
vt 0.2934 0.9493 0.0000
vt 0.2935 0.9492 0.0000
vt 0.2935 0.9621 0.0000
vt 0.2936 0.9491 0.0000
vt 0.3064 0.9491 0.0000
vt 0.3066 0.9492 0.0000
vt 0.3067 0.9493 0.0000
vt 0.3067 0.9620 0.0000
vt 0.3066 0.9621 0.0000
vt 0.3064 0.9622 0.0000
vt 0.2936 0.9622 0.0000
vt 0.2274 0.8965 0.0000
vt 0.2274 0.8839 0.0000
vt 0.2277 0.8836 0.0000
vt 0.2405 0.8968 0.0000
vt 0.2405 0.8836 0.0000
vt 0.2407 0.8839 0.0000
vt 0.2407 0.8965 0.0000
vt 0.2277 0.8968 0.0000
# 62 texture coords

g stackingredients3
f 1/1/1 2/2/1 3/3/1 4/4/1 
f 5/1/2 6/2/2 7/3/2 8/4/2 
f 9/1/3 10/2/3 11/3/3 12/4/3 
f 13/1/4 14/2/4 15/3/4 16/4/4 
f 17/5/5 18/6/5 2/7/5 1/8/5 
f 19/9/6 20/10/6 6/11/6 5/12/6 
f 21/5/7 22/6/7 10/7/7 9/8/7 
f 23/9/8 24/10/8 14/11/8 13/12/8 
f 6/2/9 1/13/9 4/14/9 7/3/9 
f 16/4/10 3/15/10 2/16/10 13/1/10 
f 10/2/11 5/13/11 8/14/11 11/3/11 
f 14/2/12 9/13/12 12/14/12 15/3/12 
f 25/3/13 26/17/13 27/18/14 28/19/15 
f 27/18/14 29/2/14 30/1/16 28/19/15 
f 30/1/16 31/20/16 28/19/15 
f 25/3/13 28/19/15 32/4/15 
f 32/3/17 33/2/18 34/1/17 25/4/17 
f 26/3/19 35/2/19 36/1/19 27/4/20 
f 29/3/21 37/2/21 38/1/21 30/4/21 
f 31/3/22 39/2/22 40/1/22 28/4/22 
f 33/7/23 41/21/23 42/22/23 34/8/23 
f 35/11/24 43/23/24 44/24/24 36/12/24 
f 37/7/25 45/21/25 46/22/25 38/8/25 
f 39/11/26 47/23/26 48/24/26 40/12/26 
f 25/14/27 34/13/27 35/2/27 26/3/27 
f 33/16/28 32/15/28 28/4/28 40/1/28 
f 27/14/29 36/13/29 37/2/29 29/3/29 
f 30/14/30 38/13/30 39/2/30 31/3/30 
f 34/8/31 42/22/32 17/22/33 1/8/34 
f 42/22/35 41/21/35 18/21/35 17/22/35 
f 41/21/36 33/7/37 2/7/38 18/21/39 
f 36/12/40 44/9/41 19/9/42 5/12/43 
f 44/9/44 43/10/44 20/10/44 19/9/44 
f 43/10/45 35/11/46 6/11/47 20/10/48 
f 38/8/49 46/22/50 21/22/51 9/8/52 
f 46/22/53 45/21/53 22/21/53 21/22/53 
f 45/21/54 37/7/55 10/7/56 22/21/57 
f 40/12/58 48/9/59 23/9/60 13/12/61 
f 48/9/62 47/10/62 24/10/62 23/9/62 
f 47/10/63 39/11/64 14/11/65 24/10/66 
f 35/2/67 34/13/68 1/13/69 6/2/70 
f 33/16/71 40/1/72 13/1/73 2/16/74 
f 37/2/75 36/13/76 5/13/77 10/2/78 
f 39/2/79 38/13/80 9/13/81 14/2/82 
f 49/25/15 50/26/15 51/27/83 52/28/84 
f 52/28/84 51/27/83 53/29/85 54/30/86 
f 54/30/86 53/29/85 55/31/16 56/32/13 
f 56/32/13 55/31/16 57/33/87 58/34/88 
f 58/34/88 57/33/87 59/35/89 60/36/90 
f 60/36/90 59/35/89 61/37/15 62/38/15 
f 63/25/15 64/26/15 65/27/83 66/28/84 
f 66/28/84 65/27/83 67/29/85 68/30/86 
f 68/30/86 67/29/85 69/31/15 70/32/15 
f 70/32/15 69/31/15 71/33/87 72/34/91 
f 72/34/91 71/33/87 73/35/89 74/36/92 
f 74/36/92 73/35/89 75/37/15 76/38/15 
f 77/25/15 78/26/15 79/27/83 80/28/84 
f 80/28/84 79/27/83 81/29/85 82/30/86 
f 82/30/86 81/29/85 83/31/16 84/32/13 
f 84/32/13 83/31/16 85/33/87 86/34/88 
f 86/34/88 85/33/87 87/35/89 88/36/90 
f 88/36/90 87/35/89 89/37/15 90/38/15 
f 91/25/15 92/26/15 93/27/83 94/28/84 
f 94/28/84 93/27/83 95/29/85 96/30/86 
f 96/30/86 95/29/85 97/31/15 98/32/15 
f 98/32/15 97/31/15 99/33/87 100/34/88 
f 100/34/88 99/33/87 101/35/89 102/36/90 
f 102/36/90 101/35/89 103/37/15 104/38/15 
f 105/25/15 106/26/15 107/27/89 108/28/90 
f 108/28/90 107/27/89 109/29/93 110/30/88 
f 110/30/88 109/29/93 111/31/15 112/32/13 
f 112/32/13 111/31/15 113/33/85 114/34/86 
f 114/34/86 113/33/85 115/35/83 116/36/84 
f 116/36/84 115/35/83 117/37/15 118/38/15 
f 119/25/15 120/26/15 121/27/89 122/28/90 
f 122/28/90 121/27/89 123/29/93 124/30/88 
f 124/30/88 123/29/93 125/31/16 126/32/13 
f 126/32/13 125/31/16 127/33/94 128/34/86 
f 128/34/86 127/33/94 129/35/83 130/36/84 
f 130/36/84 129/35/83 131/37/15 132/38/15 
f 133/25/15 134/26/15 135/27/89 136/28/90 
f 136/28/90 135/27/89 137/29/93 138/30/88 
f 138/30/88 137/29/93 139/31/16 140/32/13 
f 140/32/13 139/31/16 141/33/94 142/34/86 
f 142/34/86 141/33/94 143/35/83 144/36/84 
f 144/36/84 143/35/83 145/37/15 146/38/15 
f 147/25/15 148/26/15 149/27/89 150/28/90 
f 150/28/90 149/27/89 151/29/93 152/30/88 
f 152/30/88 151/29/93 153/31/16 154/32/13 
f 154/32/13 153/31/16 155/33/94 156/34/86 
f 156/34/86 155/33/94 157/35/83 158/36/84 
f 158/36/84 157/35/83 159/37/15 160/38/15 
f 161/25/15 162/26/15 163/27/89 164/28/90 
f 164/28/90 163/27/89 165/29/93 166/30/88 
f 166/30/88 165/29/93 167/31/16 168/32/16 
f 168/32/16 167/31/16 169/33/85 170/34/95 
f 170/34/95 169/33/85 171/35/83 172/36/84 
f 172/36/84 171/35/83 173/37/15 174/38/15 
f 175/25/15 176/26/15 177/27/89 178/28/90 
f 178/28/90 177/27/89 179/29/93 180/30/88 
f 180/30/88 179/29/93 181/31/13 182/32/13 
f 182/32/13 181/31/13 183/33/85 184/34/86 
f 184/34/86 183/33/85 185/35/83 186/36/84 
f 186/36/84 185/35/83 187/37/15 188/38/15 
f 189/25/15 190/26/15 191/27/89 192/28/90 
f 192/28/90 191/27/89 193/29/93 194/30/88 
f 194/30/88 193/29/93 195/31/13 196/32/13 
f 196/32/13 195/31/13 197/33/85 198/34/86 
f 198/34/86 197/33/85 199/35/83 200/36/84 
f 200/36/84 199/35/83 201/37/15 202/38/15 
f 203/25/15 204/26/15 205/27/89 206/28/90 
f 206/28/90 205/27/89 207/29/93 208/30/88 
f 208/30/88 207/29/93 209/31/13 210/32/16 
f 210/32/16 209/31/13 211/33/85 212/34/86 
f 212/34/86 211/33/85 213/35/83 214/36/84 
f 214/36/84 213/35/83 215/37/15 216/38/15 
f 217/25/15 218/26/15 219/27/89 220/28/90 
f 220/28/90 219/27/89 221/29/93 222/30/88 
f 222/30/88 221/29/93 223/31/16 224/32/16 
f 224/32/16 223/31/16 225/33/85 226/34/95 
f 226/34/95 225/33/85 227/35/83 228/36/84 
f 228/36/84 227/35/83 229/37/15 230/38/15 
f 231/25/15 232/26/15 233/27/83 234/28/84 
f 234/28/84 233/27/83 235/29/94 236/30/86 
f 236/30/86 235/29/94 237/31/15 238/32/15 
f 238/32/15 237/31/15 239/33/87 240/34/91 
f 240/34/91 239/33/87 241/35/96 242/36/92 
f 242/36/92 241/35/96 243/37/15 244/38/15 
f 245/25/15 246/26/15 247/27/83 248/28/84 
f 248/28/84 247/27/83 249/29/94 250/30/86 
f 250/30/86 249/29/94 251/31/15 252/32/15 
f 252/32/15 251/31/15 253/33/87 254/34/91 
f 254/34/91 253/33/87 255/35/96 256/36/92 
f 256/36/92 255/35/96 257/37/15 258/38/15 
f 259/25/15 260/26/15 261/27/83 262/28/84 
f 262/28/84 261/27/83 263/29/94 264/30/86 
f 264/30/86 263/29/94 265/31/15 266/32/15 
f 266/32/15 265/31/15 267/33/87 268/34/91 
f 268/34/91 267/33/87 269/35/96 270/36/92 
f 270/36/92 269/35/96 271/37/15 272/38/15 
f 273/25/15 274/26/15 275/27/83 276/28/84 
f 276/28/84 275/27/83 277/29/94 278/30/86 
f 278/30/86 277/29/94 279/31/15 280/32/15 
f 280/32/15 279/31/15 281/33/87 282/34/91 
f 282/34/91 281/33/87 283/35/96 284/36/92 
f 284/36/92 283/35/96 285/37/15 286/38/15 
f 287/39/15 288/40/15 289/41/15 290/42/15 
f 291/43/15 292/44/15 287/45/15 290/46/15 
f 292/44/15 293/47/15 287/45/15 
f 293/47/15 294/48/15 288/49/15 287/45/15 
f 294/48/15 295/50/15 288/49/15 
f 295/50/15 296/51/15 289/52/15 288/49/15 
f 296/51/15 297/53/15 289/52/15 
f 297/53/15 298/54/15 290/46/15 289/52/15 
f 298/54/15 291/43/15 290/46/15 
f 299/55/15 300/56/15 301/57/15 302/58/15 
f 301/57/15 303/59/15 304/60/15 302/58/15 
f 304/60/15 305/61/15 302/58/15 
f 306/62/15 299/55/15 302/58/15 
f 300/56/4 299/55/4 307/55/4 308/56/4 
f 306/62/97 302/58/97 309/58/97 310/62/97 
f 305/61/2 304/60/2 311/60/2 312/61/2 
f 303/59/1 301/57/1 313/57/1 314/59/1 
f 301/57/10 300/56/10 308/56/10 313/57/10 
f 304/60/9 303/59/9 314/59/9 311/60/9 
f 299/55/98 306/62/98 310/62/98 307/55/98 
f 302/58/99 305/61/99 312/61/99 309/58/99 
f 315/25/15 316/26/15 317/27/83 318/28/84 
f 318/28/84 317/27/83 319/29/94 320/30/86 
f 320/30/86 319/29/94 321/31/15 322/32/15 
f 322/32/15 321/31/15 323/33/87 324/34/91 
f 324/34/91 323/33/87 325/35/96 326/36/92 
f 326/36/92 325/35/96 327/37/15 328/38/15 
# 165 polygons - 8 triangles

