# 3ds Max Wavefront OBJ Exporter v0.97b - (c)2007 guruware
# File Created: 22.03.2016 12:19:18

#
# object stackgirderb
#

v  47.3448 13.2395 -45.8294
v  -47.3448 13.2395 -45.8294
v  -47.3448 13.2395 -24.2195
v  47.3448 13.2395 -24.2195
v  -47.3448 10.5599 -24.2195
v  47.3448 10.5599 -24.2195
v  47.3448 10.5599 -33.6847
v  -47.3448 10.5599 -33.6847
v  -47.3448 2.7601 -33.6847
v  47.3448 2.7601 -33.6847
v  -47.3448 2.7601 -24.2195
v  47.3448 2.7601 -24.2195
v  -47.3448 0.0805 -24.2195
v  47.3448 0.0805 -24.2195
v  47.3448 0.0805 -45.8294
v  -47.3448 0.0805 -45.8294
v  -47.3448 2.7601 -45.8294
v  47.3448 2.7601 -45.8294
v  -47.3448 2.7601 -36.3643
v  47.3448 2.7601 -36.3643
v  -47.3448 10.5599 -36.3643
v  47.3448 10.5599 -36.3643
v  47.3448 10.5599 -45.8294
v  -47.3448 10.5599 -45.8294
v  47.3448 13.2395 -22.6161
v  -47.3448 13.2395 -22.6161
v  -47.3448 13.2395 -1.0062
v  47.3448 13.2395 -1.0062
v  -47.3448 10.5599 -1.0062
v  47.3448 10.5599 -1.0062
v  47.3448 10.5599 -10.4714
v  -47.3448 10.5599 -10.4714
v  -47.3448 2.7601 -10.4714
v  47.3448 2.7601 -10.4714
v  -47.3448 2.7601 -1.0062
v  47.3448 2.7601 -1.0062
v  -47.3448 0.0805 -1.0062
v  47.3448 0.0805 -1.0062
v  47.3448 0.0805 -22.6161
v  -47.3448 0.0805 -22.6161
v  -47.3448 2.7601 -22.6161
v  47.3448 2.7601 -22.6161
v  -47.3448 2.7601 -13.1510
v  47.3448 2.7601 -13.1510
v  -47.3448 10.5599 -13.1510
v  47.3448 10.5599 -13.1510
v  47.3448 10.5599 -22.6161
v  -47.3448 10.5599 -22.6161
v  47.3448 13.2395 1.2173
v  -47.3448 13.2395 1.2173
v  -47.3448 13.2395 22.8272
v  47.3448 13.2395 22.8272
v  -47.3448 10.5599 22.8272
v  47.3448 10.5599 22.8272
v  47.3448 10.5599 13.3621
v  -47.3448 10.5599 13.3620
v  -47.3448 2.7601 13.3620
v  47.3448 2.7601 13.3621
v  -47.3448 2.7601 22.8272
v  47.3448 2.7601 22.8272
v  -47.3448 0.0805 22.8272
v  47.3448 0.0805 22.8272
v  47.3448 0.0805 1.2173
v  -47.3448 0.0805 1.2173
v  -47.3448 2.7601 1.2173
v  47.3448 2.7601 1.2173
v  -47.3448 2.7601 10.6824
v  47.3448 2.7601 10.6825
v  -47.3448 10.5599 10.6824
v  47.3448 10.5599 10.6825
v  47.3448 10.5599 1.2173
v  -47.3448 10.5599 1.2173
v  47.3448 13.2395 24.3273
v  -47.3448 13.2395 24.3273
v  -47.3448 13.2395 45.9373
v  47.3448 13.2395 45.9373
v  -47.3448 10.5599 45.9373
v  47.3448 10.5599 45.9373
v  47.3448 10.5599 36.4721
v  -47.3448 10.5599 36.4721
v  -47.3448 2.7601 36.4721
v  47.3448 2.7601 36.4721
v  -47.3448 2.7601 45.9373
v  47.3448 2.7601 45.9373
v  -47.3448 0.0805 45.9373
v  47.3448 0.0805 45.9373
v  47.3448 0.0805 24.3273
v  -47.3448 0.0805 24.3273
v  -47.3448 2.7601 24.3273
v  47.3448 2.7601 24.3273
v  -47.3448 2.7601 33.7925
v  47.3448 2.7601 33.7925
v  -47.3448 10.5599 33.7925
v  47.3448 10.5599 33.7925
v  47.3448 10.5599 24.3273
v  -47.3448 10.5599 24.3273
v  22.6959 26.9144 47.4245
v  22.6959 26.9144 -47.2651
v  1.0859 26.9144 -47.2651
v  1.0859 26.9144 47.4245
v  1.0859 24.2348 -47.2651
v  1.0859 24.2348 47.4245
v  10.5511 24.2348 47.4245
v  10.5511 24.2348 -47.2651
v  10.5511 16.4350 -47.2651
v  10.5511 16.4350 47.4245
v  1.0859 16.4350 -47.2651
v  1.0859 16.4350 47.4245
v  1.0859 13.7554 -47.2651
v  1.0859 13.7554 47.4245
v  22.6959 13.7554 47.4245
v  22.6959 13.7554 -47.2651
v  22.6959 16.4350 -47.2651
v  22.6959 16.4350 47.4245
v  13.2307 16.4350 -47.2651
v  13.2307 16.4350 47.4245
v  13.2307 24.2348 -47.2651
v  13.2307 24.2348 47.4245
v  22.6959 24.2348 47.4245
v  22.6959 24.2348 -47.2651
v  -1.1375 26.9144 47.4245
v  -1.1375 26.9144 -47.2651
v  -22.7475 26.9144 -47.2651
v  -22.7475 26.9144 47.4245
v  -22.7475 24.2348 -47.2651
v  -22.7475 24.2348 47.4245
v  -13.2823 24.2348 47.4245
v  -13.2823 24.2348 -47.2651
v  -13.2823 16.4350 -47.2651
v  -13.2823 16.4350 47.4245
v  -22.7475 16.4350 -47.2651
v  -22.7475 16.4350 47.4245
v  -22.7475 13.7554 -47.2651
v  -22.7475 13.7554 47.4245
v  -1.1375 13.7554 47.4245
v  -1.1375 13.7554 -47.2651
v  -1.1375 16.4350 -47.2651
v  -1.1375 16.4350 47.4245
v  -10.6027 16.4350 -47.2651
v  -10.6027 16.4350 47.4245
v  -10.6027 24.2348 -47.2651
v  -10.6027 24.2348 47.4245
v  -1.1375 24.2348 47.4245
v  -1.1375 24.2348 -47.2651
v  -24.2476 26.9144 47.4245
v  -24.2476 26.9144 -47.2651
v  -45.8575 26.9144 -47.2651
v  -45.8575 26.9144 47.4245
v  -45.8575 24.2348 -47.2651
v  -45.8575 24.2348 47.4245
v  -36.3924 24.2348 47.4245
v  -36.3924 24.2348 -47.2651
v  -36.3924 16.4350 -47.2651
v  -36.3924 16.4350 47.4245
v  -45.8575 16.4350 -47.2651
v  -45.8575 16.4350 47.4245
v  -45.8575 13.7554 -47.2651
v  -45.8575 13.7554 47.4245
v  -24.2476 13.7554 47.4245
v  -24.2476 13.7554 -47.2651
v  -24.2476 16.4350 -47.2651
v  -24.2476 16.4350 47.4245
v  -33.7128 16.4350 -47.2651
v  -33.7128 16.4350 47.4245
v  -33.7128 24.2348 -47.2651
v  -33.7128 24.2348 47.4245
v  -24.2476 24.2348 47.4245
v  -24.2476 24.2348 -47.2651
# 168 vertices

vn 0.0000 1.0000 -0.0000
vn -0.0000 0.0000 1.0000
vn 0.0000 0.0000 -1.0000
vn 1.0000 -0.0000 0.0000
vn 1.0000 -0.0000 -0.0000
vn 1.0000 0.0000 0.0000
vn -1.0000 0.0000 -0.0000
vn -1.0000 0.0000 0.0000
vn -0.0000 0.0000 -1.0000
# 9 vertex normals

vt 0.0394 0.6574 0.0000
vt 0.0394 0.6666 0.0000
vt 0.0423 0.6666 0.0000
vt 0.0423 0.6574 0.0000
vt 0.0427 0.6666 0.0000
vt 0.0427 0.6574 0.0000
vt 0.0595 0.6408 0.0000
vt 0.0337 0.6408 0.0000
vt 0.0337 0.6460 0.0000
vt 0.0595 0.6460 0.0000
vt 0.0376 0.6476 0.0000
vt 0.0573 0.6476 0.0000
vt 0.0573 0.6501 0.0000
vt 0.0376 0.6501 0.0000
vt 0.0463 0.6574 0.0000
vt 0.0463 0.6666 0.0000
vt 0.0467 0.6666 0.0000
vt 0.0467 0.6574 0.0000
vt 0.0496 0.6574 0.0000
vt 0.0496 0.6666 0.0000
vt 0.0500 0.6666 0.0000
vt 0.0500 0.6574 0.0000
vt 0.0573 0.6502 0.0000
vt 0.0375 0.6502 0.0000
vt 0.0375 0.6476 0.0000
vt 0.0337 0.6461 0.0000
vt 0.0595 0.6461 0.0000
vt 0.0536 0.6574 0.0000
vt 0.0536 0.6666 0.0000
vt 0.0539 0.6666 0.0000
vt 0.0539 0.6574 0.0000
# 31 texture coords

g stackgirderb
f 1/1/1 2/2/1 3/3/1 4/4/1 
f 4/4/2 3/3/2 5/5/2 6/6/2 
f 7/7/2 8/8/2 9/9/2 10/10/2 
f 10/11/1 9/12/1 11/13/1 12/14/1 
f 12/15/2 11/16/2 13/17/2 14/18/2 
f 15/19/3 16/20/3 17/21/3 18/22/3 
f 18/23/1 17/24/1 19/25/1 20/12/1 
f 20/26/3 19/27/3 21/7/3 22/8/3 
f 23/28/3 24/29/3 2/30/3 1/31/3 
f 4/1/4 6/1/4 7/1/4 22/1/5 
f 10/1/6 12/1/6 14/1/6 20/1/6 
f 15/1/6 18/1/6 20/1/6 14/1/6 
f 7/1/4 10/1/6 20/1/6 22/1/5 
f 22/1/5 23/1/6 1/1/4 4/1/4 
f 19/1/7 17/1/7 16/1/7 13/1/7 
f 13/1/7 11/1/7 9/1/7 19/1/7 
f 19/1/7 9/1/7 8/1/7 21/1/8 
f 8/1/7 5/1/7 3/1/7 21/1/8 
f 2/1/7 24/1/7 21/1/8 3/1/7 
f 25/1/1 26/2/1 27/3/1 28/4/1 
f 28/4/2 27/3/2 29/5/2 30/6/2 
f 31/7/2 32/8/2 33/9/2 34/10/2 
f 34/11/1 33/12/1 35/13/1 36/14/1 
f 36/15/2 35/16/2 37/17/2 38/18/2 
f 39/19/3 40/20/3 41/21/3 42/22/3 
f 42/23/1 41/24/1 43/25/1 44/12/1 
f 44/26/3 43/27/3 45/7/3 46/8/3 
f 47/28/3 48/29/3 26/30/3 25/31/3 
f 28/1/4 30/1/4 31/1/4 46/1/5 
f 34/1/6 36/1/6 38/1/6 44/1/6 
f 39/1/6 42/1/6 44/1/6 38/1/6 
f 31/1/4 34/1/6 44/1/6 46/1/5 
f 46/1/5 47/1/6 25/1/4 28/1/4 
f 43/1/7 41/1/7 40/1/7 37/1/7 
f 37/1/7 35/1/7 33/1/7 43/1/7 
f 43/1/7 33/1/7 32/1/7 45/1/8 
f 32/1/7 29/1/7 27/1/7 45/1/8 
f 26/1/7 48/1/7 45/1/8 27/1/7 
f 49/1/1 50/2/1 51/3/1 52/4/1 
f 52/4/2 51/3/2 53/5/2 54/6/2 
f 55/7/2 56/8/2 57/9/2 58/10/2 
f 58/11/1 57/12/1 59/13/1 60/14/1 
f 60/15/2 59/16/2 61/17/2 62/18/2 
f 63/19/3 64/20/3 65/21/3 66/22/3 
f 66/23/1 65/24/1 67/25/1 68/12/1 
f 68/26/3 67/27/3 69/7/3 70/8/3 
f 71/28/3 72/29/3 50/30/3 49/31/3 
f 52/1/4 54/1/4 55/1/4 70/1/5 
f 58/1/6 60/1/6 62/1/6 68/1/6 
f 63/1/6 66/1/6 68/1/6 62/1/6 
f 55/1/4 58/1/6 68/1/6 70/1/5 
f 70/1/5 71/1/6 49/1/4 52/1/4 
f 67/1/7 65/1/7 64/1/7 61/1/7 
f 61/1/7 59/1/7 57/1/7 67/1/7 
f 67/1/7 57/1/7 56/1/7 69/1/8 
f 56/1/7 53/1/7 51/1/7 69/1/8 
f 50/1/7 72/1/7 69/1/8 51/1/7 
f 73/1/1 74/2/1 75/3/1 76/4/1 
f 76/4/2 75/3/2 77/5/2 78/6/2 
f 79/7/2 80/8/2 81/9/2 82/10/2 
f 82/11/1 81/12/1 83/13/1 84/14/1 
f 84/15/2 83/16/2 85/17/2 86/18/2 
f 87/19/3 88/20/3 89/21/3 90/22/3 
f 90/23/1 89/24/1 91/25/1 92/12/1 
f 92/26/3 91/27/3 93/7/3 94/8/3 
f 95/28/3 96/29/3 74/30/3 73/31/3 
f 76/1/4 78/1/4 79/1/4 94/1/5 
f 82/1/6 84/1/6 86/1/6 92/1/6 
f 87/1/6 90/1/6 92/1/6 86/1/6 
f 79/1/4 82/1/6 92/1/6 94/1/5 
f 94/1/5 95/1/6 73/1/4 76/1/4 
f 91/1/7 89/1/7 88/1/7 85/1/7 
f 85/1/7 83/1/7 81/1/7 91/1/7 
f 91/1/7 81/1/7 80/1/7 93/1/8 
f 80/1/7 77/1/7 75/1/7 93/1/8 
f 74/1/7 96/1/7 93/1/8 75/1/7 
f 97/1/1 98/2/1 99/3/1 100/4/1 
f 100/4/7 99/3/7 101/5/7 102/6/7 
f 103/7/7 104/8/7 105/9/7 106/10/7 
f 106/11/1 105/12/1 107/13/1 108/14/1 
f 108/15/7 107/16/7 109/17/7 110/18/7 
f 111/19/6 112/20/6 113/21/6 114/22/6 
f 114/23/1 113/24/1 115/25/1 116/12/1 
f 116/26/6 115/27/6 117/7/6 118/8/6 
f 119/28/6 120/29/6 98/30/6 97/31/6 
f 100/1/2 102/1/2 103/1/2 118/1/2 
f 106/1/2 108/1/2 110/1/2 116/1/2 
f 111/1/2 114/1/2 116/1/2 110/1/2 
f 103/1/2 106/1/2 116/1/2 118/1/2 
f 118/1/2 119/1/2 97/1/2 100/1/2 
f 115/1/3 113/1/3 112/1/3 109/1/3 
f 109/1/3 107/1/3 105/1/3 115/1/3 
f 115/1/3 105/1/3 104/1/3 117/1/9 
f 104/1/3 101/1/3 99/1/3 117/1/9 
f 98/1/3 120/1/3 117/1/9 99/1/3 
f 121/1/1 122/2/1 123/3/1 124/4/1 
f 124/4/7 123/3/7 125/5/7 126/6/7 
f 127/7/7 128/8/7 129/9/7 130/10/7 
f 130/11/1 129/12/1 131/13/1 132/14/1 
f 132/15/7 131/16/7 133/17/7 134/18/7 
f 135/19/6 136/20/6 137/21/6 138/22/6 
f 138/23/1 137/24/1 139/25/1 140/12/1 
f 140/26/6 139/27/6 141/7/6 142/8/6 
f 143/28/6 144/29/6 122/30/6 121/31/6 
f 124/1/2 126/1/2 127/1/2 142/1/2 
f 130/1/2 132/1/2 134/1/2 140/1/2 
f 135/1/2 138/1/2 140/1/2 134/1/2 
f 127/1/2 130/1/2 140/1/2 142/1/2 
f 142/1/2 143/1/2 121/1/2 124/1/2 
f 139/1/3 137/1/3 136/1/3 133/1/3 
f 133/1/3 131/1/3 129/1/3 139/1/3 
f 139/1/3 129/1/3 128/1/3 141/1/9 
f 128/1/3 125/1/3 123/1/3 141/1/9 
f 122/1/3 144/1/3 141/1/9 123/1/3 
f 145/1/1 146/2/1 147/3/1 148/4/1 
f 148/4/7 147/3/7 149/5/7 150/6/7 
f 151/7/7 152/8/7 153/9/7 154/10/7 
f 154/11/1 153/12/1 155/13/1 156/14/1 
f 156/15/7 155/16/7 157/17/7 158/18/7 
f 159/19/6 160/20/6 161/21/6 162/22/6 
f 162/23/1 161/24/1 163/25/1 164/12/1 
f 164/26/6 163/27/6 165/7/6 166/8/6 
f 167/28/6 168/29/6 146/30/6 145/31/6 
f 148/1/2 150/1/2 151/1/2 166/1/2 
f 154/1/2 156/1/2 158/1/2 164/1/2 
f 159/1/2 162/1/2 164/1/2 158/1/2 
f 151/1/2 154/1/2 164/1/2 166/1/2 
f 166/1/2 167/1/2 145/1/2 148/1/2 
f 163/1/3 161/1/3 160/1/3 157/1/3 
f 157/1/3 155/1/3 153/1/3 163/1/3 
f 163/1/3 153/1/3 152/1/3 165/1/9 
f 152/1/3 149/1/3 147/1/3 165/1/9 
f 146/1/3 168/1/3 165/1/9 147/1/3 
# 133 polygons

