# 3ds Max Wavefront OBJ Exporter v0.97b - (c)2007 guruware
# File Created: 12.06.2017 18:03:03

#
# object stacksheetmetalb
#

v  99.1328 5.0716 -93.5672
v  -89.3472 5.0716 -99.1279
v  -89.3472 8.0716 -99.1279
v  99.1328 8.0716 -93.5672
v  -94.9079 5.0716 89.3520
v  -94.9079 8.0716 89.3520
v  93.5720 5.0716 94.9128
v  93.5720 8.0716 94.9128
v  93.6024 10.1432 -96.7678
v  -94.9373 10.1432 -93.8713
v  -94.9373 13.1432 -93.8713
v  93.6024 13.1432 -96.7678
v  -92.0408 10.1432 94.6684
v  -92.0408 13.1432 94.6684
v  96.4989 10.1432 91.7719
v  96.4989 13.1432 91.7719
v  94.6536 15.2148 -96.5564
v  -93.8861 15.2148 -93.6599
v  -93.8861 18.2148 -93.6599
v  94.6536 18.2148 -96.5564
v  -90.9896 15.2148 94.8798
v  -90.9896 18.2148 94.8798
v  97.5501 15.2148 91.9833
v  97.5501 18.2148 91.9833
v  95.7181 0.0000 -92.8216
v  -92.8216 0.0000 -95.7181
v  -92.8216 3.0000 -95.7181
v  95.7181 3.0000 -92.8216
v  -95.7181 0.0000 92.8216
v  -95.7181 3.0000 92.8216
v  92.8216 0.0000 95.7181
v  92.8216 3.0000 95.7181
# 32 vertices

vn 0.0295 0.0000 -0.9996
vn -0.9996 0.0000 -0.0295
vn -0.0295 0.0000 0.9996
vn 0.9996 0.0000 0.0295
vn 0.0000 1.0000 -0.0000
vn -0.0154 0.0000 -0.9999
vn -0.9999 0.0000 0.0154
vn 0.0154 0.0000 0.9999
vn 0.9999 0.0000 -0.0154
vn 0.0154 0.0000 -0.9999
vn -0.9999 0.0000 -0.0154
vn -0.0154 0.0000 0.9999
vn 0.9999 0.0000 0.0154
# 13 vertex normals

vt 0.3569 0.5294 0.0000
vt 0.3570 0.5313 0.0000
vt 0.3363 0.5313 0.0000
vt 0.3361 0.5294 0.0000
vt 0.3618 0.5722 0.0000
vt 0.3778 0.5562 0.0000
vt 0.3939 0.5721 0.0000
vt 0.3779 0.5881 0.0000
# 8 texture coords

g stacksheetmetalb
s 1
f 1/1/1 2/2/1 3/2/1 4/1/1 
s 4
f 2/2/2 5/3/2 6/3/2 3/2/2 
s 2
f 5/3/3 7/4/3 8/4/3 6/3/3 
s 4
f 7/4/4 1/1/4 4/1/4 8/4/4 
s 16
f 6/5/5 8/6/5 4/7/5 3/8/5 
s 1
f 9/1/6 10/2/6 11/2/6 12/1/6 
s 4
f 10/2/7 13/3/7 14/3/7 11/2/7 
s 2
f 13/3/8 15/4/8 16/4/8 14/3/8 
s 4
f 15/4/9 9/1/9 12/1/9 16/4/9 
s 16
f 14/5/5 16/6/5 12/7/5 11/8/5 
s 1
f 17/1/6 18/2/6 19/2/6 20/1/6 
s 4
f 18/2/7 21/3/7 22/3/7 19/2/7 
s 2
f 21/3/8 23/4/8 24/4/8 22/3/8 
s 4
f 23/4/9 17/1/9 20/1/9 24/4/9 
s 16
f 22/5/5 24/6/5 20/7/5 19/8/5 
s 1
f 25/1/10 26/2/10 27/2/10 28/1/10 
s 4
f 26/2/11 29/3/11 30/3/11 27/2/11 
s 2
f 29/3/12 31/4/12 32/4/12 30/3/12 
s 4
f 31/4/13 25/1/13 28/1/13 32/4/13 
s 16
f 30/5/5 32/6/5 28/7/5 27/8/5 
# 20 polygons

