# 3ds Max Wavefront OBJ Exporter v0.97b - (c)2007 guruware
# File Created: 22.03.2016 12:19:38

#
# object stackgirderc
#

v  47.3448 13.2395 -45.8294
v  -47.3448 13.2395 -45.8294
v  -47.3448 13.2395 -24.2195
v  47.3448 13.2395 -24.2195
v  -47.3448 10.5599 -24.2195
v  47.3448 10.5599 -24.2195
v  47.3448 10.5599 -33.6847
v  -47.3448 10.5599 -33.6847
v  -47.3448 2.7601 -33.6847
v  47.3448 2.7601 -33.6847
v  -47.3448 2.7601 -24.2195
v  47.3448 2.7601 -24.2195
v  -47.3448 0.0805 -24.2195
v  47.3448 0.0805 -24.2195
v  47.3448 0.0805 -45.8294
v  -47.3448 0.0805 -45.8294
v  -47.3448 2.7601 -45.8294
v  47.3448 2.7601 -45.8294
v  -47.3448 2.7601 -36.3643
v  47.3448 2.7601 -36.3643
v  -47.3448 10.5599 -36.3643
v  47.3448 10.5599 -36.3643
v  47.3448 10.5599 -45.8294
v  -47.3448 10.5599 -45.8294
v  47.3448 13.2395 -22.6161
v  -47.3448 13.2395 -22.6161
v  -47.3448 13.2395 -1.0062
v  47.3448 13.2395 -1.0062
v  -47.3448 10.5599 -1.0062
v  47.3448 10.5599 -1.0062
v  47.3448 10.5599 -10.4714
v  -47.3448 10.5599 -10.4714
v  -47.3448 2.7601 -10.4714
v  47.3448 2.7601 -10.4714
v  -47.3448 2.7601 -1.0062
v  47.3448 2.7601 -1.0062
v  -47.3448 0.0805 -1.0062
v  47.3448 0.0805 -1.0062
v  47.3448 0.0805 -22.6161
v  -47.3448 0.0805 -22.6161
v  -47.3448 2.7601 -22.6161
v  47.3448 2.7601 -22.6161
v  -47.3448 2.7601 -13.1510
v  47.3448 2.7601 -13.1510
v  -47.3448 10.5599 -13.1510
v  47.3448 10.5599 -13.1510
v  47.3448 10.5599 -22.6161
v  -47.3448 10.5599 -22.6161
v  47.3448 13.2395 1.2173
v  -47.3448 13.2395 1.2173
v  -47.3448 13.2395 22.8272
v  47.3448 13.2395 22.8272
v  -47.3448 10.5599 22.8272
v  47.3448 10.5599 22.8272
v  47.3448 10.5599 13.3621
v  -47.3448 10.5599 13.3620
v  -47.3448 2.7601 13.3620
v  47.3448 2.7601 13.3621
v  -47.3448 2.7601 22.8272
v  47.3448 2.7601 22.8272
v  -47.3448 0.0805 22.8272
v  47.3448 0.0805 22.8272
v  47.3448 0.0805 1.2173
v  -47.3448 0.0805 1.2173
v  -47.3448 2.7601 1.2173
v  47.3448 2.7601 1.2173
v  -47.3448 2.7601 10.6824
v  47.3448 2.7601 10.6825
v  -47.3448 10.5599 10.6824
v  47.3448 10.5599 10.6825
v  47.3448 10.5599 1.2173
v  -47.3448 10.5599 1.2173
v  47.3448 13.2395 24.3273
v  -47.3448 13.2395 24.3273
v  -47.3448 13.2395 45.9373
v  47.3448 13.2395 45.9373
v  -47.3448 10.5599 45.9373
v  47.3448 10.5599 45.9373
v  47.3448 10.5599 36.4721
v  -47.3448 10.5599 36.4721
v  -47.3448 2.7601 36.4721
v  47.3448 2.7601 36.4721
v  -47.3448 2.7601 45.9373
v  47.3448 2.7601 45.9373
v  -47.3448 0.0805 45.9373
v  47.3448 0.0805 45.9373
v  47.3448 0.0805 24.3273
v  -47.3448 0.0805 24.3273
v  -47.3448 2.7601 24.3273
v  47.3448 2.7601 24.3273
v  -47.3448 2.7601 33.7925
v  47.3448 2.7601 33.7925
v  -47.3448 10.5599 33.7925
v  47.3448 10.5599 33.7925
v  47.3448 10.5599 24.3273
v  -47.3448 10.5599 24.3273
# 96 vertices

vn 0.0000 1.0000 -0.0000
vn -0.0000 0.0000 1.0000
vn 0.0000 0.0000 -1.0000
vn 1.0000 -0.0000 0.0000
vn 1.0000 -0.0000 -0.0000
vn 1.0000 0.0000 0.0000
vn -1.0000 0.0000 -0.0000
vn -1.0000 0.0000 0.0000
# 8 vertex normals

vt 0.0394 0.6574 0.0000
vt 0.0394 0.6666 0.0000
vt 0.0423 0.6666 0.0000
vt 0.0423 0.6574 0.0000
vt 0.0427 0.6666 0.0000
vt 0.0427 0.6574 0.0000
vt 0.0595 0.6408 0.0000
vt 0.0337 0.6408 0.0000
vt 0.0337 0.6460 0.0000
vt 0.0595 0.6460 0.0000
vt 0.0376 0.6476 0.0000
vt 0.0573 0.6476 0.0000
vt 0.0573 0.6501 0.0000
vt 0.0376 0.6501 0.0000
vt 0.0463 0.6574 0.0000
vt 0.0463 0.6666 0.0000
vt 0.0467 0.6666 0.0000
vt 0.0467 0.6574 0.0000
vt 0.0496 0.6574 0.0000
vt 0.0496 0.6666 0.0000
vt 0.0500 0.6666 0.0000
vt 0.0500 0.6574 0.0000
vt 0.0573 0.6502 0.0000
vt 0.0375 0.6502 0.0000
vt 0.0375 0.6476 0.0000
vt 0.0337 0.6461 0.0000
vt 0.0595 0.6461 0.0000
vt 0.0536 0.6574 0.0000
vt 0.0536 0.6666 0.0000
vt 0.0539 0.6666 0.0000
vt 0.0539 0.6574 0.0000
# 31 texture coords

g stackgirderc
f 1/1/1 2/2/1 3/3/1 4/4/1 
f 4/4/2 3/3/2 5/5/2 6/6/2 
f 7/7/2 8/8/2 9/9/2 10/10/2 
f 10/11/1 9/12/1 11/13/1 12/14/1 
f 12/15/2 11/16/2 13/17/2 14/18/2 
f 15/19/3 16/20/3 17/21/3 18/22/3 
f 18/23/1 17/24/1 19/25/1 20/12/1 
f 20/26/3 19/27/3 21/7/3 22/8/3 
f 23/28/3 24/29/3 2/30/3 1/31/3 
f 4/1/4 6/1/4 7/1/4 22/1/5 
f 10/1/6 12/1/6 14/1/6 20/1/6 
f 15/1/6 18/1/6 20/1/6 14/1/6 
f 7/1/4 10/1/6 20/1/6 22/1/5 
f 22/1/5 23/1/6 1/1/4 4/1/4 
f 19/1/7 17/1/7 16/1/7 13/1/7 
f 13/1/7 11/1/7 9/1/7 19/1/7 
f 19/1/7 9/1/7 8/1/7 21/1/8 
f 8/1/7 5/1/7 3/1/7 21/1/8 
f 2/1/7 24/1/7 21/1/8 3/1/7 
f 25/1/1 26/2/1 27/3/1 28/4/1 
f 28/4/2 27/3/2 29/5/2 30/6/2 
f 31/7/2 32/8/2 33/9/2 34/10/2 
f 34/11/1 33/12/1 35/13/1 36/14/1 
f 36/15/2 35/16/2 37/17/2 38/18/2 
f 39/19/3 40/20/3 41/21/3 42/22/3 
f 42/23/1 41/24/1 43/25/1 44/12/1 
f 44/26/3 43/27/3 45/7/3 46/8/3 
f 47/28/3 48/29/3 26/30/3 25/31/3 
f 28/1/4 30/1/4 31/1/4 46/1/5 
f 34/1/6 36/1/6 38/1/6 44/1/6 
f 39/1/6 42/1/6 44/1/6 38/1/6 
f 31/1/4 34/1/6 44/1/6 46/1/5 
f 46/1/5 47/1/6 25/1/4 28/1/4 
f 43/1/7 41/1/7 40/1/7 37/1/7 
f 37/1/7 35/1/7 33/1/7 43/1/7 
f 43/1/7 33/1/7 32/1/7 45/1/8 
f 32/1/7 29/1/7 27/1/7 45/1/8 
f 26/1/7 48/1/7 45/1/8 27/1/7 
f 49/1/1 50/2/1 51/3/1 52/4/1 
f 52/4/2 51/3/2 53/5/2 54/6/2 
f 55/7/2 56/8/2 57/9/2 58/10/2 
f 58/11/1 57/12/1 59/13/1 60/14/1 
f 60/15/2 59/16/2 61/17/2 62/18/2 
f 63/19/3 64/20/3 65/21/3 66/22/3 
f 66/23/1 65/24/1 67/25/1 68/12/1 
f 68/26/3 67/27/3 69/7/3 70/8/3 
f 71/28/3 72/29/3 50/30/3 49/31/3 
f 52/1/4 54/1/4 55/1/4 70/1/5 
f 58/1/6 60/1/6 62/1/6 68/1/6 
f 63/1/6 66/1/6 68/1/6 62/1/6 
f 55/1/4 58/1/6 68/1/6 70/1/5 
f 70/1/5 71/1/6 49/1/4 52/1/4 
f 67/1/7 65/1/7 64/1/7 61/1/7 
f 61/1/7 59/1/7 57/1/7 67/1/7 
f 67/1/7 57/1/7 56/1/7 69/1/8 
f 56/1/7 53/1/7 51/1/7 69/1/8 
f 50/1/7 72/1/7 69/1/8 51/1/7 
f 73/1/1 74/2/1 75/3/1 76/4/1 
f 76/4/2 75/3/2 77/5/2 78/6/2 
f 79/7/2 80/8/2 81/9/2 82/10/2 
f 82/11/1 81/12/1 83/13/1 84/14/1 
f 84/15/2 83/16/2 85/17/2 86/18/2 
f 87/19/3 88/20/3 89/21/3 90/22/3 
f 90/23/1 89/24/1 91/25/1 92/12/1 
f 92/26/3 91/27/3 93/7/3 94/8/3 
f 95/28/3 96/29/3 74/30/3 73/31/3 
f 76/1/4 78/1/4 79/1/4 94/1/5 
f 82/1/6 84/1/6 86/1/6 92/1/6 
f 87/1/6 90/1/6 92/1/6 86/1/6 
f 79/1/4 82/1/6 92/1/6 94/1/5 
f 94/1/5 95/1/6 73/1/4 76/1/4 
f 91/1/7 89/1/7 88/1/7 85/1/7 
f 85/1/7 83/1/7 81/1/7 91/1/7 
f 91/1/7 81/1/7 80/1/7 93/1/8 
f 80/1/7 77/1/7 75/1/7 93/1/8 
f 74/1/7 96/1/7 93/1/8 75/1/7 
# 76 polygons

