# 3ds Max Wavefront OBJ Exporter v0.97b - (c)2007 guruware
# File Created: 21.03.2014 15:42:54

#
# object WorkshopPressPress
#

v  -23.9226 66.6559 4.6378
v  22.6608 66.6559 4.6378
v  23.1608 66.6559 5.1378
v  22.6608 66.6559 38.6313
v  23.1608 66.6559 38.1313
v  -23.9226 66.6559 38.6313
v  -24.4226 66.6559 38.1313
v  -24.4226 66.6559 5.1378
v  22.6608 71.3234 38.1313
v  22.6608 71.3234 5.1378
v  -23.9226 71.3234 5.1378
v  -23.9226 71.3234 38.1313
v  -24.4226 70.8234 38.1313
v  -24.4226 70.8234 5.1378
v  22.6608 70.8234 38.6313
v  -23.9226 70.8234 38.6313
v  23.1608 70.8234 5.1378
v  23.1608 70.8234 38.1313
v  -23.9226 70.8234 4.6378
v  22.6608 70.8234 4.6378
v  -0.5674 69.9693 24.9663
v  1.5517 69.9693 24.2778
v  1.5517 87.2778 24.2778
v  -0.5674 87.2778 24.9663
v  2.8613 69.9693 22.4752
v  2.8613 87.2778 22.4752
v  2.8613 69.9693 20.2471
v  2.8613 87.2778 20.2471
v  1.5517 69.9693 18.4445
v  1.5517 87.2778 18.4445
v  -0.5674 69.9693 17.7560
v  -0.5674 87.2778 17.7560
v  -2.6864 69.9693 18.4445
v  -2.6864 87.2778 18.4445
v  -3.9961 69.9693 20.2471
v  -3.9961 87.2778 20.2471
v  -3.9961 69.9693 22.4752
v  -3.9961 87.2778 22.4752
v  -2.6864 69.9693 24.2778
v  -2.6864 87.2778 24.2778
v  13.0367 69.9693 24.9663
v  15.1557 69.9693 24.2778
v  15.1557 87.2778 24.2778
v  13.0367 87.2778 24.9663
v  16.4654 69.9693 22.4752
v  16.4654 87.2778 22.4752
v  16.4654 69.9693 20.2471
v  16.4654 87.2778 20.2471
v  15.1557 69.9693 18.4445
v  15.1557 87.2778 18.4445
v  13.0367 69.9693 17.7560
v  13.0367 87.2778 17.7560
v  10.9176 69.9693 18.4445
v  10.9176 87.2778 18.4445
v  9.6080 69.9693 20.2471
v  9.6080 87.2778 20.2471
v  9.6080 69.9693 22.4752
v  9.6080 87.2778 22.4752
v  10.9176 69.9693 24.2778
v  10.9176 87.2778 24.2778
v  21.0371 71.3234 37.3857
v  21.9859 71.3234 36.8380
v  21.9859 72.4226 36.8380
v  21.0371 72.4226 37.3857
v  21.9859 71.3234 35.7425
v  21.9859 72.4226 35.7425
v  21.0371 71.3234 35.1947
v  21.0371 72.4226 35.1947
v  20.0884 71.3234 35.7425
v  20.0884 72.4226 35.7425
v  20.0884 71.3234 36.8380
v  20.0884 72.4226 36.8380
v  -22.1495 71.3234 37.3857
v  -21.2007 71.3234 36.8380
v  -21.2007 72.4226 36.8380
v  -22.1495 72.4226 37.3857
v  -21.2007 71.3234 35.7425
v  -21.2007 72.4226 35.7425
v  -22.1495 71.3234 35.1947
v  -22.1495 72.4226 35.1947
v  -23.0982 71.3234 35.7425
v  -23.0982 72.4226 35.7425
v  -23.0982 71.3234 36.8380
v  -23.0982 72.4226 36.8380
v  -14.1714 69.9693 24.9663
v  -12.0523 69.9693 24.2778
v  -12.0523 87.2778 24.2778
v  -14.1714 87.2778 24.9663
v  -10.7427 69.9693 22.4752
v  -10.7427 87.2778 22.4752
v  -10.7427 69.9693 20.2471
v  -10.7427 87.2778 20.2471
v  -12.0523 69.9693 18.4445
v  -12.0523 87.2778 18.4445
v  -14.1714 69.9693 17.7560
v  -14.1714 87.2778 17.7560
v  -16.2904 69.9693 18.4445
v  -16.2904 87.2778 18.4445
v  -17.6001 69.9693 20.2471
v  -17.6001 87.2778 20.2471
v  -17.6001 69.9693 22.4752
v  -17.6001 87.2778 22.4752
v  -16.2904 69.9693 24.2778
v  -16.2904 87.2778 24.2778
v  -22.1495 71.3234 7.8893
v  -21.2007 71.3234 7.3416
v  -21.2007 72.4226 7.3416
v  -22.1495 72.4226 7.8893
v  -21.2007 71.3234 6.2461
v  -21.2007 72.4226 6.2461
v  -22.1495 71.3234 5.6983
v  -22.1495 72.4226 5.6983
v  -23.0982 71.3234 6.2461
v  -23.0982 72.4226 6.2461
v  -23.0982 71.3234 7.3416
v  -23.0982 72.4226 7.3416
v  21.0371 71.3234 7.8894
v  21.9859 71.3234 7.3416
v  21.9859 72.4226 7.3416
v  21.0371 72.4226 7.8894
v  21.9859 71.3234 6.2461
v  21.9859 72.4226 6.2461
v  21.0371 71.3234 5.6983
v  21.0371 72.4226 5.6983
v  20.0884 71.3234 6.2461
v  20.0884 72.4226 6.2461
v  20.0884 71.3234 7.3416
v  20.0884 72.4226 7.3416
# 128 vertices

vn 0.0000 -1.0000 -0.0000
vn 0.0000 1.0000 -0.0000
vn -1.0000 0.0000 -0.0000
vn -0.0000 0.0000 1.0000
vn 1.0000 0.0000 0.0000
vn 0.0000 0.0000 -1.0000
vn -0.5774 0.5774 -0.5774
vn -0.5774 0.5774 0.5774
vn 0.5774 0.5774 -0.5774
vn 0.5774 0.5774 0.5774
vn -0.7071 0.7071 -0.0000
vn -0.0000 0.7071 0.7071
vn 0.7071 0.7071 0.0000
vn 0.0000 0.7071 -0.7071
vn -0.7071 0.0000 0.7071
vn -0.7071 0.0000 -0.7071
vn 0.7071 0.0000 0.7071
vn 0.7071 0.0000 -0.7071
vn 0.0000 0.0000 1.0000
vn 0.5878 0.0000 0.8090
vn 0.9511 0.0000 0.3090
vn 0.9511 0.0000 -0.3090
vn 0.5878 0.0000 -0.8090
vn -0.5878 0.0000 -0.8090
vn -0.9511 0.0000 -0.3090
vn -0.9511 0.0000 0.3090
vn -0.5878 0.0000 0.8090
vn 0.8660 0.0000 0.5000
vn 0.8660 0.0000 -0.5000
vn -0.8660 0.0000 -0.5000
vn -0.8660 0.0000 0.5000
# 31 vertex normals

vt 0.1973 0.8511 0.0000
vt 0.1974 0.8511 0.0000
vt 0.2090 0.8511 0.0000
vt 0.2092 0.8511 0.0000
vt 0.2092 0.8511 0.0000
vt 0.2090 0.8511 0.0000
vt 0.1974 0.8511 0.0000
vt 0.1973 0.8511 0.0000
vt 0.1974 0.8552 0.0000
vt 0.1974 0.8552 0.0000
vt 0.2090 0.8552 0.0000
vt 0.2090 0.8552 0.0000
vt 0.1973 0.8548 0.0000
vt 0.1973 0.8548 0.0000
vt 0.2090 0.8548 0.0000
vt 0.1974 0.8548 0.0000
vt 0.2092 0.8548 0.0000
vt 0.2092 0.8548 0.0000
vt 0.1974 0.8548 0.0000
vt 0.2090 0.8548 0.0000
vt 0.2273 0.8984 0.0000
vt 0.2273 0.8829 0.0000
vt 0.2427 0.8829 0.0000
vt 0.2427 0.8984 0.0000
vt 0.1116 0.9422 1.0000
vt 0.1133 0.9422 1.0000
vt 0.1150 0.9422 1.0000
vt 0.0998 0.9422 1.0000
vt 0.1015 0.9422 1.0000
vt 0.1032 0.9422 1.0000
vt 0.1048 0.9422 1.0000
vt 0.1065 0.9422 1.0000
vt 0.1082 0.9422 1.0000
vt 0.1099 0.9422 1.0000
vt 0.1116 0.9649 1.0000
vt 0.1133 0.9649 1.0000
vt 0.1150 0.9649 1.0000
vt 0.0998 0.9649 1.0000
vt 0.1015 0.9649 1.0000
vt 0.1032 0.9649 1.0000
vt 0.1048 0.9649 1.0000
vt 0.1065 0.9649 1.0000
vt 0.1082 0.9649 1.0000
vt 0.1099 0.9649 1.0000
vt 0.1166 0.9422 1.0000
vt 0.1166 0.9649 1.0000
vt 0.1116 0.9422 1.0000
vt 0.1133 0.9422 1.0000
vt 0.1150 0.9422 1.0000
vt 0.0998 0.9422 1.0000
vt 0.1015 0.9422 1.0000
vt 0.1032 0.9422 1.0000
vt 0.1048 0.9422 1.0000
vt 0.1065 0.9422 1.0000
vt 0.1082 0.9422 1.0000
vt 0.1099 0.9422 1.0000
vt 0.1116 0.9649 1.0000
vt 0.1133 0.9649 1.0000
vt 0.1150 0.9649 1.0000
vt 0.0998 0.9649 1.0000
vt 0.1015 0.9649 1.0000
vt 0.1032 0.9649 1.0000
vt 0.1048 0.9649 1.0000
vt 0.1065 0.9649 1.0000
vt 0.1082 0.9649 1.0000
vt 0.1099 0.9649 1.0000
vt 0.1166 0.9422 1.0000
vt 0.1166 0.9649 1.0000
vt 0.1122 0.9519 0.0000
vt 0.1152 0.9467 0.0000
vt 0.1061 0.9519 0.0000
vt 0.1031 0.9467 0.0000
vt 0.1061 0.9415 0.0000
vt 0.1122 0.9415 0.0000
vt 0.1122 0.9519 0.0000
vt 0.1152 0.9467 0.0000
vt 0.1061 0.9519 0.0000
vt 0.1031 0.9467 0.0000
vt 0.1061 0.9415 0.0000
vt 0.1122 0.9415 0.0000
vt 0.1122 0.9519 0.0000
vt 0.1152 0.9467 0.0000
vt 0.1061 0.9519 0.0000
vt 0.1031 0.9467 0.0000
vt 0.1061 0.9415 0.0000
vt 0.1122 0.9415 0.0000
vt 0.1122 0.9519 0.0000
vt 0.1152 0.9467 0.0000
vt 0.1061 0.9519 0.0000
vt 0.1031 0.9467 0.0000
vt 0.1061 0.9415 0.0000
vt 0.1122 0.9415 0.0000
vt 0.1116 0.9422 1.0000
vt 0.1133 0.9422 1.0000
vt 0.1150 0.9422 1.0000
vt 0.0998 0.9422 1.0000
vt 0.1015 0.9422 1.0000
vt 0.1032 0.9422 1.0000
vt 0.1048 0.9422 1.0000
vt 0.1065 0.9422 1.0000
vt 0.1082 0.9422 1.0000
vt 0.1099 0.9422 1.0000
vt 0.1116 0.9649 1.0000
vt 0.1133 0.9649 1.0000
vt 0.1150 0.9649 1.0000
vt 0.0998 0.9649 1.0000
vt 0.1015 0.9649 1.0000
vt 0.1032 0.9649 1.0000
vt 0.1048 0.9649 1.0000
vt 0.1065 0.9649 1.0000
vt 0.1082 0.9649 1.0000
vt 0.1099 0.9649 1.0000
vt 0.1166 0.9422 1.0000
vt 0.1166 0.9649 1.0000
vt 0.1122 0.9519 0.0000
vt 0.1152 0.9467 0.0000
vt 0.1061 0.9519 0.0000
vt 0.1031 0.9467 0.0000
vt 0.1061 0.9415 0.0000
vt 0.1122 0.9415 0.0000
vt 0.1122 0.9519 0.0000
vt 0.1152 0.9467 0.0000
vt 0.1061 0.9519 0.0000
vt 0.1031 0.9467 0.0000
vt 0.1061 0.9415 0.0000
vt 0.1122 0.9415 0.0000
vt 0.1122 0.9519 0.0000
vt 0.1152 0.9467 0.0000
vt 0.1061 0.9519 0.0000
vt 0.1031 0.9467 0.0000
vt 0.1061 0.9415 0.0000
vt 0.1122 0.9415 0.0000
vt 0.1122 0.9519 0.0000
vt 0.1152 0.9467 0.0000
vt 0.1061 0.9519 0.0000
vt 0.1031 0.9467 0.0000
vt 0.1061 0.9415 0.0000
vt 0.1122 0.9415 0.0000
# 138 texture coords

g WorkshopPressPress
s 2
f 1/2/1 2/3/1 3/4/1 4/6/1 
f 3/4/1 5/5/1 4/6/1 
f 4/6/1 6/7/1 7/8/1 1/2/1 
f 8/1/1 1/2/1 7/8/1 
s 4
f 9/23/2 10/24/2 11/21/2 12/22/2 
s 8
f 13/13/3 14/14/3 8/1/3 7/8/3 
s 16
f 15/15/4 16/16/4 6/7/4 4/6/4 
s 32
f 17/17/5 18/18/5 5/5/5 3/4/5 
s 64
f 19/19/6 20/20/6 2/3/6 1/2/6 
s off
f 14/14/7 11/9/7 19/19/7 
f 16/16/8 12/10/8 13/13/8 
f 20/20/9 10/12/9 17/17/9 
f 18/18/10 9/11/10 15/15/10 
f 11/9/11 14/14/11 13/13/11 12/10/11 
f 12/10/12 16/16/12 15/15/12 9/11/12 
f 9/11/13 18/18/13 17/17/13 10/12/13 
f 10/12/14 20/20/14 19/19/14 11/9/14 
f 7/8/15 6/7/15 16/16/15 13/13/15 
f 14/14/16 19/19/16 1/2/16 8/1/16 
f 4/6/17 5/5/17 18/18/17 15/15/17 
f 3/4/18 2/3/18 20/20/18 17/17/18 
s 8
f 21/25/19 22/26/20 23/36/20 24/35/19 
f 22/26/20 25/27/21 26/37/21 23/36/20 
f 25/27/21 27/45/22 28/46/22 26/37/21 
f 27/28/22 29/29/23 30/39/23 28/38/22 
f 29/29/23 31/30/6 32/40/6 30/39/23 
f 31/30/6 33/31/24 34/41/24 32/40/6 
f 33/31/24 35/32/25 36/42/25 34/41/24 
f 35/32/25 37/33/26 38/43/26 36/42/25 
f 37/33/26 39/34/27 40/44/27 38/43/26 
f 39/34/27 21/25/19 24/35/19 40/44/27 
f 41/47/4 42/48/20 43/58/20 44/57/4 
f 42/48/20 45/49/21 46/59/21 43/58/20 
f 45/49/21 47/67/22 48/68/22 46/59/21 
f 47/50/22 49/51/23 50/61/23 48/60/22 
f 49/51/23 51/52/6 52/62/6 50/61/23 
f 51/52/6 53/53/24 54/63/24 52/62/6 
f 53/53/24 55/54/25 56/64/25 54/63/24 
f 55/54/25 57/55/26 58/65/26 56/64/25 
f 57/55/26 59/56/27 60/66/27 58/65/26 
f 59/56/27 41/47/4 44/57/4 60/66/27 
f 61/70/19 62/69/28 63/75/28 64/76/19 
f 62/69/28 65/71/29 66/77/29 63/75/28 
f 65/71/29 67/72/6 68/78/6 66/77/29 
f 67/72/6 69/73/30 70/79/30 68/78/6 
f 69/73/30 71/74/31 72/80/31 70/79/30 
f 71/74/31 61/70/19 64/76/19 72/80/31 
s 1
f 64/76/2 63/75/2 66/77/2 70/79/2 
f 66/77/2 68/78/2 70/79/2 
f 72/80/2 64/76/2 70/79/2 
s 8
f 73/82/19 74/81/28 75/87/28 76/88/19 
f 74/81/28 77/83/29 78/89/29 75/87/28 
f 77/83/29 79/84/6 80/90/6 78/89/29 
f 79/84/6 81/85/30 82/91/30 80/90/6 
f 81/85/30 83/86/31 84/92/31 82/91/30 
f 83/86/31 73/82/19 76/88/19 84/92/31 
s 1
f 76/88/2 75/87/2 78/89/2 82/91/2 
f 78/89/2 80/90/2 82/91/2 
f 84/92/2 76/88/2 82/91/2 
s 8
f 85/93/4 86/94/20 87/104/20 88/103/4 
f 86/94/20 89/95/21 90/105/21 87/104/20 
f 89/95/21 91/113/22 92/114/22 90/105/21 
f 91/96/22 93/97/23 94/107/23 92/106/22 
f 93/97/23 95/98/6 96/108/6 94/107/23 
f 95/98/6 97/99/24 98/109/24 96/108/6 
f 97/99/24 99/100/25 100/110/25 98/109/24 
f 99/100/25 101/101/26 102/111/26 100/110/25 
f 101/101/26 103/102/27 104/112/27 102/111/26 
f 103/102/27 85/93/4 88/103/4 104/112/27 
f 105/116/19 106/115/28 107/121/28 108/122/19 
f 106/115/28 109/117/29 110/123/29 107/121/28 
f 109/117/29 111/118/6 112/124/6 110/123/29 
f 111/118/6 113/119/30 114/125/30 112/124/6 
f 113/119/30 115/120/31 116/126/31 114/125/30 
f 115/120/31 105/116/19 108/122/19 116/126/31 
s 1
f 108/122/2 107/121/2 110/123/2 114/125/2 
f 110/123/2 112/124/2 114/125/2 
f 116/126/2 108/122/2 114/125/2 
s 8
f 117/128/19 118/127/28 119/133/28 120/134/19 
f 118/127/28 121/129/29 122/135/29 119/133/28 
f 121/129/29 123/130/6 124/136/6 122/135/29 
f 123/130/6 125/131/30 126/137/30 124/136/6 
f 125/131/30 127/132/31 128/138/31 126/137/30 
f 127/132/31 117/128/19 120/134/19 128/138/31 
s 1
f 120/134/2 119/133/2 122/135/2 126/137/2 
f 122/135/2 124/136/2 126/137/2 
f 128/138/2 120/134/2 126/137/2 
# 73 polygons - 14 triangles

